<?xml version="1.0" standalone="no"?>
<!DOCTYPE svg PUBLIC "-//W3C//DTD SVG 1.1//EN" "http://www.w3.org/Graphics/SVG/1.1/DTD/svg11.dtd">
<svg width="119" height="22" viewBox="-79 -12 119 22" xmlns="http://www.w3.org/2000/svg" version="1.1">
<title>OpenSCAD Model</title>
<path d="
M -78.6127,-7.55385 L -76.0194,-4.96053 L -26.7524,-4.96053 L -26.7524,-8.24759 L -30,-11.4952 L -30,-11.4952
 L -33.7133,-11.4498 L -37.375,-11.405 L -41.1421,-11.2667 L -44.75,-11.1343 L -48.5782,-10.9002 L -52.125,-10.6833
 L -56.0294,-10.349 L -59.5,-10.0518 L -63.5097,-9.61039 L -66.875,-9.23992 L -71.0512,-8.678 L -74.25,-8.2476
 z
M -39.8,9.95 L -9.98423,9.95 L -9.67221,8.96044 L -9.34443,7.92088 L -7.40636,5.93263 L -4.27051,4.12215
 L -0.0739174,2.56855 L 5,1.33975 L 10.7295,0.489434 L 15,0.18686 L 15,0.0263157 L 39.8074,0.0263157
 L 39.8074,-0 L 39.8074,-0.980171 L 39.8074,-0.980171 L 38.2776,-2.90285 L 35.2768,-4.71397 L 30.9204,-6.34393
 L 25.3757,-7.7301 L 18.8559,-8.81921 L 18.8559,-8.81921 L 18.8559,-8.81921 L 11.6114,-9.5694 L 3.92068,-9.95185
 L 3.92068,-9.95185 L -3.92068,-9.95185 L -3.92068,-9.95185 L -11.6114,-9.5694 L -18.8559,-8.81921 L -18.8559,-8.81921
 L -18.8559,-8.81921 L -20.4179,-8.55829 L -25.2985,-0.104736 L -39.8,-0.104736 z
" stroke="black" fill="lightgray" stroke-width="0.5"/></svg>
