<?xml version="1.0" standalone="no"?>
<!DOCTYPE svg PUBLIC "-//W3C//DTD SVG 1.1//EN" "http://www.w3.org/Graphics/SVG/1.1/DTD/svg11.dtd">
<svg width="1153" height="205" viewBox="-853 -90 1153 205" xmlns="http://www.w3.org/2000/svg" version="1.1">
<title>OpenSCAD Model</title>
<path d="
M -852.385,-66.6493 L -830.715,-44.9794 L -786.505,-43.6561 L -717.197,-42.2699 L -717.197,-42.2699 L -717.197,-42.2699
 L -635.698,-41.1808 L -545.142,-40.4306 L -545.142,-40.4306 L -545.142,-40.4306 L -449.008,-40.0482 L -388.238,-40.0482
 L -365.166,-40.4306 L -365.166,-40.4306 L -365.166,-40.4306 L -343.432,-41.1808 L -323.873,-42.2699 L -323.873,-42.2699
 L -323.873,-42.2699 L -307.239,-43.6561 L -294.17,-45.286 L -294.17,-45.286 L -285.167,-47.0972 L -285.167,-47.0972
 L -285.167,-47.0972 L -280.578,-49.0198 L -280.578,-49.8947 L -280.578,-49.8947 L -280.578,-53.9207 L -285.167,-61.6114
 L -285.167,-61.6114 L -294.169,-68.8559 L -294.169,-68.8559 L -307.239,-75.3757 L -307.239,-75.3757 L -323.873,-80.9204
 L -343.432,-85.2768 L -343.432,-85.2768 L -365.166,-88.2776 L -365.166,-88.2776 L -365.166,-88.2776 L -388.238,-89.8074
 L -449.009,-89.8074 L -545.142,-88.2776 L -545.142,-88.2776 L -545.142,-88.2776 L -635.698,-85.2768 L -635.698,-85.2768
 L -717.197,-80.9204 L -786.505,-75.3757 L -786.505,-75.3757 L -840.961,-68.8559 L -840.961,-68.8559 z
M -519.037,56.3711 L -516.816,60 L -450,60 L -450,60.3287 L -437.457,60.3287 L -412.918,62.9366
 L -390,68.0385 L -369.704,75.4113 L -352.918,84.7329 L -340.375,95.5958 L -332.622,107.525 L -331.117,114.687
 L -300.397,114.687 L -300.397,114.687 L -261.943,112.201 L -225.721,107.325 L -225.721,107.325 L -225.721,107.325
 L -193.121,100.246 L -165.398,91.2356 L -165.398,91.2356 L -156.568,86.9405 L -157.607,83.7424 L -158,80
 L -158,80 L -157.607,76.2576 L -156.444,72.6787 L -156.444,72.6787 L -156.444,72.6787 L -154.562,69.4199
 L -152.044,66.6234 L -152.044,66.6234 L -149,64.4115 L -149,64.4115 L -149,64.4115 L -145.562,62.881
 L -141.882,62.0986 L -141.882,62.0986 L -138.118,62.0986 L -138.118,62.0986 L -134.438,62.881 L -131,64.4115
 L -131,64.4115 L -127.956,66.6234 L -127.956,66.6234 L -127.956,66.6234 L -127.528,67.098 L -120.963,56.3711
 L -120.963,46.5694 L -122.282,45.4093 L -107.262,41.8408 L -76.0726,30.7515 L -76.0726,30.7515 L -76.0726,30.7515
 L -60,22.1988 L -60,31.1111 L -57.0954,31.5952 L -42.4257,33.2288 L -42.4257,33.2288 L -26.1256,34.3541
 L -26.1256,34.3541 L -26.1256,34.3541 L -8.82154,34.9278 L 8.82154,34.9278 L 26.1256,34.3541 L 26.1256,34.3541
 L 26.1256,34.3541 L 42.4257,33.2288 L 42.4257,33.2288 L 57.0954,31.5952 L 69.5709,29.5159 L 69.5709,29.5159
 L 78.98,27.169 L 77.059,20 L 270,20 L 270,20 L 285,-0 L 300,-20
 L 298.555,-20 L 298.555,-23.9207 L 287.082,-31.6114 L 287.082,-31.6114 L 264.576,-38.8559 L 231.903,-45.3757
 L 190.318,-50.9204 L 141.419,-55.2768 L 141.419,-55.2768 L 141.419,-55.2768 L 87.0854,-58.2776 L 29.4051,-59.8074
 L 29.4051,-59.8074 L 23.0385,-59.8074 L 23.0385,-69.2753 L 8.82154,-69.9037 L 8.82154,-69.9037 L -8.82154,-69.9037
 L -8.82154,-69.9037 L -26.1256,-69.1388 L -42.4257,-67.6384 L -42.4257,-67.6384 L -42.4257,-67.6384 L -57.0954,-65.4602
 L -69.5709,-62.6879 L -69.5709,-62.6879 L -69.5709,-62.6879 L -79.3729,-59.4279 L -81.2275,-58.433 L -87.0854,-58.2776
 L -141.419,-55.2768 L -141.419,-55.2768 L -141.419,-55.2768 L -190.318,-50.9204 L -231.903,-45.3757 L -264.576,-38.8559
 L -287.082,-31.6114 L -287.082,-31.6114 L -298.555,-23.9207 L -298.555,-20 L -300,-20 L -297.27,-16.3602
 L -297.732,-14.6044 L -305.807,-4.66317 L -318.873,4.38926 L -336.359,12.1572 L -347.689,15.45 L -378.057,16.5071
 L -414.279,19.1328 L -414.279,19.1328 L -414.279,19.1328 L -446.879,22.9446 L -474.602,27.7962 L -474.602,27.7962
 L -474.602,27.7962 L -496.384,33.5011 L -511.388,39.84 L -511.388,39.84 L -519.037,46.5694 z
M -6.15099,-19.8947 L 6.15099,-19.8947 L 6.15099,-19 L -6.15099,-19 z
" stroke="black" fill="lightgray" stroke-width="0.5"/></svg>
