solid OpenSCAD_Model
  facet normal 0 0 -1
    outer loop
      vertex -8 -1.67925 -0.5
      vertex -3 1.67925 -0.5
      vertex -3 -1.67925 -0.5
    endloop
  endfacet
  facet normal -0 0 -1
    outer loop
      vertex -3 1.67925 -0.5
      vertex -8 -1.67925 -0.5
      vertex -8 1.67925 -0.5
    endloop
  endfacet
  facet normal 0 0 -1
    outer loop
      vertex 3 -1.67925 -0.5
      vertex 8 -1.49273 -0.5
      vertex 8 -1.67925 -0.5
    endloop
  endfacet
  facet normal -0 0 -1
    outer loop
      vertex 8 -1.49273 -0.5
      vertex 3 -1.67925 -0.5
      vertex 8 1.49273 -0.5
    endloop
  endfacet
  facet normal 0 0 -1
    outer loop
      vertex 3 1.67925 -0.5
      vertex 8 1.49273 -0.5
      vertex 3 -1.67925 -0.5
    endloop
  endfacet
  facet normal 0 0 -1
    outer loop
      vertex 8 1.49273 -0.5
      vertex 3 1.67925 -0.5
      vertex 8 1.67925 -0.5
    endloop
  endfacet
  facet normal 0 0 -1
    outer loop
      vertex 11.1338 -1.2 -0.5
      vertex 11.4909 1.03504 -0.5
      vertex 11.4909 -1.03504 -0.5
    endloop
  endfacet
  facet normal 0 0 -1
    outer loop
      vertex 11.1338 -1.2 -0.5
      vertex 11.1338 1.2 -0.5
      vertex 11.4909 1.03504 -0.5
    endloop
  endfacet
  facet normal 0 0 -1
    outer loop
      vertex 9.25 -2.07009 -0.5
      vertex 11.1338 1.2 -0.5
      vertex 11.1338 -1.2 -0.5
    endloop
  endfacet
  facet normal 0 0 -1
    outer loop
      vertex 9.25 -2.07009 -0.5
      vertex 9.25 2.07009 -0.5
      vertex 11.1338 1.2 -0.5
    endloop
  endfacet
  facet normal 0 0 -1
    outer loop
      vertex 8 -1.49273 -0.5
      vertex 9.25 2.07009 -0.5
      vertex 9.25 -2.07009 -0.5
    endloop
  endfacet
  facet normal 0 0 -1
    outer loop
      vertex 9.25 2.07009 -0.5
      vertex 8 -1.49273 -0.5
      vertex 8 1.49273 -0.5
    endloop
  endfacet
  facet normal 1 0 0
    outer loop
      vertex 8 2 0
      vertex 8 1.2 0.943653
      vertex 8 1.82265 0
    endloop
  endfacet
  facet normal 1 0 0
    outer loop
      vertex 8 1 1.55885
      vertex 8 1.2 0.943653
      vertex 8 2 0
    endloop
  endfacet
  facet normal 1 0 0
    outer loop
      vertex 8 1.2 0.943653
      vertex 8 1 1.55885
      vertex 8 0.794078 1.55885
    endloop
  endfacet
  facet normal 1 -0 0
    outer loop
      vertex 8 1.82265 0
      vertex 8 1.67925 -0.5
      vertex 8 2 0
    endloop
  endfacet
  facet normal 1 0 -0
    outer loop
      vertex 8 1.67925 -0.5
      vertex 8 1.82265 0
      vertex 8 1.49273 -0.5
    endloop
  endfacet
  facet normal 1 -0 0
    outer loop
      vertex 8 -1 1.55885
      vertex 8 -1.2 0.943653
      vertex 8 -0.794078 1.55885
    endloop
  endfacet
  facet normal 1 0 0
    outer loop
      vertex 8 -2 0
      vertex 8 -1.2 0.943653
      vertex 8 -1 1.55885
    endloop
  endfacet
  facet normal 1 0 0
    outer loop
      vertex 8 -1.2 0.943653
      vertex 8 -2 0
      vertex 8 -1.82265 0
    endloop
  endfacet
  facet normal 1 0 0
    outer loop
      vertex 8 -1.82265 0
      vertex 8 -1.67925 -0.5
      vertex 8 -1.49273 -0.5
    endloop
  endfacet
  facet normal 1 0 0
    outer loop
      vertex 8 -1.67925 -0.5
      vertex 8 -1.82265 0
      vertex 8 -2 0
    endloop
  endfacet
  facet normal -1 0 0
    outer loop
      vertex 8 0.794078 1.55885
      vertex 8 -0.622649 1.81865
      vertex 8 0.622649 1.81865
    endloop
  endfacet
  facet normal -1 0 -0
    outer loop
      vertex 8 -0.622649 1.81865
      vertex 8 0.794078 1.55885
      vertex 8 -0.794078 1.55885
    endloop
  endfacet
  facet normal 0.359715 -0.778807 -0.513872
    outer loop
      vertex 11.1338 -1.2 -0.5
      vertex 9.25 -2.4 0
      vertex 9.25 -2.07009 -0.5
    endloop
  endfacet
  facet normal 0.35971 -0.778803 -0.513882
    outer loop
      vertex 9.25 -2.4 0
      vertex 11.1338 -1.2 -0.5
      vertex 11.8481 -1.2 0
    endloop
  endfacet
  facet normal -0.359714 -0.778804 0.513878
    outer loop
      vertex 9.25 -2.4 0
      vertex 8 -1.2 0.943653
      vertex 8 -1.82265 0
    endloop
  endfacet
  facet normal -0.359714 -0.778804 0.513878
    outer loop
      vertex 8 -1.2 0.943653
      vertex 9.25 -2.4 0
      vertex 9.25 -1.2 1.81865
    endloop
  endfacet
  facet normal 0.359711 -0.778805 0.513879
    outer loop
      vertex 9.25 -1.2 1.81865
      vertex 9.25 -2.4 0
      vertex 11.8481 -1.2 0
    endloop
  endfacet
  facet normal 0.359742 0.778758 -0.513928
    outer loop
      vertex 11.4909 1.03504 -0.5
      vertex 11.1338 1.2 -0.5
      vertex 11.8481 1.2 0
    endloop
  endfacet
  facet normal -0.359712 0.778797 0.513889
    outer loop
      vertex 9.25 1.2 1.81865
      vertex 8 0.794078 1.55885
      vertex 8 0.622649 1.81865
    endloop
  endfacet
  facet normal -0.359712 0.778806 0.513876
    outer loop
      vertex 8 0.794078 1.55885
      vertex 9.25 1.2 1.81865
      vertex 8 1.2 0.943653
    endloop
  endfacet
  facet normal -0.359715 0.778807 -0.513872
    outer loop
      vertex 9.25 2.07009 -0.5
      vertex 8 1.82265 0
      vertex 9.25 2.4 0
    endloop
  endfacet
  facet normal -0.359718 0.778799 -0.513883
    outer loop
      vertex 8 1.82265 0
      vertex 9.25 2.07009 -0.5
      vertex 8 1.49273 -0.5
    endloop
  endfacet
  facet normal -0.359714 0.778804 0.513878
    outer loop
      vertex 9.25 2.4 0
      vertex 8 1.2 0.943653
      vertex 9.25 1.2 1.81865
    endloop
  endfacet
  facet normal -0.359714 0.778804 0.513878
    outer loop
      vertex 8 1.2 0.943653
      vertex 9.25 2.4 0
      vertex 8 1.82265 0
    endloop
  endfacet
  facet normal 0.81372 -0 0.581257
    outer loop
      vertex 10.549 -0.599999 1.81865
      vertex 11.8481 1.2 0
      vertex 10.549 0.599999 1.81865
    endloop
  endfacet
  facet normal 0.81372 0 0.581257
    outer loop
      vertex 11.8481 1.2 0
      vertex 10.549 -0.599999 1.81865
      vertex 11.8481 -1.2 0
    endloop
  endfacet
  facet normal 0.35971 0.778803 -0.513882
    outer loop
      vertex 11.1338 1.2 -0.5
      vertex 9.25 2.4 0
      vertex 11.8481 1.2 0
    endloop
  endfacet
  facet normal 0.359715 0.778807 -0.513872
    outer loop
      vertex 9.25 2.4 0
      vertex 11.1338 1.2 -0.5
      vertex 9.25 2.07009 -0.5
    endloop
  endfacet
  facet normal 0.359711 0.778805 0.513879
    outer loop
      vertex 9.25 2.4 0
      vertex 9.25 1.2 1.81865
      vertex 11.8481 1.2 0
    endloop
  endfacet
  facet normal -0.359712 -0.778797 0.513889
    outer loop
      vertex 8 -0.794078 1.55885
      vertex 9.25 -1.2 1.81865
      vertex 8 -0.622649 1.81865
    endloop
  endfacet
  facet normal -0.359712 -0.778806 0.513876
    outer loop
      vertex 9.25 -1.2 1.81865
      vertex 8 -0.794078 1.55885
      vertex 8 -1.2 0.943653
    endloop
  endfacet
  facet normal 0.35972 -0.778792 0.513891
    outer loop
      vertex 10.549 -0.599999 1.81865
      vertex 9.25 -1.2 1.81865
      vertex 11.8481 -1.2 0
    endloop
  endfacet
  facet normal 0 0 1
    outer loop
      vertex 9.25 1.2 1.81865
      vertex 10.549 -0.599999 1.81865
      vertex 10.549 0.599999 1.81865
    endloop
  endfacet
  facet normal 0 0 1
    outer loop
      vertex 9.25 1.2 1.81865
      vertex 9.25 -1.2 1.81865
      vertex 10.549 -0.599999 1.81865
    endloop
  endfacet
  facet normal -0 0 1
    outer loop
      vertex 8 0.622649 1.81865
      vertex 9.25 -1.2 1.81865
      vertex 9.25 1.2 1.81865
    endloop
  endfacet
  facet normal 0 0 1
    outer loop
      vertex 9.25 -1.2 1.81865
      vertex 8 0.622649 1.81865
      vertex 8 -0.622649 1.81865
    endloop
  endfacet
  facet normal 0.35972 0.778792 0.513891
    outer loop
      vertex 11.8481 1.2 0
      vertex 9.25 1.2 1.81865
      vertex 10.549 0.599999 1.81865
    endloop
  endfacet
  facet normal 0.813689 0 -0.5813
    outer loop
      vertex 11.8481 1.2 0
      vertex 11.4909 -1.03504 -0.5
      vertex 11.4909 1.03504 -0.5
    endloop
  endfacet
  facet normal 0.813689 0 -0.5813
    outer loop
      vertex 11.4909 -1.03504 -0.5
      vertex 11.8481 1.2 0
      vertex 11.8481 -1.2 0
    endloop
  endfacet
  facet normal 0.359742 -0.778758 -0.513928
    outer loop
      vertex 11.8481 -1.2 0
      vertex 11.1338 -1.2 -0.5
      vertex 11.4909 -1.03504 -0.5
    endloop
  endfacet
  facet normal -0.359712 -0.778801 -0.513884
    outer loop
      vertex 8 -1.49273 -0.5
      vertex 9.25 -2.4 0
      vertex 8 -1.82265 0
    endloop
  endfacet
  facet normal -0.359721 -0.778805 -0.513871
    outer loop
      vertex 9.25 -2.4 0
      vertex 8 -1.49273 -0.5
      vertex 9.25 -2.07009 -0.5
    endloop
  endfacet
  facet normal -0 0 1
    outer loop
      vertex -8 1 1.55885
      vertex -3 -1 1.55885
      vertex -3 1 1.55885
    endloop
  endfacet
  facet normal 0 0 1
    outer loop
      vertex -3 -1 1.55885
      vertex -8 1 1.55885
      vertex -8 -1 1.55885
    endloop
  endfacet
  facet normal -0 0 1
    outer loop
      vertex 3 1 1.55885
      vertex 8 0.794078 1.55885
      vertex 8 1 1.55885
    endloop
  endfacet
  facet normal 0 0 1
    outer loop
      vertex 8 0.794078 1.55885
      vertex 3 1 1.55885
      vertex 8 -0.794078 1.55885
    endloop
  endfacet
  facet normal 0 0 1
    outer loop
      vertex 3 -1 1.55885
      vertex 8 -0.794078 1.55885
      vertex 3 1 1.55885
    endloop
  endfacet
  facet normal 0 0 1
    outer loop
      vertex 8 -0.794078 1.55885
      vertex 3 -1 1.55885
      vertex 8 -1 1.55885
    endloop
  endfacet
  facet normal 0 0.841698 -0.539949
    outer loop
      vertex 8 1.67925 -0.5
      vertex 3 2 0
      vertex 8 2 0
    endloop
  endfacet
  facet normal 0 0.841698 -0.539949
    outer loop
      vertex 3 2 0
      vertex 8 1.67925 -0.5
      vertex 3 1.67925 -0.5
    endloop
  endfacet
  facet normal 0 0.841698 -0.539949
    outer loop
      vertex -3 1.67925 -0.5
      vertex -8 2 0
      vertex -3 2 0
    endloop
  endfacet
  facet normal 0 0.841698 -0.539949
    outer loop
      vertex -8 2 0
      vertex -3 1.67925 -0.5
      vertex -8 1.67925 -0.5
    endloop
  endfacet
  facet normal 0 -0.841698 -0.539949
    outer loop
      vertex -8 -1.67925 -0.5
      vertex -3 -2 0
      vertex -8 -2 0
    endloop
  endfacet
  facet normal 0 -0.841698 -0.539949
    outer loop
      vertex -3 -2 0
      vertex -8 -1.67925 -0.5
      vertex -3 -1.67925 -0.5
    endloop
  endfacet
  facet normal 0 -0.841698 -0.539949
    outer loop
      vertex 3 -1.67925 -0.5
      vertex 8 -2 0
      vertex 3 -2 0
    endloop
  endfacet
  facet normal 0 -0.841698 -0.539949
    outer loop
      vertex 8 -2 0
      vertex 3 -1.67925 -0.5
      vertex 8 -1.67925 -0.5
    endloop
  endfacet
  facet normal 0 -0.841698 0.539948
    outer loop
      vertex -8 -2 0
      vertex -3 -1 1.55885
      vertex -8 -1 1.55885
    endloop
  endfacet
  facet normal 0 -0.841698 0.539948
    outer loop
      vertex -3 -1 1.55885
      vertex -8 -2 0
      vertex -3 -2 0
    endloop
  endfacet
  facet normal 0 -0.841698 0.539948
    outer loop
      vertex 3 -2 0
      vertex 8 -1 1.55885
      vertex 3 -1 1.55885
    endloop
  endfacet
  facet normal 0 -0.841698 0.539948
    outer loop
      vertex 8 -1 1.55885
      vertex 3 -2 0
      vertex 8 -2 0
    endloop
  endfacet
  facet normal -1 0 0
    outer loop
      vertex -8 1.67925 -0.5
      vertex -8 1 1.55885
      vertex -8 2 0
    endloop
  endfacet
  facet normal -1 0 0
    outer loop
      vertex -8 1.67925 -0.5
      vertex -8 -1 1.55885
      vertex -8 1 1.55885
    endloop
  endfacet
  facet normal -1 0 0
    outer loop
      vertex -8 -1.67925 -0.5
      vertex -8 -1 1.55885
      vertex -8 1.67925 -0.5
    endloop
  endfacet
  facet normal -1 0 0
    outer loop
      vertex -8 -1 1.55885
      vertex -8 -1.67925 -0.5
      vertex -8 -2 0
    endloop
  endfacet
  facet normal 0 0.841698 0.539948
    outer loop
      vertex 8 2 0
      vertex 3 1 1.55885
      vertex 8 1 1.55885
    endloop
  endfacet
  facet normal 0 0.841698 0.539948
    outer loop
      vertex 3 1 1.55885
      vertex 8 2 0
      vertex 3 2 0
    endloop
  endfacet
  facet normal 0 0.841698 0.539948
    outer loop
      vertex -3 2 0
      vertex -8 1 1.55885
      vertex -3 1 1.55885
    endloop
  endfacet
  facet normal 0 0.841698 0.539948
    outer loop
      vertex -8 1 1.55885
      vertex -3 2 0
      vertex -8 2 0
    endloop
  endfacet
  facet normal -0 0 1
    outer loop
      vertex -3 1.5 2.33827
      vertex 3 -1.5 2.33827
      vertex 3 1.5 2.33827
    endloop
  endfacet
  facet normal 0 0 1
    outer loop
      vertex 3 -1.5 2.33827
      vertex -3 1.5 2.33827
      vertex -3 -1.5 2.33827
    endloop
  endfacet
  facet normal 0 0.841697 0.53995
    outer loop
      vertex 3 1.5 2.33827
      vertex 1 2.87296 0.19804
      vertex -3 1.5 2.33827
    endloop
  endfacet
  facet normal 1.11215e-06 0.841698 0.539949
    outer loop
      vertex 3 3 0
      vertex 1 2.87296 0.19804
      vertex 3 1.5 2.33827
    endloop
  endfacet
  facet normal 0 0.841703 0.539941
    outer loop
      vertex 1 2.87296 0.19804
      vertex 3 3 0
      vertex 1 3 0
    endloop
  endfacet
  facet normal -0 0.841697 0.53995
    outer loop
      vertex -1 2.87296 0.19804
      vertex -3 1.5 2.33827
      vertex 1 2.87296 0.19804
    endloop
  endfacet
  facet normal -0 0.841703 0.539941
    outer loop
      vertex -3 3 0
      vertex -1 2.87296 0.19804
      vertex -1 3 0
    endloop
  endfacet
  facet normal -1.11215e-06 0.841698 0.539949
    outer loop
      vertex -1 2.87296 0.19804
      vertex -3 3 0
      vertex -3 1.5 2.33827
    endloop
  endfacet
  facet normal 0 0.841693 -0.539956
    outer loop
      vertex 3 3 0
      vertex 1 2.8105 -0.295396
      vertex 1 3 0
    endloop
  endfacet
  facet normal 0 0.841696 -0.539951
    outer loop
      vertex 1 2.8105 -0.295396
      vertex 3 2.51887 -0.75
      vertex -1 2.8105 -0.295396
    endloop
  endfacet
  facet normal -6.2988e-07 0.841695 -0.539953
    outer loop
      vertex 3 2.51887 -0.75
      vertex 1 2.8105 -0.295396
      vertex 3 3 0
    endloop
  endfacet
  facet normal 0 0.841693 -0.539956
    outer loop
      vertex -1 2.8105 -0.295396
      vertex -3 3 0
      vertex -1 3 0
    endloop
  endfacet
  facet normal 6.2988e-07 0.841695 -0.539953
    outer loop
      vertex -1 2.8105 -0.295396
      vertex -3 2.51887 -0.75
      vertex -3 3 0
    endloop
  endfacet
  facet normal 0 0.841696 -0.539951
    outer loop
      vertex -3 2.51887 -0.75
      vertex -1 2.8105 -0.295396
      vertex 3 2.51887 -0.75
    endloop
  endfacet
  facet normal 0 -0.841693 -0.539956
    outer loop
      vertex -3 -3 0
      vertex -1 -2.8105 -0.295396
      vertex -1 -3 0
    endloop
  endfacet
  facet normal 0 -0.841696 -0.539951
    outer loop
      vertex -1 -2.8105 -0.295396
      vertex -3 -2.51887 -0.75
      vertex 1 -2.8105 -0.295396
    endloop
  endfacet
  facet normal 6.2988e-07 -0.841695 -0.539953
    outer loop
      vertex -3 -2.51887 -0.75
      vertex -1 -2.8105 -0.295396
      vertex -3 -3 0
    endloop
  endfacet
  facet normal 0 -0.841693 -0.539956
    outer loop
      vertex 1 -2.8105 -0.295396
      vertex 3 -3 0
      vertex 1 -3 0
    endloop
  endfacet
  facet normal -6.2988e-07 -0.841695 -0.539953
    outer loop
      vertex 1 -2.8105 -0.295396
      vertex 3 -2.51887 -0.75
      vertex 3 -3 0
    endloop
  endfacet
  facet normal -0 -0.841696 -0.539951
    outer loop
      vertex 3 -2.51887 -0.75
      vertex 1 -2.8105 -0.295396
      vertex -3 -2.51887 -0.75
    endloop
  endfacet
  facet normal 0 -0.841697 0.53995
    outer loop
      vertex -3 -1.5 2.33827
      vertex -1 -2.87296 0.19804
      vertex 3 -1.5 2.33827
    endloop
  endfacet
  facet normal -1.11215e-06 -0.841698 0.539949
    outer loop
      vertex -3 -3 0
      vertex -1 -2.87296 0.19804
      vertex -3 -1.5 2.33827
    endloop
  endfacet
  facet normal 0 -0.841703 0.539941
    outer loop
      vertex -1 -2.87296 0.19804
      vertex -3 -3 0
      vertex -1 -3 0
    endloop
  endfacet
  facet normal 0 -0.841697 0.53995
    outer loop
      vertex 1 -2.87296 0.19804
      vertex 3 -1.5 2.33827
      vertex -1 -2.87296 0.19804
    endloop
  endfacet
  facet normal 0 -0.841703 0.539941
    outer loop
      vertex 3 -3 0
      vertex 1 -2.87296 0.19804
      vertex 1 -3 0
    endloop
  endfacet
  facet normal 1.11215e-06 -0.841698 0.539949
    outer loop
      vertex 1 -2.87296 0.19804
      vertex 3 -3 0
      vertex 3 -1.5 2.33827
    endloop
  endfacet
  facet normal -1 0 0
    outer loop
      vertex -3 2.51887 -0.75
      vertex -3 1.67925 -0.5
      vertex -3 2 0
    endloop
  endfacet
  facet normal -1 0 0
    outer loop
      vertex -3 2.51887 -0.75
      vertex -3 -1.67925 -0.5
      vertex -3 1.67925 -0.5
    endloop
  endfacet
  facet normal -1 -0 0
    outer loop
      vertex -3 -1.67925 -0.5
      vertex -3 -2.51887 -0.75
      vertex -3 -2 0
    endloop
  endfacet
  facet normal -1 0 0
    outer loop
      vertex -3 -2.51887 -0.75
      vertex -3 -1.67925 -0.5
      vertex -3 2.51887 -0.75
    endloop
  endfacet
  facet normal -1 0 0
    outer loop
      vertex -3 2 0
      vertex -3 3 0
      vertex -3 2.51887 -0.75
    endloop
  endfacet
  facet normal -1 0 0
    outer loop
      vertex -3 2 0
      vertex -3 1.5 2.33827
      vertex -3 3 0
    endloop
  endfacet
  facet normal -1 0 0
    outer loop
      vertex -3 1 1.55885
      vertex -3 1.5 2.33827
      vertex -3 2 0
    endloop
  endfacet
  facet normal -1 0 0
    outer loop
      vertex -3 -1 1.55885
      vertex -3 1.5 2.33827
      vertex -3 1 1.55885
    endloop
  endfacet
  facet normal -1 0 0
    outer loop
      vertex -3 -1 1.55885
      vertex -3 -1.5 2.33827
      vertex -3 1.5 2.33827
    endloop
  endfacet
  facet normal -1 0 0
    outer loop
      vertex -3 -2 0
      vertex -3 -1.5 2.33827
      vertex -3 -1 1.55885
    endloop
  endfacet
  facet normal -1 0 0
    outer loop
      vertex -3 -3 0
      vertex -3 -2 0
      vertex -3 -2.51887 -0.75
    endloop
  endfacet
  facet normal -1 0 0
    outer loop
      vertex -3 -2 0
      vertex -3 -3 0
      vertex -3 -1.5 2.33827
    endloop
  endfacet
  facet normal 1 0 0
    outer loop
      vertex 3 3 0
      vertex 3 2 0
      vertex 3 2.51887 -0.75
    endloop
  endfacet
  facet normal 1 0 0
    outer loop
      vertex 3 1.5 2.33827
      vertex 3 2 0
      vertex 3 3 0
    endloop
  endfacet
  facet normal 1 0 0
    outer loop
      vertex 3 1.5 2.33827
      vertex 3 1 1.55885
      vertex 3 2 0
    endloop
  endfacet
  facet normal 1 0 0
    outer loop
      vertex 3 1.5 2.33827
      vertex 3 -1 1.55885
      vertex 3 1 1.55885
    endloop
  endfacet
  facet normal 1 -0 0
    outer loop
      vertex 3 -1.5 2.33827
      vertex 3 -1 1.55885
      vertex 3 1.5 2.33827
    endloop
  endfacet
  facet normal 1 0 0
    outer loop
      vertex 3 -1.5 2.33827
      vertex 3 -2 0
      vertex 3 -1 1.55885
    endloop
  endfacet
  facet normal 1 0 0
    outer loop
      vertex 3 -3 0
      vertex 3 -2 0
      vertex 3 -1.5 2.33827
    endloop
  endfacet
  facet normal 1 0 0
    outer loop
      vertex 3 -2 0
      vertex 3 -3 0
      vertex 3 -2.51887 -0.75
    endloop
  endfacet
  facet normal 1 -0 0
    outer loop
      vertex 3 1.67925 -0.5
      vertex 3 2.51887 -0.75
      vertex 3 2 0
    endloop
  endfacet
  facet normal 1 -0 0
    outer loop
      vertex 3 -1.67925 -0.5
      vertex 3 2.51887 -0.75
      vertex 3 1.67925 -0.5
    endloop
  endfacet
  facet normal 1 0 0
    outer loop
      vertex 3 -1.67925 -0.5
      vertex 3 -2.51887 -0.75
      vertex 3 2.51887 -0.75
    endloop
  endfacet
  facet normal 1 0 0
    outer loop
      vertex 3 -2.51887 -0.75
      vertex 3 -1.67925 -0.5
      vertex 3 -2 0
    endloop
  endfacet
  facet normal 0 0 -1
    outer loop
      vertex -3 -2.51887 -0.75
      vertex 3 2.51887 -0.75
      vertex 3 -2.51887 -0.75
    endloop
  endfacet
  facet normal -0 0 -1
    outer loop
      vertex 3 2.51887 -0.75
      vertex -3 -2.51887 -0.75
      vertex -3 2.51887 -0.75
    endloop
  endfacet
  facet normal -0 0.309021 0.951055
    outer loop
      vertex -1 11.0916 -1.60715
      vertex 1 6.80911 -0.215667
      vertex 1 11.0916 -1.60715
    endloop
  endfacet
  facet normal 0 0.309021 0.951055
    outer loop
      vertex 1 6.80911 -0.215667
      vertex -1 11.0916 -1.60715
      vertex -1 6.80911 -0.215667
    endloop
  endfacet
  facet normal -0 0.104529 0.994522
    outer loop
      vertex -1 6.80911 -0.215667
      vertex 1 2.87296 0.19804
      vertex 1 6.80911 -0.215667
    endloop
  endfacet
  facet normal 0 0.104529 0.994522
    outer loop
      vertex 1 2.87296 0.19804
      vertex -1 6.80911 -0.215667
      vertex -1 2.87296 0.19804
    endloop
  endfacet
  facet normal 0 -0.104529 0.994522
    outer loop
      vertex -1 -2.87296 0.19804
      vertex 1 -6.80911 -0.215667
      vertex 1 -2.87296 0.19804
    endloop
  endfacet
  facet normal 0 -0.104529 0.994522
    outer loop
      vertex 1 -6.80911 -0.215667
      vertex -1 -2.87296 0.19804
      vertex -1 -6.80911 -0.215667
    endloop
  endfacet
  facet normal -1 0 0
    outer loop
      vertex -1 6.70515 -0.704741
      vertex -1 2.8105 -0.295396
      vertex -1 3 0
    endloop
  endfacet
  facet normal -1 0 0
    outer loop
      vertex -1 10.6916 -2
      vertex -1 11.0916 -1.60715
      vertex -1 10.9864 -2
    endloop
  endfacet
  facet normal -1 0 0
    outer loop
      vertex -1 10.6916 -2
      vertex -1 6.80911 -0.215667
      vertex -1 11.0916 -1.60715
    endloop
  endfacet
  facet normal -1 0 0
    outer loop
      vertex -1 6.70515 -0.704741
      vertex -1 6.80911 -0.215667
      vertex -1 10.6916 -2
    endloop
  endfacet
  facet normal -1 0 0
    outer loop
      vertex -1 3 0
      vertex -1 6.80911 -0.215667
      vertex -1 6.70515 -0.704741
    endloop
  endfacet
  facet normal -1 0 0
    outer loop
      vertex -1 6.80911 -0.215667
      vertex -1 3 0
      vertex -1 2.87296 0.19804
    endloop
  endfacet
  facet normal -1 -0 0
    outer loop
      vertex -1 -2.8105 -0.295396
      vertex -1 -6.70515 -0.704741
      vertex -1 -3 0
    endloop
  endfacet
  facet normal -1 0 0
    outer loop
      vertex -1 -6.80911 -0.215667
      vertex -1 -3 0
      vertex -1 -6.70515 -0.704741
    endloop
  endfacet
  facet normal -1 -0 0
    outer loop
      vertex -1 -3 0
      vertex -1 -6.80911 -0.215667
      vertex -1 -2.87296 0.19804
    endloop
  endfacet
  facet normal -1 0 0
    outer loop
      vertex -1 -10.6916 -2
      vertex -1 -6.80911 -0.215667
      vertex -1 -6.70515 -0.704741
    endloop
  endfacet
  facet normal -1 0 0
    outer loop
      vertex -1 -11.0916 -1.60715
      vertex -1 -10.6916 -2
      vertex -1 -10.9864 -2
    endloop
  endfacet
  facet normal -1 0 0
    outer loop
      vertex -1 -10.6916 -2
      vertex -1 -11.0916 -1.60715
      vertex -1 -6.80911 -0.215667
    endloop
  endfacet
  facet normal 1 0 0
    outer loop
      vertex 1 11.0916 -1.60715
      vertex 1 10.6916 -2
      vertex 1 10.9864 -2
    endloop
  endfacet
  facet normal 1 0 0
    outer loop
      vertex 1 6.80911 -0.215667
      vertex 1 10.6916 -2
      vertex 1 11.0916 -1.60715
    endloop
  endfacet
  facet normal 1 0 0
    outer loop
      vertex 1 6.80911 -0.215667
      vertex 1 6.70515 -0.704741
      vertex 1 10.6916 -2
    endloop
  endfacet
  facet normal 1 0 0
    outer loop
      vertex 1 6.80911 -0.215667
      vertex 1 3 0
      vertex 1 6.70515 -0.704741
    endloop
  endfacet
  facet normal 1 -0 -0
    outer loop
      vertex 1 3 0
      vertex 1 6.80911 -0.215667
      vertex 1 2.87296 0.19804
    endloop
  endfacet
  facet normal 1 0 0
    outer loop
      vertex 1 6.70515 -0.704741
      vertex 1 3 0
      vertex 1 2.8105 -0.295396
    endloop
  endfacet
  facet normal 1 0 0
    outer loop
      vertex 1 -6.80911 -0.215667
      vertex 1 -3 0
      vertex 1 -2.87296 0.19804
    endloop
  endfacet
  facet normal 1 0 0
    outer loop
      vertex 1 -3 0
      vertex 1 -6.80911 -0.215667
      vertex 1 -6.70515 -0.704741
    endloop
  endfacet
  facet normal 1 0 0
    outer loop
      vertex 1 -6.80911 -0.215667
      vertex 1 -10.6916 -2
      vertex 1 -6.70515 -0.704741
    endloop
  endfacet
  facet normal 1 -0 0
    outer loop
      vertex 1 -11.0916 -1.60715
      vertex 1 -10.6916 -2
      vertex 1 -6.80911 -0.215667
    endloop
  endfacet
  facet normal 1 0 0
    outer loop
      vertex 1 -10.6916 -2
      vertex 1 -11.0916 -1.60715
      vertex 1 -10.9864 -2
    endloop
  endfacet
  facet normal 1 0 0
    outer loop
      vertex 1 -2.8105 -0.295396
      vertex 1 -3 0
      vertex 1 -6.70515 -0.704741
    endloop
  endfacet
  facet normal 0 -0.309021 0.951055
    outer loop
      vertex -1 -6.80911 -0.215667
      vertex 1 -11.0916 -1.60715
      vertex 1 -6.80911 -0.215667
    endloop
  endfacet
  facet normal 0 -0.309021 0.951055
    outer loop
      vertex 1 -11.0916 -1.60715
      vertex -1 -6.80911 -0.215667
      vertex -1 -11.0916 -1.60715
    endloop
  endfacet
  facet normal 0 -0.309013 -0.951058
    outer loop
      vertex -1 6.70515 -0.704741
      vertex 1 10.6916 -2
      vertex 1 6.70515 -0.704741
    endloop
  endfacet
  facet normal -0 -0.309013 -0.951058
    outer loop
      vertex 1 10.6916 -2
      vertex -1 6.70515 -0.704741
      vertex -1 10.6916 -2
    endloop
  endfacet
  facet normal 0 -0.104529 -0.994522
    outer loop
      vertex -1 2.8105 -0.295396
      vertex 1 6.70515 -0.704741
      vertex 1 2.8105 -0.295396
    endloop
  endfacet
  facet normal -0 -0.104529 -0.994522
    outer loop
      vertex 1 6.70515 -0.704741
      vertex -1 2.8105 -0.295396
      vertex -1 6.70515 -0.704741
    endloop
  endfacet
  facet normal 0 0.104529 -0.994522
    outer loop
      vertex -1 -6.70515 -0.704741
      vertex 1 -2.8105 -0.295396
      vertex 1 -6.70515 -0.704741
    endloop
  endfacet
  facet normal 0 0.104529 -0.994522
    outer loop
      vertex 1 -2.8105 -0.295396
      vertex -1 -6.70515 -0.704741
      vertex -1 -2.8105 -0.295396
    endloop
  endfacet
  facet normal 0 0.309013 -0.951058
    outer loop
      vertex -1 -10.6916 -2
      vertex 1 -6.70515 -0.704741
      vertex 1 -10.6916 -2
    endloop
  endfacet
  facet normal 0 0.309013 -0.951058
    outer loop
      vertex 1 -6.70515 -0.704741
      vertex -1 -10.6916 -2
      vertex -1 -6.70515 -0.704741
    endloop
  endfacet
  facet normal 0 0 -1
    outer loop
      vertex -1 -10.9864 -2
      vertex 1 -10.6916 -2
      vertex 1 -10.9864 -2
    endloop
  endfacet
  facet normal -0 0 -1
    outer loop
      vertex 1 -10.6916 -2
      vertex -1 -10.9864 -2
      vertex -1 -10.6916 -2
    endloop
  endfacet
  facet normal 0 0 -1
    outer loop
      vertex -1 10.6916 -2
      vertex 1 10.9864 -2
      vertex 1 10.6916 -2
    endloop
  endfacet
  facet normal -0 0 -1
    outer loop
      vertex 1 10.9864 -2
      vertex -1 10.6916 -2
      vertex -1 10.9864 -2
    endloop
  endfacet
  facet normal -0.00829483 0.965879 -0.258862
    outer loop
      vertex 4 12.9295 -3.16406
      vertex 0.375 12.9027 -3.1479
      vertex 0.375 13.2218 -1.95726
    endloop
  endfacet
  facet normal -0.00454169 -0.0192663 0.999804
    outer loop
      vertex 0.375 11.319 -0.809363
      vertex 0.375 11.3053 -0.809627
      vertex 0.39703 11.3054 -0.809525
    endloop
  endfacet
  facet normal -0.00460175 -0.0192663 0.999804
    outer loop
      vertex 4 11.3235 -0.792593
      vertex 0.39703 11.3054 -0.809525
      vertex 4 11.3098 -0.792857
    endloop
  endfacet
  facet normal -0.00460125 -0.0193628 0.999802
    outer loop
      vertex 0.39703 11.3054 -0.809525
      vertex 4 11.3235 -0.792593
      vertex 0.375 11.319 -0.809363
    endloop
  endfacet
  facet normal -0.008297 0.965877 -0.258868
    outer loop
      vertex 4 12.9295 -3.16406
      vertex 0.375 13.2218 -1.95726
      vertex 4 13.2531 -1.95666
    endloop
  endfacet
  facet normal -0.00460142 0.0192417 -0.999804
    outer loop
      vertex 0.375 10.681 -3.19064
      vertex 4 11.803 -3.18573
      vertex 4 10.6765 -3.20741
    endloop
  endfacet
  facet normal -0.00459867 0.0192328 -0.999804
    outer loop
      vertex 4 11.803 -3.18573
      vertex 0.375 10.681 -3.19064
      vertex 4 12.9295 -3.16406
    endloop
  endfacet
  facet normal -0.00460183 0.516546 0.856247
    outer loop
      vertex 4 13.2531 -1.95666
      vertex 0.375 13.2218 -1.95726
      vertex 4 11.3235 -0.792594
    endloop
  endfacet
  facet normal -0.00460217 0.516546 0.856247
    outer loop
      vertex 0.375 11.319 -0.809363
      vertex 4 11.3235 -0.792594
      vertex 0.375 13.2218 -1.95726
    endloop
  endfacet
  facet normal -0.00124138 0.999999 0
    outer loop
      vertex 4 11.3235 -0.792594
      vertex 0.375 11.319 -0.809363
      vertex 4 11.3235 -0.792593
    endloop
  endfacet
  facet normal -0.00459926 0.0192338 -0.999804
    outer loop
      vertex 4 12.9295 -3.16406
      vertex 0.375 10.681 -3.19064
      vertex 0.375 12.9027 -3.1479
    endloop
  endfacet
  facet normal -0.00458631 -0.517713 -0.855542
    outer loop
      vertex 4 10.6648 -3.20033
      vertex 0.375 10.6692 -3.18356
      vertex 4 10.6765 -3.20741
    endloop
  endfacet
  facet normal -0.00460558 -0.51449 -0.857484
    outer loop
      vertex 0.375 10.681 -3.19064
      vertex 4 10.6765 -3.20741
      vertex 0.375 10.6692 -3.18356
    endloop
  endfacet
  facet normal -0.0138725 -0.0194062 0.999715
    outer loop
      vertex -3.25 11.3055 -0.859671
      vertex -3.25 11.2919 -0.859935
      vertex -3.22766 11.2919 -0.859625
    endloop
  endfacet
  facet normal -0.0138025 -0.0192647 0.999719
    outer loop
      vertex 0.375 11.319 -0.809363
      vertex -3.22766 11.2919 -0.859625
      vertex 0.375 11.3053 -0.809627
    endloop
  endfacet
  facet normal -0.0138023 -0.0192909 0.999719
    outer loop
      vertex -3.22766 11.2919 -0.859625
      vertex 0.375 11.319 -0.809363
      vertex -3.25 11.3055 -0.859671
    endloop
  endfacet
  facet normal -0.0248797 0.965616 -0.258778
    outer loop
      vertex 0.375 12.9027 -3.1479
      vertex -3.25 12.8223 -3.09939
      vertex -3.25 13.1279 -1.95906
    endloop
  endfacet
  facet normal -0.0138043 0.516502 0.856175
    outer loop
      vertex -3.25 13.1279 -1.95906
      vertex 0.375 11.319 -0.809363
      vertex 0.375 13.2218 -1.95726
    endloop
  endfacet
  facet normal -0.0138056 0.5165 0.856176
    outer loop
      vertex 0.375 11.319 -0.809363
      vertex -3.25 13.1279 -1.95906
      vertex -3.25 11.3055 -0.859671
    endloop
  endfacet
  facet normal -0.0248842 0.965613 -0.258791
    outer loop
      vertex 0.375 12.9027 -3.1479
      vertex -3.25 13.1279 -1.95906
      vertex 0.375 13.2218 -1.95726
    endloop
  endfacet
  facet normal -0.0138031 0.0192321 -0.99972
    outer loop
      vertex 0.375 10.681 -3.19064
      vertex -3.25 10.6945 -3.14033
      vertex 0.375 12.9027 -3.1479
    endloop
  endfacet
  facet normal -0.0138049 0.0192351 -0.99972
    outer loop
      vertex 0.375 12.9027 -3.1479
      vertex -3.25 10.6945 -3.14033
      vertex -3.25 12.8223 -3.09939
    endloop
  endfacet
  facet normal -0.0138156 -0.514447 -0.857411
    outer loop
      vertex -3.25 10.6827 -3.13325
      vertex 0.375 10.681 -3.19064
      vertex 0.375 10.6692 -3.18356
    endloop
  endfacet
  facet normal -0.0138156 -0.514447 -0.857411
    outer loop
      vertex 0.375 10.681 -3.19064
      vertex -3.25 10.6827 -3.13325
      vertex -3.25 10.6945 -3.14033
    endloop
  endfacet
  facet normal -0.0414416 0.965093 -0.258609
    outer loop
      vertex -3.25 12.8223 -3.09939
      vertex -6.875 12.6883 -3.01856
      vertex -6.875 12.9714 -1.96207
    endloop
  endfacet
  facet normal -0.0230205 -0.0191885 0.999551
    outer loop
      vertex -6.875 11.2831 -0.943519
      vertex -6.875 11.2694 -0.943782
      vertex -6.85168 11.2695 -0.943243
    endloop
  endfacet
  facet normal -0.0229992 -0.019403 0.999547
    outer loop
      vertex -3.25 11.3055 -0.859671
      vertex -6.85168 11.2695 -0.943243
      vertex -3.25 11.2919 -0.859935
    endloop
  endfacet
  facet normal -0.0230017 -0.0191562 0.999552
    outer loop
      vertex -6.85168 11.2695 -0.943243
      vertex -3.25 11.3055 -0.859671
      vertex -6.875 11.2831 -0.943519
    endloop
  endfacet
  facet normal -0.0414503 0.965085 -0.258636
    outer loop
      vertex -3.25 12.8223 -3.09939
      vertex -6.875 12.9714 -1.96207
      vertex -3.25 13.1279 -1.95906
    endloop
  endfacet
  facet normal -0.0230018 0.0192319 -0.99955
    outer loop
      vertex -3.25 10.6945 -3.14033
      vertex -6.875 10.7169 -3.05648
      vertex -3.25 12.8223 -3.09939
    endloop
  endfacet
  facet normal -0.0230056 0.516413 0.856031
    outer loop
      vertex -6.875 12.9714 -1.96207
      vertex -3.25 11.3055 -0.859671
      vertex -3.25 13.1279 -1.95906
    endloop
  endfacet
  facet normal -0.0229913 0.516435 0.856018
    outer loop
      vertex -3.25 11.3055 -0.859671
      vertex -6.875 12.9714 -1.96207
      vertex -6.875 11.2831 -0.943519
    endloop
  endfacet
  facet normal -0.0229986 0.0192264 -0.999551
    outer loop
      vertex -3.25 12.8223 -3.09939
      vertex -6.875 10.7169 -3.05648
      vertex -6.875 12.6883 -3.01856
    endloop
  endfacet
  facet normal -0.0230197 -0.514359 -0.857266
    outer loop
      vertex -6.875 10.7052 -3.04941
      vertex -3.25 10.6945 -3.14033
      vertex -3.25 10.6827 -3.13325
    endloop
  endfacet
  facet normal -0.022987 -0.517046 -0.855649
    outer loop
      vertex -3.25 10.6945 -3.14033
      vertex -6.875 10.7052 -3.04941
      vertex -6.875 10.7169 -3.05648
    endloop
  endfacet
  facet normal -0.0579727 0.964283 -0.258452
    outer loop
      vertex -6.875 12.6883 -3.01856
      vertex -10.5 12.5007 -2.90538
      vertex -10.5 12.7524 -1.96629
    endloop
  endfacet
  facet normal -0.0322911 -0.0189648 0.999299
    outer loop
      vertex -10.5 11.2516 -1.06091
      vertex -10.5 11.2379 -1.06117
      vertex -10.4748 11.2382 -1.06035
    endloop
  endfacet
  facet normal -0.0321928 -0.0191836 0.999298
    outer loop
      vertex -6.875 11.2831 -0.943519
      vertex -10.4748 11.2382 -1.06035
      vertex -6.875 11.2694 -0.943782
    endloop
  endfacet
  facet normal -0.0321979 -0.0187894 0.999305
    outer loop
      vertex -10.4748 11.2382 -1.06035
      vertex -6.875 11.2831 -0.943519
      vertex -10.5 11.2516 -1.06091
    endloop
  endfacet
  facet normal -0.0579561 0.964299 -0.258396
    outer loop
      vertex -6.875 12.6883 -3.01856
      vertex -10.5 12.7524 -1.96629
      vertex -6.875 12.9714 -1.96207
    endloop
  endfacet
  facet normal -0.0321936 0.0192215 -0.999297
    outer loop
      vertex -6.875 10.7169 -3.05648
      vertex -10.5 10.7484 -2.93909
      vertex -6.875 12.6883 -3.01856
    endloop
  endfacet
  facet normal -0.0321882 0.516304 0.8558
    outer loop
      vertex -10.5 12.7524 -1.96629
      vertex -6.875 11.2831 -0.943519
      vertex -6.875 12.9714 -1.96207
    endloop
  endfacet
  facet normal -0.0322007 0.516282 0.855813
    outer loop
      vertex -6.875 11.2831 -0.943519
      vertex -10.5 12.7524 -1.96629
      vertex -10.5 11.2516 -1.06091
    endloop
  endfacet
  facet normal -0.032195 0.019224 -0.999297
    outer loop
      vertex -6.875 12.6883 -3.01856
      vertex -10.5 10.7484 -2.93909
      vertex -10.5 12.5007 -2.90538
    endloop
  endfacet
  facet normal -0.0321794 -0.516915 -0.855432
    outer loop
      vertex -10.5 10.7366 -2.93202
      vertex -6.875 10.7169 -3.05648
      vertex -6.875 10.7052 -3.04941
    endloop
  endfacet
  facet normal -0.0322284 -0.513694 -0.857368
    outer loop
      vertex -6.875 10.7169 -3.05648
      vertex -10.5 10.7366 -2.93202
      vertex -10.5 10.7484 -2.93909
    endloop
  endfacet
  facet normal -0.074424 0.963274 -0.258002
    outer loop
      vertex -10.5 12.5007 -2.90538
      vertex -14.125 12.2596 -2.75987
      vertex -14.125 12.4707 -1.97171
    endloop
  endfacet
  facet normal -0.0414435 -0.0196873 0.998947
    outer loop
      vertex -14.125 11.2112 -1.21183
      vertex -14.125 11.1975 -1.2121
      vertex -14.0967 11.1978 -1.21092
    endloop
  endfacet
  facet normal -0.0413809 -0.0189584 0.998964
    outer loop
      vertex -10.5 11.2516 -1.06091
      vertex -14.0967 11.1978 -1.21092
      vertex -10.5 11.2379 -1.06117
    endloop
  endfacet
  facet normal -0.0413718 -0.0195354 0.998953
    outer loop
      vertex -14.0967 11.1978 -1.21092
      vertex -10.5 11.2516 -1.06091
      vertex -14.125 11.2112 -1.21183
    endloop
  endfacet
  facet normal -0.0744666 0.963226 -0.258169
    outer loop
      vertex -10.5 12.5007 -2.90538
      vertex -14.125 12.4707 -1.97171
      vertex -10.5 12.7524 -1.96629
    endloop
  endfacet
  facet normal -0.0413756 0.0192175 -0.998959
    outer loop
      vertex -10.5 10.7484 -2.93909
      vertex -14.125 10.7888 -2.78817
      vertex -10.5 12.5007 -2.90538
    endloop
  endfacet
  facet normal -0.041386 0.516107 0.855523
    outer loop
      vertex -14.125 12.4707 -1.97171
      vertex -10.5 11.2516 -1.06091
      vertex -10.5 12.7524 -1.96629
    endloop
  endfacet
  facet normal -0.0413696 0.516141 0.855504
    outer loop
      vertex -10.5 11.2516 -1.06091
      vertex -14.125 12.4707 -1.97171
      vertex -14.125 11.2112 -1.21183
    endloop
  endfacet
  facet normal -0.0413773 0.0192212 -0.998959
    outer loop
      vertex -10.5 12.5007 -2.90538
      vertex -14.125 10.7888 -2.78817
      vertex -14.125 12.2596 -2.75987
    endloop
  endfacet
  facet normal -0.0414224 -0.51352 -0.857077
    outer loop
      vertex -14.125 10.7771 -2.78109
      vertex -10.5 10.7484 -2.93909
      vertex -10.5 10.7366 -2.93202
    endloop
  endfacet
  facet normal -0.0413537 -0.517275 -0.854819
    outer loop
      vertex -10.5 10.7484 -2.93909
      vertex -14.125 10.7771 -2.78109
      vertex -14.125 10.7888 -2.78817
    endloop
  endfacet
  facet normal -0.0504514 -0.0196791 0.998533
    outer loop
      vertex -14.125 11.2112 -1.21183
      vertex -14.1691 11.1969 -1.21434
      vertex -14.125 11.1975 -1.2121
    endloop
  endfacet
  facet normal -0.0505505 0.0192131 -0.998537
    outer loop
      vertex -14.125 10.7888 -2.78817
      vertex -16.9108 12.033 -2.6232
      vertex -14.125 12.2596 -2.75987
    endloop
  endfacet
  facet normal -0.050545 0.0192255 -0.998537
    outer loop
      vertex -16.9108 12.033 -2.6232
      vertex -14.125 10.7888 -2.78817
      vertex -17.1627 11.7743 -2.61543
    endloop
  endfacet
  facet normal -0.0505472 0.515923 0.855142
    outer loop
      vertex -16.9108 12.2062 -1.9768
      vertex -14.125 11.2112 -1.21183
      vertex -14.125 12.4707 -1.97171
    endloop
  endfacet
  facet normal -0.050673 0.515995 0.855091
    outer loop
      vertex -17.75 11.1618 -1.3963
      vertex -16.9108 12.2062 -1.9768
      vertex -17.75 11.4468 -1.56828
    endloop
  endfacet
  facet normal -0.0505475 0.515923 0.855142
    outer loop
      vertex -16.9108 12.2062 -1.9768
      vertex -17.75 11.1618 -1.3963
      vertex -14.125 11.2112 -1.21183
    endloop
  endfacet
  facet normal -0.0908608 0.961935 -0.25773
    outer loop
      vertex -16.9108 12.0819 -2.44073
      vertex -16.9108 12.2062 -1.9768
      vertex -14.125 12.4707 -1.97171
    endloop
  endfacet
  facet normal -0.0908772 0.961955 -0.257649
    outer loop
      vertex -14.125 12.2596 -2.75987
      vertex -16.9108 12.0819 -2.44073
      vertex -14.125 12.4707 -1.97171
    endloop
  endfacet
  facet normal -0.0908902 0.961918 -0.257784
    outer loop
      vertex -16.9108 12.0819 -2.44073
      vertex -14.125 12.2596 -2.75987
      vertex -16.9108 12.033 -2.6232
    endloop
  endfacet
  facet normal -0.0505496 -0.0193764 0.998534
    outer loop
      vertex -17.75 11.1618 -1.3963
      vertex -14.1691 11.1969 -1.21434
      vertex -14.125 11.2112 -1.21183
    endloop
  endfacet
  facet normal -0.0505542 -0.0189504 0.998542
    outer loop
      vertex -14.1691 11.1969 -1.21434
      vertex -17.75 11.1618 -1.3963
      vertex -17.75 11.1481 -1.39656
    endloop
  endfacet
  facet normal -0.0505521 0.0192035 -0.998537
    outer loop
      vertex -17.75 10.8382 -2.6037
      vertex -17.1627 11.7743 -2.61543
      vertex -14.125 10.7888 -2.78817
    endloop
  endfacet
  facet normal -0.0505415 0.0191969 -0.998537
    outer loop
      vertex -17.1627 11.7743 -2.61543
      vertex -17.75 10.8382 -2.6037
      vertex -17.75 11.1711 -2.5973
    endloop
  endfacet
  facet normal -0.0505258 -0.517057 -0.854458
    outer loop
      vertex -17.75 10.8265 -2.59663
      vertex -14.125 10.7888 -2.78817
      vertex -14.125 10.7771 -2.78109
    endloop
  endfacet
  facet normal -0.0505373 -0.516522 -0.854781
    outer loop
      vertex -14.125 10.7888 -2.78817
      vertex -17.75 10.8265 -2.59663
      vertex -17.75 10.8382 -2.6037
    endloop
  endfacet
  facet normal -0.0597248 -0.0189408 0.998035
    outer loop
      vertex -17.75 11.1618 -1.3963
      vertex -17.819 11.147 -1.40071
      vertex -17.75 11.1481 -1.39656
    endloop
  endfacet
  facet normal -0.0597136 0.0191871 -0.998031
    outer loop
      vertex -17.75 10.8382 -2.6037
      vertex -18.0186 10.8959 -2.58652
      vertex -17.75 11.1711 -2.5973
    endloop
  endfacet
  facet normal -0.0597592 0.515736 0.854661
    outer loop
      vertex -17.75 11.4468 -1.56828
      vertex -18.0699 11.1566 -1.41553
      vertex -17.75 11.1618 -1.3963
    endloop
  endfacet
  facet normal -0.0596833 -0.0191338 0.998034
    outer loop
      vertex -18.0699 11.1566 -1.41553
      vertex -17.819 11.147 -1.40071
      vertex -17.75 11.1618 -1.3963
    endloop
  endfacet
  facet normal -0.0597093 -0.0198351 0.998019
    outer loop
      vertex -17.819 11.147 -1.40071
      vertex -18.0699 11.1566 -1.41553
      vertex -18.083 11.1427 -1.41659
    endloop
  endfacet
  facet normal -0.0596797 0.0193449 -0.99803
    outer loop
      vertex -17.75 10.8382 -2.6037
      vertex -18.0699 10.8434 -2.58447
      vertex -18.0186 10.8959 -2.58652
    endloop
  endfacet
  facet normal -0.0597487 -0.516259 -0.854346
    outer loop
      vertex -17.75 10.8265 -2.59663
      vertex -18.0699 10.8434 -2.58447
      vertex -17.75 10.8382 -2.6037
    endloop
  endfacet
  facet normal -0.0597559 -0.5165 -0.8542
    outer loop
      vertex -18.0699 10.8434 -2.58447
      vertex -17.75 10.8265 -2.59663
      vertex -18.083 10.8319 -2.5766
    endloop
  endfacet
  facet normal 0.485079 -0.0167842 0.874309
    outer loop
      vertex 4 11.3098 -0.792856
      vertex 5.08253 11.1618 -1.3963
      vertex 4 11.3235 -0.792593
    endloop
  endfacet
  facet normal 0.485101 -0.0165926 0.874301
    outer loop
      vertex 5.08253 11.1618 -1.3963
      vertex 4 11.3098 -0.792856
      vertex 5.08253 11.1481 -1.39656
    endloop
  endfacet
  facet normal 0.707125 0.682984 -0.183049
    outer loop
      vertex 4 13.2531 -1.95666
      vertex 5.08253 12.1265 -1.97833
      vertex 4 12.9295 -3.16406
    endloop
  endfacet
  facet normal 0.707077 0.683058 -0.182956
    outer loop
      vertex 4 12.9295 -3.16406
      vertex 5.08253 12.1265 -1.97833
      vertex 5.08253 11.9648 -2.58203
    endloop
  endfacet
  facet normal 0.485076 0.0168265 -0.87431
    outer loop
      vertex 4 11.803 -3.18573
      vertex 5.08253 10.8382 -2.6037
      vertex 4 10.6765 -3.20741
    endloop
  endfacet
  facet normal 0.485069 0.0168173 -0.874314
    outer loop
      vertex 5.08253 10.8382 -2.6037
      vertex 4 11.803 -3.18573
      vertex 5.08253 11.9648 -2.58203
    endloop
  endfacet
  facet normal 0.485069 0.0168188 -0.874314
    outer loop
      vertex 5.08253 11.9648 -2.58203
      vertex 4 11.803 -3.18573
      vertex 4 12.9295 -3.16406
    endloop
  endfacet
  facet normal -1 0 0
    outer loop
      vertex 4 11.3235 -0.792593
      vertex 4 13.2531 -1.95666
      vertex 4 11.3235 -0.792594
    endloop
  endfacet
  facet normal 0.484905 -0.452779 -0.748236
    outer loop
      vertex 4 10.6765 -3.20741
      vertex 5.08253 10.8265 -2.59663
      vertex 4 10.6648 -3.20033
    endloop
  endfacet
  facet normal 0.484978 -0.45229 -0.748485
    outer loop
      vertex 5.08253 10.8265 -2.59663
      vertex 4 10.6765 -3.20741
      vertex 5.08253 10.8382 -2.6037
    endloop
  endfacet
  facet normal 0.485086 0.451708 0.748767
    outer loop
      vertex 4 11.3235 -0.792593
      vertex 5.08253 12.1265 -1.97833
      vertex 4 13.2531 -1.95666
    endloop
  endfacet
  facet normal 0.485051 0.45175 0.748764
    outer loop
      vertex 5.08253 12.1265 -1.97833
      vertex 4 11.3235 -0.792593
      vertex 5.08253 11.1618 -1.3963
    endloop
  endfacet
  facet normal 1 0 0
    outer loop
      vertex 5.08253 11.1618 -1.3963
      vertex 5.08253 11.9648 -2.58203
      vertex 5.08253 12.1265 -1.97833
    endloop
  endfacet
  facet normal 1 0 0
    outer loop
      vertex 5.08253 10.8382 -2.6037
      vertex 5.08253 11.1618 -1.3963
      vertex 5.08253 11.1481 -1.39656
    endloop
  endfacet
  facet normal 1 0 0
    outer loop
      vertex 5.08253 11.1618 -1.3963
      vertex 5.08253 10.8382 -2.6037
      vertex 5.08253 11.9648 -2.58203
    endloop
  endfacet
  facet normal 1 0 -0
    outer loop
      vertex 5.08253 10.8382 -2.6037
      vertex 5.08253 11.1481 -1.39656
      vertex 5.08253 10.8265 -2.59663
    endloop
  endfacet
  facet normal -1 0 0
    outer loop
      vertex 4 11.3098 -0.792856
      vertex 4 11.3235 -0.792593
      vertex 4 11.3098 -0.792857
    endloop
  endfacet
  facet normal -5.32302e-05 -0.965965 0.258673
    outer loop
      vertex -3.22766 11.2919 -0.859625
      vertex -1 10.9864 -2
      vertex -1 11.0916 -1.60715
    endloop
  endfacet
  facet normal 9.15796e-06 -0.965915 0.25886
    outer loop
      vertex -17.819 11.147 -1.40071
      vertex -17.75 10.8265 -2.59663
      vertex -14.125 10.7771 -2.78109
    endloop
  endfacet
  facet normal -9.33474e-05 -0.965916 0.258855
    outer loop
      vertex -17.819 11.147 -1.40071
      vertex -18.083 10.8319 -2.5766
      vertex -17.75 10.8265 -2.59663
    endloop
  endfacet
  facet normal 0.00317263 -0.965295 0.261142
    outer loop
      vertex 1 11.0916 -1.60715
      vertex 0.39703 11.3054 -0.809525
      vertex 0.375 11.3053 -0.809627
    endloop
  endfacet
  facet normal 7.69996e-07 -0.965925 0.258823
    outer loop
      vertex -1 11.0916 -1.60715
      vertex 0.375 11.3053 -0.809627
      vertex -3.22766 11.2919 -0.859625
    endloop
  endfacet
  facet normal -0.00350213 -0.967622 0.252379
    outer loop
      vertex -1 10.9864 -2
      vertex -3.22766 11.2919 -0.859625
      vertex -3.25 11.2919 -0.859935
    endloop
  endfacet
  facet normal 1.9541e-05 -0.965912 0.258871
    outer loop
      vertex -1 10.9864 -2
      vertex -3.25 11.2919 -0.859935
      vertex -6.85168 11.2695 -0.943243
    endloop
  endfacet
  facet normal -0.00163401 -0.968162 0.250318
    outer loop
      vertex -1 10.9864 -2
      vertex -6.85168 11.2695 -0.943243
      vertex -6.875 11.2694 -0.943782
    endloop
  endfacet
  facet normal -7.47915e-06 -0.965939 0.258769
    outer loop
      vertex -1 10.9864 -2
      vertex -6.875 11.2694 -0.943782
      vertex -10.4748 11.2382 -1.06035
    endloop
  endfacet
  facet normal 0.00230194 -0.959872 0.28043
    outer loop
      vertex -1 10.9864 -2
      vertex -10.4748 11.2382 -1.06035
      vertex -10.5 11.2379 -1.06117
    endloop
  endfacet
  facet normal -3.02747e-06 -0.965949 0.258734
    outer loop
      vertex -1 10.9864 -2
      vertex -10.5 11.2379 -1.06117
      vertex -14.0967 11.1978 -1.21092
    endloop
  endfacet
  facet normal -0.000325829 -0.967275 0.253732
    outer loop
      vertex -1 10.9864 -2
      vertex -14.0967 11.1978 -1.21092
      vertex -14.125 11.1975 -1.2121
    endloop
  endfacet
  facet normal -1.86724e-06 -0.965939 0.25877
    outer loop
      vertex -1 10.9864 -2
      vertex -14.125 11.1975 -1.2121
      vertex -14.1691 11.1969 -1.21434
    endloop
  endfacet
  facet normal -0.147733 -0.989027 0
    outer loop
      vertex 4 11.3098 -0.792857
      vertex 5.08253 11.1481 -1.39656
      vertex 4 11.3098 -0.792856
    endloop
  endfacet
  facet normal 0 -0.965925 0.258824
    outer loop
      vertex 0.375 11.3053 -0.809627
      vertex -1 11.0916 -1.60715
      vertex 1 11.0916 -1.60715
    endloop
  endfacet
  facet normal -3.16889e-06 -0.965944 0.25875
    outer loop
      vertex -1 10.9864 -2
      vertex -14.1691 11.1969 -1.21434
      vertex -17.75 11.1481 -1.39656
    endloop
  endfacet
  facet normal -6.32156e-05 -0.96636 0.257195
    outer loop
      vertex -1 10.9864 -2
      vertex -17.75 11.1481 -1.39656
      vertex -17.819 11.147 -1.40071
    endloop
  endfacet
  facet normal 0.000165715 -0.965931 0.258801
    outer loop
      vertex -18.083 10.8319 -2.5766
      vertex -17.819 11.147 -1.40071
      vertex -18.083 11.1427 -1.41659
    endloop
  endfacet
  facet normal -1.81093e-05 -0.965906 0.258893
    outer loop
      vertex 0.39703 11.3054 -0.809525
      vertex 1 11.0916 -1.60715
      vertex 4 11.3098 -0.792857
    endloop
  endfacet
  facet normal 4.61008e-05 -0.965965 0.258673
    outer loop
      vertex 1 10.9864 -2
      vertex 4 11.3098 -0.792857
      vertex 1 11.0916 -1.60715
    endloop
  endfacet
  facet normal -4.07466e-06 -0.965934 0.258789
    outer loop
      vertex 4 11.3098 -0.792857
      vertex 1 10.9864 -2
      vertex 4 10.6648 -3.20033
    endloop
  endfacet
  facet normal -1.65936e-05 -0.965932 0.258796
    outer loop
      vertex -17.819 11.147 -1.40071
      vertex -14.125 10.7771 -2.78109
      vertex -10.5 10.7366 -2.93202
    endloop
  endfacet
  facet normal 3.70823e-05 -0.965934 0.258789
    outer loop
      vertex 4 11.3098 -0.792857
      vertex 4 10.6648 -3.20033
      vertex 5.08253 11.1481 -1.39656
    endloop
  endfacet
  facet normal 9.14431e-07 -0.965911 0.258874
    outer loop
      vertex -17.819 11.147 -1.40071
      vertex -10.5 10.7366 -2.93202
      vertex -1 10.9864 -2
    endloop
  endfacet
  facet normal 1.25948e-05 -0.965941 0.258763
    outer loop
      vertex -6.875 10.7052 -3.04941
      vertex -1 10.9864 -2
      vertex -10.5 10.7366 -2.93202
    endloop
  endfacet
  facet normal -8.07431e-06 -0.965912 0.258871
    outer loop
      vertex -3.25 10.6827 -3.13325
      vertex -1 10.9864 -2
      vertex -6.875 10.7052 -3.04941
    endloop
  endfacet
  facet normal -4.51422e-06 -0.965914 0.258864
    outer loop
      vertex 0.375 10.6692 -3.18356
      vertex -1 10.9864 -2
      vertex -3.25 10.6827 -3.13325
    endloop
  endfacet
  facet normal 0 -0.965912 0.258869
    outer loop
      vertex -1 10.9864 -2
      vertex 0.375 10.6692 -3.18356
      vertex 1 10.9864 -2
    endloop
  endfacet
  facet normal 2.51041e-05 -0.965916 0.258857
    outer loop
      vertex 4 10.6648 -3.20033
      vertex 1 10.9864 -2
      vertex 0.375 10.6692 -3.18356
    endloop
  endfacet
  facet normal -7.33119e-05 -0.965917 0.258851
    outer loop
      vertex 5.08253 11.1481 -1.39656
      vertex 4 10.6648 -3.20033
      vertex 5.08253 10.8265 -2.59663
    endloop
  endfacet
  facet normal -0.707098 0.683014 -0.18304
    outer loop
      vertex -17.1627 11.7743 -2.61543
      vertex -16.9108 12.0819 -2.44073
      vertex -16.9108 12.033 -2.6232
    endloop
  endfacet
  facet normal -0.707118 0.683006 -0.182997
    outer loop
      vertex -16.9108 12.0819 -2.44073
      vertex -17.1627 11.7743 -2.61543
      vertex -16.9108 12.2062 -1.9768
    endloop
  endfacet
  facet normal -0.707128 0.682997 -0.182987
    outer loop
      vertex -17.1627 11.7743 -2.61543
      vertex -17.75 11.4468 -1.56828
      vertex -16.9108 12.2062 -1.9768
    endloop
  endfacet
  facet normal -0.707132 0.682992 -0.182991
    outer loop
      vertex -17.75 11.1711 -2.5973
      vertex -17.75 11.4468 -1.56828
      vertex -17.1627 11.7743 -2.61543
    endloop
  endfacet
  facet normal -0.707126 0.682999 -0.182992
    outer loop
      vertex -18.0186 10.8959 -2.58652
      vertex -17.75 11.4468 -1.56828
      vertex -17.75 11.1711 -2.5973
    endloop
  endfacet
  facet normal -0.70761 0.681202 -0.187755
    outer loop
      vertex -17.75 11.4468 -1.56828
      vertex -18.083 11.1427 -1.41659
      vertex -18.0699 11.1566 -1.41553
    endloop
  endfacet
  facet normal -0.707104 0.683017 -0.183008
    outer loop
      vertex -17.75 11.4468 -1.56828
      vertex -18.0186 10.8959 -2.58652
      vertex -18.083 11.1427 -1.41659
    endloop
  endfacet
  facet normal -0.707326 0.684225 -0.177558
    outer loop
      vertex -18.083 10.8319 -2.5766
      vertex -18.0186 10.8959 -2.58652
      vertex -18.0699 10.8434 -2.58447
    endloop
  endfacet
  facet normal -0.707035 0.683086 -0.183018
    outer loop
      vertex -18.0186 10.8959 -2.58652
      vertex -18.083 10.8319 -2.5766
      vertex -18.083 11.1427 -1.41659
    endloop
  endfacet
  facet normal -0.00829483 -0.965879 -0.258862
    outer loop
      vertex 0.375 -12.9027 -3.1479
      vertex 4 -12.9295 -3.16406
      vertex 0.375 -13.2218 -1.95726
    endloop
  endfacet
  facet normal -0.00454169 0.0192663 0.999804
    outer loop
      vertex 0.39703 -11.3054 -0.809525
      vertex 0.375 -11.3053 -0.809627
      vertex 0.375 -11.319 -0.809363
    endloop
  endfacet
  facet normal -0.00460175 0.0192663 0.999804
    outer loop
      vertex 0.39703 -11.3054 -0.809525
      vertex 4 -11.3235 -0.792593
      vertex 4 -11.3098 -0.792857
    endloop
  endfacet
  facet normal -0.00460125 0.0193628 0.999802
    outer loop
      vertex 4 -11.3235 -0.792593
      vertex 0.39703 -11.3054 -0.809525
      vertex 0.375 -11.319 -0.809363
    endloop
  endfacet
  facet normal -0.008297 -0.965877 -0.258868
    outer loop
      vertex 4 -12.9295 -3.16406
      vertex 4 -13.2531 -1.95666
      vertex 0.375 -13.2218 -1.95726
    endloop
  endfacet
  facet normal -0.00459867 -0.0192328 -0.999804
    outer loop
      vertex 0.375 -10.681 -3.19064
      vertex 4 -11.803 -3.18573
      vertex 4 -12.9295 -3.16406
    endloop
  endfacet
  facet normal -0.00460142 -0.0192417 -0.999804
    outer loop
      vertex 4 -11.803 -3.18573
      vertex 0.375 -10.681 -3.19064
      vertex 4 -10.6765 -3.20741
    endloop
  endfacet
  facet normal -0.00124138 -0.999999 -0
    outer loop
      vertex 4 -11.3235 -0.792593
      vertex 0.375 -11.319 -0.809363
      vertex 4 -11.3235 -0.792594
    endloop
  endfacet
  facet normal -0.00460217 -0.516546 0.856247
    outer loop
      vertex 0.375 -11.319 -0.809363
      vertex 4 -13.2531 -1.95666
      vertex 4 -11.3235 -0.792594
    endloop
  endfacet
  facet normal -0.00460183 -0.516546 0.856247
    outer loop
      vertex 0.375 -13.2218 -1.95726
      vertex 4 -13.2531 -1.95666
      vertex 0.375 -11.319 -0.809363
    endloop
  endfacet
  facet normal -0.00459926 -0.0192338 -0.999804
    outer loop
      vertex 0.375 -10.681 -3.19064
      vertex 4 -12.9295 -3.16406
      vertex 0.375 -12.9027 -3.1479
    endloop
  endfacet
  facet normal -0.00460059 0.517713 -0.855542
    outer loop
      vertex 0.375 -10.681 -3.19064
      vertex 4 -10.6648 -3.20033
      vertex 4 -10.6765 -3.20741
    endloop
  endfacet
  facet normal -0.00459138 0.51449 -0.857484
    outer loop
      vertex 4 -10.6648 -3.20033
      vertex 0.375 -10.681 -3.19064
      vertex 0.375 -10.6692 -3.18356
    endloop
  endfacet
  facet normal -0.0138725 0.0194062 0.999715
    outer loop
      vertex -3.22766 -11.2919 -0.859625
      vertex -3.25 -11.2919 -0.859935
      vertex -3.25 -11.3055 -0.859671
    endloop
  endfacet
  facet normal -0.0138025 0.0192647 0.999719
    outer loop
      vertex -3.22766 -11.2919 -0.859625
      vertex 0.375 -11.319 -0.809363
      vertex 0.375 -11.3053 -0.809627
    endloop
  endfacet
  facet normal -0.0138023 0.0192909 0.999719
    outer loop
      vertex 0.375 -11.319 -0.809363
      vertex -3.22766 -11.2919 -0.859625
      vertex -3.25 -11.3055 -0.859671
    endloop
  endfacet
  facet normal -0.0248797 -0.965616 -0.258778
    outer loop
      vertex -3.25 -12.8223 -3.09939
      vertex 0.375 -12.9027 -3.1479
      vertex -3.25 -13.1279 -1.95906
    endloop
  endfacet
  facet normal -0.0138056 -0.5165 0.856176
    outer loop
      vertex -3.25 -13.1279 -1.95906
      vertex 0.375 -11.319 -0.809363
      vertex -3.25 -11.3055 -0.859671
    endloop
  endfacet
  facet normal -0.0138043 -0.516502 0.856175
    outer loop
      vertex 0.375 -11.319 -0.809363
      vertex -3.25 -13.1279 -1.95906
      vertex 0.375 -13.2218 -1.95726
    endloop
  endfacet
  facet normal -0.0248842 -0.965613 -0.258791
    outer loop
      vertex 0.375 -12.9027 -3.1479
      vertex 0.375 -13.2218 -1.95726
      vertex -3.25 -13.1279 -1.95906
    endloop
  endfacet
  facet normal -0.0138031 -0.0192321 -0.99972
    outer loop
      vertex 0.375 -10.681 -3.19064
      vertex 0.375 -12.9027 -3.1479
      vertex -3.25 -10.6945 -3.14033
    endloop
  endfacet
  facet normal -0.0138049 -0.0192351 -0.99972
    outer loop
      vertex -3.25 -10.6945 -3.14033
      vertex 0.375 -12.9027 -3.1479
      vertex -3.25 -12.8223 -3.09939
    endloop
  endfacet
  facet normal -0.0138156 0.514447 -0.857411
    outer loop
      vertex -3.25 -10.6945 -3.14033
      vertex 0.375 -10.6692 -3.18356
      vertex 0.375 -10.681 -3.19064
    endloop
  endfacet
  facet normal -0.0138156 0.514447 -0.857411
    outer loop
      vertex 0.375 -10.6692 -3.18356
      vertex -3.25 -10.6945 -3.14033
      vertex -3.25 -10.6827 -3.13325
    endloop
  endfacet
  facet normal -0.0414416 -0.965093 -0.258609
    outer loop
      vertex -6.875 -12.6883 -3.01856
      vertex -3.25 -12.8223 -3.09939
      vertex -6.875 -12.9714 -1.96207
    endloop
  endfacet
  facet normal -0.0230205 0.0191885 0.999551
    outer loop
      vertex -6.85168 -11.2695 -0.943243
      vertex -6.875 -11.2694 -0.943782
      vertex -6.875 -11.2831 -0.943519
    endloop
  endfacet
  facet normal -0.0229992 0.019403 0.999547
    outer loop
      vertex -6.85168 -11.2695 -0.943243
      vertex -3.25 -11.3055 -0.859671
      vertex -3.25 -11.2919 -0.859935
    endloop
  endfacet
  facet normal -0.0230017 0.0191562 0.999552
    outer loop
      vertex -3.25 -11.3055 -0.859671
      vertex -6.85168 -11.2695 -0.943243
      vertex -6.875 -11.2831 -0.943519
    endloop
  endfacet
  facet normal -0.0414503 -0.965085 -0.258636
    outer loop
      vertex -3.25 -12.8223 -3.09939
      vertex -3.25 -13.1279 -1.95906
      vertex -6.875 -12.9714 -1.96207
    endloop
  endfacet
  facet normal -0.0230018 -0.0192319 -0.99955
    outer loop
      vertex -3.25 -10.6945 -3.14033
      vertex -3.25 -12.8223 -3.09939
      vertex -6.875 -10.7169 -3.05648
    endloop
  endfacet
  facet normal -0.0229913 -0.516435 0.856018
    outer loop
      vertex -6.875 -12.9714 -1.96207
      vertex -3.25 -11.3055 -0.859671
      vertex -6.875 -11.2831 -0.943519
    endloop
  endfacet
  facet normal -0.0230056 -0.516413 0.856031
    outer loop
      vertex -3.25 -11.3055 -0.859671
      vertex -6.875 -12.9714 -1.96207
      vertex -3.25 -13.1279 -1.95906
    endloop
  endfacet
  facet normal -0.0229986 -0.0192264 -0.999551
    outer loop
      vertex -6.875 -10.7169 -3.05648
      vertex -3.25 -12.8223 -3.09939
      vertex -6.875 -12.6883 -3.01856
    endloop
  endfacet
  facet normal -0.022987 0.517046 -0.855649
    outer loop
      vertex -6.875 -10.7052 -3.04941
      vertex -3.25 -10.6945 -3.14033
      vertex -6.875 -10.7169 -3.05648
    endloop
  endfacet
  facet normal -0.0230197 0.514359 -0.857266
    outer loop
      vertex -3.25 -10.6945 -3.14033
      vertex -6.875 -10.7052 -3.04941
      vertex -3.25 -10.6827 -3.13325
    endloop
  endfacet
  facet normal -0.0579727 -0.964283 -0.258452
    outer loop
      vertex -10.5 -12.5007 -2.90538
      vertex -6.875 -12.6883 -3.01856
      vertex -10.5 -12.7524 -1.96629
    endloop
  endfacet
  facet normal -0.0322911 0.0189648 0.999299
    outer loop
      vertex -10.4748 -11.2382 -1.06035
      vertex -10.5 -11.2379 -1.06117
      vertex -10.5 -11.2516 -1.06091
    endloop
  endfacet
  facet normal -0.0321928 0.0191836 0.999298
    outer loop
      vertex -10.4748 -11.2382 -1.06035
      vertex -6.875 -11.2831 -0.943519
      vertex -6.875 -11.2694 -0.943782
    endloop
  endfacet
  facet normal -0.0321979 0.0187894 0.999305
    outer loop
      vertex -6.875 -11.2831 -0.943519
      vertex -10.4748 -11.2382 -1.06035
      vertex -10.5 -11.2516 -1.06091
    endloop
  endfacet
  facet normal -0.0579561 -0.964299 -0.258396
    outer loop
      vertex -6.875 -12.6883 -3.01856
      vertex -6.875 -12.9714 -1.96207
      vertex -10.5 -12.7524 -1.96629
    endloop
  endfacet
  facet normal -0.0321936 -0.0192215 -0.999297
    outer loop
      vertex -6.875 -10.7169 -3.05648
      vertex -6.875 -12.6883 -3.01856
      vertex -10.5 -10.7484 -2.93909
    endloop
  endfacet
  facet normal -0.0322007 -0.516282 0.855813
    outer loop
      vertex -10.5 -12.7524 -1.96629
      vertex -6.875 -11.2831 -0.943519
      vertex -10.5 -11.2516 -1.06091
    endloop
  endfacet
  facet normal -0.0321882 -0.516304 0.8558
    outer loop
      vertex -6.875 -11.2831 -0.943519
      vertex -10.5 -12.7524 -1.96629
      vertex -6.875 -12.9714 -1.96207
    endloop
  endfacet
  facet normal -0.032195 -0.019224 -0.999297
    outer loop
      vertex -10.5 -10.7484 -2.93909
      vertex -6.875 -12.6883 -3.01856
      vertex -10.5 -12.5007 -2.90538
    endloop
  endfacet
  facet normal -0.0322284 0.513694 -0.857368
    outer loop
      vertex -10.5 -10.7366 -2.93202
      vertex -6.875 -10.7169 -3.05648
      vertex -10.5 -10.7484 -2.93909
    endloop
  endfacet
  facet normal -0.0321794 0.516915 -0.855432
    outer loop
      vertex -6.875 -10.7169 -3.05648
      vertex -10.5 -10.7366 -2.93202
      vertex -6.875 -10.7052 -3.04941
    endloop
  endfacet
  facet normal -0.074424 -0.963274 -0.258002
    outer loop
      vertex -14.125 -12.2596 -2.75987
      vertex -10.5 -12.5007 -2.90538
      vertex -14.125 -12.4707 -1.97171
    endloop
  endfacet
  facet normal -0.0414435 0.0196873 0.998947
    outer loop
      vertex -14.0967 -11.1978 -1.21092
      vertex -14.125 -11.1975 -1.2121
      vertex -14.125 -11.2112 -1.21183
    endloop
  endfacet
  facet normal -0.0413809 0.0189584 0.998964
    outer loop
      vertex -14.0967 -11.1978 -1.21092
      vertex -10.5 -11.2516 -1.06091
      vertex -10.5 -11.2379 -1.06117
    endloop
  endfacet
  facet normal -0.0413718 0.0195354 0.998953
    outer loop
      vertex -10.5 -11.2516 -1.06091
      vertex -14.0967 -11.1978 -1.21092
      vertex -14.125 -11.2112 -1.21183
    endloop
  endfacet
  facet normal -0.0744666 -0.963226 -0.258169
    outer loop
      vertex -10.5 -12.5007 -2.90538
      vertex -10.5 -12.7524 -1.96629
      vertex -14.125 -12.4707 -1.97171
    endloop
  endfacet
  facet normal -0.0413756 -0.0192175 -0.998959
    outer loop
      vertex -10.5 -10.7484 -2.93909
      vertex -10.5 -12.5007 -2.90538
      vertex -14.125 -10.7888 -2.78817
    endloop
  endfacet
  facet normal -0.0413696 -0.516141 0.855504
    outer loop
      vertex -14.125 -12.4707 -1.97171
      vertex -10.5 -11.2516 -1.06091
      vertex -14.125 -11.2112 -1.21183
    endloop
  endfacet
  facet normal -0.041386 -0.516107 0.855523
    outer loop
      vertex -10.5 -11.2516 -1.06091
      vertex -14.125 -12.4707 -1.97171
      vertex -10.5 -12.7524 -1.96629
    endloop
  endfacet
  facet normal -0.0413773 -0.0192212 -0.998959
    outer loop
      vertex -14.125 -10.7888 -2.78817
      vertex -10.5 -12.5007 -2.90538
      vertex -14.125 -12.2596 -2.75987
    endloop
  endfacet
  facet normal -0.0413537 0.517275 -0.854819
    outer loop
      vertex -14.125 -10.7771 -2.78109
      vertex -10.5 -10.7484 -2.93909
      vertex -14.125 -10.7888 -2.78817
    endloop
  endfacet
  facet normal -0.0414224 0.51352 -0.857077
    outer loop
      vertex -10.5 -10.7484 -2.93909
      vertex -14.125 -10.7771 -2.78109
      vertex -10.5 -10.7366 -2.93202
    endloop
  endfacet
  facet normal -0.0504514 0.0196791 0.998533
    outer loop
      vertex -14.125 -11.2112 -1.21183
      vertex -14.125 -11.1975 -1.2121
      vertex -14.1691 -11.1969 -1.21434
    endloop
  endfacet
  facet normal -0.0505505 -0.0192131 -0.998537
    outer loop
      vertex -16.9108 -12.033 -2.6232
      vertex -14.125 -10.7888 -2.78817
      vertex -14.125 -12.2596 -2.75987
    endloop
  endfacet
  facet normal -0.050545 -0.0192255 -0.998537
    outer loop
      vertex -14.125 -10.7888 -2.78817
      vertex -16.9108 -12.033 -2.6232
      vertex -17.1627 -11.7743 -2.61543
    endloop
  endfacet
  facet normal -0.0505472 -0.515923 0.855142
    outer loop
      vertex -14.125 -11.2112 -1.21183
      vertex -16.9108 -12.2062 -1.9768
      vertex -14.125 -12.4707 -1.97171
    endloop
  endfacet
  facet normal -0.0505475 -0.515923 0.855142
    outer loop
      vertex -17.75 -11.1618 -1.3963
      vertex -16.9108 -12.2062 -1.9768
      vertex -14.125 -11.2112 -1.21183
    endloop
  endfacet
  facet normal -0.050673 -0.515995 0.855091
    outer loop
      vertex -16.9108 -12.2062 -1.9768
      vertex -17.75 -11.1618 -1.3963
      vertex -17.75 -11.4468 -1.56828
    endloop
  endfacet
  facet normal -0.0908608 -0.961935 -0.25773
    outer loop
      vertex -16.9108 -12.0819 -2.44073
      vertex -14.125 -12.4707 -1.97171
      vertex -16.9108 -12.2062 -1.9768
    endloop
  endfacet
  facet normal -0.0908902 -0.961918 -0.257784
    outer loop
      vertex -14.125 -12.2596 -2.75987
      vertex -16.9108 -12.0819 -2.44073
      vertex -16.9108 -12.033 -2.6232
    endloop
  endfacet
  facet normal -0.0908772 -0.961955 -0.257649
    outer loop
      vertex -16.9108 -12.0819 -2.44073
      vertex -14.125 -12.2596 -2.75987
      vertex -14.125 -12.4707 -1.97171
    endloop
  endfacet
  facet normal -0.0505542 0.0189504 0.998542
    outer loop
      vertex -17.75 -11.1618 -1.3963
      vertex -14.1691 -11.1969 -1.21434
      vertex -17.75 -11.1481 -1.39656
    endloop
  endfacet
  facet normal -0.0505496 0.0193764 0.998534
    outer loop
      vertex -14.1691 -11.1969 -1.21434
      vertex -17.75 -11.1618 -1.3963
      vertex -14.125 -11.2112 -1.21183
    endloop
  endfacet
  facet normal -0.0505415 -0.0191969 -0.998537
    outer loop
      vertex -17.75 -10.8382 -2.6037
      vertex -17.1627 -11.7743 -2.61543
      vertex -17.75 -11.1711 -2.5973
    endloop
  endfacet
  facet normal -0.0505521 -0.0192035 -0.998537
    outer loop
      vertex -17.1627 -11.7743 -2.61543
      vertex -17.75 -10.8382 -2.6037
      vertex -14.125 -10.7888 -2.78817
    endloop
  endfacet
  facet normal -0.0505373 0.516522 -0.854781
    outer loop
      vertex -17.75 -10.8265 -2.59663
      vertex -14.125 -10.7888 -2.78817
      vertex -17.75 -10.8382 -2.6037
    endloop
  endfacet
  facet normal -0.0505258 0.517057 -0.854458
    outer loop
      vertex -14.125 -10.7888 -2.78817
      vertex -17.75 -10.8265 -2.59663
      vertex -14.125 -10.7771 -2.78109
    endloop
  endfacet
  facet normal -0.0597248 0.0189408 0.998035
    outer loop
      vertex -17.75 -11.1618 -1.3963
      vertex -17.75 -11.1481 -1.39656
      vertex -17.819 -11.147 -1.40071
    endloop
  endfacet
  facet normal -0.0597136 -0.0191871 -0.998031
    outer loop
      vertex -17.75 -10.8382 -2.6037
      vertex -17.75 -11.1711 -2.5973
      vertex -18.0186 -10.8959 -2.58652
    endloop
  endfacet
  facet normal -0.0597592 -0.515736 0.854661
    outer loop
      vertex -17.75 -11.4468 -1.56828
      vertex -17.75 -11.1618 -1.3963
      vertex -18.0699 -11.1566 -1.41553
    endloop
  endfacet
  facet normal -0.0596833 0.0191338 0.998034
    outer loop
      vertex -17.819 -11.147 -1.40071
      vertex -18.0699 -11.1566 -1.41553
      vertex -17.75 -11.1618 -1.3963
    endloop
  endfacet
  facet normal -0.0597093 0.0198351 0.998019
    outer loop
      vertex -18.0699 -11.1566 -1.41553
      vertex -17.819 -11.147 -1.40071
      vertex -18.083 -11.1427 -1.41659
    endloop
  endfacet
  facet normal -0.0596797 -0.0193449 -0.99803
    outer loop
      vertex -17.75 -10.8382 -2.6037
      vertex -18.0186 -10.8959 -2.58652
      vertex -18.0699 -10.8434 -2.58447
    endloop
  endfacet
  facet normal -0.0597487 0.516259 -0.854346
    outer loop
      vertex -18.0699 -10.8434 -2.58447
      vertex -17.75 -10.8265 -2.59663
      vertex -17.75 -10.8382 -2.6037
    endloop
  endfacet
  facet normal -0.0597559 0.5165 -0.8542
    outer loop
      vertex -17.75 -10.8265 -2.59663
      vertex -18.0699 -10.8434 -2.58447
      vertex -18.083 -10.8319 -2.5766
    endloop
  endfacet
  facet normal 0.485101 0.0165926 0.874301
    outer loop
      vertex 4 -11.3098 -0.792856
      vertex 5.08253 -11.1618 -1.3963
      vertex 5.08253 -11.1481 -1.39656
    endloop
  endfacet
  facet normal 0.485079 0.0167842 0.874309
    outer loop
      vertex 5.08253 -11.1618 -1.3963
      vertex 4 -11.3098 -0.792856
      vertex 4 -11.3235 -0.792593
    endloop
  endfacet
  facet normal 0.707077 -0.683058 -0.182956
    outer loop
      vertex 5.08253 -12.1265 -1.97833
      vertex 4 -12.9295 -3.16406
      vertex 5.08253 -11.9648 -2.58203
    endloop
  endfacet
  facet normal 0.707125 -0.682984 -0.183049
    outer loop
      vertex 5.08253 -12.1265 -1.97833
      vertex 4 -13.2531 -1.95666
      vertex 4 -12.9295 -3.16406
    endloop
  endfacet
  facet normal 0.485069 -0.0168188 -0.874314
    outer loop
      vertex 4 -11.803 -3.18573
      vertex 5.08253 -11.9648 -2.58203
      vertex 4 -12.9295 -3.16406
    endloop
  endfacet
  facet normal 0.485069 -0.0168173 -0.874314
    outer loop
      vertex 5.08253 -11.9648 -2.58203
      vertex 4 -11.803 -3.18573
      vertex 5.08253 -10.8382 -2.6037
    endloop
  endfacet
  facet normal 0.485076 -0.0168265 -0.87431
    outer loop
      vertex 5.08253 -10.8382 -2.6037
      vertex 4 -11.803 -3.18573
      vertex 4 -10.6765 -3.20741
    endloop
  endfacet
  facet normal -1 0 0
    outer loop
      vertex 4 -13.2531 -1.95666
      vertex 4 -11.3235 -0.792593
      vertex 4 -11.3235 -0.792594
    endloop
  endfacet
  facet normal 0.484978 0.45229 -0.748485
    outer loop
      vertex 4 -10.6765 -3.20741
      vertex 5.08253 -10.8265 -2.59663
      vertex 5.08253 -10.8382 -2.6037
    endloop
  endfacet
  facet normal 0.484905 0.452779 -0.748236
    outer loop
      vertex 5.08253 -10.8265 -2.59663
      vertex 4 -10.6765 -3.20741
      vertex 4 -10.6648 -3.20033
    endloop
  endfacet
  facet normal 0.485051 -0.45175 0.748764
    outer loop
      vertex 4 -11.3235 -0.792593
      vertex 5.08253 -12.1265 -1.97833
      vertex 5.08253 -11.1618 -1.3963
    endloop
  endfacet
  facet normal 0.485086 -0.451708 0.748767
    outer loop
      vertex 5.08253 -12.1265 -1.97833
      vertex 4 -11.3235 -0.792593
      vertex 4 -13.2531 -1.95666
    endloop
  endfacet
  facet normal 1 0 0
    outer loop
      vertex 5.08253 -11.1481 -1.39656
      vertex 5.08253 -10.8382 -2.6037
      vertex 5.08253 -10.8265 -2.59663
    endloop
  endfacet
  facet normal 1 0 0
    outer loop
      vertex 5.08253 -11.1618 -1.3963
      vertex 5.08253 -10.8382 -2.6037
      vertex 5.08253 -11.1481 -1.39656
    endloop
  endfacet
  facet normal 1 0 0
    outer loop
      vertex 5.08253 -11.1618 -1.3963
      vertex 5.08253 -11.9648 -2.58203
      vertex 5.08253 -10.8382 -2.6037
    endloop
  endfacet
  facet normal 1 0 -0
    outer loop
      vertex 5.08253 -11.9648 -2.58203
      vertex 5.08253 -11.1618 -1.3963
      vertex 5.08253 -12.1265 -1.97833
    endloop
  endfacet
  facet normal -1 0 0
    outer loop
      vertex 4 -11.3235 -0.792593
      vertex 4 -11.3098 -0.792856
      vertex 4 -11.3098 -0.792857
    endloop
  endfacet
  facet normal -1.81093e-05 0.965906 0.258893
    outer loop
      vertex 1 -11.0916 -1.60715
      vertex 0.39703 -11.3054 -0.809525
      vertex 4 -11.3098 -0.792857
    endloop
  endfacet
  facet normal 0.00317263 0.965295 0.261142
    outer loop
      vertex 0.39703 -11.3054 -0.809525
      vertex 1 -11.0916 -1.60715
      vertex 0.375 -11.3053 -0.809627
    endloop
  endfacet
  facet normal -0 0.965925 0.258824
    outer loop
      vertex -1 -11.0916 -1.60715
      vertex 0.375 -11.3053 -0.809627
      vertex 1 -11.0916 -1.60715
    endloop
  endfacet
  facet normal 7.69996e-07 0.965925 0.258823
    outer loop
      vertex 0.375 -11.3053 -0.809627
      vertex -1 -11.0916 -1.60715
      vertex -3.22766 -11.2919 -0.859625
    endloop
  endfacet
  facet normal 2.35322e-05 0.965928 0.258812
    outer loop
      vertex -3.25 -10.6827 -3.13325
      vertex -3.22766 -11.2919 -0.859625
      vertex -1 -10.9864 -2
    endloop
  endfacet
  facet normal 2.01757e-05 0.965919 0.258846
    outer loop
      vertex -3.25 -11.2919 -0.859935
      vertex -3.25 -10.6827 -3.13325
      vertex -6.85168 -11.2695 -0.943243
    endloop
  endfacet
  facet normal -0.00359184 0.965912 0.258844
    outer loop
      vertex -3.22766 -11.2919 -0.859625
      vertex -3.25 -10.6827 -3.13325
      vertex -3.25 -11.2919 -0.859935
    endloop
  endfacet
  facet normal -9.18439e-06 0.965926 0.258818
    outer loop
      vertex -6.875 -11.2694 -0.943782
      vertex -6.875 -10.7052 -3.04941
      vertex -10.4748 -11.2382 -1.06035
    endloop
  endfacet
  facet normal -9.84618e-06 0.965931 0.2588
    outer loop
      vertex -6.875 -10.7052 -3.04941
      vertex -6.85168 -11.2695 -0.943243
      vertex -3.25 -10.6827 -3.13325
    endloop
  endfacet
  facet normal -6.97505e-06 0.965925 0.258823
    outer loop
      vertex -10.5 -11.2379 -1.06117
      vertex -10.5 -10.7366 -2.93202
      vertex -14.0967 -11.1978 -1.21092
    endloop
  endfacet
  facet normal -0.147733 0.989027 0
    outer loop
      vertex 5.08253 -11.1481 -1.39656
      vertex 4 -11.3098 -0.792857
      vertex 4 -11.3098 -0.792856
    endloop
  endfacet
  facet normal 3.70823e-05 0.965934 0.258789
    outer loop
      vertex 4 -10.6648 -3.20033
      vertex 4 -11.3098 -0.792857
      vertex 5.08253 -11.1481 -1.39656
    endloop
  endfacet
  facet normal -1.62173e-05 0.96593 0.258805
    outer loop
      vertex -14.125 -10.7771 -2.78109
      vertex -14.0967 -11.1978 -1.21092
      vertex -10.5 -10.7366 -2.93202
    endloop
  endfacet
  facet normal -0.000552006 0.965927 0.258813
    outer loop
      vertex -14.0967 -11.1978 -1.21092
      vertex -14.125 -10.7771 -2.78109
      vertex -14.125 -11.1975 -1.2121
    endloop
  endfacet
  facet normal -4.21592e-06 0.965927 0.258814
    outer loop
      vertex -14.125 -11.1975 -1.2121
      vertex -14.125 -10.7771 -2.78109
      vertex -14.1691 -11.1969 -1.21434
    endloop
  endfacet
  facet normal -5.32302e-05 0.965965 0.258673
    outer loop
      vertex -1 -10.9864 -2
      vertex -3.22766 -11.2919 -0.859625
      vertex -1 -11.0916 -1.60715
    endloop
  endfacet
  facet normal -4.07466e-06 0.965934 0.258789
    outer loop
      vertex 1 -10.9864 -2
      vertex 4 -11.3098 -0.792857
      vertex 4 -10.6648 -3.20033
    endloop
  endfacet
  facet normal 0 0.965912 0.258869
    outer loop
      vertex 0.375 -10.6692 -3.18356
      vertex -1 -10.9864 -2
      vertex 1 -10.9864 -2
    endloop
  endfacet
  facet normal -9.33474e-05 0.965916 0.258855
    outer loop
      vertex -17.819 -11.147 -1.40071
      vertex -17.75 -10.8265 -2.59663
      vertex -18.083 -10.8319 -2.5766
    endloop
  endfacet
  facet normal -7.33119e-05 0.965917 0.258851
    outer loop
      vertex 4 -10.6648 -3.20033
      vertex 5.08253 -11.1481 -1.39656
      vertex 5.08253 -10.8265 -2.59663
    endloop
  endfacet
  facet normal 4.61008e-05 0.965965 0.258673
    outer loop
      vertex 4 -11.3098 -0.792857
      vertex 1 -10.9864 -2
      vertex 1 -11.0916 -1.60715
    endloop
  endfacet
  facet normal -0.000169877 0.965917 0.258851
    outer loop
      vertex -17.75 -11.1481 -1.39656
      vertex -17.75 -10.8265 -2.59663
      vertex -17.819 -11.147 -1.40071
    endloop
  endfacet
  facet normal -8.66179e-06 0.965917 0.258851
    outer loop
      vertex -14.1691 -11.1969 -1.21434
      vertex -17.75 -10.8265 -2.59663
      vertex -17.75 -11.1481 -1.39656
    endloop
  endfacet
  facet normal 0.00307709 0.96592 0.258821
    outer loop
      vertex -10.4748 -11.2382 -1.06035
      vertex -10.5 -10.7366 -2.93202
      vertex -10.5 -11.2379 -1.06117
    endloop
  endfacet
  facet normal -0.00184007 0.965924 0.258818
    outer loop
      vertex -6.85168 -11.2695 -0.943243
      vertex -6.875 -10.7052 -3.04941
      vertex -6.875 -11.2694 -0.943782
    endloop
  endfacet
  facet normal -4.51422e-06 0.965914 0.258864
    outer loop
      vertex -1 -10.9864 -2
      vertex 0.375 -10.6692 -3.18356
      vertex -3.25 -10.6827 -3.13325
    endloop
  endfacet
  facet normal 2.51041e-05 0.965916 0.258857
    outer loop
      vertex 1 -10.9864 -2
      vertex 4 -10.6648 -3.20033
      vertex 0.375 -10.6692 -3.18356
    endloop
  endfacet
  facet normal 1.59928e-05 0.965915 0.258861
    outer loop
      vertex -10.5 -10.7366 -2.93202
      vertex -10.4748 -11.2382 -1.06035
      vertex -6.875 -10.7052 -3.04941
    endloop
  endfacet
  facet normal 6.6182e-06 0.965927 0.258814
    outer loop
      vertex -17.75 -10.8265 -2.59663
      vertex -14.1691 -11.1969 -1.21434
      vertex -14.125 -10.7771 -2.78109
    endloop
  endfacet
  facet normal 0.000165715 0.965931 0.258801
    outer loop
      vertex -17.819 -11.147 -1.40071
      vertex -18.083 -10.8319 -2.5766
      vertex -18.083 -11.1427 -1.41659
    endloop
  endfacet
  facet normal -0.707326 -0.684225 -0.177558
    outer loop
      vertex -18.0186 -10.8959 -2.58652
      vertex -18.083 -10.8319 -2.5766
      vertex -18.0699 -10.8434 -2.58447
    endloop
  endfacet
  facet normal -0.707035 -0.683086 -0.183018
    outer loop
      vertex -18.0186 -10.8959 -2.58652
      vertex -18.083 -11.1427 -1.41659
      vertex -18.083 -10.8319 -2.5766
    endloop
  endfacet
  facet normal -0.707104 -0.683017 -0.183008
    outer loop
      vertex -17.75 -11.4468 -1.56828
      vertex -18.083 -11.1427 -1.41659
      vertex -18.0186 -10.8959 -2.58652
    endloop
  endfacet
  facet normal -0.707126 -0.682999 -0.182992
    outer loop
      vertex -17.75 -11.4468 -1.56828
      vertex -18.0186 -10.8959 -2.58652
      vertex -17.75 -11.1711 -2.5973
    endloop
  endfacet
  facet normal -0.70761 -0.681202 -0.187755
    outer loop
      vertex -18.083 -11.1427 -1.41659
      vertex -17.75 -11.4468 -1.56828
      vertex -18.0699 -11.1566 -1.41553
    endloop
  endfacet
  facet normal -0.707132 -0.682992 -0.182991
    outer loop
      vertex -17.1627 -11.7743 -2.61543
      vertex -17.75 -11.4468 -1.56828
      vertex -17.75 -11.1711 -2.5973
    endloop
  endfacet
  facet normal -0.707098 -0.683014 -0.18304
    outer loop
      vertex -16.9108 -12.0819 -2.44073
      vertex -17.1627 -11.7743 -2.61543
      vertex -16.9108 -12.033 -2.6232
    endloop
  endfacet
  facet normal -0.707118 -0.683006 -0.182997
    outer loop
      vertex -16.9108 -12.2062 -1.9768
      vertex -17.1627 -11.7743 -2.61543
      vertex -16.9108 -12.0819 -2.44073
    endloop
  endfacet
  facet normal -0.707128 -0.682997 -0.182987
    outer loop
      vertex -17.1627 -11.7743 -2.61543
      vertex -16.9108 -12.2062 -1.9768
      vertex -17.75 -11.4468 -1.56828
    endloop
  endfacet
endsolid OpenSCAD_Model
