solid OpenSCAD_Model
  facet normal -0 0 1
    outer loop
      vertex -7.99 1 1.55885
      vertex -6.70322 -1 1.55885
      vertex -6.70322 1 1.55885
    endloop
  endfacet
  facet normal 0 0 1
    outer loop
      vertex -6.70322 -1 1.55885
      vertex -7.99 1 1.55885
      vertex -7.99 -1 1.55885
    endloop
  endfacet
  facet normal -0 0 1
    outer loop
      vertex -0.99 1 1.55885
      vertex -0.01 -1 1.55885
      vertex -0.01 1 1.55885
    endloop
  endfacet
  facet normal 0 0 1
    outer loop
      vertex -0.01 -1 1.55885
      vertex -0.99 1 1.55885
      vertex -0.99 -1 1.55885
    endloop
  endfacet
  facet normal 0 0.841698 0.539948
    outer loop
      vertex -0.01 2 0
      vertex -0.99 1 1.55885
      vertex -0.01 1 1.55885
    endloop
  endfacet
  facet normal 0 0.841698 0.539948
    outer loop
      vertex -0.99 1 1.55885
      vertex -0.01 2 0
      vertex -0.99 2 0
    endloop
  endfacet
  facet normal 0 0.841698 0.539948
    outer loop
      vertex -7.6775 2 0
      vertex -7.99 1 1.55885
      vertex -6.70322 1 1.55885
    endloop
  endfacet
  facet normal 0 0.841698 0.539948
    outer loop
      vertex -7.99 1 1.55885
      vertex -7.6775 2 0
      vertex -7.99 2 0
    endloop
  endfacet
  facet normal 0 0.841698 -0.539949
    outer loop
      vertex -0.01 1.67925 -0.5
      vertex -0.99 2 0
      vertex -0.01 2 0
    endloop
  endfacet
  facet normal 0 0.841698 -0.539949
    outer loop
      vertex -0.99 2 0
      vertex -0.01 1.67925 -0.5
      vertex -0.99 1.67925 -0.5
    endloop
  endfacet
  facet normal 0 0.841698 -0.539949
    outer loop
      vertex -7.6775 2 0
      vertex -7.99 1.67925 -0.5
      vertex -7.99 2 0
    endloop
  endfacet
  facet normal 0 -0.841698 -0.539949
    outer loop
      vertex -0.99 -1.67925 -0.5
      vertex -0.01 -2 0
      vertex -0.99 -2 0
    endloop
  endfacet
  facet normal 0 -0.841698 -0.539949
    outer loop
      vertex -0.01 -2 0
      vertex -0.99 -1.67925 -0.5
      vertex -0.01 -1.67925 -0.5
    endloop
  endfacet
  facet normal -0 -0.841698 -0.539949
    outer loop
      vertex -7.6775 -2 0
      vertex -7.99 -2 0
      vertex -7.99 -1.67925 -0.5
    endloop
  endfacet
  facet normal 0 -0.841698 0.539948
    outer loop
      vertex -7.6775 -2 0
      vertex -7.99 -1 1.55885
      vertex -7.99 -2 0
    endloop
  endfacet
  facet normal 0 -0.841698 0.539948
    outer loop
      vertex -7.99 -1 1.55885
      vertex -7.6775 -2 0
      vertex -6.70322 -1 1.55885
    endloop
  endfacet
  facet normal 0 -0.841698 0.539948
    outer loop
      vertex -0.99 -2 0
      vertex -0.01 -1 1.55885
      vertex -0.99 -1 1.55885
    endloop
  endfacet
  facet normal 0 -0.841698 0.539948
    outer loop
      vertex -0.01 -1 1.55885
      vertex -0.99 -2 0
      vertex -0.01 -2 0
    endloop
  endfacet
  facet normal -1 0 0
    outer loop
      vertex -7.99 1.67925 -0.5
      vertex -7.99 1 1.55885
      vertex -7.99 2 0
    endloop
  endfacet
  facet normal -1 0 0
    outer loop
      vertex -7.99 1.67925 -0.5
      vertex -7.99 -1 1.55885
      vertex -7.99 1 1.55885
    endloop
  endfacet
  facet normal -1 0 0
    outer loop
      vertex -7.99 -1.67925 -0.5
      vertex -7.99 -1 1.55885
      vertex -7.99 1.67925 -0.5
    endloop
  endfacet
  facet normal -1 0 0
    outer loop
      vertex -7.99 -1 1.55885
      vertex -7.99 -1.67925 -0.5
      vertex -7.99 -2 0
    endloop
  endfacet
  facet normal 0 0 -1
    outer loop
      vertex -7.99 -1.67925 -0.5
      vertex -0.99 -1.67925 -0.5
      vertex -0.99 -2.88675 -0.5
    endloop
  endfacet
  facet normal 0 0 -1
    outer loop
      vertex -0.99 -1.67925 -0.5
      vertex -7.99 -1.67925 -0.5
      vertex -0.99 1.67925 -0.5
    endloop
  endfacet
  facet normal 0 0 -1
    outer loop
      vertex -7.99 -1.67925 -0.5
      vertex -0.99 -2.88675 -0.5
      vertex -7.99 -6.9282 -0.5
    endloop
  endfacet
  facet normal 0 0 -1
    outer loop
      vertex -7.99 1.67925 -0.5
      vertex -0.99 1.67925 -0.5
      vertex -7.99 -1.67925 -0.5
    endloop
  endfacet
  facet normal 0 0 -1
    outer loop
      vertex -0.99 1.67925 -0.5
      vertex -7.99 1.67925 -0.5
      vertex -0.99 2.88675 -0.5
    endloop
  endfacet
  facet normal -0 0 -1
    outer loop
      vertex -0.99 2.88675 -0.5
      vertex -7.99 1.67925 -0.5
      vertex -7.99 6.9282 -0.5
    endloop
  endfacet
  facet normal 0 0 -1
    outer loop
      vertex -0.99 -1.67925 -0.5
      vertex -0.01 1.67925 -0.5
      vertex -0.01 -1.67925 -0.5
    endloop
  endfacet
  facet normal -0 0 -1
    outer loop
      vertex -0.01 1.67925 -0.5
      vertex -0.99 -1.67925 -0.5
      vertex -0.99 1.67925 -0.5
    endloop
  endfacet
  facet normal 0 0 -1
    outer loop
      vertex 5.00758 -1.2 -0.5
      vertex 5.72187 1.03504 -0.5
      vertex 5.72187 -1.03504 -0.5
    endloop
  endfacet
  facet normal 0 0 -1
    outer loop
      vertex 5.00758 -1.2 -0.5
      vertex 5.00758 1.2 -0.5
      vertex 5.72187 1.03504 -0.5
    endloop
  endfacet
  facet normal 0 0 -1
    outer loop
      vertex 1.24 -2.07009 -0.5
      vertex 5.00758 1.2 -0.5
      vertex 5.00758 -1.2 -0.5
    endloop
  endfacet
  facet normal 0 0 -1
    outer loop
      vertex 1.24 -2.07009 -0.5
      vertex 1.24 2.07009 -0.5
      vertex 5.00758 1.2 -0.5
    endloop
  endfacet
  facet normal 0 0 -1
    outer loop
      vertex -0.01 -1.67925 -0.5
      vertex 1.24 -2.07009 -0.5
      vertex -0.01 -1.78141 -0.5
    endloop
  endfacet
  facet normal 0 0 -1
    outer loop
      vertex 1.24 -2.07009 -0.5
      vertex -0.01 -1.67925 -0.5
      vertex 1.24 2.07009 -0.5
    endloop
  endfacet
  facet normal 0 0 -1
    outer loop
      vertex -0.01 1.67925 -0.5
      vertex 1.24 2.07009 -0.5
      vertex -0.01 -1.67925 -0.5
    endloop
  endfacet
  facet normal 0 0 -1
    outer loop
      vertex 1.24 2.07009 -0.5
      vertex -0.01 1.67925 -0.5
      vertex -0.01 1.78141 -0.5
    endloop
  endfacet
  facet normal 0.0951953 -0.164883 -0.981708
    outer loop
      vertex -7.71882 -6.77164 -0.499999
      vertex -7.99 -6.9282 -0.5
      vertex -2.92901 -4.00624 -0.499999
    endloop
  endfacet
  facet normal 0.423985 -0.734394 0.530002
    outer loop
      vertex -7.99 -6.9282 -0.5
      vertex -7.71882 -6.77164 -0.499999
      vertex -7.677 -6.38608 0.000795156
    endloop
  endfacet
  facet normal 0.424002 -0.734388 0.529997
    outer loop
      vertex -5.18551 -4.443 0.699999
      vertex -6.49 -4.33013 1.9
      vertex -7.24 -5.62917 0.699999
    endloop
  endfacet
  facet normal 0.423999 -0.734391 0.529994
    outer loop
      vertex -5.18551 -4.443 0.699999
      vertex -0.99 -2.06197 0.642857
      vertex -6.49 -4.33013 1.9
    endloop
  endfacet
  facet normal 0.423997 -0.734388 0.53
    outer loop
      vertex -2.92901 -4.00624 -0.499999
      vertex -0.99 -2.06197 0.642857
      vertex -5.18551 -4.443 0.699999
    endloop
  endfacet
  facet normal 0.424001 -0.734389 0.529996
    outer loop
      vertex -2.92901 -4.00624 -0.499999
      vertex -0.99 -2.88675 -0.5
      vertex -0.99 -2.06197 0.642857
    endloop
  endfacet
  facet normal 0.204486 -0.354181 -0.912547
    outer loop
      vertex -0.99 -2.88675 -0.5
      vertex -2.92901 -4.00624 -0.499999
      vertex -7.99 -6.9282 -0.5
    endloop
  endfacet
  facet normal -0.847998 2.27762e-07 0.529999
    outer loop
      vertex -7.99 -1.67925 -0.5
      vertex -7.99 -4.00624 -0.499999
      vertex -7.6775 -2 0
    endloop
  endfacet
  facet normal -1 0 0
    outer loop
      vertex -7.99 -1.67925 -0.5
      vertex -7.99 -6.77164 -0.499999
      vertex -7.99 -4.00624 -0.499999
    endloop
  endfacet
  facet normal -1 0 -0
    outer loop
      vertex -7.99 -6.77164 -0.499999
      vertex -7.99 -1.67925 -0.5
      vertex -7.99 -6.9282 -0.5
    endloop
  endfacet
  facet normal -1 0 0
    outer loop
      vertex -7.99 6.9282 -0.5
      vertex -7.99 4.00624 -0.499999
      vertex -7.99 6.77164 -0.499999
    endloop
  endfacet
  facet normal -0.847998 -2.27762e-07 0.529999
    outer loop
      vertex -7.99 4.00624 -0.499999
      vertex -7.99 1.67925 -0.5
      vertex -7.6775 2 0
    endloop
  endfacet
  facet normal -1 0 0
    outer loop
      vertex -7.99 1.67925 -0.5
      vertex -7.99 4.00624 -0.499999
      vertex -7.99 6.9282 -0.5
    endloop
  endfacet
  facet normal -0.847994 3.38532e-06 0.530005
    outer loop
      vertex -7.99 6.9282 -0.5
      vertex -7.99 6.77164 -0.499999
      vertex -7.677 6.38608 0.000795156
    endloop
  endfacet
  facet normal -0.847999 0 0.529999
    outer loop
      vertex -7.24 4.443 0.699999
      vertex -6.49 4.33013 1.9
      vertex -7.24 5.62917 0.699999
    endloop
  endfacet
  facet normal -0.847998 -4.03676e-08 0.53
    outer loop
      vertex -7.6775 2 0
      vertex -7.24 4.443 0.699999
      vertex -7.99 4.00624 -0.499999
    endloop
  endfacet
  facet normal -0.847998 3.34483e-07 0.529999
    outer loop
      vertex -7.24 4.443 0.699999
      vertex -7.6775 2 0
      vertex -6.49 4.33013 1.9
    endloop
  endfacet
  facet normal -0.847999 3.64042e-07 0.529999
    outer loop
      vertex -6.70322 1 1.55885
      vertex -6.49 4.33013 1.9
      vertex -7.6775 2 0
    endloop
  endfacet
  facet normal -0.847997 0 0.530001
    outer loop
      vertex -6.70322 -1 1.55885
      vertex -6.49 4.33013 1.9
      vertex -6.70322 1 1.55885
    endloop
  endfacet
  facet normal -0.847998 4.03676e-08 0.53
    outer loop
      vertex -7.24 -4.443 0.699999
      vertex -7.6775 -2 0
      vertex -7.99 -4.00624 -0.499999
    endloop
  endfacet
  facet normal -0.847997 0 0.530001
    outer loop
      vertex -6.70322 -1 1.55885
      vertex -6.49 -4.33013 1.9
      vertex -6.49 4.33013 1.9
    endloop
  endfacet
  facet normal -0.847998 -3.34483e-07 0.529999
    outer loop
      vertex -6.49 -4.33013 1.9
      vertex -7.6775 -2 0
      vertex -7.24 -4.443 0.699999
    endloop
  endfacet
  facet normal -0.847999 -3.64042e-07 0.529999
    outer loop
      vertex -7.6775 -2 0
      vertex -6.49 -4.33013 1.9
      vertex -6.70322 -1 1.55885
    endloop
  endfacet
  facet normal -0.847999 0 0.529999
    outer loop
      vertex -6.49 -4.33013 1.9
      vertex -7.24 -4.443 0.699999
      vertex -7.24 -5.62917 0.699999
    endloop
  endfacet
  facet normal -0.847994 -3.38532e-06 0.530005
    outer loop
      vertex -7.677 -6.38608 0.000795156
      vertex -7.99 -6.77164 -0.499999
      vertex -7.99 -6.9282 -0.5
    endloop
  endfacet
  facet normal 0.423999 -0.734387 0.530001
    outer loop
      vertex -0.99 -1.1547 1.9
      vertex -6.49 -4.33013 1.9
      vertex -0.99 -2.06197 0.642857
    endloop
  endfacet
  facet normal 0.423999 0.734387 0.530001
    outer loop
      vertex -0.99 2.06197 0.642857
      vertex -6.49 4.33013 1.9
      vertex -0.99 1.1547 1.9
    endloop
  endfacet
  facet normal 0.423999 0.734391 0.529994
    outer loop
      vertex -0.99 2.06197 0.642857
      vertex -5.18551 4.443 0.699999
      vertex -6.49 4.33013 1.9
    endloop
  endfacet
  facet normal 0.423997 0.734388 0.53
    outer loop
      vertex -0.99 2.06197 0.642857
      vertex -2.92901 4.00624 -0.499999
      vertex -5.18551 4.443 0.699999
    endloop
  endfacet
  facet normal 0.334556 0.579467 -0.743163
    outer loop
      vertex -2.92901 4.00624 -0.499999
      vertex -0.99 2.88675 -0.5
      vertex -7.71882 6.77164 -0.499999
    endloop
  endfacet
  facet normal 0.424001 0.734389 0.529996
    outer loop
      vertex -0.99 2.88675 -0.5
      vertex -2.92901 4.00624 -0.499999
      vertex -0.99 2.06197 0.642857
    endloop
  endfacet
  facet normal 0.424002 0.734388 0.529997
    outer loop
      vertex -6.49 4.33013 1.9
      vertex -5.18551 4.443 0.699999
      vertex -7.24 5.62917 0.699999
    endloop
  endfacet
  facet normal 0.423985 0.734394 0.530002
    outer loop
      vertex -7.71882 6.77164 -0.499999
      vertex -7.99 6.9282 -0.5
      vertex -7.677 6.38608 0.000795156
    endloop
  endfacet
  facet normal 0.0980662 0.169856 -0.980577
    outer loop
      vertex -7.99 6.9282 -0.5
      vertex -7.71882 6.77164 -0.499999
      vertex -0.99 2.88675 -0.5
    endloop
  endfacet
  facet normal 0 0 1
    outer loop
      vertex -6.49 4.33013 1.9
      vertex -0.99 -1.1547 1.9
      vertex -0.99 1.1547 1.9
    endloop
  endfacet
  facet normal 0 0 1
    outer loop
      vertex -0.99 -1.1547 1.9
      vertex -6.49 4.33013 1.9
      vertex -6.49 -4.33013 1.9
    endloop
  endfacet
  facet normal 1 -0 0
    outer loop
      vertex -0.99 1 1.55885
      vertex -0.99 2.06197 0.642857
      vertex -0.99 1.1547 1.9
    endloop
  endfacet
  facet normal 1 0 0
    outer loop
      vertex -0.99 2.06197 0.642857
      vertex -0.99 1 1.55885
      vertex -0.99 2 0
    endloop
  endfacet
  facet normal 1 0 0
    outer loop
      vertex -0.99 1.1547 1.9
      vertex -0.99 -1 1.55885
      vertex -0.99 1 1.55885
    endloop
  endfacet
  facet normal 1 -0 0
    outer loop
      vertex -0.99 -1.1547 1.9
      vertex -0.99 -1 1.55885
      vertex -0.99 1.1547 1.9
    endloop
  endfacet
  facet normal 1 0 0
    outer loop
      vertex -0.99 -2.06197 0.642857
      vertex -0.99 -1 1.55885
      vertex -0.99 -1.1547 1.9
    endloop
  endfacet
  facet normal 1 0 0
    outer loop
      vertex -0.99 -1 1.55885
      vertex -0.99 -2.06197 0.642857
      vertex -0.99 -2 0
    endloop
  endfacet
  facet normal 1 -0 0
    outer loop
      vertex -0.99 2 0
      vertex -0.99 2.88675 -0.5
      vertex -0.99 2.06197 0.642857
    endloop
  endfacet
  facet normal 1 0 0
    outer loop
      vertex -0.99 2.88675 -0.5
      vertex -0.99 2 0
      vertex -0.99 1.67925 -0.5
    endloop
  endfacet
  facet normal 1 0 0
    outer loop
      vertex -0.99 -2 0
      vertex -0.99 -2.88675 -0.5
      vertex -0.99 -1.67925 -0.5
    endloop
  endfacet
  facet normal 1 0 0
    outer loop
      vertex -0.99 -2.88675 -0.5
      vertex -0.99 -2 0
      vertex -0.99 -2.06197 0.642857
    endloop
  endfacet
  facet normal -0.461036 0 0.887381
    outer loop
      vertex -12.4191 5.14805 -0.499999
      vertex -10.1094 4.443 0.699999
      vertex -10.1094 4.76537 0.699999
    endloop
  endfacet
  facet normal -0.461036 0 0.887381
    outer loop
      vertex -10.1094 4.443 0.699999
      vertex -12.4191 5.14805 -0.499999
      vertex -12.4191 4.00624 -0.499999
    endloop
  endfacet
  facet normal 0 0.792366 0.610046
    outer loop
      vertex -3.57658 5.84776 0.699999
      vertex -7.677 6.38608 0.000795156
      vertex -7.40342 5.84776 0.699999
    endloop
  endfacet
  facet normal -0 0.792367 0.610044
    outer loop
      vertex -7.71882 6.77164 -0.499999
      vertex -3.57658 5.84776 0.699999
      vertex -2.61988 6.77164 -0.499999
    endloop
  endfacet
  facet normal 9.69199e-07 0.792369 0.610042
    outer loop
      vertex -3.57658 5.84776 0.699999
      vertex -7.71882 6.77164 -0.499999
      vertex -7.677 6.38608 0.000795156
    endloop
  endfacet
  facet normal -0 0.792369 0.610042
    outer loop
      vertex -8.36012 6.77164 -0.499999
      vertex -7.677 6.38608 0.000795156
      vertex -7.99 6.77164 -0.499999
    endloop
  endfacet
  facet normal -5.75948e-06 0.792365 0.610047
    outer loop
      vertex -7.677 6.38608 0.000795156
      vertex -8.36012 6.77164 -0.499999
      vertex -7.40342 5.84776 0.699999
    endloop
  endfacet
  facet normal 0.261182 0.652955 0.710938
    outer loop
      vertex -2.61988 6.77164 -0.499999
      vertex -0.870604 4.76537 0.699999
      vertex 1.43909 5.14805 -0.499999
    endloop
  endfacet
  facet normal 0.261182 0.652955 0.710939
    outer loop
      vertex -0.870604 4.76537 0.699999
      vertex -2.61988 6.77164 -0.499999
      vertex -3.57658 5.84776 0.699999
    endloop
  endfacet
  facet normal -0.261182 0.652955 0.710939
    outer loop
      vertex -8.36012 6.77164 -0.499999
      vertex -10.1094 4.76537 0.699999
      vertex -7.40342 5.84776 0.699999
    endloop
  endfacet
  facet normal -0.261182 0.652955 0.710938
    outer loop
      vertex -10.1094 4.76537 0.699999
      vertex -8.36012 6.77164 -0.499999
      vertex -12.4191 5.14805 -0.499999
    endloop
  endfacet
  facet normal 0 0 1
    outer loop
      vertex -3.57658 5.84776 0.699999
      vertex -0.870604 4.443 0.699999
      vertex -0.870604 4.76537 0.699999
    endloop
  endfacet
  facet normal 0 0 1
    outer loop
      vertex -3.57658 5.84776 0.699999
      vertex -5.18551 4.443 0.699999
      vertex -0.870604 4.443 0.699999
    endloop
  endfacet
  facet normal 0 0 1
    outer loop
      vertex -3.57658 5.84776 0.699999
      vertex -7.24 5.62917 0.699999
      vertex -5.18551 4.443 0.699999
    endloop
  endfacet
  facet normal -0 0 1
    outer loop
      vertex -7.40342 5.84776 0.699999
      vertex -7.24 5.62917 0.699999
      vertex -3.57658 5.84776 0.699999
    endloop
  endfacet
  facet normal 0 0 1
    outer loop
      vertex -7.40342 5.84776 0.699999
      vertex -7.24 4.443 0.699999
      vertex -7.24 5.62917 0.699999
    endloop
  endfacet
  facet normal -0 0 1
    outer loop
      vertex -10.1094 4.76537 0.699999
      vertex -7.24 4.443 0.699999
      vertex -7.40342 5.84776 0.699999
    endloop
  endfacet
  facet normal 0 0 1
    outer loop
      vertex -7.24 4.443 0.699999
      vertex -10.1094 4.76537 0.699999
      vertex -10.1094 4.443 0.699999
    endloop
  endfacet
  facet normal 0 0 -1
    outer loop
      vertex -2.92901 4.00624 -0.499999
      vertex 1.43909 5.14805 -0.499999
      vertex 1.43909 4.00624 -0.499999
    endloop
  endfacet
  facet normal -0 0 -1
    outer loop
      vertex 1.43909 5.14805 -0.499999
      vertex -2.92901 4.00624 -0.499999
      vertex -2.61988 6.77164 -0.499999
    endloop
  endfacet
  facet normal -0 0 -1
    outer loop
      vertex -2.61988 6.77164 -0.499999
      vertex -2.92901 4.00624 -0.499999
      vertex -7.71882 6.77164 -0.499999
    endloop
  endfacet
  facet normal 0 0 -1
    outer loop
      vertex -7.99 4.00624 -0.499999
      vertex -8.36012 6.77164 -0.499999
      vertex -7.99 6.77164 -0.499999
    endloop
  endfacet
  facet normal 0 0 -1
    outer loop
      vertex -12.4191 5.14805 -0.499999
      vertex -7.99 4.00624 -0.499999
      vertex -12.4191 4.00624 -0.499999
    endloop
  endfacet
  facet normal 0 0 -1
    outer loop
      vertex -7.99 4.00624 -0.499999
      vertex -12.4191 5.14805 -0.499999
      vertex -8.36012 6.77164 -0.499999
    endloop
  endfacet
  facet normal 0.461037 -0 0.887381
    outer loop
      vertex -0.870604 4.443 0.699999
      vertex 1.43909 5.14805 -0.499999
      vertex -0.870604 4.76537 0.699999
    endloop
  endfacet
  facet normal 0.461037 0 0.887381
    outer loop
      vertex 1.43909 5.14805 -0.499999
      vertex -0.870604 4.443 0.699999
      vertex 1.43909 4.00624 -0.499999
    endloop
  endfacet
  facet normal 0 -0.939694 0.342018
    outer loop
      vertex -7.99 4.00624 -0.499999
      vertex -10.1094 4.443 0.699999
      vertex -12.4191 4.00624 -0.499999
    endloop
  endfacet
  facet normal 0 -0.939694 0.342018
    outer loop
      vertex -10.1094 4.443 0.699999
      vertex -7.99 4.00624 -0.499999
      vertex -7.24 4.443 0.699999
    endloop
  endfacet
  facet normal 0 -0.939694 0.342018
    outer loop
      vertex -2.92901 4.00624 -0.499999
      vertex -0.870604 4.443 0.699999
      vertex -5.18551 4.443 0.699999
    endloop
  endfacet
  facet normal 0 -0.939694 0.342018
    outer loop
      vertex -0.870604 4.443 0.699999
      vertex -2.92901 4.00624 -0.499999
      vertex 1.43909 4.00624 -0.499999
    endloop
  endfacet
  facet normal -0.461036 0 0.887381
    outer loop
      vertex -12.4191 -5.14805 -0.499999
      vertex -10.1094 -4.443 0.699999
      vertex -12.4191 -4.00624 -0.499999
    endloop
  endfacet
  facet normal -0.461036 0 0.887381
    outer loop
      vertex -10.1094 -4.443 0.699999
      vertex -12.4191 -5.14805 -0.499999
      vertex -10.1094 -4.76537 0.699999
    endloop
  endfacet
  facet normal 0 -0.792366 0.610046
    outer loop
      vertex -7.40342 -5.84776 0.699999
      vertex -7.677 -6.38608 0.000795156
      vertex -3.57658 -5.84776 0.699999
    endloop
  endfacet
  facet normal -5.75948e-06 -0.792365 0.610047
    outer loop
      vertex -8.36012 -6.77164 -0.499999
      vertex -7.677 -6.38608 0.000795156
      vertex -7.40342 -5.84776 0.699999
    endloop
  endfacet
  facet normal 0 -0.792369 0.610042
    outer loop
      vertex -7.677 -6.38608 0.000795156
      vertex -8.36012 -6.77164 -0.499999
      vertex -7.99 -6.77164 -0.499999
    endloop
  endfacet
  facet normal 9.69199e-07 -0.792369 0.610042
    outer loop
      vertex -7.71882 -6.77164 -0.499999
      vertex -3.57658 -5.84776 0.699999
      vertex -7.677 -6.38608 0.000795156
    endloop
  endfacet
  facet normal 0 -0.792367 0.610044
    outer loop
      vertex -3.57658 -5.84776 0.699999
      vertex -7.71882 -6.77164 -0.499999
      vertex -2.61988 -6.77164 -0.499999
    endloop
  endfacet
  facet normal 0.261182 -0.652955 0.710938
    outer loop
      vertex -0.870604 -4.76537 0.699999
      vertex -2.61988 -6.77164 -0.499999
      vertex 1.43909 -5.14805 -0.499999
    endloop
  endfacet
  facet normal 0.261182 -0.652955 0.710939
    outer loop
      vertex -2.61988 -6.77164 -0.499999
      vertex -0.870604 -4.76537 0.699999
      vertex -3.57658 -5.84776 0.699999
    endloop
  endfacet
  facet normal -0.261182 -0.652955 0.710939
    outer loop
      vertex -10.1094 -4.76537 0.699999
      vertex -8.36012 -6.77164 -0.499999
      vertex -7.40342 -5.84776 0.699999
    endloop
  endfacet
  facet normal -0.261182 -0.652955 0.710938
    outer loop
      vertex -8.36012 -6.77164 -0.499999
      vertex -10.1094 -4.76537 0.699999
      vertex -12.4191 -5.14805 -0.499999
    endloop
  endfacet
  facet normal 0 0 1
    outer loop
      vertex -7.24 -4.443 0.699999
      vertex -7.40342 -5.84776 0.699999
      vertex -7.24 -5.62917 0.699999
    endloop
  endfacet
  facet normal 0 0 1
    outer loop
      vertex -10.1094 -4.76537 0.699999
      vertex -7.24 -4.443 0.699999
      vertex -10.1094 -4.443 0.699999
    endloop
  endfacet
  facet normal 0 0 1
    outer loop
      vertex -7.24 -4.443 0.699999
      vertex -10.1094 -4.76537 0.699999
      vertex -7.40342 -5.84776 0.699999
    endloop
  endfacet
  facet normal 0 0 1
    outer loop
      vertex -0.870604 -4.443 0.699999
      vertex -3.57658 -5.84776 0.699999
      vertex -0.870604 -4.76537 0.699999
    endloop
  endfacet
  facet normal -0 0 1
    outer loop
      vertex -5.18551 -4.443 0.699999
      vertex -3.57658 -5.84776 0.699999
      vertex -0.870604 -4.443 0.699999
    endloop
  endfacet
  facet normal -0 0 1
    outer loop
      vertex -7.24 -5.62917 0.699999
      vertex -3.57658 -5.84776 0.699999
      vertex -5.18551 -4.443 0.699999
    endloop
  endfacet
  facet normal 0 0 1
    outer loop
      vertex -3.57658 -5.84776 0.699999
      vertex -7.24 -5.62917 0.699999
      vertex -7.40342 -5.84776 0.699999
    endloop
  endfacet
  facet normal 0 0 -1
    outer loop
      vertex -2.92901 -4.00624 -0.499999
      vertex 1.43909 -5.14805 -0.499999
      vertex -2.61988 -6.77164 -0.499999
    endloop
  endfacet
  facet normal 0 0 -1
    outer loop
      vertex 1.43909 -5.14805 -0.499999
      vertex -2.92901 -4.00624 -0.499999
      vertex 1.43909 -4.00624 -0.499999
    endloop
  endfacet
  facet normal 0 -0 -1
    outer loop
      vertex -2.92901 -4.00624 -0.499999
      vertex -2.61988 -6.77164 -0.499999
      vertex -7.71882 -6.77164 -0.499999
    endloop
  endfacet
  facet normal 0 0 -1
    outer loop
      vertex -8.36012 -6.77164 -0.499999
      vertex -7.99 -4.00624 -0.499999
      vertex -7.99 -6.77164 -0.499999
    endloop
  endfacet
  facet normal 0 0 -1
    outer loop
      vertex -12.4191 -5.14805 -0.499999
      vertex -7.99 -4.00624 -0.499999
      vertex -8.36012 -6.77164 -0.499999
    endloop
  endfacet
  facet normal -0 0 -1
    outer loop
      vertex -7.99 -4.00624 -0.499999
      vertex -12.4191 -5.14805 -0.499999
      vertex -12.4191 -4.00624 -0.499999
    endloop
  endfacet
  facet normal 0.461037 0 0.887381
    outer loop
      vertex -0.870604 -4.443 0.699999
      vertex 1.43909 -5.14805 -0.499999
      vertex 1.43909 -4.00624 -0.499999
    endloop
  endfacet
  facet normal 0.461037 0 0.887381
    outer loop
      vertex 1.43909 -5.14805 -0.499999
      vertex -0.870604 -4.443 0.699999
      vertex -0.870604 -4.76537 0.699999
    endloop
  endfacet
  facet normal 0 0.939694 0.342018
    outer loop
      vertex -7.99 -4.00624 -0.499999
      vertex -10.1094 -4.443 0.699999
      vertex -7.24 -4.443 0.699999
    endloop
  endfacet
  facet normal 0 0.939694 0.342018
    outer loop
      vertex -10.1094 -4.443 0.699999
      vertex -7.99 -4.00624 -0.499999
      vertex -12.4191 -4.00624 -0.499999
    endloop
  endfacet
  facet normal -0 0.939694 0.342018
    outer loop
      vertex -2.92901 -4.00624 -0.499999
      vertex -0.870604 -4.443 0.699999
      vertex 1.43909 -4.00624 -0.499999
    endloop
  endfacet
  facet normal 0 0.939694 0.342018
    outer loop
      vertex -0.870604 -4.443 0.699999
      vertex -2.92901 -4.00624 -0.499999
      vertex -5.18551 -4.443 0.699999
    endloop
  endfacet
  facet normal -1 0 0
    outer loop
      vertex -0.01 -1.78141 -0.5
      vertex -0.01 -2 0
      vertex -0.01 -1.67925 -0.5
    endloop
  endfacet
  facet normal -1 -0 -0
    outer loop
      vertex -0.01 -2 0
      vertex -0.01 -1.78141 -0.5
      vertex -0.01 -2.11132 0
    endloop
  endfacet
  facet normal -1 0 0
    outer loop
      vertex -0.01 1.78141 -0.5
      vertex -0.01 2 0
      vertex -0.01 2.11132 0
    endloop
  endfacet
  facet normal -1 0 0
    outer loop
      vertex -0.01 2 0
      vertex -0.01 1.78141 -0.5
      vertex -0.01 1.67925 -0.5
    endloop
  endfacet
  facet normal -1 0 0
    outer loop
      vertex -0.01 2 0
      vertex -0.01 1.2 1.38115
      vertex -0.01 2.11132 0
    endloop
  endfacet
  facet normal -1 0 0
    outer loop
      vertex -0.01 1 1.55885
      vertex -0.01 1.2 1.38115
      vertex -0.01 2 0
    endloop
  endfacet
  facet normal -1 0 0
    outer loop
      vertex -0.01 1 1.55885
      vertex -0.01 0.911324 1.81865
      vertex -0.01 1.2 1.38115
    endloop
  endfacet
  facet normal -1 0 0
    outer loop
      vertex -0.01 1 1.55885
      vertex -0.01 -0.911324 1.81865
      vertex -0.01 0.911324 1.81865
    endloop
  endfacet
  facet normal -1 0 0
    outer loop
      vertex -0.01 -1 1.55885
      vertex -0.01 -0.911324 1.81865
      vertex -0.01 1 1.55885
    endloop
  endfacet
  facet normal -1 -0 0
    outer loop
      vertex -0.01 -1 1.55885
      vertex -0.01 -1.2 1.38115
      vertex -0.01 -0.911324 1.81865
    endloop
  endfacet
  facet normal -1 0 0
    outer loop
      vertex -0.01 -2 0
      vertex -0.01 -1.2 1.38115
      vertex -0.01 -1 1.55885
    endloop
  endfacet
  facet normal -1 0 0
    outer loop
      vertex -0.01 -1.2 1.38115
      vertex -0.01 -2 0
      vertex -0.01 -2.11132 0
    endloop
  endfacet
  facet normal 0.189277 0.819585 -0.540791
    outer loop
      vertex 5.72187 1.03504 -0.5
      vertex 5.00758 1.2 -0.5
      vertex 6.43615 1.2 0
    endloop
  endfacet
  facet normal -0.189279 -0.819588 0.540786
    outer loop
      vertex 1.24 -2.4 0
      vertex -0.01 -1.2 1.38115
      vertex -0.01 -2.11132 0
    endloop
  endfacet
  facet normal -0.189276 -0.819587 0.540788
    outer loop
      vertex -0.01 -1.2 1.38115
      vertex 1.24 -2.4 0
      vertex 1.24 -1.2 1.81865
    endloop
  endfacet
  facet normal 0.189276 -0.819587 0.540788
    outer loop
      vertex 1.24 -1.2 1.81865
      vertex 1.24 -2.4 0
      vertex 6.43615 -1.2 0
    endloop
  endfacet
  facet normal -0.189276 0.819587 0.540789
    outer loop
      vertex -0.01 1.2 1.38115
      vertex -0.01 0.911324 1.81865
      vertex 1.24 1.2 1.81865
    endloop
  endfacet
  facet normal 0.573465 0 -0.81923
    outer loop
      vertex 5.72187 -1.03504 -0.5
      vertex 6.43615 1.2 0
      vertex 6.43615 -1.2 0
    endloop
  endfacet
  facet normal 0.573465 0 -0.81923
    outer loop
      vertex 6.43615 1.2 0
      vertex 5.72187 -1.03504 -0.5
      vertex 5.72187 1.03504 -0.5
    endloop
  endfacet
  facet normal -0.189279 0.81959 -0.540782
    outer loop
      vertex 1.24 2.07009 -0.5
      vertex -0.01 2.11132 0
      vertex 1.24 2.4 0
    endloop
  endfacet
  facet normal -0.189279 0.81959 -0.540782
    outer loop
      vertex -0.01 2.11132 0
      vertex 1.24 2.07009 -0.5
      vertex -0.01 1.78141 -0.5
    endloop
  endfacet
  facet normal -0.189276 0.819587 0.540788
    outer loop
      vertex 1.24 2.4 0
      vertex -0.01 1.2 1.38115
      vertex 1.24 1.2 1.81865
    endloop
  endfacet
  facet normal -0.189279 0.819588 0.540786
    outer loop
      vertex -0.01 1.2 1.38115
      vertex 1.24 2.4 0
      vertex -0.01 2.11132 0
    endloop
  endfacet
  facet normal 0 0 1
    outer loop
      vertex 1.24 1.2 1.81865
      vertex 3.83808 -0.599999 1.81865
      vertex 3.83808 0.599999 1.81865
    endloop
  endfacet
  facet normal 0 0 1
    outer loop
      vertex 1.24 1.2 1.81865
      vertex 1.24 -1.2 1.81865
      vertex 3.83808 -0.599999 1.81865
    endloop
  endfacet
  facet normal -0 0 1
    outer loop
      vertex -0.01 0.911324 1.81865
      vertex 1.24 -1.2 1.81865
      vertex 1.24 1.2 1.81865
    endloop
  endfacet
  facet normal 0 0 1
    outer loop
      vertex 1.24 -1.2 1.81865
      vertex -0.01 0.911324 1.81865
      vertex -0.01 -0.911324 1.81865
    endloop
  endfacet
  facet normal 0.573463 0 0.819232
    outer loop
      vertex 3.83808 0.599999 1.81865
      vertex 6.43615 -1.2 0
      vertex 6.43615 1.2 0
    endloop
  endfacet
  facet normal 0.573463 0 0.819232
    outer loop
      vertex 6.43615 -1.2 0
      vertex 3.83808 0.599999 1.81865
      vertex 3.83808 -0.599999 1.81865
    endloop
  endfacet
  facet normal 0.189276 0.819588 -0.540787
    outer loop
      vertex 5.00758 1.2 -0.5
      vertex 1.24 2.4 0
      vertex 6.43615 1.2 0
    endloop
  endfacet
  facet normal 0.189277 0.819591 -0.540782
    outer loop
      vertex 1.24 2.4 0
      vertex 5.00758 1.2 -0.5
      vertex 1.24 2.07009 -0.5
    endloop
  endfacet
  facet normal 0.189276 0.819587 0.540788
    outer loop
      vertex 1.24 2.4 0
      vertex 1.24 1.2 1.81865
      vertex 6.43615 1.2 0
    endloop
  endfacet
  facet normal -0.189276 -0.819587 0.540789
    outer loop
      vertex -0.01 -0.911324 1.81865
      vertex -0.01 -1.2 1.38115
      vertex 1.24 -1.2 1.81865
    endloop
  endfacet
  facet normal 0.189277 -0.819585 -0.540791
    outer loop
      vertex 6.43615 -1.2 0
      vertex 5.00758 -1.2 -0.5
      vertex 5.72187 -1.03504 -0.5
    endloop
  endfacet
  facet normal 0.189276 -0.819587 0.540788
    outer loop
      vertex 3.83808 -0.599999 1.81865
      vertex 1.24 -1.2 1.81865
      vertex 6.43615 -1.2 0
    endloop
  endfacet
  facet normal 0.189276 0.819587 0.540788
    outer loop
      vertex 6.43615 1.2 0
      vertex 1.24 1.2 1.81865
      vertex 3.83808 0.599999 1.81865
    endloop
  endfacet
  facet normal 0.189277 -0.819591 -0.540782
    outer loop
      vertex 5.00758 -1.2 -0.5
      vertex 1.24 -2.4 0
      vertex 1.24 -2.07009 -0.5
    endloop
  endfacet
  facet normal 0.189276 -0.819588 -0.540787
    outer loop
      vertex 1.24 -2.4 0
      vertex 5.00758 -1.2 -0.5
      vertex 6.43615 -1.2 0
    endloop
  endfacet
  facet normal -0.189279 -0.81959 -0.540782
    outer loop
      vertex -0.01 -1.78141 -0.5
      vertex 1.24 -2.4 0
      vertex -0.01 -2.11132 0
    endloop
  endfacet
  facet normal -0.189279 -0.81959 -0.540782
    outer loop
      vertex 1.24 -2.4 0
      vertex -0.01 -1.78141 -0.5
      vertex 1.24 -2.07009 -0.5
    endloop
  endfacet
endsolid OpenSCAD_Model
