solid OpenSCAD_Model
  facet normal 0 0 -1
    outer loop
      vertex -4 -1.67925 -0.5
      vertex 0 1.67925 -0.5
      vertex 0 -1.67925 -0.5
    endloop
  endfacet
  facet normal -0 0 -1
    outer loop
      vertex 0 1.67925 -0.5
      vertex -4 -1.67925 -0.5
      vertex -4 1.67925 -0.5
    endloop
  endfacet
  facet normal 0 0 -1
    outer loop
      vertex 5.01758 -1.2 -0.5
      vertex 5.73187 1.03504 -0.5
      vertex 5.73187 -1.03504 -0.5
    endloop
  endfacet
  facet normal 0 0 -1
    outer loop
      vertex 5.01758 -1.2 -0.5
      vertex 5.01758 1.2 -0.5
      vertex 5.73187 1.03504 -0.5
    endloop
  endfacet
  facet normal 0 0 -1
    outer loop
      vertex 1.25 -2.07009 -0.5
      vertex 5.01758 1.2 -0.5
      vertex 5.01758 -1.2 -0.5
    endloop
  endfacet
  facet normal 0 0 -1
    outer loop
      vertex 1.25 -2.07009 -0.5
      vertex 1.25 2.07009 -0.5
      vertex 5.01758 1.2 -0.5
    endloop
  endfacet
  facet normal 0 0 -1
    outer loop
      vertex 0 -1.67925 -0.5
      vertex 1.25 -2.07009 -0.5
      vertex 0 -1.78141 -0.5
    endloop
  endfacet
  facet normal 0 0 -1
    outer loop
      vertex 1.25 -2.07009 -0.5
      vertex 0 -1.67925 -0.5
      vertex 1.25 2.07009 -0.5
    endloop
  endfacet
  facet normal 0 0 -1
    outer loop
      vertex 0 1.67925 -0.5
      vertex 1.25 2.07009 -0.5
      vertex 0 -1.67925 -0.5
    endloop
  endfacet
  facet normal 0 0 -1
    outer loop
      vertex 1.25 2.07009 -0.5
      vertex 0 1.67925 -0.5
      vertex 0 1.78141 -0.5
    endloop
  endfacet
  facet normal -1 0 0
    outer loop
      vertex 0 -1.78141 -0.5
      vertex 0 -2 0
      vertex 0 -1.67925 -0.5
    endloop
  endfacet
  facet normal -1 -0 -0
    outer loop
      vertex 0 -2 0
      vertex 0 -1.78141 -0.5
      vertex 0 -2.11132 0
    endloop
  endfacet
  facet normal -1 0 0
    outer loop
      vertex 0 1.78141 -0.5
      vertex 0 2 0
      vertex 0 2.11132 0
    endloop
  endfacet
  facet normal -1 0 0
    outer loop
      vertex 0 2 0
      vertex 0 1.78141 -0.5
      vertex 0 1.67925 -0.5
    endloop
  endfacet
  facet normal -1 0 0
    outer loop
      vertex 0 2 0
      vertex 0 1.2 1.38115
      vertex 0 2.11132 0
    endloop
  endfacet
  facet normal -1 0 0
    outer loop
      vertex 0 1 1.55885
      vertex 0 1.2 1.38115
      vertex 0 2 0
    endloop
  endfacet
  facet normal -1 0 0
    outer loop
      vertex 0 1 1.55885
      vertex 0 0.911324 1.81865
      vertex 0 1.2 1.38115
    endloop
  endfacet
  facet normal -1 0 0
    outer loop
      vertex 0 1 1.55885
      vertex 0 -0.911324 1.81865
      vertex 0 0.911324 1.81865
    endloop
  endfacet
  facet normal -1 0 0
    outer loop
      vertex 0 -1 1.55885
      vertex 0 -0.911324 1.81865
      vertex 0 1 1.55885
    endloop
  endfacet
  facet normal -1 -0 0
    outer loop
      vertex 0 -1 1.55885
      vertex 0 -1.2 1.38115
      vertex 0 -0.911324 1.81865
    endloop
  endfacet
  facet normal -1 0 0
    outer loop
      vertex 0 -2 0
      vertex 0 -1.2 1.38115
      vertex 0 -1 1.55885
    endloop
  endfacet
  facet normal -1 0 0
    outer loop
      vertex 0 -1.2 1.38115
      vertex 0 -2 0
      vertex 0 -2.11132 0
    endloop
  endfacet
  facet normal 0.189277 0.819585 -0.540791
    outer loop
      vertex 5.73187 1.03504 -0.5
      vertex 5.01758 1.2 -0.5
      vertex 6.44615 1.2 0
    endloop
  endfacet
  facet normal -0.189279 -0.819588 0.540786
    outer loop
      vertex 1.25 -2.4 0
      vertex 0 -1.2 1.38115
      vertex 0 -2.11132 0
    endloop
  endfacet
  facet normal -0.189276 -0.819587 0.540788
    outer loop
      vertex 0 -1.2 1.38115
      vertex 1.25 -2.4 0
      vertex 1.25 -1.2 1.81865
    endloop
  endfacet
  facet normal 0.189276 -0.819587 0.540788
    outer loop
      vertex 1.25 -1.2 1.81865
      vertex 1.25 -2.4 0
      vertex 6.44615 -1.2 0
    endloop
  endfacet
  facet normal -0.189276 0.819587 0.540789
    outer loop
      vertex 0 1.2 1.38115
      vertex 0 0.911324 1.81865
      vertex 1.25 1.2 1.81865
    endloop
  endfacet
  facet normal 0.573465 0 -0.81923
    outer loop
      vertex 5.73187 -1.03504 -0.5
      vertex 6.44615 1.2 0
      vertex 6.44615 -1.2 0
    endloop
  endfacet
  facet normal 0.573465 0 -0.81923
    outer loop
      vertex 6.44615 1.2 0
      vertex 5.73187 -1.03504 -0.5
      vertex 5.73187 1.03504 -0.5
    endloop
  endfacet
  facet normal -0.189279 0.81959 -0.540782
    outer loop
      vertex 1.25 2.07009 -0.5
      vertex 0 2.11132 0
      vertex 1.25 2.4 0
    endloop
  endfacet
  facet normal -0.189279 0.81959 -0.540782
    outer loop
      vertex 0 2.11132 0
      vertex 1.25 2.07009 -0.5
      vertex 0 1.78141 -0.5
    endloop
  endfacet
  facet normal -0.189276 0.819587 0.540788
    outer loop
      vertex 1.25 2.4 0
      vertex 0 1.2 1.38115
      vertex 1.25 1.2 1.81865
    endloop
  endfacet
  facet normal -0.189279 0.819588 0.540786
    outer loop
      vertex 0 1.2 1.38115
      vertex 1.25 2.4 0
      vertex 0 2.11132 0
    endloop
  endfacet
  facet normal 0 0 1
    outer loop
      vertex 1.25 1.2 1.81865
      vertex 3.84808 -0.599999 1.81865
      vertex 3.84808 0.599999 1.81865
    endloop
  endfacet
  facet normal 0 0 1
    outer loop
      vertex 1.25 1.2 1.81865
      vertex 1.25 -1.2 1.81865
      vertex 3.84808 -0.599999 1.81865
    endloop
  endfacet
  facet normal -0 0 1
    outer loop
      vertex 0 0.911324 1.81865
      vertex 1.25 -1.2 1.81865
      vertex 1.25 1.2 1.81865
    endloop
  endfacet
  facet normal 0 0 1
    outer loop
      vertex 1.25 -1.2 1.81865
      vertex 0 0.911324 1.81865
      vertex 0 -0.911324 1.81865
    endloop
  endfacet
  facet normal 0.573463 0 0.819232
    outer loop
      vertex 3.84808 0.599999 1.81865
      vertex 6.44615 -1.2 0
      vertex 6.44615 1.2 0
    endloop
  endfacet
  facet normal 0.573463 0 0.819232
    outer loop
      vertex 6.44615 -1.2 0
      vertex 3.84808 0.599999 1.81865
      vertex 3.84808 -0.599999 1.81865
    endloop
  endfacet
  facet normal 0.189276 0.819588 -0.540787
    outer loop
      vertex 5.01758 1.2 -0.5
      vertex 1.25 2.4 0
      vertex 6.44615 1.2 0
    endloop
  endfacet
  facet normal 0.189277 0.819591 -0.540782
    outer loop
      vertex 1.25 2.4 0
      vertex 5.01758 1.2 -0.5
      vertex 1.25 2.07009 -0.5
    endloop
  endfacet
  facet normal 0.189276 0.819587 0.540788
    outer loop
      vertex 1.25 2.4 0
      vertex 1.25 1.2 1.81865
      vertex 6.44615 1.2 0
    endloop
  endfacet
  facet normal -0.189276 -0.819587 0.540789
    outer loop
      vertex 0 -0.911324 1.81865
      vertex 0 -1.2 1.38115
      vertex 1.25 -1.2 1.81865
    endloop
  endfacet
  facet normal 0.189277 -0.819585 -0.540791
    outer loop
      vertex 6.44615 -1.2 0
      vertex 5.01758 -1.2 -0.5
      vertex 5.73187 -1.03504 -0.5
    endloop
  endfacet
  facet normal 0.189276 -0.819587 0.540788
    outer loop
      vertex 3.84808 -0.599999 1.81865
      vertex 1.25 -1.2 1.81865
      vertex 6.44615 -1.2 0
    endloop
  endfacet
  facet normal 0.189276 0.819587 0.540788
    outer loop
      vertex 6.44615 1.2 0
      vertex 1.25 1.2 1.81865
      vertex 3.84808 0.599999 1.81865
    endloop
  endfacet
  facet normal 0.189277 -0.819591 -0.540782
    outer loop
      vertex 5.01758 -1.2 -0.5
      vertex 1.25 -2.4 0
      vertex 1.25 -2.07009 -0.5
    endloop
  endfacet
  facet normal 0.189276 -0.819588 -0.540787
    outer loop
      vertex 1.25 -2.4 0
      vertex 5.01758 -1.2 -0.5
      vertex 6.44615 -1.2 0
    endloop
  endfacet
  facet normal -0.189279 -0.81959 -0.540782
    outer loop
      vertex 0 -1.78141 -0.5
      vertex 1.25 -2.4 0
      vertex 0 -2.11132 0
    endloop
  endfacet
  facet normal -0.189279 -0.81959 -0.540782
    outer loop
      vertex 1.25 -2.4 0
      vertex 0 -1.78141 -0.5
      vertex 1.25 -2.07009 -0.5
    endloop
  endfacet
  facet normal 0 0 1
    outer loop
      vertex -3.5 -0.437564 1.55885
      vertex -3.69134 -0.437564 1.55885
      vertex -3.5 -0.475625 1.55885
    endloop
  endfacet
  facet normal 0 0 1
    outer loop
      vertex 0 1 1.55885
      vertex -0.0380611 0.166967 1.55885
      vertex 0 -1 1.55885
    endloop
  endfacet
  facet normal 0 0 1
    outer loop
      vertex 0 1 1.55885
      vertex -0.0868104 0.215716 1.55885
      vertex -0.0380611 0.166967 1.55885
    endloop
  endfacet
  facet normal 0 0 1
    outer loop
      vertex 0 1 1.55885
      vertex -0.308659 0.437564 1.55885
      vertex -0.0868104 0.215716 1.55885
    endloop
  endfacet
  facet normal 0 0 1
    outer loop
      vertex 0 1 1.55885
      vertex -0.5 0.475625 1.55885
      vertex -0.308659 0.437564 1.55885
    endloop
  endfacet
  facet normal 0 0 1
    outer loop
      vertex 0 1 1.55885
      vertex -3.5 0.475625 1.55885
      vertex -0.5 0.475625 1.55885
    endloop
  endfacet
  facet normal 0 0 1
    outer loop
      vertex -3.5 0.475625 1.55885
      vertex -3.69134 0.437564 1.55885
      vertex -3.5 0.437564 1.55885
    endloop
  endfacet
  facet normal 0 0 1
    outer loop
      vertex -3.96194 0.166967 1.55885
      vertex -4 1 1.55885
      vertex -3.96194 -0.166967 1.55885
    endloop
  endfacet
  facet normal 0 0 1
    outer loop
      vertex -3.91319 0.215716 1.55885
      vertex -4 1 1.55885
      vertex -3.96194 0.166967 1.55885
    endloop
  endfacet
  facet normal 0 0 1
    outer loop
      vertex -3.69134 0.437564 1.55885
      vertex -4 1 1.55885
      vertex -3.91319 0.215716 1.55885
    endloop
  endfacet
  facet normal 0 0 1
    outer loop
      vertex -3.5 0.475625 1.55885
      vertex -4 1 1.55885
      vertex -3.69134 0.437564 1.55885
    endloop
  endfacet
  facet normal -0 0 1
    outer loop
      vertex -4 1 1.55885
      vertex -3.5 0.475625 1.55885
      vertex 0 1 1.55885
    endloop
  endfacet
  facet normal -0 0 1
    outer loop
      vertex -0.0380611 -0.166967 1.55885
      vertex 0 -1 1.55885
      vertex -0.0380611 0.166967 1.55885
    endloop
  endfacet
  facet normal -0 0 1
    outer loop
      vertex -0.0868104 -0.215716 1.55885
      vertex 0 -1 1.55885
      vertex -0.0380611 -0.166967 1.55885
    endloop
  endfacet
  facet normal -0 0 1
    outer loop
      vertex -0.308659 -0.437564 1.55885
      vertex 0 -1 1.55885
      vertex -0.0868104 -0.215716 1.55885
    endloop
  endfacet
  facet normal 0 0 1
    outer loop
      vertex -0.5 -0.475625 1.55885
      vertex -0.308659 -0.437564 1.55885
      vertex -0.5 -0.437564 1.55885
    endloop
  endfacet
  facet normal 0 0 1
    outer loop
      vertex -0.308659 -0.437564 1.55885
      vertex -0.5 -0.475625 1.55885
      vertex 0 -1 1.55885
    endloop
  endfacet
  facet normal -0 0 1
    outer loop
      vertex -3.5 -0.475625 1.55885
      vertex 0 -1 1.55885
      vertex -0.5 -0.475625 1.55885
    endloop
  endfacet
  facet normal 0 0 1
    outer loop
      vertex -3.5 -0.475625 1.55885
      vertex -4 -1 1.55885
      vertex 0 -1 1.55885
    endloop
  endfacet
  facet normal 0 0 1
    outer loop
      vertex -3.69134 -0.437564 1.55885
      vertex -4 -1 1.55885
      vertex -3.5 -0.475625 1.55885
    endloop
  endfacet
  facet normal 0 0 1
    outer loop
      vertex -3.91319 -0.215716 1.55885
      vertex -4 -1 1.55885
      vertex -3.69134 -0.437564 1.55885
    endloop
  endfacet
  facet normal 0 0 1
    outer loop
      vertex -3.96194 -0.166967 1.55885
      vertex -4 -1 1.55885
      vertex -3.91319 -0.215716 1.55885
    endloop
  endfacet
  facet normal 0 0 1
    outer loop
      vertex -4 -1 1.55885
      vertex -3.96194 -0.166967 1.55885
      vertex -4 1 1.55885
    endloop
  endfacet
  facet normal 0 0 1
    outer loop
      vertex -0.308659 0.437564 1.55885
      vertex -0.5 0.475625 1.55885
      vertex -0.5 0.437564 1.55885
    endloop
  endfacet
  facet normal 0 0.8417 0.539946
    outer loop
      vertex 0 1 1.55885
      vertex -1 1.14152 1.33824
      vertex -4 1 1.55885
    endloop
  endfacet
  facet normal 3.61127e-06 0.841707 0.539934
    outer loop
      vertex 0 1 1.55885
      vertex -1 1.23531 1.19203
      vertex -1 1.14152 1.33824
    endloop
  endfacet
  facet normal 0 0.841697 0.53995
    outer loop
      vertex -1 1.23531 1.19203
      vertex 0 2 0
      vertex -3 1.23531 1.19203
    endloop
  endfacet
  facet normal -3.78315e-06 0.841698 0.539948
    outer loop
      vertex 0 2 0
      vertex -1 1.23531 1.19203
      vertex 0 1 1.55885
    endloop
  endfacet
  facet normal -0 0.8417 0.539946
    outer loop
      vertex -3 1.14152 1.33824
      vertex -4 1 1.55885
      vertex -1 1.14152 1.33824
    endloop
  endfacet
  facet normal -3.61127e-06 0.841707 0.539934
    outer loop
      vertex -3 1.23531 1.19203
      vertex -4 1 1.55885
      vertex -3 1.14152 1.33824
    endloop
  endfacet
  facet normal -0 0.841697 0.53995
    outer loop
      vertex -4 2 0
      vertex -3 1.23531 1.19203
      vertex 0 2 0
    endloop
  endfacet
  facet normal 3.78315e-06 0.841698 0.539948
    outer loop
      vertex -3 1.23531 1.19203
      vertex -4 2 0
      vertex -4 1 1.55885
    endloop
  endfacet
  facet normal 0 0.841698 -0.539949
    outer loop
      vertex 0 1.67925 -0.5
      vertex -4 2 0
      vertex 0 2 0
    endloop
  endfacet
  facet normal 0 0.841698 -0.539949
    outer loop
      vertex -4 2 0
      vertex 0 1.67925 -0.5
      vertex -4 1.67925 -0.5
    endloop
  endfacet
  facet normal 0 -0.841698 -0.539949
    outer loop
      vertex -4 -1.67925 -0.5
      vertex 0 -2 0
      vertex -4 -2 0
    endloop
  endfacet
  facet normal 0 -0.841698 -0.539949
    outer loop
      vertex 0 -2 0
      vertex -4 -1.67925 -0.5
      vertex 0 -1.67925 -0.5
    endloop
  endfacet
  facet normal 0 -0.8417 0.539946
    outer loop
      vertex -4 -1 1.55885
      vertex -3 -1.14152 1.33824
      vertex 0 -1 1.55885
    endloop
  endfacet
  facet normal -3.61127e-06 -0.841707 0.539934
    outer loop
      vertex -4 -1 1.55885
      vertex -3 -1.23531 1.19203
      vertex -3 -1.14152 1.33824
    endloop
  endfacet
  facet normal 0 -0.841697 0.53995
    outer loop
      vertex -3 -1.23531 1.19203
      vertex -4 -2 0
      vertex -1 -1.23531 1.19203
    endloop
  endfacet
  facet normal 3.78315e-06 -0.841698 0.539948
    outer loop
      vertex -4 -2 0
      vertex -3 -1.23531 1.19203
      vertex -4 -1 1.55885
    endloop
  endfacet
  facet normal 0 -0.8417 0.539946
    outer loop
      vertex -1 -1.14152 1.33824
      vertex 0 -1 1.55885
      vertex -3 -1.14152 1.33824
    endloop
  endfacet
  facet normal 3.61127e-06 -0.841707 0.539934
    outer loop
      vertex -1 -1.23531 1.19203
      vertex 0 -1 1.55885
      vertex -1 -1.14152 1.33824
    endloop
  endfacet
  facet normal 0 -0.841697 0.53995
    outer loop
      vertex 0 -2 0
      vertex -1 -1.23531 1.19203
      vertex -4 -2 0
    endloop
  endfacet
  facet normal -3.78315e-06 -0.841698 0.539948
    outer loop
      vertex -1 -1.23531 1.19203
      vertex 0 -2 0
      vertex 0 -1 1.55885
    endloop
  endfacet
  facet normal -1 0 0
    outer loop
      vertex -4 1.67925 -0.5
      vertex -4 1 1.55885
      vertex -4 2 0
    endloop
  endfacet
  facet normal -1 0 0
    outer loop
      vertex -4 1.67925 -0.5
      vertex -4 -1 1.55885
      vertex -4 1 1.55885
    endloop
  endfacet
  facet normal -1 0 0
    outer loop
      vertex -4 -1.67925 -0.5
      vertex -4 -1 1.55885
      vertex -4 1.67925 -0.5
    endloop
  endfacet
  facet normal -1 0 0
    outer loop
      vertex -4 -1 1.55885
      vertex -4 -1.67925 -0.5
      vertex -4 -2 0
    endloop
  endfacet
  facet normal -0 0.435917 0.899987
    outer loop
      vertex -3 4.0938 0.284881
      vertex -1 2.24061 1.18249
      vertex -1 4.0938 0.284881
    endloop
  endfacet
  facet normal 0 0.435917 0.899987
    outer loop
      vertex -1 2.24061 1.18249
      vertex -3 4.0938 0.284881
      vertex -3 2.24061 1.18249
    endloop
  endfacet
  facet normal -0 0.140306 0.990108
    outer loop
      vertex -3 2.24061 1.18249
      vertex -1 1.14152 1.33824
      vertex -1 2.24061 1.18249
    endloop
  endfacet
  facet normal 0 0.140306 0.990108
    outer loop
      vertex -1 1.14152 1.33824
      vertex -3 2.24061 1.18249
      vertex -3 1.14152 1.33824
    endloop
  endfacet
  facet normal 0 0.755925 0.654659
    outer loop
      vertex -1 4.33596 0.00526237
      vertex -3 4.0938 0.284881
      vertex -1 4.0938 0.284881
    endloop
  endfacet
  facet normal 0 0.755925 0.654659
    outer loop
      vertex -3 4.0938 0.284881
      vertex -1 4.33596 0.00526237
      vertex -3 4.33596 0.00526237
    endloop
  endfacet
  facet normal 0 -0.140306 0.990108
    outer loop
      vertex -3 -1.14152 1.33824
      vertex -1 -2.24061 1.18249
      vertex -1 -1.14152 1.33824
    endloop
  endfacet
  facet normal 0 -0.140306 0.990108
    outer loop
      vertex -1 -2.24061 1.18249
      vertex -3 -1.14152 1.33824
      vertex -3 -2.24061 1.18249
    endloop
  endfacet
  facet normal 0 -0.755925 0.654659
    outer loop
      vertex -3 -4.33596 0.00526237
      vertex -1 -4.0938 0.284881
      vertex -3 -4.0938 0.284881
    endloop
  endfacet
  facet normal 0 -0.755925 0.654659
    outer loop
      vertex -1 -4.0938 0.284881
      vertex -3 -4.33596 0.00526237
      vertex -1 -4.33596 0.00526237
    endloop
  endfacet
  facet normal 0 -0.435917 0.899987
    outer loop
      vertex -3 -2.24061 1.18249
      vertex -1 -4.0938 0.284881
      vertex -1 -2.24061 1.18249
    endloop
  endfacet
  facet normal 0 -0.435917 0.899987
    outer loop
      vertex -1 -4.0938 0.284881
      vertex -3 -2.24061 1.18249
      vertex -3 -4.0938 0.284881
    endloop
  endfacet
  facet normal 1 0 0
    outer loop
      vertex -1 4.33596 0.00526237
      vertex -1 4.16618 0.0424475
      vertex -1 4.19305 0.00526237
    endloop
  endfacet
  facet normal 1 0 0
    outer loop
      vertex -1 4.0938 0.284881
      vertex -1 4.16618 0.0424475
      vertex -1 4.33596 0.00526237
    endloop
  endfacet
  facet normal 1 0 0
    outer loop
      vertex -1 4.0938 0.284881
      vertex -1 2.31206 1.02819
      vertex -1 4.16618 0.0424475
    endloop
  endfacet
  facet normal 1 0 0
    outer loop
      vertex -1 2.24061 1.18249
      vertex -1 2.31206 1.02819
      vertex -1 4.0938 0.284881
    endloop
  endfacet
  facet normal 1 0 0
    outer loop
      vertex -1 2.24061 1.18249
      vertex -1 1.23531 1.19203
      vertex -1 2.31206 1.02819
    endloop
  endfacet
  facet normal 1 -0 -0
    outer loop
      vertex -1 1.23531 1.19203
      vertex -1 2.24061 1.18249
      vertex -1 1.14152 1.33824
    endloop
  endfacet
  facet normal 1 0 0
    outer loop
      vertex -1 -2.24061 1.18249
      vertex -1 -1.23531 1.19203
      vertex -1 -1.14152 1.33824
    endloop
  endfacet
  facet normal 1 -0 0
    outer loop
      vertex -1 -2.24061 1.18249
      vertex -1 -2.31206 1.02819
      vertex -1 -1.23531 1.19203
    endloop
  endfacet
  facet normal 1 0 0
    outer loop
      vertex -1 -4.0938 0.284881
      vertex -1 -2.31206 1.02819
      vertex -1 -2.24061 1.18249
    endloop
  endfacet
  facet normal 1 -0 0
    outer loop
      vertex -1 -4.0938 0.284881
      vertex -1 -4.16618 0.0424475
      vertex -1 -2.31206 1.02819
    endloop
  endfacet
  facet normal 1 0 0
    outer loop
      vertex -1 -4.33596 0.00526237
      vertex -1 -4.16618 0.0424475
      vertex -1 -4.0938 0.284881
    endloop
  endfacet
  facet normal 1 0 0
    outer loop
      vertex -1 -4.16618 0.0424475
      vertex -1 -4.33596 0.00526237
      vertex -1 -4.19305 0.00526237
    endloop
  endfacet
  facet normal -1 0 0
    outer loop
      vertex -3 4.16618 0.0424475
      vertex -3 4.33596 0.00526237
      vertex -3 4.19305 0.00526237
    endloop
  endfacet
  facet normal -1 0 0
    outer loop
      vertex -3 4.16618 0.0424475
      vertex -3 4.0938 0.284881
      vertex -3 4.33596 0.00526237
    endloop
  endfacet
  facet normal -1 0 0
    outer loop
      vertex -3 2.31206 1.02819
      vertex -3 4.0938 0.284881
      vertex -3 4.16618 0.0424475
    endloop
  endfacet
  facet normal -1 0 0
    outer loop
      vertex -3 2.31206 1.02819
      vertex -3 2.24061 1.18249
      vertex -3 4.0938 0.284881
    endloop
  endfacet
  facet normal -1 0 0
    outer loop
      vertex -3 1.23531 1.19203
      vertex -3 2.24061 1.18249
      vertex -3 2.31206 1.02819
    endloop
  endfacet
  facet normal -1 0 0
    outer loop
      vertex -3 2.24061 1.18249
      vertex -3 1.23531 1.19203
      vertex -3 1.14152 1.33824
    endloop
  endfacet
  facet normal -1 -0 0
    outer loop
      vertex -3 -1.23531 1.19203
      vertex -3 -2.24061 1.18249
      vertex -3 -1.14152 1.33824
    endloop
  endfacet
  facet normal -1 0 0
    outer loop
      vertex -3 -2.31206 1.02819
      vertex -3 -2.24061 1.18249
      vertex -3 -1.23531 1.19203
    endloop
  endfacet
  facet normal -1 -0 0
    outer loop
      vertex -3 -2.31206 1.02819
      vertex -3 -4.0938 0.284881
      vertex -3 -2.24061 1.18249
    endloop
  endfacet
  facet normal -1 0 0
    outer loop
      vertex -3 -4.16618 0.0424475
      vertex -3 -4.0938 0.284881
      vertex -3 -2.31206 1.02819
    endloop
  endfacet
  facet normal -1 0 0
    outer loop
      vertex -3 -4.33596 0.00526237
      vertex -3 -4.16618 0.0424475
      vertex -3 -4.19305 0.00526237
    endloop
  endfacet
  facet normal -1 -0 0
    outer loop
      vertex -3 -4.16618 0.0424475
      vertex -3 -4.33596 0.00526237
      vertex -3 -4.0938 0.284881
    endloop
  endfacet
  facet normal 0 -0.469431 -0.882969
    outer loop
      vertex -3 2.31206 1.02819
      vertex -1 4.16618 0.0424475
      vertex -1 2.31206 1.02819
    endloop
  endfacet
  facet normal -0 -0.469431 -0.882969
    outer loop
      vertex -1 4.16618 0.0424475
      vertex -3 2.31206 1.02819
      vertex -3 4.16618 0.0424475
    endloop
  endfacet
  facet normal 0 -0.15043 -0.988621
    outer loop
      vertex -3 1.23531 1.19203
      vertex -1 2.31206 1.02819
      vertex -1 1.23531 1.19203
    endloop
  endfacet
  facet normal -0 -0.15043 -0.988621
    outer loop
      vertex -1 2.31206 1.02819
      vertex -3 1.23531 1.19203
      vertex -3 2.31206 1.02819
    endloop
  endfacet
  facet normal 0 0.15043 -0.988621
    outer loop
      vertex -3 -2.31206 1.02819
      vertex -1 -1.23531 1.19203
      vertex -1 -2.31206 1.02819
    endloop
  endfacet
  facet normal 0 0.15043 -0.988621
    outer loop
      vertex -1 -1.23531 1.19203
      vertex -3 -2.31206 1.02819
      vertex -3 -1.23531 1.19203
    endloop
  endfacet
  facet normal 0 0.810534 -0.585692
    outer loop
      vertex -1 -4.19305 0.00526237
      vertex -3 -4.16618 0.0424475
      vertex -1 -4.16618 0.0424475
    endloop
  endfacet
  facet normal 0 0.810534 -0.585692
    outer loop
      vertex -3 -4.16618 0.0424475
      vertex -1 -4.19305 0.00526237
      vertex -3 -4.19305 0.00526237
    endloop
  endfacet
  facet normal 0 0.469431 -0.882969
    outer loop
      vertex -3 -4.16618 0.0424475
      vertex -1 -2.31206 1.02819
      vertex -1 -4.16618 0.0424475
    endloop
  endfacet
  facet normal 0 0.469431 -0.882969
    outer loop
      vertex -1 -2.31206 1.02819
      vertex -3 -4.16618 0.0424475
      vertex -3 -2.31206 1.02819
    endloop
  endfacet
  facet normal 0 -0.810534 -0.585692
    outer loop
      vertex -3 4.19305 0.00526237
      vertex -1 4.16618 0.0424475
      vertex -3 4.16618 0.0424475
    endloop
  endfacet
  facet normal 0 -0.810534 -0.585692
    outer loop
      vertex -1 4.16618 0.0424475
      vertex -3 4.19305 0.00526237
      vertex -1 4.19305 0.00526237
    endloop
  endfacet
  facet normal 1 -0 0
    outer loop
      vertex 1 3.95 -0.866024
      vertex 1 4.45 -0.866025
      vertex 1 4.45 -0.866024
    endloop
  endfacet
  facet normal 1 0 0
    outer loop
      vertex 1 3.95 -0.866024
      vertex 1 3.95 -0.866025
      vertex 1 4.45 -0.866025
    endloop
  endfacet
  facet normal 1 0 -0
    outer loop
      vertex 1 3.95 -0.866025
      vertex 1 3.95 -0.866024
      vertex 1 3.825 -0.433013
    endloop
  endfacet
  facet normal -0.0103092 0 -0.999947
    outer loop
      vertex 1 3.95 -0.866025
      vertex -0.166666 3.95347 -0.853997
      vertex -0.166666 4.44653 -0.853997
    endloop
  endfacet
  facet normal -0.00542083 0.960707 0.27751
    outer loop
      vertex -0.166666 4.69306 3.14626e-07
      vertex -0.166666 4.69154 0.00526237
      vertex -0.159577 4.69158 0.00526237
    endloop
  endfacet
  facet normal -0.0057166 0.9607 0.277528
    outer loop
      vertex 0.999999 4.7 6.93225e-07
      vertex -0.159577 4.69158 0.00526237
      vertex 0.999999 4.69848 0.00526237
    endloop
  endfacet
  facet normal -0.0057143 0.9606 0.277876
    outer loop
      vertex -0.159577 4.69158 0.00526237
      vertex 0.999999 4.7 6.93225e-07
      vertex -0.166666 4.69306 3.14626e-07
    endloop
  endfacet
  facet normal -0.0103092 0 -0.999947
    outer loop
      vertex 1 3.95 -0.866025
      vertex -0.166666 4.44653 -0.853997
      vertex 1 4.45 -0.866025
    endloop
  endfacet
  facet normal -0.00571521 -0.960753 -0.277346
    outer loop
      vertex -0.166666 3.70694 -3.14626e-07
      vertex 1 3.825 -0.433013
      vertex 0.999999 3.7 -6.93225e-07
    endloop
  endfacet
  facet normal -0.00571527 -0.960753 -0.277346
    outer loop
      vertex 1 3.825 -0.433013
      vertex -0.166666 3.70694 -3.14626e-07
      vertex 1 3.95 -0.866025
    endloop
  endfacet
  facet normal -0.00594847 0.999982 0
    outer loop
      vertex 0.999999 4.7 0
      vertex -0.166666 4.69306 3.14626e-07
      vertex 0.999999 4.7 6.93225e-07
    endloop
  endfacet
  facet normal -0.00571519 0.960753 -0.277348
    outer loop
      vertex 0.999999 4.7 0
      vertex -0.166666 4.44653 -0.853997
      vertex -0.166666 4.69306 3.14626e-07
    endloop
  endfacet
  facet normal -0.00571645 0.960753 -0.277346
    outer loop
      vertex 0.999999 4.45 -0.866023
      vertex -0.166666 4.44653 -0.853997
      vertex 0.999999 4.7 0
    endloop
  endfacet
  facet normal 0 1 -0
    outer loop
      vertex 1 4.45 -0.866025
      vertex 0.999999 4.45 -0.866023
      vertex 1 4.45 -0.866024
    endloop
  endfacet
  facet normal -0.00298968 0.999994 -0.00149484
    outer loop
      vertex 0.999999 4.45 -0.866023
      vertex 1 4.45 -0.866025
      vertex -0.166666 4.44653 -0.853997
    endloop
  endfacet
  facet normal -0.00571693 -0.960753 -0.277348
    outer loop
      vertex 1 3.95 -0.866025
      vertex -0.166666 3.70694 -3.14626e-07
      vertex -0.166666 3.95347 -0.853997
    endloop
  endfacet
  facet normal -0.00571486 -0.96071 0.277495
    outer loop
      vertex -0.166666 3.70846 0.00526237
      vertex 0.999999 3.7 0
      vertex 0.999999 3.70152 0.00526237
    endloop
  endfacet
  facet normal -0.00571496 -0.960715 0.277479
    outer loop
      vertex -0.166666 3.70694 -3.14626e-07
      vertex 0.999999 3.7 0
      vertex -0.166666 3.70846 0.00526237
    endloop
  endfacet
  facet normal -0.00594847 -0.999982 -0
    outer loop
      vertex 0.999999 3.7 0
      vertex -0.166666 3.70694 -3.14626e-07
      vertex 0.999999 3.7 -6.93225e-07
    endloop
  endfacet
  facet normal -0.0309161 0 -0.999522
    outer loop
      vertex -0.166666 3.95347 -0.853997
      vertex -1.33333 3.96389 -0.817911
      vertex -1.33333 4.43611 -0.817911
    endloop
  endfacet
  facet normal -0.0173679 0.960579 0.277464
    outer loop
      vertex -1.33333 4.67222 1.32502e-07
      vertex -1.33333 4.6707 0.00526237
      vertex -1.32614 4.67083 0.00526237
    endloop
  endfacet
  facet normal -0.0171574 0.96058 0.277474
    outer loop
      vertex -0.166666 4.69306 3.14626e-07
      vertex -1.32614 4.67083 0.00526237
      vertex -0.166666 4.69154 0.00526237
    endloop
  endfacet
  facet normal -0.0171602 0.960659 0.277201
    outer loop
      vertex -1.32614 4.67083 0.00526237
      vertex -0.166666 4.69306 3.14626e-07
      vertex -1.33333 4.67222 1.32502e-07
    endloop
  endfacet
  facet normal -0.0309161 0 -0.999522
    outer loop
      vertex -0.166666 3.95347 -0.853997
      vertex -1.33333 4.43611 -0.817911
      vertex -0.166666 4.44653 -0.853997
    endloop
  endfacet
  facet normal -0.0171596 -0.960627 -0.277312
    outer loop
      vertex -0.166666 3.70694 -3.14626e-07
      vertex -1.33333 3.72778 -1.32502e-07
      vertex -0.166666 3.95347 -0.853997
    endloop
  endfacet
  facet normal -0.0171596 0.960628 -0.277309
    outer loop
      vertex -0.166666 4.69306 3.14626e-07
      vertex -1.33333 4.43611 -0.817911
      vertex -1.33333 4.67222 1.32502e-07
    endloop
  endfacet
  facet normal -0.0171573 0.960627 -0.277312
    outer loop
      vertex -1.33333 4.43611 -0.817911
      vertex -0.166666 4.69306 3.14626e-07
      vertex -0.166666 4.44653 -0.853997
    endloop
  endfacet
  facet normal -0.0171572 -0.960628 -0.277309
    outer loop
      vertex -0.166666 3.95347 -0.853997
      vertex -1.33333 3.72778 -1.32502e-07
      vertex -1.33333 3.96389 -0.817911
    endloop
  endfacet
  facet normal -0.0171589 -0.960586 0.277452
    outer loop
      vertex -1.33333 3.72778 -1.32502e-07
      vertex -0.166666 3.70846 0.00526237
      vertex -1.33333 3.7293 0.00526237
    endloop
  endfacet
  facet normal -0.0171589 -0.960589 0.277443
    outer loop
      vertex -0.166666 3.70846 0.00526237
      vertex -1.33333 3.72778 -1.32502e-07
      vertex -0.166666 3.70694 -3.14626e-07
    endloop
  endfacet
  facet normal -0.0284544 0.960335 0.277393
    outer loop
      vertex -1.33333 4.67222 1.32502e-07
      vertex -1.34143 4.67046 0.00526237
      vertex -1.33333 4.6707 0.00526237
    endloop
  endfacet
  facet normal -0.0285812 -0.960377 -0.277236
    outer loop
      vertex -1.33333 3.72778 -1.32502e-07
      vertex -2.5 3.98125 -0.757772
      vertex -1.33333 3.96389 -0.817911
    endloop
  endfacet
  facet normal -0.0285809 0.960376 -0.277237
    outer loop
      vertex -1.33333 4.67222 1.32502e-07
      vertex -2.5 4.41875 -0.757771
      vertex -2.5 4.6375 8.44991e-07
    endloop
  endfacet
  facet normal -0.0285814 0.960377 -0.277236
    outer loop
      vertex -2.5 4.41875 -0.757771
      vertex -1.33333 4.67222 1.32502e-07
      vertex -1.33333 4.43611 -0.817911
    endloop
  endfacet
  facet normal -0.0514801 2.28268e-06 -0.998674
    outer loop
      vertex -1.33333 4.43611 -0.817911
      vertex -2.5 3.98125 -0.757772
      vertex -2.5 4.41875 -0.757771
    endloop
  endfacet
  facet normal -0.0514792 0 -0.998674
    outer loop
      vertex -1.33333 3.96389 -0.817911
      vertex -2.5 3.98125 -0.757772
      vertex -1.33333 4.43611 -0.817911
    endloop
  endfacet
  facet normal -0.02858 0.960322 0.277427
    outer loop
      vertex -1.34143 4.67046 0.00526237
      vertex -2.5 4.6375 8.44991e-07
      vertex -2.5 4.63598 0.00526237
    endloop
  endfacet
  facet normal -0.0285807 0.960383 0.277215
    outer loop
      vertex -2.5 4.6375 8.44991e-07
      vertex -1.34143 4.67046 0.00526237
      vertex -1.33333 4.67222 1.32502e-07
    endloop
  endfacet
  facet normal -0.0285805 -0.960376 -0.277237
    outer loop
      vertex -1.33333 3.72778 -1.32502e-07
      vertex -2.5 3.7625 -8.44991e-07
      vertex -2.5 3.98125 -0.757772
    endloop
  endfacet
  facet normal -0.0285795 -0.960335 0.277379
    outer loop
      vertex -2.5 3.76402 0.00526237
      vertex -1.33333 3.72778 -1.32502e-07
      vertex -1.33333 3.7293 0.00526237
    endloop
  endfacet
  facet normal -0.02858 -0.960345 0.277345
    outer loop
      vertex -1.33333 3.72778 -1.32502e-07
      vertex -2.5 3.76402 0.00526237
      vertex -2.5 3.7625 -8.44991e-07
    endloop
  endfacet
  facet normal -0.0400416 0.959944 0.277318
    outer loop
      vertex -2.5 4.6375 8.44991e-07
      vertex -2.50911 4.6356 0.00526237
      vertex -2.5 4.63598 0.00526237
    endloop
  endfacet
  facet normal -0.0719814 0 -0.997406
    outer loop
      vertex -2.5 4.41875 -0.757771
      vertex -3.66667 4.00556 -0.673574
      vertex -3.66667 4.39444 -0.673574
    endloop
  endfacet
  facet normal -0.0399985 0.959998 -0.277136
    outer loop
      vertex -2.5 4.6375 8.44991e-07
      vertex -3.66667 4.39444 -0.673574
      vertex -3.66667 4.58889 -8.51532e-07
    endloop
  endfacet
  facet normal -0.0400036 0.96 -0.277128
    outer loop
      vertex -3.66667 4.39444 -0.673574
      vertex -2.5 4.6375 8.44991e-07
      vertex -2.5 4.41875 -0.757771
    endloop
  endfacet
  facet normal -0.0399993 -0.959998 -0.277136
    outer loop
      vertex -2.5 3.7625 -8.44991e-07
      vertex -3.66667 3.81111 8.51532e-07
      vertex -3.66667 4.00556 -0.673574
    endloop
  endfacet
  facet normal -0.0400038 -0.96 -0.277128
    outer loop
      vertex -2.5 3.7625 -8.44991e-07
      vertex -3.66667 4.00556 -0.673574
      vertex -2.5 3.98125 -0.757772
    endloop
  endfacet
  facet normal -0.0719822 2.27978e-06 -0.997406
    outer loop
      vertex -2.5 3.98125 -0.757772
      vertex -3.66667 4.00556 -0.673574
      vertex -2.5 4.41875 -0.757771
    endloop
  endfacet
  facet normal -0.0399962 0.959925 0.277389
    outer loop
      vertex -3.66667 4.58889 -8.51532e-07
      vertex -2.50911 4.6356 0.00526237
      vertex -2.5 4.6375 8.44991e-07
    endloop
  endfacet
  facet normal -0.0399973 0.959969 0.277236
    outer loop
      vertex -2.50911 4.6356 0.00526237
      vertex -3.66667 4.58889 -8.51532e-07
      vertex -3.66667 4.58737 0.00526237
    endloop
  endfacet
  facet normal -0.0399967 -0.959945 0.277319
    outer loop
      vertex -3.66667 3.81111 8.51532e-07
      vertex -2.5 3.76402 0.00526237
      vertex -3.66667 3.81263 0.00526237
    endloop
  endfacet
  facet normal -0.0399973 -0.959969 0.277236
    outer loop
      vertex -2.5 3.76402 0.00526237
      vertex -3.66667 3.81111 8.51532e-07
      vertex -2.5 3.7625 -8.44991e-07
    endloop
  endfacet
  facet normal -0.0512427 0.959476 0.277093
    outer loop
      vertex -3.66667 4.58889 -8.51532e-07
      vertex -3.67753 4.58679 0.00526237
      vertex -3.66667 4.58737 0.00526237
    endloop
  endfacet
  facet normal -0.0514026 -0.959497 -0.276991
    outer loop
      vertex -3.66667 3.81111 8.51532e-07
      vertex -4.83333 4.03681 -0.565321
      vertex -3.66667 4.00556 -0.673574
    endloop
  endfacet
  facet normal -0.0514019 0.959496 -0.276993
    outer loop
      vertex -3.66667 4.58889 -8.51532e-07
      vertex -4.83333 4.36319 -0.56532
      vertex -4.83333 4.52639 -6.99766e-07
    endloop
  endfacet
  facet normal -0.0514029 0.959496 -0.276992
    outer loop
      vertex -4.83333 4.36319 -0.56532
      vertex -3.66667 4.58889 -8.51532e-07
      vertex -3.66667 4.39444 -0.673574
    endloop
  endfacet
  facet normal -0.0923929 3.05081e-06 -0.995723
    outer loop
      vertex -3.66667 4.39444 -0.673574
      vertex -4.83333 4.03681 -0.565321
      vertex -4.83333 4.36319 -0.56532
    endloop
  endfacet
  facet normal -0.0923919 0 -0.995723
    outer loop
      vertex -3.66667 4.00556 -0.673574
      vertex -4.83333 4.03681 -0.565321
      vertex -3.66667 4.39444 -0.673574
    endloop
  endfacet
  facet normal -0.0513991 -0.959444 0.277174
    outer loop
      vertex -4.83333 3.87513 0.00526237
      vertex -3.66667 3.81111 8.51532e-07
      vertex -3.66667 3.81263 0.00526237
    endloop
  endfacet
  facet normal -0.0513992 -0.959446 0.277166
    outer loop
      vertex -3.66667 3.81111 8.51532e-07
      vertex -4.83333 3.87513 0.00526237
      vertex -4.83333 3.87361 6.99766e-07
    endloop
  endfacet
  facet normal -0.0514017 0.959466 0.277098
    outer loop
      vertex -3.67753 4.58679 0.00526237
      vertex -4.83333 4.52639 -6.99766e-07
      vertex -4.83333 4.52487 0.00526237
    endloop
  endfacet
  facet normal -0.051405 0.959555 0.27679
    outer loop
      vertex -4.83333 4.52639 -6.99766e-07
      vertex -3.67753 4.58679 0.00526237
      vertex -3.66667 4.58889 -8.51532e-07
    endloop
  endfacet
  facet normal -0.0514018 -0.959496 -0.276992
    outer loop
      vertex -3.66667 3.81111 8.51532e-07
      vertex -4.83333 3.87361 6.99766e-07
      vertex -4.83333 4.03681 -0.565321
    endloop
  endfacet
  facet normal -0.062686 0.958832 0.27697
    outer loop
      vertex -6 4.45 3.46613e-07
      vertex -6 4.44848 0.00526237
      vertex -5.98914 4.44919 0.00526237
    endloop
  endfacet
  facet normal -0.0627828 0.95884 0.276918
    outer loop
      vertex -4.83333 4.52639 -6.99766e-07
      vertex -5.98914 4.44919 0.00526237
      vertex -4.83333 4.52487 0.00526237
    endloop
  endfacet
  facet normal -0.0627773 0.958774 0.27715
    outer loop
      vertex -5.98914 4.44919 0.00526237
      vertex -4.83333 4.52639 -6.99766e-07
      vertex -6 4.45 3.46613e-07
    endloop
  endfacet
  facet normal -0.112683 5.15128e-06 -0.993631
    outer loop
      vertex -5.73346 4.06627 -0.463241
      vertex -5.73346 4.25916 -0.46324
      vertex -4.83333 4.03681 -0.565321
    endloop
  endfacet
  facet normal -0.0627845 0.958875 -0.276796
    outer loop
      vertex -5.73346 4.33373 -0.46324
      vertex -6 4.45 3.46613e-07
      vertex -4.83333 4.52639 -6.99766e-07
    endloop
  endfacet
  facet normal -0.0627791 0.958877 -0.276793
    outer loop
      vertex -6 4.45 3.46613e-07
      vertex -5.73346 4.33373 -0.46324
      vertex -6 4.39322 -0.196699
    endloop
  endfacet
  facet normal -0.0627747 0.958871 -0.276813
    outer loop
      vertex -5.73346 4.33373 -0.46324
      vertex -4.83333 4.52639 -6.99766e-07
      vertex -4.83333 4.36319 -0.56532
    endloop
  endfacet
  facet normal -0.112684 3.0444e-06 -0.993631
    outer loop
      vertex -5.73346 4.25916 -0.46324
      vertex -4.83333 4.36319 -0.56532
      vertex -4.83333 4.03681 -0.565321
    endloop
  endfacet
  facet normal -0.112684 0 -0.993631
    outer loop
      vertex -4.83333 4.36319 -0.56532
      vertex -5.73346 4.25916 -0.46324
      vertex -5.73346 4.33373 -0.46324
    endloop
  endfacet
  facet normal -0.0627837 -0.958871 -0.276812
    outer loop
      vertex -4.83333 3.87361 6.99766e-07
      vertex -6 3.95 -3.46613e-07
      vertex -4.83333 4.03681 -0.565321
    endloop
  endfacet
  facet normal -0.062781 -0.958876 -0.276794
    outer loop
      vertex -5.73346 4.06627 -0.463241
      vertex -6 3.95 -3.46613e-07
      vertex -6 4.00678 -0.196699
    endloop
  endfacet
  facet normal -0.0627723 -0.958878 -0.276789
    outer loop
      vertex -6 3.95 -3.46613e-07
      vertex -5.73346 4.06627 -0.463241
      vertex -4.83333 4.03681 -0.565321
    endloop
  endfacet
  facet normal -0.0627807 -0.958821 0.276986
    outer loop
      vertex -6 3.95152 0.00526237
      vertex -4.83333 3.87361 6.99766e-07
      vertex -4.83333 3.87513 0.00526237
    endloop
  endfacet
  facet normal -0.0627819 -0.958835 0.276935
    outer loop
      vertex -4.83333 3.87361 6.99766e-07
      vertex -6 3.95152 0.00526237
      vertex -6 3.95 -3.46613e-07
    endloop
  endfacet
  facet normal -0.074133 0.958077 0.276752
    outer loop
      vertex -6.1967 4.43478 2.77663e-07
      vertex -6 4.44848 0.00526237
      vertex -6 4.45 3.46613e-07
    endloop
  endfacet
  facet normal -0.0741362 0.957936 0.27724
    outer loop
      vertex -6 4.44848 0.00526237
      vertex -6.1967 4.43478 2.77663e-07
      vertex -6.20196 4.43285 0.00526237
    endloop
  endfacet
  facet normal -0.0741369 -0.958128 -0.276578
    outer loop
      vertex -6 3.95 -3.46613e-07
      vertex -6.1967 3.96522 -2.77663e-07
      vertex -6 4.00678 -0.196699
    endloop
  endfacet
  facet normal -0.0741367 0.958128 -0.276577
    outer loop
      vertex -6 4.39322 -0.196699
      vertex -6.1967 4.43478 2.77663e-07
      vertex -6 4.45 3.46613e-07
    endloop
  endfacet
  facet normal -0.0741368 -0.957944 0.277213
    outer loop
      vertex -6.1967 3.96522 -2.77663e-07
      vertex -6 3.95152 0.00526237
      vertex -6.20196 3.96715 0.00526237
    endloop
  endfacet
  facet normal -0.0741335 -0.958087 0.276719
    outer loop
      vertex -6 3.95152 0.00526237
      vertex -6.1967 3.96522 -2.77663e-07
      vertex -6 3.95 -3.46613e-07
    endloop
  endfacet
  facet normal 0.485057 0.840138 0.242668
    outer loop
      vertex 1.43301 4.45 0
      vertex 1 4.69848 0.00526237
      vertex 1.43301 4.44848 0.00526237
    endloop
  endfacet
  facet normal 0.485057 0.840138 0.242668
    outer loop
      vertex 1 4.69848 0.00526237
      vertex 1.43301 4.45 0
      vertex 1 4.7 0
    endloop
  endfacet
  facet normal 0.707108 0 -0.707105
    outer loop
      vertex 1.43301 4.075 -0.433012
      vertex 1 4.45 -0.866024
      vertex 1.43301 4.325 -0.433012
    endloop
  endfacet
  facet normal 0.707108 0 -0.707105
    outer loop
      vertex 1 4.45 -0.866024
      vertex 1.43301 4.075 -0.433012
      vertex 1 3.95 -0.866024
    endloop
  endfacet
  facet normal 1 0 0
    outer loop
      vertex 1.43301 3.95 0
      vertex 1.43301 4.45 0
      vertex 1.43301 4.44848 0.00526237
    endloop
  endfacet
  facet normal 1 0 0
    outer loop
      vertex 1.43301 4.45 0
      vertex 1.43301 4.075 -0.433012
      vertex 1.43301 4.325 -0.433012
    endloop
  endfacet
  facet normal 1 0 0
    outer loop
      vertex 1.43301 3.95 0
      vertex 1.43301 4.44848 0.00526237
      vertex 1.43301 3.95152 0.00526237
    endloop
  endfacet
  facet normal 1 0 0
    outer loop
      vertex 1.43301 4.45 0
      vertex 1.43301 3.95 0
      vertex 1.43301 4.075 -0.433012
    endloop
  endfacet
  facet normal 0.485074 -0.840167 -0.242536
    outer loop
      vertex 1 3.7 0
      vertex 1.43301 4.075 -0.433012
      vertex 1.43301 3.95 0
    endloop
  endfacet
  facet normal 0.485074 -0.840167 -0.242535
    outer loop
      vertex 1 3.825 -0.433013
      vertex 1.43301 4.075 -0.433012
      vertex 1 3.7 0
    endloop
  endfacet
  facet normal 0.485074 -0.840166 -0.242536
    outer loop
      vertex 1.43301 4.075 -0.433012
      vertex 1 3.825 -0.433013
      vertex 1 3.95 -0.866024
    endloop
  endfacet
  facet normal 0 -1 0
    outer loop
      vertex 0.999999 3.7 -6.93225e-07
      vertex 1 3.7 0
      vertex 0.999999 3.7 0
    endloop
  endfacet
  facet normal 0.188808 -0.943489 -0.272362
    outer loop
      vertex 1 3.7 0
      vertex 0.999999 3.7 -6.93225e-07
      vertex 1 3.825 -0.433013
    endloop
  endfacet
  facet normal 0 -0.960726 0.277499
    outer loop
      vertex 0.999999 3.7 0
      vertex 1 3.70152 0.00526237
      vertex 0.999999 3.70152 0.00526237
    endloop
  endfacet
  facet normal 0 -0.960726 0.277499
    outer loop
      vertex 1 3.70152 0.00526237
      vertex 0.999999 3.7 0
      vertex 1 3.7 0
    endloop
  endfacet
  facet normal 0.485057 -0.840138 0.242668
    outer loop
      vertex 1 3.7 0
      vertex 1.43301 3.95152 0.00526237
      vertex 1 3.70152 0.00526237
    endloop
  endfacet
  facet normal 0.485057 -0.840138 0.242668
    outer loop
      vertex 1.43301 3.95152 0.00526237
      vertex 1 3.7 0
      vertex 1.43301 3.95 0
    endloop
  endfacet
  facet normal 0.485074 0.840167 -0.242536
    outer loop
      vertex 1.43301 4.325 -0.433012
      vertex 1 4.7 0
      vertex 1.43301 4.45 0
    endloop
  endfacet
  facet normal 0.485074 0.840167 -0.242536
    outer loop
      vertex 1 4.7 0
      vertex 1.43301 4.325 -0.433012
      vertex 1 4.45 -0.866024
    endloop
  endfacet
  facet normal 0 0.960769 -0.277351
    outer loop
      vertex 1 4.7 0
      vertex 0.999999 4.45 -0.866023
      vertex 0.999999 4.7 0
    endloop
  endfacet
  facet normal -0.267262 0.92582 -0.267262
    outer loop
      vertex 0.999999 4.45 -0.866023
      vertex 1 4.7 0
      vertex 1 4.45 -0.866024
    endloop
  endfacet
  facet normal 0 0.960716 0.277533
    outer loop
      vertex 1 4.69848 0.00526237
      vertex 0.999999 4.7 6.93225e-07
      vertex 0.999999 4.69848 0.00526237
    endloop
  endfacet
  facet normal 0.188906 0.943428 0.272503
    outer loop
      vertex 1 4.7 0
      vertex 0.999999 4.7 6.93225e-07
      vertex 1 4.69848 0.00526237
    endloop
  endfacet
  facet normal 0 1 0
    outer loop
      vertex 0.999999 4.7 6.93225e-07
      vertex 1 4.7 0
      vertex 0.999999 4.7 0
    endloop
  endfacet
  facet normal -0 0 1
    outer loop
      vertex 0.999999 4.69848 0.00526237
      vertex 1.43301 4.44848 0.00526237
      vertex 1 4.69848 0.00526237
    endloop
  endfacet
  facet normal 0 0 1
    outer loop
      vertex 1.43301 4.44848 0.00526237
      vertex 0.999999 4.69848 0.00526237
      vertex 1.43301 3.95152 0.00526237
    endloop
  endfacet
  facet normal 0 0 1
    outer loop
      vertex 1.43301 3.95152 0.00526237
      vertex 0.999999 4.69848 0.00526237
      vertex 0.999999 3.70152 0.00526237
    endloop
  endfacet
  facet normal 0 0 1
    outer loop
      vertex 1.43301 3.95152 0.00526237
      vertex 0.999999 3.70152 0.00526237
      vertex 1 3.70152 0.00526237
    endloop
  endfacet
  facet normal -0 0 1
    outer loop
      vertex -0.159577 4.69158 0.00526237
      vertex 0.999999 3.70152 0.00526237
      vertex 0.999999 4.69848 0.00526237
    endloop
  endfacet
  facet normal 0 0 1
    outer loop
      vertex -0.166666 3.70846 0.00526237
      vertex -0.159577 4.69158 0.00526237
      vertex -0.166666 4.69154 0.00526237
    endloop
  endfacet
  facet normal 0 0 1
    outer loop
      vertex -0.159577 4.69158 0.00526237
      vertex -0.166666 3.70846 0.00526237
      vertex 0.999999 3.70152 0.00526237
    endloop
  endfacet
  facet normal 0 0 1
    outer loop
      vertex -1 4.19305 0.00526237
      vertex -0.166666 4.69154 0.00526237
      vertex -1 4.33596 0.00526237
    endloop
  endfacet
  facet normal -0 0 1
    outer loop
      vertex -1.32614 4.67083 0.00526237
      vertex -1 4.33596 0.00526237
      vertex -0.166666 4.69154 0.00526237
    endloop
  endfacet
  facet normal -0 0 1
    outer loop
      vertex -1.33333 4.6707 0.00526237
      vertex -1 4.33596 0.00526237
      vertex -1.32614 4.67083 0.00526237
    endloop
  endfacet
  facet normal -0 0 1
    outer loop
      vertex -1.34143 4.67046 0.00526237
      vertex -1 4.33596 0.00526237
      vertex -1.33333 4.6707 0.00526237
    endloop
  endfacet
  facet normal -0 0 1
    outer loop
      vertex -2.5 4.63598 0.00526237
      vertex -1 4.33596 0.00526237
      vertex -1.34143 4.67046 0.00526237
    endloop
  endfacet
  facet normal 0 0 1
    outer loop
      vertex -3 4.33596 0.00526237
      vertex -2.5 4.63598 0.00526237
      vertex -2.50911 4.6356 0.00526237
    endloop
  endfacet
  facet normal 0 0 1
    outer loop
      vertex -2.5 4.63598 0.00526237
      vertex -3 4.33596 0.00526237
      vertex -1 4.33596 0.00526237
    endloop
  endfacet
  facet normal 0 0 1
    outer loop
      vertex -3 4.33596 0.00526237
      vertex -3.66667 4.58737 0.00526237
      vertex -3 4.19305 0.00526237
    endloop
  endfacet
  facet normal -0 0 1
    outer loop
      vertex -3.66667 4.58737 0.00526237
      vertex -3 4.33596 0.00526237
      vertex -2.50911 4.6356 0.00526237
    endloop
  endfacet
  facet normal 0 0 1
    outer loop
      vertex -0.166666 4.69154 0.00526237
      vertex -1 4.19305 0.00526237
      vertex -0.166666 3.70846 0.00526237
    endloop
  endfacet
  facet normal 0 0 1
    outer loop
      vertex -1 4.19305 0.00526237
      vertex -1.33333 3.7293 0.00526237
      vertex -0.166666 3.70846 0.00526237
    endloop
  endfacet
  facet normal 0 0 1
    outer loop
      vertex -1 4.19305 0.00526237
      vertex -2.5 3.76402 0.00526237
      vertex -1.33333 3.7293 0.00526237
    endloop
  endfacet
  facet normal -0 0 1
    outer loop
      vertex -3 4.19305 0.00526237
      vertex -2.5 3.76402 0.00526237
      vertex -1 4.19305 0.00526237
    endloop
  endfacet
  facet normal 0 0 1
    outer loop
      vertex -3.66667 3.81263 0.00526237
      vertex -3 4.19305 0.00526237
      vertex -3.66667 4.58737 0.00526237
    endloop
  endfacet
  facet normal 0 0 1
    outer loop
      vertex -3 4.19305 0.00526237
      vertex -3.66667 3.81263 0.00526237
      vertex -2.5 3.76402 0.00526237
    endloop
  endfacet
  facet normal -0 0 1
    outer loop
      vertex -3.67753 4.58679 0.00526237
      vertex -3.66667 3.81263 0.00526237
      vertex -3.66667 4.58737 0.00526237
    endloop
  endfacet
  facet normal 0 0 1
    outer loop
      vertex -4.83333 3.87513 0.00526237
      vertex -3.67753 4.58679 0.00526237
      vertex -4.83333 4.52487 0.00526237
    endloop
  endfacet
  facet normal 0 0 1
    outer loop
      vertex -3.67753 4.58679 0.00526237
      vertex -4.83333 3.87513 0.00526237
      vertex -3.66667 3.81263 0.00526237
    endloop
  endfacet
  facet normal -0 0 1
    outer loop
      vertex -5.98914 4.44919 0.00526237
      vertex -4.83333 3.87513 0.00526237
      vertex -4.83333 4.52487 0.00526237
    endloop
  endfacet
  facet normal 0 0 1
    outer loop
      vertex -6 3.95152 0.00526237
      vertex -5.98914 4.44919 0.00526237
      vertex -6 4.44848 0.00526237
    endloop
  endfacet
  facet normal 0 0 1
    outer loop
      vertex -5.98914 4.44919 0.00526237
      vertex -6 3.95152 0.00526237
      vertex -4.83333 3.87513 0.00526237
    endloop
  endfacet
  facet normal -0 0 1
    outer loop
      vertex -6.20196 4.43285 0.00526237
      vertex -6 3.95152 0.00526237
      vertex -6 4.44848 0.00526237
    endloop
  endfacet
  facet normal 0 0 1
    outer loop
      vertex -6 3.95152 0.00526237
      vertex -6.20196 4.43285 0.00526237
      vertex -6.20196 3.96715 0.00526237
    endloop
  endfacet
  facet normal -0.707157 -0.000490917 -0.707056
    outer loop
      vertex -6 4.39322 -0.196699
      vertex -6.20196 4.43285 0.00526237
      vertex -6.1967 4.43478 2.77663e-07
    endloop
  endfacet
  facet normal -0.707108 0 -0.707105
    outer loop
      vertex -5.73346 4.25916 -0.46324
      vertex -6 4.39322 -0.196699
      vertex -5.73346 4.33373 -0.46324
    endloop
  endfacet
  facet normal -0.707108 0 -0.707105
    outer loop
      vertex -6 4.00678 -0.196699
      vertex -6 4.39322 -0.196699
      vertex -5.73346 4.25916 -0.46324
    endloop
  endfacet
  facet normal -0.70711 3.66584e-06 -0.707104
    outer loop
      vertex -6 4.00678 -0.196699
      vertex -5.73346 4.25916 -0.46324
      vertex -5.73346 4.06627 -0.463241
    endloop
  endfacet
  facet normal -0.707109 -0 -0.707104
    outer loop
      vertex -6 4.39322 -0.196699
      vertex -6 4.00678 -0.196699
      vertex -6.20196 4.43285 0.00526237
    endloop
  endfacet
  facet normal -0.707109 0 -0.707104
    outer loop
      vertex -6 4.00678 -0.196699
      vertex -6.20196 3.96715 0.00526237
      vertex -6.20196 4.43285 0.00526237
    endloop
  endfacet
  facet normal -0.70717 0.00062346 -0.707043
    outer loop
      vertex -6.20196 3.96715 0.00526237
      vertex -6 4.00678 -0.196699
      vertex -6.1967 3.96522 -2.77663e-07
    endloop
  endfacet
  facet normal 1 -0 0
    outer loop
      vertex 1 -3.95 -0.866024
      vertex 1 -3.95 -0.866025
      vertex 1 -3.825 -0.433013
    endloop
  endfacet
  facet normal 1 0 0
    outer loop
      vertex 1 -3.95 -0.866024
      vertex 1 -4.45 -0.866025
      vertex 1 -3.95 -0.866025
    endloop
  endfacet
  facet normal 1 0 0
    outer loop
      vertex 1 -4.45 -0.866025
      vertex 1 -3.95 -0.866024
      vertex 1 -4.45 -0.866024
    endloop
  endfacet
  facet normal -0.0103092 -0 -0.999947
    outer loop
      vertex -0.166666 -3.95347 -0.853997
      vertex 1 -3.95 -0.866025
      vertex -0.166666 -4.44653 -0.853997
    endloop
  endfacet
  facet normal -0.00542083 -0.960707 0.27751
    outer loop
      vertex -0.159577 -4.69158 0.00526237
      vertex -0.166666 -4.69154 0.00526237
      vertex -0.166666 -4.69306 3.14626e-07
    endloop
  endfacet
  facet normal -0.0057166 -0.9607 0.277528
    outer loop
      vertex -0.159577 -4.69158 0.00526237
      vertex 0.999999 -4.7 6.93225e-07
      vertex 0.999999 -4.69848 0.00526237
    endloop
  endfacet
  facet normal -0.0057143 -0.9606 0.277876
    outer loop
      vertex 0.999999 -4.7 6.93225e-07
      vertex -0.159577 -4.69158 0.00526237
      vertex -0.166666 -4.69306 3.14626e-07
    endloop
  endfacet
  facet normal -0.0103092 -0 -0.999947
    outer loop
      vertex 1 -3.95 -0.866025
      vertex 1 -4.45 -0.866025
      vertex -0.166666 -4.44653 -0.853997
    endloop
  endfacet
  facet normal -0.00571521 0.960753 -0.277346
    outer loop
      vertex 1 -3.825 -0.433013
      vertex -0.166666 -3.70694 -3.14626e-07
      vertex 0.999999 -3.7 -6.93225e-07
    endloop
  endfacet
  facet normal -0.00571527 0.960753 -0.277346
    outer loop
      vertex -0.166666 -3.70694 -3.14626e-07
      vertex 1 -3.825 -0.433013
      vertex 1 -3.95 -0.866025
    endloop
  endfacet
  facet normal -0.00594847 -0.999982 0
    outer loop
      vertex -0.166666 -4.69306 3.14626e-07
      vertex 0.999999 -4.7 0
      vertex 0.999999 -4.7 6.93225e-07
    endloop
  endfacet
  facet normal -0.00571519 -0.960753 -0.277348
    outer loop
      vertex -0.166666 -4.44653 -0.853997
      vertex 0.999999 -4.7 0
      vertex -0.166666 -4.69306 3.14626e-07
    endloop
  endfacet
  facet normal -0.00571645 -0.960753 -0.277346
    outer loop
      vertex -0.166666 -4.44653 -0.853997
      vertex 0.999999 -4.45 -0.866023
      vertex 0.999999 -4.7 0
    endloop
  endfacet
  facet normal -0.00298968 -0.999994 -0.00149484
    outer loop
      vertex 1 -4.45 -0.866025
      vertex 0.999999 -4.45 -0.866023
      vertex -0.166666 -4.44653 -0.853997
    endloop
  endfacet
  facet normal 0 -1 0
    outer loop
      vertex 0.999999 -4.45 -0.866023
      vertex 1 -4.45 -0.866025
      vertex 1 -4.45 -0.866024
    endloop
  endfacet
  facet normal -0.00571693 0.960753 -0.277348
    outer loop
      vertex -0.166666 -3.70694 -3.14626e-07
      vertex 1 -3.95 -0.866025
      vertex -0.166666 -3.95347 -0.853997
    endloop
  endfacet
  facet normal -0.00571486 0.96071 0.277495
    outer loop
      vertex 0.999999 -3.7 0
      vertex -0.166666 -3.70846 0.00526237
      vertex 0.999999 -3.70152 0.00526237
    endloop
  endfacet
  facet normal -0.00571496 0.960715 0.277479
    outer loop
      vertex 0.999999 -3.7 0
      vertex -0.166666 -3.70694 -3.14626e-07
      vertex -0.166666 -3.70846 0.00526237
    endloop
  endfacet
  facet normal -0.00594847 0.999982 0
    outer loop
      vertex -0.166666 -3.70694 -3.14626e-07
      vertex 0.999999 -3.7 0
      vertex 0.999999 -3.7 -6.93225e-07
    endloop
  endfacet
  facet normal -0.0309161 -0 -0.999522
    outer loop
      vertex -1.33333 -3.96389 -0.817911
      vertex -0.166666 -3.95347 -0.853997
      vertex -1.33333 -4.43611 -0.817911
    endloop
  endfacet
  facet normal -0.0173679 -0.960579 0.277464
    outer loop
      vertex -1.32614 -4.67083 0.00526237
      vertex -1.33333 -4.6707 0.00526237
      vertex -1.33333 -4.67222 1.32502e-07
    endloop
  endfacet
  facet normal -0.0171574 -0.96058 0.277474
    outer loop
      vertex -1.32614 -4.67083 0.00526237
      vertex -0.166666 -4.69306 3.14626e-07
      vertex -0.166666 -4.69154 0.00526237
    endloop
  endfacet
  facet normal -0.0171602 -0.960659 0.277201
    outer loop
      vertex -0.166666 -4.69306 3.14626e-07
      vertex -1.32614 -4.67083 0.00526237
      vertex -1.33333 -4.67222 1.32502e-07
    endloop
  endfacet
  facet normal -0.0309161 -0 -0.999522
    outer loop
      vertex -0.166666 -3.95347 -0.853997
      vertex -0.166666 -4.44653 -0.853997
      vertex -1.33333 -4.43611 -0.817911
    endloop
  endfacet
  facet normal -0.0171596 0.960627 -0.277312
    outer loop
      vertex -0.166666 -3.70694 -3.14626e-07
      vertex -0.166666 -3.95347 -0.853997
      vertex -1.33333 -3.72778 -1.32502e-07
    endloop
  endfacet
  facet normal -0.0171596 -0.960628 -0.277309
    outer loop
      vertex -1.33333 -4.43611 -0.817911
      vertex -0.166666 -4.69306 3.14626e-07
      vertex -1.33333 -4.67222 1.32502e-07
    endloop
  endfacet
  facet normal -0.0171573 -0.960627 -0.277312
    outer loop
      vertex -0.166666 -4.69306 3.14626e-07
      vertex -1.33333 -4.43611 -0.817911
      vertex -0.166666 -4.44653 -0.853997
    endloop
  endfacet
  facet normal -0.0171572 0.960628 -0.277309
    outer loop
      vertex -1.33333 -3.72778 -1.32502e-07
      vertex -0.166666 -3.95347 -0.853997
      vertex -1.33333 -3.96389 -0.817911
    endloop
  endfacet
  facet normal -0.0171589 0.960586 0.277452
    outer loop
      vertex -0.166666 -3.70846 0.00526237
      vertex -1.33333 -3.72778 -1.32502e-07
      vertex -1.33333 -3.7293 0.00526237
    endloop
  endfacet
  facet normal -0.0171589 0.960589 0.277443
    outer loop
      vertex -1.33333 -3.72778 -1.32502e-07
      vertex -0.166666 -3.70846 0.00526237
      vertex -0.166666 -3.70694 -3.14626e-07
    endloop
  endfacet
  facet normal -0.0284544 -0.960335 0.277393
    outer loop
      vertex -1.33333 -4.67222 1.32502e-07
      vertex -1.33333 -4.6707 0.00526237
      vertex -1.34143 -4.67046 0.00526237
    endloop
  endfacet
  facet normal -0.0285812 0.960377 -0.277236
    outer loop
      vertex -1.33333 -3.72778 -1.32502e-07
      vertex -1.33333 -3.96389 -0.817911
      vertex -2.5 -3.98125 -0.757772
    endloop
  endfacet
  facet normal -0.0285809 -0.960376 -0.277237
    outer loop
      vertex -2.5 -4.41875 -0.757771
      vertex -1.33333 -4.67222 1.32502e-07
      vertex -2.5 -4.6375 8.44991e-07
    endloop
  endfacet
  facet normal -0.0285814 -0.960377 -0.277236
    outer loop
      vertex -1.33333 -4.67222 1.32502e-07
      vertex -2.5 -4.41875 -0.757771
      vertex -1.33333 -4.43611 -0.817911
    endloop
  endfacet
  facet normal -0.0514801 -2.28268e-06 -0.998674
    outer loop
      vertex -2.5 -3.98125 -0.757772
      vertex -1.33333 -4.43611 -0.817911
      vertex -2.5 -4.41875 -0.757771
    endloop
  endfacet
  facet normal -0.0514792 -0 -0.998674
    outer loop
      vertex -1.33333 -3.96389 -0.817911
      vertex -1.33333 -4.43611 -0.817911
      vertex -2.5 -3.98125 -0.757772
    endloop
  endfacet
  facet normal -0.02858 -0.960322 0.277427
    outer loop
      vertex -2.5 -4.6375 8.44991e-07
      vertex -1.34143 -4.67046 0.00526237
      vertex -2.5 -4.63598 0.00526237
    endloop
  endfacet
  facet normal -0.0285807 -0.960383 0.277215
    outer loop
      vertex -1.34143 -4.67046 0.00526237
      vertex -2.5 -4.6375 8.44991e-07
      vertex -1.33333 -4.67222 1.32502e-07
    endloop
  endfacet
  facet normal -0.0285805 0.960376 -0.277237
    outer loop
      vertex -2.5 -3.7625 -8.44991e-07
      vertex -1.33333 -3.72778 -1.32502e-07
      vertex -2.5 -3.98125 -0.757772
    endloop
  endfacet
  facet normal -0.0285795 0.960335 0.277379
    outer loop
      vertex -1.33333 -3.72778 -1.32502e-07
      vertex -2.5 -3.76402 0.00526237
      vertex -1.33333 -3.7293 0.00526237
    endloop
  endfacet
  facet normal -0.02858 0.960345 0.277345
    outer loop
      vertex -2.5 -3.76402 0.00526237
      vertex -1.33333 -3.72778 -1.32502e-07
      vertex -2.5 -3.7625 -8.44991e-07
    endloop
  endfacet
  facet normal -0.0400416 -0.959944 0.277318
    outer loop
      vertex -2.5 -4.6375 8.44991e-07
      vertex -2.5 -4.63598 0.00526237
      vertex -2.50911 -4.6356 0.00526237
    endloop
  endfacet
  facet normal -0.0719814 -0 -0.997406
    outer loop
      vertex -3.66667 -4.00556 -0.673574
      vertex -2.5 -4.41875 -0.757771
      vertex -3.66667 -4.39444 -0.673574
    endloop
  endfacet
  facet normal -0.0399985 -0.959998 -0.277136
    outer loop
      vertex -3.66667 -4.39444 -0.673574
      vertex -2.5 -4.6375 8.44991e-07
      vertex -3.66667 -4.58889 -8.51532e-07
    endloop
  endfacet
  facet normal -0.0400036 -0.96 -0.277128
    outer loop
      vertex -2.5 -4.6375 8.44991e-07
      vertex -3.66667 -4.39444 -0.673574
      vertex -2.5 -4.41875 -0.757771
    endloop
  endfacet
  facet normal -0.0399993 0.959998 -0.277136
    outer loop
      vertex -3.66667 -3.81111 8.51532e-07
      vertex -2.5 -3.7625 -8.44991e-07
      vertex -3.66667 -4.00556 -0.673574
    endloop
  endfacet
  facet normal -0.0400038 0.96 -0.277128
    outer loop
      vertex -2.5 -3.7625 -8.44991e-07
      vertex -2.5 -3.98125 -0.757772
      vertex -3.66667 -4.00556 -0.673574
    endloop
  endfacet
  facet normal -0.0719822 -2.27978e-06 -0.997406
    outer loop
      vertex -2.5 -3.98125 -0.757772
      vertex -2.5 -4.41875 -0.757771
      vertex -3.66667 -4.00556 -0.673574
    endloop
  endfacet
  facet normal -0.0399973 -0.959969 0.277236
    outer loop
      vertex -3.66667 -4.58889 -8.51532e-07
      vertex -2.50911 -4.6356 0.00526237
      vertex -3.66667 -4.58737 0.00526237
    endloop
  endfacet
  facet normal -0.0399962 -0.959925 0.277389
    outer loop
      vertex -2.50911 -4.6356 0.00526237
      vertex -3.66667 -4.58889 -8.51532e-07
      vertex -2.5 -4.6375 8.44991e-07
    endloop
  endfacet
  facet normal -0.0399967 0.959945 0.277319
    outer loop
      vertex -2.5 -3.76402 0.00526237
      vertex -3.66667 -3.81111 8.51532e-07
      vertex -3.66667 -3.81263 0.00526237
    endloop
  endfacet
  facet normal -0.0399973 0.959969 0.277236
    outer loop
      vertex -3.66667 -3.81111 8.51532e-07
      vertex -2.5 -3.76402 0.00526237
      vertex -2.5 -3.7625 -8.44991e-07
    endloop
  endfacet
  facet normal -0.0512427 -0.959476 0.277093
    outer loop
      vertex -3.66667 -4.58889 -8.51532e-07
      vertex -3.66667 -4.58737 0.00526237
      vertex -3.67753 -4.58679 0.00526237
    endloop
  endfacet
  facet normal -0.0514026 0.959497 -0.276991
    outer loop
      vertex -3.66667 -3.81111 8.51532e-07
      vertex -3.66667 -4.00556 -0.673574
      vertex -4.83333 -4.03681 -0.565321
    endloop
  endfacet
  facet normal -0.0514019 -0.959496 -0.276993
    outer loop
      vertex -4.83333 -4.36319 -0.56532
      vertex -3.66667 -4.58889 -8.51532e-07
      vertex -4.83333 -4.52639 -6.99766e-07
    endloop
  endfacet
  facet normal -0.0514029 -0.959496 -0.276992
    outer loop
      vertex -3.66667 -4.58889 -8.51532e-07
      vertex -4.83333 -4.36319 -0.56532
      vertex -3.66667 -4.39444 -0.673574
    endloop
  endfacet
  facet normal -0.0923929 -3.05081e-06 -0.995723
    outer loop
      vertex -4.83333 -4.03681 -0.565321
      vertex -3.66667 -4.39444 -0.673574
      vertex -4.83333 -4.36319 -0.56532
    endloop
  endfacet
  facet normal -0.0923919 -0 -0.995723
    outer loop
      vertex -3.66667 -4.00556 -0.673574
      vertex -3.66667 -4.39444 -0.673574
      vertex -4.83333 -4.03681 -0.565321
    endloop
  endfacet
  facet normal -0.0513991 0.959444 0.277174
    outer loop
      vertex -3.66667 -3.81111 8.51532e-07
      vertex -4.83333 -3.87513 0.00526237
      vertex -3.66667 -3.81263 0.00526237
    endloop
  endfacet
  facet normal -0.0513992 0.959446 0.277166
    outer loop
      vertex -4.83333 -3.87513 0.00526237
      vertex -3.66667 -3.81111 8.51532e-07
      vertex -4.83333 -3.87361 6.99766e-07
    endloop
  endfacet
  facet normal -0.0514017 -0.959466 0.277098
    outer loop
      vertex -4.83333 -4.52639 -6.99766e-07
      vertex -3.67753 -4.58679 0.00526237
      vertex -4.83333 -4.52487 0.00526237
    endloop
  endfacet
  facet normal -0.051405 -0.959555 0.27679
    outer loop
      vertex -3.67753 -4.58679 0.00526237
      vertex -4.83333 -4.52639 -6.99766e-07
      vertex -3.66667 -4.58889 -8.51532e-07
    endloop
  endfacet
  facet normal -0.0514018 0.959496 -0.276992
    outer loop
      vertex -4.83333 -3.87361 6.99766e-07
      vertex -3.66667 -3.81111 8.51532e-07
      vertex -4.83333 -4.03681 -0.565321
    endloop
  endfacet
  facet normal -0.062686 -0.958832 0.27697
    outer loop
      vertex -5.98914 -4.44919 0.00526237
      vertex -6 -4.44848 0.00526237
      vertex -6 -4.45 3.46613e-07
    endloop
  endfacet
  facet normal -0.0627773 -0.958774 0.27715
    outer loop
      vertex -4.83333 -4.52639 -6.99766e-07
      vertex -5.98914 -4.44919 0.00526237
      vertex -6 -4.45 3.46613e-07
    endloop
  endfacet
  facet normal -0.0627828 -0.95884 0.276918
    outer loop
      vertex -5.98914 -4.44919 0.00526237
      vertex -4.83333 -4.52639 -6.99766e-07
      vertex -4.83333 -4.52487 0.00526237
    endloop
  endfacet
  facet normal -0.112683 -5.15128e-06 -0.993631
    outer loop
      vertex -5.73346 -4.06627 -0.463241
      vertex -4.83333 -4.03681 -0.565321
      vertex -5.73346 -4.25916 -0.46324
    endloop
  endfacet
  facet normal -0.0627791 -0.958877 -0.276793
    outer loop
      vertex -5.73346 -4.33373 -0.46324
      vertex -6 -4.45 3.46613e-07
      vertex -6 -4.39322 -0.196699
    endloop
  endfacet
  facet normal -0.0627845 -0.958875 -0.276796
    outer loop
      vertex -6 -4.45 3.46613e-07
      vertex -5.73346 -4.33373 -0.46324
      vertex -4.83333 -4.52639 -6.99766e-07
    endloop
  endfacet
  facet normal -0.0627747 -0.958871 -0.276813
    outer loop
      vertex -4.83333 -4.52639 -6.99766e-07
      vertex -5.73346 -4.33373 -0.46324
      vertex -4.83333 -4.36319 -0.56532
    endloop
  endfacet
  facet normal -0.112684 -0 -0.993631
    outer loop
      vertex -5.73346 -4.25916 -0.46324
      vertex -4.83333 -4.36319 -0.56532
      vertex -5.73346 -4.33373 -0.46324
    endloop
  endfacet
  facet normal -0.112684 -3.0444e-06 -0.993631
    outer loop
      vertex -4.83333 -4.36319 -0.56532
      vertex -5.73346 -4.25916 -0.46324
      vertex -4.83333 -4.03681 -0.565321
    endloop
  endfacet
  facet normal -0.0627837 0.958871 -0.276812
    outer loop
      vertex -4.83333 -3.87361 6.99766e-07
      vertex -4.83333 -4.03681 -0.565321
      vertex -6 -3.95 -3.46613e-07
    endloop
  endfacet
  facet normal -0.062781 0.958876 -0.276794
    outer loop
      vertex -6 -3.95 -3.46613e-07
      vertex -5.73346 -4.06627 -0.463241
      vertex -6 -4.00678 -0.196699
    endloop
  endfacet
  facet normal -0.0627723 0.958878 -0.276789
    outer loop
      vertex -5.73346 -4.06627 -0.463241
      vertex -6 -3.95 -3.46613e-07
      vertex -4.83333 -4.03681 -0.565321
    endloop
  endfacet
  facet normal -0.0627807 0.958821 0.276986
    outer loop
      vertex -4.83333 -3.87361 6.99766e-07
      vertex -6 -3.95152 0.00526237
      vertex -4.83333 -3.87513 0.00526237
    endloop
  endfacet
  facet normal -0.0627819 0.958835 0.276935
    outer loop
      vertex -6 -3.95152 0.00526237
      vertex -4.83333 -3.87361 6.99766e-07
      vertex -6 -3.95 -3.46613e-07
    endloop
  endfacet
  facet normal -0.0741362 -0.957936 0.27724
    outer loop
      vertex -6.1967 -4.43478 2.77663e-07
      vertex -6 -4.44848 0.00526237
      vertex -6.20196 -4.43285 0.00526237
    endloop
  endfacet
  facet normal -0.074133 -0.958077 0.276752
    outer loop
      vertex -6 -4.44848 0.00526237
      vertex -6.1967 -4.43478 2.77663e-07
      vertex -6 -4.45 3.46613e-07
    endloop
  endfacet
  facet normal -0.0741369 0.958128 -0.276578
    outer loop
      vertex -6 -3.95 -3.46613e-07
      vertex -6 -4.00678 -0.196699
      vertex -6.1967 -3.96522 -2.77663e-07
    endloop
  endfacet
  facet normal -0.0741367 -0.958128 -0.276577
    outer loop
      vertex -6 -4.39322 -0.196699
      vertex -6 -4.45 3.46613e-07
      vertex -6.1967 -4.43478 2.77663e-07
    endloop
  endfacet
  facet normal -0.0741368 0.957944 0.277213
    outer loop
      vertex -6 -3.95152 0.00526237
      vertex -6.1967 -3.96522 -2.77663e-07
      vertex -6.20196 -3.96715 0.00526237
    endloop
  endfacet
  facet normal -0.0741335 0.958087 0.276719
    outer loop
      vertex -6.1967 -3.96522 -2.77663e-07
      vertex -6 -3.95152 0.00526237
      vertex -6 -3.95 -3.46613e-07
    endloop
  endfacet
  facet normal 0.485057 -0.840138 0.242668
    outer loop
      vertex 1 -4.7 0
      vertex 1.43301 -4.44848 0.00526237
      vertex 1 -4.69848 0.00526237
    endloop
  endfacet
  facet normal 0.485057 -0.840138 0.242668
    outer loop
      vertex 1.43301 -4.44848 0.00526237
      vertex 1 -4.7 0
      vertex 1.43301 -4.45 0
    endloop
  endfacet
  facet normal 0.707108 0 -0.707105
    outer loop
      vertex 1.43301 -4.325 -0.433012
      vertex 1 -3.95 -0.866024
      vertex 1.43301 -4.075 -0.433012
    endloop
  endfacet
  facet normal 0.707108 0 -0.707105
    outer loop
      vertex 1 -3.95 -0.866024
      vertex 1.43301 -4.325 -0.433012
      vertex 1 -4.45 -0.866024
    endloop
  endfacet
  facet normal 1 0 0
    outer loop
      vertex 1.43301 -4.45 0
      vertex 1.43301 -3.95 0
      vertex 1.43301 -3.95152 0.00526237
    endloop
  endfacet
  facet normal 1 0 0
    outer loop
      vertex 1.43301 -3.95 0
      vertex 1.43301 -4.325 -0.433012
      vertex 1.43301 -4.075 -0.433012
    endloop
  endfacet
  facet normal 1 0 0
    outer loop
      vertex 1.43301 -4.45 0
      vertex 1.43301 -3.95152 0.00526237
      vertex 1.43301 -4.44848 0.00526237
    endloop
  endfacet
  facet normal 1 0 0
    outer loop
      vertex 1.43301 -3.95 0
      vertex 1.43301 -4.45 0
      vertex 1.43301 -4.325 -0.433012
    endloop
  endfacet
  facet normal 0.485074 0.840167 -0.242536
    outer loop
      vertex 1.43301 -4.075 -0.433012
      vertex 1 -3.7 0
      vertex 1.43301 -3.95 0
    endloop
  endfacet
  facet normal 0.485074 0.840167 -0.242535
    outer loop
      vertex 1.43301 -4.075 -0.433012
      vertex 1 -3.825 -0.433013
      vertex 1 -3.7 0
    endloop
  endfacet
  facet normal 0.485074 0.840166 -0.242536
    outer loop
      vertex 1 -3.825 -0.433013
      vertex 1.43301 -4.075 -0.433012
      vertex 1 -3.95 -0.866024
    endloop
  endfacet
  facet normal 0 1 0
    outer loop
      vertex 1 -3.7 0
      vertex 0.999999 -3.7 -6.93225e-07
      vertex 0.999999 -3.7 0
    endloop
  endfacet
  facet normal 0.188808 0.943489 -0.272362
    outer loop
      vertex 0.999999 -3.7 -6.93225e-07
      vertex 1 -3.7 0
      vertex 1 -3.825 -0.433013
    endloop
  endfacet
  facet normal 0 0.960726 0.277499
    outer loop
      vertex 1 -3.7 0
      vertex 0.999999 -3.70152 0.00526237
      vertex 1 -3.70152 0.00526237
    endloop
  endfacet
  facet normal 0 0.960726 0.277499
    outer loop
      vertex 0.999999 -3.70152 0.00526237
      vertex 1 -3.7 0
      vertex 0.999999 -3.7 0
    endloop
  endfacet
  facet normal 0.485057 0.840138 0.242668
    outer loop
      vertex 1.43301 -3.95 0
      vertex 1 -3.70152 0.00526237
      vertex 1.43301 -3.95152 0.00526237
    endloop
  endfacet
  facet normal 0.485057 0.840138 0.242668
    outer loop
      vertex 1 -3.70152 0.00526237
      vertex 1.43301 -3.95 0
      vertex 1 -3.7 0
    endloop
  endfacet
  facet normal 0.485074 -0.840167 -0.242536
    outer loop
      vertex 1 -4.7 0
      vertex 1.43301 -4.325 -0.433012
      vertex 1.43301 -4.45 0
    endloop
  endfacet
  facet normal 0.485074 -0.840167 -0.242536
    outer loop
      vertex 1.43301 -4.325 -0.433012
      vertex 1 -4.7 0
      vertex 1 -4.45 -0.866024
    endloop
  endfacet
  facet normal 0 -0.960769 -0.277351
    outer loop
      vertex 0.999999 -4.45 -0.866023
      vertex 1 -4.7 0
      vertex 0.999999 -4.7 0
    endloop
  endfacet
  facet normal -0.267262 -0.92582 -0.267262
    outer loop
      vertex 1 -4.7 0
      vertex 0.999999 -4.45 -0.866023
      vertex 1 -4.45 -0.866024
    endloop
  endfacet
  facet normal 0 -0.960716 0.277533
    outer loop
      vertex 0.999999 -4.7 6.93225e-07
      vertex 1 -4.69848 0.00526237
      vertex 0.999999 -4.69848 0.00526237
    endloop
  endfacet
  facet normal 0.188906 -0.943428 0.272503
    outer loop
      vertex 0.999999 -4.7 6.93225e-07
      vertex 1 -4.7 0
      vertex 1 -4.69848 0.00526237
    endloop
  endfacet
  facet normal 0 -1 0
    outer loop
      vertex 1 -4.7 0
      vertex 0.999999 -4.7 6.93225e-07
      vertex 0.999999 -4.7 0
    endloop
  endfacet
  facet normal -0 0 1
    outer loop
      vertex 0.999999 -3.70152 0.00526237
      vertex 1.43301 -3.95152 0.00526237
      vertex 1 -3.70152 0.00526237
    endloop
  endfacet
  facet normal 0 0 1
    outer loop
      vertex 1.43301 -3.95152 0.00526237
      vertex 0.999999 -3.70152 0.00526237
      vertex 1.43301 -4.44848 0.00526237
    endloop
  endfacet
  facet normal 0 0 1
    outer loop
      vertex 0.999999 -4.69848 0.00526237
      vertex 1.43301 -4.44848 0.00526237
      vertex 0.999999 -3.70152 0.00526237
    endloop
  endfacet
  facet normal 0 0 1
    outer loop
      vertex 1.43301 -4.44848 0.00526237
      vertex 0.999999 -4.69848 0.00526237
      vertex 1 -4.69848 0.00526237
    endloop
  endfacet
  facet normal 0 0 1
    outer loop
      vertex 0.999999 -3.70152 0.00526237
      vertex -0.159577 -4.69158 0.00526237
      vertex 0.999999 -4.69848 0.00526237
    endloop
  endfacet
  facet normal -0 0 1
    outer loop
      vertex -0.166666 -3.70846 0.00526237
      vertex -0.159577 -4.69158 0.00526237
      vertex 0.999999 -3.70152 0.00526237
    endloop
  endfacet
  facet normal 0 0 1
    outer loop
      vertex -0.166666 -3.70846 0.00526237
      vertex -0.166666 -4.69154 0.00526237
      vertex -0.159577 -4.69158 0.00526237
    endloop
  endfacet
  facet normal 0 0 1
    outer loop
      vertex -0.166666 -3.70846 0.00526237
      vertex -1 -4.19305 0.00526237
      vertex -0.166666 -4.69154 0.00526237
    endloop
  endfacet
  facet normal -0 0 1
    outer loop
      vertex -1.33333 -3.7293 0.00526237
      vertex -1 -4.19305 0.00526237
      vertex -0.166666 -3.70846 0.00526237
    endloop
  endfacet
  facet normal -0 0 1
    outer loop
      vertex -2.5 -3.76402 0.00526237
      vertex -1 -4.19305 0.00526237
      vertex -1.33333 -3.7293 0.00526237
    endloop
  endfacet
  facet normal 0 0 1
    outer loop
      vertex -2.5 -3.76402 0.00526237
      vertex -3 -4.19305 0.00526237
      vertex -1 -4.19305 0.00526237
    endloop
  endfacet
  facet normal 0 0 1
    outer loop
      vertex -3.66667 -4.58737 0.00526237
      vertex -3 -4.19305 0.00526237
      vertex -3.66667 -3.81263 0.00526237
    endloop
  endfacet
  facet normal -0 0 1
    outer loop
      vertex -3.66667 -3.81263 0.00526237
      vertex -3 -4.19305 0.00526237
      vertex -2.5 -3.76402 0.00526237
    endloop
  endfacet
  facet normal -0 0 1
    outer loop
      vertex -1 -4.33596 0.00526237
      vertex -0.166666 -4.69154 0.00526237
      vertex -1 -4.19305 0.00526237
    endloop
  endfacet
  facet normal 0 0 1
    outer loop
      vertex -1 -4.33596 0.00526237
      vertex -1.32614 -4.67083 0.00526237
      vertex -0.166666 -4.69154 0.00526237
    endloop
  endfacet
  facet normal 0 0 1
    outer loop
      vertex -1 -4.33596 0.00526237
      vertex -1.33333 -4.6707 0.00526237
      vertex -1.32614 -4.67083 0.00526237
    endloop
  endfacet
  facet normal 0 0 1
    outer loop
      vertex -1 -4.33596 0.00526237
      vertex -1.34143 -4.67046 0.00526237
      vertex -1.33333 -4.6707 0.00526237
    endloop
  endfacet
  facet normal 0 0 1
    outer loop
      vertex -1 -4.33596 0.00526237
      vertex -2.5 -4.63598 0.00526237
      vertex -1.34143 -4.67046 0.00526237
    endloop
  endfacet
  facet normal -0 0 1
    outer loop
      vertex -3 -4.33596 0.00526237
      vertex -2.5 -4.63598 0.00526237
      vertex -1 -4.33596 0.00526237
    endloop
  endfacet
  facet normal 0 0 1
    outer loop
      vertex -2.5 -4.63598 0.00526237
      vertex -3 -4.33596 0.00526237
      vertex -2.50911 -4.6356 0.00526237
    endloop
  endfacet
  facet normal 0 0 1
    outer loop
      vertex -3 -4.33596 0.00526237
      vertex -3.66667 -4.58737 0.00526237
      vertex -2.50911 -4.6356 0.00526237
    endloop
  endfacet
  facet normal 0 0 1
    outer loop
      vertex -3 -4.19305 0.00526237
      vertex -3.66667 -4.58737 0.00526237
      vertex -3 -4.33596 0.00526237
    endloop
  endfacet
  facet normal 0 0 1
    outer loop
      vertex -3.66667 -3.81263 0.00526237
      vertex -3.67753 -4.58679 0.00526237
      vertex -3.66667 -4.58737 0.00526237
    endloop
  endfacet
  facet normal -0 0 1
    outer loop
      vertex -4.83333 -3.87513 0.00526237
      vertex -3.67753 -4.58679 0.00526237
      vertex -3.66667 -3.81263 0.00526237
    endloop
  endfacet
  facet normal 0 0 1
    outer loop
      vertex -4.83333 -3.87513 0.00526237
      vertex -4.83333 -4.52487 0.00526237
      vertex -3.67753 -4.58679 0.00526237
    endloop
  endfacet
  facet normal 0 0 1
    outer loop
      vertex -4.83333 -3.87513 0.00526237
      vertex -5.98914 -4.44919 0.00526237
      vertex -4.83333 -4.52487 0.00526237
    endloop
  endfacet
  facet normal -0 0 1
    outer loop
      vertex -6 -3.95152 0.00526237
      vertex -5.98914 -4.44919 0.00526237
      vertex -4.83333 -3.87513 0.00526237
    endloop
  endfacet
  facet normal 0 0 1
    outer loop
      vertex -6 -3.95152 0.00526237
      vertex -6 -4.44848 0.00526237
      vertex -5.98914 -4.44919 0.00526237
    endloop
  endfacet
  facet normal -0 0 1
    outer loop
      vertex -6.20196 -3.96715 0.00526237
      vertex -6 -4.44848 0.00526237
      vertex -6 -3.95152 0.00526237
    endloop
  endfacet
  facet normal 0 0 1
    outer loop
      vertex -6 -4.44848 0.00526237
      vertex -6.20196 -3.96715 0.00526237
      vertex -6.20196 -4.43285 0.00526237
    endloop
  endfacet
  facet normal -0.70717 -0.00062346 -0.707043
    outer loop
      vertex -6 -4.00678 -0.196699
      vertex -6.20196 -3.96715 0.00526237
      vertex -6.1967 -3.96522 -2.77663e-07
    endloop
  endfacet
  facet normal -0.70711 -3.66584e-06 -0.707104
    outer loop
      vertex -5.73346 -4.25916 -0.46324
      vertex -6 -4.00678 -0.196699
      vertex -5.73346 -4.06627 -0.463241
    endloop
  endfacet
  facet normal -0.707108 -0 -0.707105
    outer loop
      vertex -6 -4.00678 -0.196699
      vertex -5.73346 -4.25916 -0.46324
      vertex -6 -4.39322 -0.196699
    endloop
  endfacet
  facet normal -0.707108 0 -0.707105
    outer loop
      vertex -6 -4.39322 -0.196699
      vertex -5.73346 -4.25916 -0.46324
      vertex -5.73346 -4.33373 -0.46324
    endloop
  endfacet
  facet normal -0.707109 -0 -0.707104
    outer loop
      vertex -6 -4.00678 -0.196699
      vertex -6 -4.39322 -0.196699
      vertex -6.20196 -3.96715 0.00526237
    endloop
  endfacet
  facet normal -0.707109 0 -0.707104
    outer loop
      vertex -6 -4.39322 -0.196699
      vertex -6.20196 -4.43285 0.00526237
      vertex -6.20196 -3.96715 0.00526237
    endloop
  endfacet
  facet normal -0.707157 0.000490917 -0.707056
    outer loop
      vertex -6.20196 -4.43285 0.00526237
      vertex -6 -4.39322 -0.196699
      vertex -6.1967 -4.43478 2.77663e-07
    endloop
  endfacet
  facet normal 0.678597 0.678598 0.281089
    outer loop
      vertex -0.308659 0.437564 1.55885
      vertex -0.308659 0.32664 1.82664
      vertex -0.0868104 0.215716 1.55885
    endloop
  endfacet
  facet normal 0.678593 -0.281075 0.678607
    outer loop
      vertex -0.0380611 0 1.69134
      vertex -0.308659 -0.32664 1.82664
      vertex -0.0380611 -0.135299 1.6353
    endloop
  endfacet
  facet normal 0.678601 0.281086 0.678595
    outer loop
      vertex -0.308659 0.32664 1.82664
      vertex -0.308659 0 1.96194
      vertex -0.0380611 0 1.69134
    endloop
  endfacet
  facet normal 0.678601 -0.281086 0.678595
    outer loop
      vertex -0.308659 0 1.96194
      vertex -0.308659 -0.32664 1.82664
      vertex -0.0380611 0 1.69134
    endloop
  endfacet
  facet normal 0.678594 -0.678598 0.281097
    outer loop
      vertex -0.0380611 -0.135299 1.6353
      vertex -0.0868104 -0.215716 1.55885
      vertex -0.0380611 -0.166967 1.55885
    endloop
  endfacet
  facet normal 0.678598 -0.678596 0.281092
    outer loop
      vertex -0.0868104 -0.215716 1.55885
      vertex -0.0380611 -0.135299 1.6353
      vertex -0.308659 -0.32664 1.82664
    endloop
  endfacet
  facet normal -0 0.382687 0.923878
    outer loop
      vertex -0.5 0.32664 1.82664
      vertex -0.308659 0 1.96194
      vertex -0.308659 0.32664 1.82664
    endloop
  endfacet
  facet normal 0 0.382687 0.923878
    outer loop
      vertex -0.308659 0 1.96194
      vertex -0.5 0.32664 1.82664
      vertex -0.5 0 1.96194
    endloop
  endfacet
  facet normal 0 0.923877 0.382689
    outer loop
      vertex -0.308659 0.437564 1.55885
      vertex -0.5 0.32664 1.82664
      vertex -0.308659 0.32664 1.82664
    endloop
  endfacet
  facet normal 0 0.923877 0.382689
    outer loop
      vertex -0.5 0.32664 1.82664
      vertex -0.308659 0.437564 1.55885
      vertex -0.5 0.437564 1.55885
    endloop
  endfacet
  facet normal 0 -0.923877 0.382689
    outer loop
      vertex -0.5 -0.437564 1.55885
      vertex -0.308659 -0.32664 1.82664
      vertex -0.5 -0.32664 1.82664
    endloop
  endfacet
  facet normal 0 -0.923877 0.382689
    outer loop
      vertex -0.308659 -0.32664 1.82664
      vertex -0.5 -0.437564 1.55885
      vertex -0.308659 -0.437564 1.55885
    endloop
  endfacet
  facet normal 1 0 0
    outer loop
      vertex -0.0380611 0 1.69134
      vertex -0.0380611 0.166967 1.55885
      vertex -0.0380611 0.135299 1.6353
    endloop
  endfacet
  facet normal 1 0 0
    outer loop
      vertex -0.0380611 -0.166967 1.55885
      vertex -0.0380611 0 1.69134
      vertex -0.0380611 -0.135299 1.6353
    endloop
  endfacet
  facet normal 1 0 0
    outer loop
      vertex -0.0380611 0 1.69134
      vertex -0.0380611 -0.166967 1.55885
      vertex -0.0380611 0.166967 1.55885
    endloop
  endfacet
  facet normal 0 -0.382687 0.923878
    outer loop
      vertex -0.5 0 1.96194
      vertex -0.308659 -0.32664 1.82664
      vertex -0.308659 0 1.96194
    endloop
  endfacet
  facet normal 0 -0.382687 0.923878
    outer loop
      vertex -0.308659 -0.32664 1.82664
      vertex -0.5 0 1.96194
      vertex -0.5 -0.32664 1.82664
    endloop
  endfacet
  facet normal 0.678598 0.678596 0.281092
    outer loop
      vertex -0.0380611 0.135299 1.6353
      vertex -0.0868104 0.215716 1.55885
      vertex -0.308659 0.32664 1.82664
    endloop
  endfacet
  facet normal 0.678594 0.678598 0.281097
    outer loop
      vertex -0.0868104 0.215716 1.55885
      vertex -0.0380611 0.135299 1.6353
      vertex -0.0380611 0.166967 1.55885
    endloop
  endfacet
  facet normal 0.678593 0.281075 0.678607
    outer loop
      vertex -0.0380611 0.135299 1.6353
      vertex -0.308659 0.32664 1.82664
      vertex -0.0380611 0 1.69134
    endloop
  endfacet
  facet normal 0.678597 -0.678598 0.281089
    outer loop
      vertex -0.308659 -0.32664 1.82664
      vertex -0.308659 -0.437564 1.55885
      vertex -0.0868104 -0.215716 1.55885
    endloop
  endfacet
  facet normal 0 -0.382691 0.923876
    outer loop
      vertex -3.5 0 2
      vertex -0.5 -0.353553 1.85355
      vertex -0.5 0 2
    endloop
  endfacet
  facet normal 0 -0.382691 0.923876
    outer loop
      vertex -0.5 -0.353553 1.85355
      vertex -3.5 0 2
      vertex -3.5 -0.353553 1.85355
    endloop
  endfacet
  facet normal 0 -0.923876 0.382692
    outer loop
      vertex -3.5 -0.475625 1.55885
      vertex -0.5 -0.353553 1.85355
      vertex -3.5 -0.353553 1.85355
    endloop
  endfacet
  facet normal 0 -0.923876 0.382692
    outer loop
      vertex -0.5 -0.353553 1.85355
      vertex -3.5 -0.475625 1.55885
      vertex -0.5 -0.475625 1.55885
    endloop
  endfacet
  facet normal -0 0.382691 0.923876
    outer loop
      vertex -3.5 0.353553 1.85355
      vertex -0.5 0 2
      vertex -0.5 0.353553 1.85355
    endloop
  endfacet
  facet normal 0 0.382691 0.923876
    outer loop
      vertex -0.5 0 2
      vertex -3.5 0.353553 1.85355
      vertex -3.5 0 2
    endloop
  endfacet
  facet normal 1 0 0
    outer loop
      vertex -0.5 0.353553 1.85355
      vertex -0.5 0.437564 1.55885
      vertex -0.5 0.475625 1.55885
    endloop
  endfacet
  facet normal 1 0 0
    outer loop
      vertex -0.5 0.353553 1.85355
      vertex -0.5 0.32664 1.82664
      vertex -0.5 0.437564 1.55885
    endloop
  endfacet
  facet normal 1 0 0
    outer loop
      vertex -0.5 0 2
      vertex -0.5 0.32664 1.82664
      vertex -0.5 0.353553 1.85355
    endloop
  endfacet
  facet normal 1 0 0
    outer loop
      vertex -0.5 0 2
      vertex -0.5 0 1.96194
      vertex -0.5 0.32664 1.82664
    endloop
  endfacet
  facet normal 1 0 0
    outer loop
      vertex -0.5 0 2
      vertex -0.5 -0.32664 1.82664
      vertex -0.5 0 1.96194
    endloop
  endfacet
  facet normal 1 -0 0
    outer loop
      vertex -0.5 -0.353553 1.85355
      vertex -0.5 -0.32664 1.82664
      vertex -0.5 0 2
    endloop
  endfacet
  facet normal 1 0 0
    outer loop
      vertex -0.5 -0.353553 1.85355
      vertex -0.5 -0.437564 1.55885
      vertex -0.5 -0.32664 1.82664
    endloop
  endfacet
  facet normal 1 0 -0
    outer loop
      vertex -0.5 -0.437564 1.55885
      vertex -0.5 -0.353553 1.85355
      vertex -0.5 -0.475625 1.55885
    endloop
  endfacet
  facet normal 0 0.923876 0.382692
    outer loop
      vertex -0.5 0.475625 1.55885
      vertex -3.5 0.353553 1.85355
      vertex -0.5 0.353553 1.85355
    endloop
  endfacet
  facet normal 0 0.923876 0.382692
    outer loop
      vertex -3.5 0.353553 1.85355
      vertex -0.5 0.475625 1.55885
      vertex -3.5 0.475625 1.55885
    endloop
  endfacet
  facet normal -1 0 0
    outer loop
      vertex -3.5 0.437564 1.55885
      vertex -3.5 0.353553 1.85355
      vertex -3.5 0.475625 1.55885
    endloop
  endfacet
  facet normal -1 0 0
    outer loop
      vertex -3.5 0.32664 1.82664
      vertex -3.5 0.353553 1.85355
      vertex -3.5 0.437564 1.55885
    endloop
  endfacet
  facet normal -1 0 0
    outer loop
      vertex -3.5 0 1.96194
      vertex -3.5 0.353553 1.85355
      vertex -3.5 0.32664 1.82664
    endloop
  endfacet
  facet normal -1 0 0
    outer loop
      vertex -3.5 0 1.96194
      vertex -3.5 0 2
      vertex -3.5 0.353553 1.85355
    endloop
  endfacet
  facet normal -1 0 0
    outer loop
      vertex -3.5 -0.32664 1.82664
      vertex -3.5 0 2
      vertex -3.5 0 1.96194
    endloop
  endfacet
  facet normal -1 0 0
    outer loop
      vertex -3.5 -0.32664 1.82664
      vertex -3.5 -0.353553 1.85355
      vertex -3.5 0 2
    endloop
  endfacet
  facet normal -1 0 0
    outer loop
      vertex -3.5 -0.437564 1.55885
      vertex -3.5 -0.353553 1.85355
      vertex -3.5 -0.32664 1.82664
    endloop
  endfacet
  facet normal -1 0 0
    outer loop
      vertex -3.5 -0.353553 1.85355
      vertex -3.5 -0.437564 1.55885
      vertex -3.5 -0.475625 1.55885
    endloop
  endfacet
  facet normal 0 0.923877 0.382689
    outer loop
      vertex -3.5 0.437564 1.55885
      vertex -3.69134 0.32664 1.82664
      vertex -3.5 0.32664 1.82664
    endloop
  endfacet
  facet normal 0 0.923877 0.382689
    outer loop
      vertex -3.69134 0.32664 1.82664
      vertex -3.5 0.437564 1.55885
      vertex -3.69134 0.437564 1.55885
    endloop
  endfacet
  facet normal 0 -0.382687 0.923878
    outer loop
      vertex -3.69134 0 1.96194
      vertex -3.5 -0.32664 1.82664
      vertex -3.5 0 1.96194
    endloop
  endfacet
  facet normal 0 -0.382687 0.923878
    outer loop
      vertex -3.5 -0.32664 1.82664
      vertex -3.69134 0 1.96194
      vertex -3.69134 -0.32664 1.82664
    endloop
  endfacet
  facet normal -0.678598 -0.281087 0.678598
    outer loop
      vertex -3.69134 0 1.96194
      vertex -3.96194 0 1.69134
      vertex -3.69134 -0.32664 1.82664
    endloop
  endfacet
  facet normal -0.678594 -0.6786 0.28109
    outer loop
      vertex -3.69134 -0.32664 1.82664
      vertex -3.91319 -0.215716 1.55885
      vertex -3.69134 -0.437564 1.55885
    endloop
  endfacet
  facet normal -0.678589 0.678602 0.281099
    outer loop
      vertex -3.96194 0.135299 1.6353
      vertex -3.91319 0.215716 1.55885
      vertex -3.96194 0.166967 1.55885
    endloop
  endfacet
  facet normal -0.678595 0.678599 0.281091
    outer loop
      vertex -3.91319 0.215716 1.55885
      vertex -3.96194 0.135299 1.6353
      vertex -3.69134 0.32664 1.82664
    endloop
  endfacet
  facet normal -0 0.382687 0.923878
    outer loop
      vertex -3.69134 0.32664 1.82664
      vertex -3.5 0 1.96194
      vertex -3.5 0.32664 1.82664
    endloop
  endfacet
  facet normal 0 0.382687 0.923878
    outer loop
      vertex -3.5 0 1.96194
      vertex -3.69134 0.32664 1.82664
      vertex -3.69134 0 1.96194
    endloop
  endfacet
  facet normal -0.678598 0.281087 0.678598
    outer loop
      vertex -3.69134 0.32664 1.82664
      vertex -3.96194 0 1.69134
      vertex -3.69134 0 1.96194
    endloop
  endfacet
  facet normal 0 -0.923877 0.382689
    outer loop
      vertex -3.69134 -0.437564 1.55885
      vertex -3.5 -0.32664 1.82664
      vertex -3.69134 -0.32664 1.82664
    endloop
  endfacet
  facet normal 0 -0.923877 0.382689
    outer loop
      vertex -3.5 -0.32664 1.82664
      vertex -3.69134 -0.437564 1.55885
      vertex -3.5 -0.437564 1.55885
    endloop
  endfacet
  facet normal -0.67859 0.281076 0.67861
    outer loop
      vertex -3.96194 0.135299 1.6353
      vertex -3.96194 0 1.69134
      vertex -3.69134 0.32664 1.82664
    endloop
  endfacet
  facet normal -0.678594 0.6786 0.28109
    outer loop
      vertex -3.69134 0.437564 1.55885
      vertex -3.91319 0.215716 1.55885
      vertex -3.69134 0.32664 1.82664
    endloop
  endfacet
  facet normal -1 0 0
    outer loop
      vertex -3.96194 0.166967 1.55885
      vertex -3.96194 0 1.69134
      vertex -3.96194 0.135299 1.6353
    endloop
  endfacet
  facet normal -1 0 0
    outer loop
      vertex -3.96194 -0.166967 1.55885
      vertex -3.96194 0 1.69134
      vertex -3.96194 0.166967 1.55885
    endloop
  endfacet
  facet normal -1 0 0
    outer loop
      vertex -3.96194 0 1.69134
      vertex -3.96194 -0.166967 1.55885
      vertex -3.96194 -0.135299 1.6353
    endloop
  endfacet
  facet normal -0.678589 -0.678602 0.281099
    outer loop
      vertex -3.91319 -0.215716 1.55885
      vertex -3.96194 -0.135299 1.6353
      vertex -3.96194 -0.166967 1.55885
    endloop
  endfacet
  facet normal -0.678595 -0.678599 0.281091
    outer loop
      vertex -3.96194 -0.135299 1.6353
      vertex -3.91319 -0.215716 1.55885
      vertex -3.69134 -0.32664 1.82664
    endloop
  endfacet
  facet normal -0.67859 -0.281076 0.67861
    outer loop
      vertex -3.96194 0 1.69134
      vertex -3.96194 -0.135299 1.6353
      vertex -3.69134 -0.32664 1.82664
    endloop
  endfacet
endsolid OpenSCAD_Model
