solid OpenSCAD_Model
  facet normal 0 0 -1
    outer loop
      vertex 3.76758 -1.2 -0.5
      vertex 4.48187 1.03504 -0.5
      vertex 4.48187 -1.03504 -0.5
    endloop
  endfacet
  facet normal 0 0 -1
    outer loop
      vertex 3.76758 -1.2 -0.5
      vertex 3.76758 1.2 -0.5
      vertex 4.48187 1.03504 -0.5
    endloop
  endfacet
  facet normal 0 0 -1
    outer loop
      vertex 0 -2.07009 -0.5
      vertex 3.76758 1.2 -0.5
      vertex 3.76758 -1.2 -0.5
    endloop
  endfacet
  facet normal 0 0 -1
    outer loop
      vertex 0 -2.07009 -0.5
      vertex 0 2.07009 -0.5
      vertex 3.76758 1.2 -0.5
    endloop
  endfacet
  facet normal 0 0 -1
    outer loop
      vertex -1.25 -1.78141 -0.5
      vertex 0 2.07009 -0.5
      vertex 0 -2.07009 -0.5
    endloop
  endfacet
  facet normal 0 0 -1
    outer loop
      vertex 0 2.07009 -0.5
      vertex -1.25 -1.78141 -0.5
      vertex -1.25 1.78141 -0.5
    endloop
  endfacet
  facet normal -1 0 0
    outer loop
      vertex -1.25 1.78141 -0.5
      vertex -1.25 1.2 1.38115
      vertex -1.25 2.11132 0
    endloop
  endfacet
  facet normal -1 0 0
    outer loop
      vertex -1.25 -1.2 1.38115
      vertex -1.25 1.2 1.38115
      vertex -1.25 1.78141 -0.5
    endloop
  endfacet
  facet normal -1 0 0
    outer loop
      vertex -1.25 1.2 1.38115
      vertex -1.25 -1.2 1.38115
      vertex -1.25 0.911324 1.81865
    endloop
  endfacet
  facet normal -1 -0 0
    outer loop
      vertex -1.25 0.911324 1.81865
      vertex -1.25 -1.2 1.38115
      vertex -1.25 -0.911324 1.81865
    endloop
  endfacet
  facet normal -1 0 0
    outer loop
      vertex -1.25 -1.78141 -0.5
      vertex -1.25 -1.2 1.38115
      vertex -1.25 1.78141 -0.5
    endloop
  endfacet
  facet normal -1 0 0
    outer loop
      vertex -1.25 -1.2 1.38115
      vertex -1.25 -1.78141 -0.5
      vertex -1.25 -2.11132 0
    endloop
  endfacet
  facet normal 0.189277 0.819585 -0.540791
    outer loop
      vertex 4.48187 1.03504 -0.5
      vertex 3.76758 1.2 -0.5
      vertex 5.19615 1.2 0
    endloop
  endfacet
  facet normal -0.189279 -0.819588 0.540786
    outer loop
      vertex 0 -2.4 0
      vertex -1.25 -1.2 1.38115
      vertex -1.25 -2.11132 0
    endloop
  endfacet
  facet normal -0.189276 -0.819587 0.540788
    outer loop
      vertex -1.25 -1.2 1.38115
      vertex 0 -2.4 0
      vertex 0 -1.2 1.81865
    endloop
  endfacet
  facet normal 0.189276 -0.819587 0.540788
    outer loop
      vertex 0 -1.2 1.81865
      vertex 0 -2.4 0
      vertex 5.19615 -1.2 0
    endloop
  endfacet
  facet normal -0.189276 0.819587 0.540789
    outer loop
      vertex -1.25 1.2 1.38115
      vertex -1.25 0.911324 1.81865
      vertex 0 1.2 1.81865
    endloop
  endfacet
  facet normal 0.573465 0 -0.81923
    outer loop
      vertex 4.48187 -1.03504 -0.5
      vertex 5.19615 1.2 0
      vertex 5.19615 -1.2 0
    endloop
  endfacet
  facet normal 0.573465 0 -0.81923
    outer loop
      vertex 5.19615 1.2 0
      vertex 4.48187 -1.03504 -0.5
      vertex 4.48187 1.03504 -0.5
    endloop
  endfacet
  facet normal -0.189279 0.81959 -0.540782
    outer loop
      vertex 0 2.07009 -0.5
      vertex -1.25 2.11132 0
      vertex 0 2.4 0
    endloop
  endfacet
  facet normal -0.189279 0.81959 -0.540782
    outer loop
      vertex -1.25 2.11132 0
      vertex 0 2.07009 -0.5
      vertex -1.25 1.78141 -0.5
    endloop
  endfacet
  facet normal -0.189276 0.819587 0.540788
    outer loop
      vertex 0 2.4 0
      vertex -1.25 1.2 1.38115
      vertex 0 1.2 1.81865
    endloop
  endfacet
  facet normal -0.189279 0.819588 0.540786
    outer loop
      vertex -1.25 1.2 1.38115
      vertex 0 2.4 0
      vertex -1.25 2.11132 0
    endloop
  endfacet
  facet normal 0 0 1
    outer loop
      vertex 0 1.2 1.81865
      vertex 2.59808 -0.599999 1.81865
      vertex 2.59808 0.599999 1.81865
    endloop
  endfacet
  facet normal 0 0 1
    outer loop
      vertex 0 1.2 1.81865
      vertex 0 -1.2 1.81865
      vertex 2.59808 -0.599999 1.81865
    endloop
  endfacet
  facet normal -0 0 1
    outer loop
      vertex -1.25 0.911324 1.81865
      vertex 0 -1.2 1.81865
      vertex 0 1.2 1.81865
    endloop
  endfacet
  facet normal 0 0 1
    outer loop
      vertex 0 -1.2 1.81865
      vertex -1.25 0.911324 1.81865
      vertex -1.25 -0.911324 1.81865
    endloop
  endfacet
  facet normal 0.573463 0 0.819232
    outer loop
      vertex 2.59808 0.599999 1.81865
      vertex 5.19615 -1.2 0
      vertex 5.19615 1.2 0
    endloop
  endfacet
  facet normal 0.573463 0 0.819232
    outer loop
      vertex 5.19615 -1.2 0
      vertex 2.59808 0.599999 1.81865
      vertex 2.59808 -0.599999 1.81865
    endloop
  endfacet
  facet normal 0.189276 0.819588 -0.540787
    outer loop
      vertex 3.76758 1.2 -0.5
      vertex 0 2.4 0
      vertex 5.19615 1.2 0
    endloop
  endfacet
  facet normal 0.189277 0.819591 -0.540782
    outer loop
      vertex 0 2.4 0
      vertex 3.76758 1.2 -0.5
      vertex 0 2.07009 -0.5
    endloop
  endfacet
  facet normal 0.189276 0.819587 0.540788
    outer loop
      vertex 0 2.4 0
      vertex 0 1.2 1.81865
      vertex 5.19615 1.2 0
    endloop
  endfacet
  facet normal -0.189276 -0.819587 0.540789
    outer loop
      vertex -1.25 -0.911324 1.81865
      vertex -1.25 -1.2 1.38115
      vertex 0 -1.2 1.81865
    endloop
  endfacet
  facet normal 0.189277 -0.819585 -0.540791
    outer loop
      vertex 5.19615 -1.2 0
      vertex 3.76758 -1.2 -0.5
      vertex 4.48187 -1.03504 -0.5
    endloop
  endfacet
  facet normal 0.189276 -0.819587 0.540788
    outer loop
      vertex 2.59808 -0.599999 1.81865
      vertex 0 -1.2 1.81865
      vertex 5.19615 -1.2 0
    endloop
  endfacet
  facet normal 0.189276 0.819587 0.540788
    outer loop
      vertex 5.19615 1.2 0
      vertex 0 1.2 1.81865
      vertex 2.59808 0.599999 1.81865
    endloop
  endfacet
  facet normal 0.189277 -0.819591 -0.540782
    outer loop
      vertex 3.76758 -1.2 -0.5
      vertex 0 -2.4 0
      vertex 0 -2.07009 -0.5
    endloop
  endfacet
  facet normal 0.189276 -0.819588 -0.540787
    outer loop
      vertex 0 -2.4 0
      vertex 3.76758 -1.2 -0.5
      vertex 5.19615 -1.2 0
    endloop
  endfacet
  facet normal -0.189279 -0.81959 -0.540782
    outer loop
      vertex -1.25 -1.78141 -0.5
      vertex 0 -2.4 0
      vertex -1.25 -2.11132 0
    endloop
  endfacet
  facet normal -0.189279 -0.81959 -0.540782
    outer loop
      vertex 0 -2.4 0
      vertex -1.25 -1.78141 -0.5
      vertex 0 -2.07009 -0.5
    endloop
  endfacet
endsolid OpenSCAD_Model
