solid OpenSCAD_Model
  facet normal 0 0 -1
    outer loop
      vertex 1.88379 -1.2 -0.5
      vertex 2.24093 1.03504 -0.5
      vertex 2.24093 -1.03504 -0.5
    endloop
  endfacet
  facet normal 0 0 -1
    outer loop
      vertex 1.88379 -1.2 -0.5
      vertex 1.88379 1.2 -0.5
      vertex 2.24093 1.03504 -0.5
    endloop
  endfacet
  facet normal 0 0 -1
    outer loop
      vertex 0 -2.07009 -0.5
      vertex 1.88379 1.2 -0.5
      vertex 1.88379 -1.2 -0.5
    endloop
  endfacet
  facet normal 0 0 -1
    outer loop
      vertex 0 -2.07009 -0.5
      vertex 0 2.07009 -0.5
      vertex 1.88379 1.2 -0.5
    endloop
  endfacet
  facet normal 0 0 -1
    outer loop
      vertex -1.25 -1.49273 -0.5
      vertex 0 2.07009 -0.5
      vertex 0 -2.07009 -0.5
    endloop
  endfacet
  facet normal 0 0 -1
    outer loop
      vertex 0 2.07009 -0.5
      vertex -1.25 -1.49273 -0.5
      vertex -1.25 1.49273 -0.5
    endloop
  endfacet
  facet normal -1 0 0
    outer loop
      vertex -1.25 1.49273 -0.5
      vertex -1.25 1.2 0.943653
      vertex -1.25 1.82265 0
    endloop
  endfacet
  facet normal -1 0 0
    outer loop
      vertex -1.25 -1.2 0.943653
      vertex -1.25 1.2 0.943653
      vertex -1.25 1.49273 -0.5
    endloop
  endfacet
  facet normal -1 0 0
    outer loop
      vertex -1.25 1.2 0.943653
      vertex -1.25 -1.2 0.943653
      vertex -1.25 0.622649 1.81865
    endloop
  endfacet
  facet normal -1 -0 0
    outer loop
      vertex -1.25 0.622649 1.81865
      vertex -1.25 -1.2 0.943653
      vertex -1.25 -0.622649 1.81865
    endloop
  endfacet
  facet normal -1 0 0
    outer loop
      vertex -1.25 -1.49273 -0.5
      vertex -1.25 -1.2 0.943653
      vertex -1.25 1.49273 -0.5
    endloop
  endfacet
  facet normal -1 0 0
    outer loop
      vertex -1.25 -1.2 0.943653
      vertex -1.25 -1.49273 -0.5
      vertex -1.25 -1.82265 0
    endloop
  endfacet
  facet normal 0.359717 -0.778806 -0.513872
    outer loop
      vertex 1.88379 -1.2 -0.5
      vertex 0 -2.4 0
      vertex 0 -2.07009 -0.5
    endloop
  endfacet
  facet normal 0.359713 -0.778803 -0.513879
    outer loop
      vertex 0 -2.4 0
      vertex 1.88379 -1.2 -0.5
      vertex 2.59808 -1.2 0
    endloop
  endfacet
  facet normal -0.359714 -0.778804 0.513878
    outer loop
      vertex 0 -2.4 0
      vertex -1.25 -1.2 0.943653
      vertex -1.25 -1.82265 0
    endloop
  endfacet
  facet normal -0.359714 -0.778804 0.513878
    outer loop
      vertex -1.25 -1.2 0.943653
      vertex 0 -2.4 0
      vertex 0 -1.2 1.81865
    endloop
  endfacet
  facet normal 0.359714 -0.778804 0.513878
    outer loop
      vertex 0 -1.2 1.81865
      vertex 0 -2.4 0
      vertex 2.59808 -1.2 0
    endloop
  endfacet
  facet normal 0.359719 0.778795 -0.513887
    outer loop
      vertex 2.24093 1.03504 -0.5
      vertex 1.88379 1.2 -0.5
      vertex 2.59808 1.2 0
    endloop
  endfacet
  facet normal -0.359714 0.778803 0.513879
    outer loop
      vertex -1.25 1.2 0.943653
      vertex -1.25 0.622649 1.81865
      vertex 0 1.2 1.81865
    endloop
  endfacet
  facet normal -0.359715 0.778807 -0.513872
    outer loop
      vertex 0 2.07009 -0.5
      vertex -1.25 1.82265 0
      vertex 0 2.4 0
    endloop
  endfacet
  facet normal -0.359718 0.778799 -0.513883
    outer loop
      vertex -1.25 1.82265 0
      vertex 0 2.07009 -0.5
      vertex -1.25 1.49273 -0.5
    endloop
  endfacet
  facet normal -0.359714 0.778804 0.513878
    outer loop
      vertex 0 2.4 0
      vertex -1.25 1.2 0.943653
      vertex 0 1.2 1.81865
    endloop
  endfacet
  facet normal -0.359714 0.778804 0.513878
    outer loop
      vertex -1.25 1.2 0.943653
      vertex 0 2.4 0
      vertex -1.25 1.82265 0
    endloop
  endfacet
  facet normal 0.813733 -0 0.581239
    outer loop
      vertex 1.29904 -0.599999 1.81865
      vertex 2.59808 1.2 0
      vertex 1.29904 0.599999 1.81865
    endloop
  endfacet
  facet normal 0.813733 0 0.581239
    outer loop
      vertex 2.59808 1.2 0
      vertex 1.29904 -0.599999 1.81865
      vertex 2.59808 -1.2 0
    endloop
  endfacet
  facet normal 0.359713 0.778803 -0.513879
    outer loop
      vertex 1.88379 1.2 -0.5
      vertex 0 2.4 0
      vertex 2.59808 1.2 0
    endloop
  endfacet
  facet normal 0.359717 0.778806 -0.513872
    outer loop
      vertex 0 2.4 0
      vertex 1.88379 1.2 -0.5
      vertex 0 2.07009 -0.5
    endloop
  endfacet
  facet normal 0.359714 0.778804 0.513878
    outer loop
      vertex 0 2.4 0
      vertex 0 1.2 1.81865
      vertex 2.59808 1.2 0
    endloop
  endfacet
  facet normal -0.359714 -0.778803 0.513879
    outer loop
      vertex -1.25 -0.622649 1.81865
      vertex -1.25 -1.2 0.943653
      vertex 0 -1.2 1.81865
    endloop
  endfacet
  facet normal 0.359714 -0.778803 0.513879
    outer loop
      vertex 1.29904 -0.599999 1.81865
      vertex 0 -1.2 1.81865
      vertex 2.59808 -1.2 0
    endloop
  endfacet
  facet normal 0 0 1
    outer loop
      vertex 0 1.2 1.81865
      vertex 1.29904 -0.599999 1.81865
      vertex 1.29904 0.599999 1.81865
    endloop
  endfacet
  facet normal 0 0 1
    outer loop
      vertex 0 1.2 1.81865
      vertex 0 -1.2 1.81865
      vertex 1.29904 -0.599999 1.81865
    endloop
  endfacet
  facet normal -0 0 1
    outer loop
      vertex -1.25 0.622649 1.81865
      vertex 0 -1.2 1.81865
      vertex 0 1.2 1.81865
    endloop
  endfacet
  facet normal 0 0 1
    outer loop
      vertex 0 -1.2 1.81865
      vertex -1.25 0.622649 1.81865
      vertex -1.25 -0.622649 1.81865
    endloop
  endfacet
  facet normal 0.359714 0.778803 0.513879
    outer loop
      vertex 2.59808 1.2 0
      vertex 0 1.2 1.81865
      vertex 1.29904 0.599999 1.81865
    endloop
  endfacet
  facet normal 0.813728 0 -0.581246
    outer loop
      vertex 2.59808 1.2 0
      vertex 2.24093 -1.03504 -0.5
      vertex 2.24093 1.03504 -0.5
    endloop
  endfacet
  facet normal 0.813728 0 -0.581246
    outer loop
      vertex 2.24093 -1.03504 -0.5
      vertex 2.59808 1.2 0
      vertex 2.59808 -1.2 0
    endloop
  endfacet
  facet normal 0.359719 -0.778795 -0.513887
    outer loop
      vertex 2.59808 -1.2 0
      vertex 1.88379 -1.2 -0.5
      vertex 2.24093 -1.03504 -0.5
    endloop
  endfacet
  facet normal -0.359712 -0.778801 -0.513884
    outer loop
      vertex -1.25 -1.49273 -0.5
      vertex 0 -2.4 0
      vertex -1.25 -1.82265 0
    endloop
  endfacet
  facet normal -0.359721 -0.778805 -0.513871
    outer loop
      vertex 0 -2.4 0
      vertex -1.25 -1.49273 -0.5
      vertex 0 -2.07009 -0.5
    endloop
  endfacet
endsolid OpenSCAD_Model
