solid OpenSCAD_Model
  facet normal 0 0 1
    outer loop
      vertex -11.99 0.794078 1.55885
      vertex -10.7032 1 1.55885
      vertex -11.99 1 1.55885
    endloop
  endfacet
  facet normal 0 0 1
    outer loop
      vertex -10.7032 1 1.55885
      vertex -11.99 0.794078 1.55885
      vertex -10.7032 -1 1.55885
    endloop
  endfacet
  facet normal -0 0 1
    outer loop
      vertex -11.99 -0.794078 1.55885
      vertex -10.7032 -1 1.55885
      vertex -11.99 0.794078 1.55885
    endloop
  endfacet
  facet normal 0 0 1
    outer loop
      vertex -10.7032 -1 1.55885
      vertex -11.99 -0.794078 1.55885
      vertex -11.99 -1 1.55885
    endloop
  endfacet
  facet normal 0 0 1
    outer loop
      vertex -2 0.346409 1.55885
      vertex -4.99 1 1.55885
      vertex -2.2 0 1.55885
    endloop
  endfacet
  facet normal -0 0 1
    outer loop
      vertex -4.99 1 1.55885
      vertex -2 0.346409 1.55885
      vertex -1.62265 1 1.55885
    endloop
  endfacet
  facet normal 0 0 1
    outer loop
      vertex -4.99 -1 1.55885
      vertex -2.2 0 1.55885
      vertex -4.99 1 1.55885
    endloop
  endfacet
  facet normal 0 0 1
    outer loop
      vertex -2.2 0 1.55885
      vertex -4.99 -1 1.55885
      vertex -2 -0.346409 1.55885
    endloop
  endfacet
  facet normal 0 0 1
    outer loop
      vertex -2 -0.346409 1.55885
      vertex -4.99 -1 1.55885
      vertex -1.62265 -1 1.55885
    endloop
  endfacet
  facet normal 0 0.841698 -0.539949
    outer loop
      vertex -4.99 1.67925 -0.5
      vertex -2.8453 2 0
      vertex -2.45313 1.67925 -0.5
    endloop
  endfacet
  facet normal 0 0.841698 -0.539949
    outer loop
      vertex -2.8453 2 0
      vertex -4.99 1.67925 -0.5
      vertex -4.99 2 0
    endloop
  endfacet
  facet normal 0 0.841698 -0.539949
    outer loop
      vertex -11.6775 2 0
      vertex -11.99 1.67925 -0.5
      vertex -11.99 2 0
    endloop
  endfacet
  facet normal -0 -0.841698 -0.539949
    outer loop
      vertex -11.6775 -2 0
      vertex -11.99 -2 0
      vertex -11.99 -1.67925 -0.5
    endloop
  endfacet
  facet normal 0 -0.841698 -0.539949
    outer loop
      vertex -4.99 -1.67925 -0.5
      vertex -2.8453 -2 0
      vertex -4.99 -2 0
    endloop
  endfacet
  facet normal 0 -0.841698 -0.539949
    outer loop
      vertex -2.8453 -2 0
      vertex -4.99 -1.67925 -0.5
      vertex -2.45313 -1.67925 -0.5
    endloop
  endfacet
  facet normal 0 -0.841698 0.539948
    outer loop
      vertex -11.6775 -2 0
      vertex -11.99 -1 1.55885
      vertex -11.99 -2 0
    endloop
  endfacet
  facet normal 0 -0.841698 0.539948
    outer loop
      vertex -11.99 -1 1.55885
      vertex -11.6775 -2 0
      vertex -10.7032 -1 1.55885
    endloop
  endfacet
  facet normal 0 -0.841704 0.539939
    outer loop
      vertex -4.99 -1 1.55885
      vertex -2 -1.30863 1.07773
      vertex -1.62265 -1 1.55885
    endloop
  endfacet
  facet normal 0 -0.841698 0.539948
    outer loop
      vertex -2.8453 -2 0
      vertex -4.99 -1 1.55885
      vertex -4.99 -2 0
    endloop
  endfacet
  facet normal 2.81203e-06 -0.841696 0.539951
    outer loop
      vertex -4.99 -1 1.55885
      vertex -2.8453 -2 0
      vertex -2 -1.30863 1.07773
    endloop
  endfacet
  facet normal -1 0 0
    outer loop
      vertex -11.99 -1.67925 -0.5
      vertex -11.99 -1.82265 0
      vertex -11.99 -1.49273 -0.5
    endloop
  endfacet
  facet normal -1 -0 -0
    outer loop
      vertex -11.99 -1.82265 0
      vertex -11.99 -1.67925 -0.5
      vertex -11.99 -2 0
    endloop
  endfacet
  facet normal -1 0 0
    outer loop
      vertex -11.99 -1.2 0.943653
      vertex -11.99 -1 1.55885
      vertex -11.99 -0.794078 1.55885
    endloop
  endfacet
  facet normal -1 0 0
    outer loop
      vertex -11.99 -2 0
      vertex -11.99 -1.2 0.943653
      vertex -11.99 -1.82265 0
    endloop
  endfacet
  facet normal -1 -0 0
    outer loop
      vertex -11.99 -1.2 0.943653
      vertex -11.99 -2 0
      vertex -11.99 -1 1.55885
    endloop
  endfacet
  facet normal -1 0 0
    outer loop
      vertex -11.99 1.67925 -0.5
      vertex -11.99 1.82265 0
      vertex -11.99 2 0
    endloop
  endfacet
  facet normal -1 0 0
    outer loop
      vertex -11.99 1.82265 0
      vertex -11.99 1.67925 -0.5
      vertex -11.99 1.49273 -0.5
    endloop
  endfacet
  facet normal -1 0 0
    outer loop
      vertex -11.99 1.2 0.943653
      vertex -11.99 2 0
      vertex -11.99 1.82265 0
    endloop
  endfacet
  facet normal -1 0 0
    outer loop
      vertex -11.99 1.2 0.943653
      vertex -11.99 1 1.55885
      vertex -11.99 2 0
    endloop
  endfacet
  facet normal -1 -0 -0
    outer loop
      vertex -11.99 1 1.55885
      vertex -11.99 1.2 0.943653
      vertex -11.99 0.794078 1.55885
    endloop
  endfacet
  facet normal 1 -0 0
    outer loop
      vertex -11.99 -0.622649 1.81865
      vertex -11.99 0.794078 1.55885
      vertex -11.99 0.622649 1.81865
    endloop
  endfacet
  facet normal 1 0 0
    outer loop
      vertex -11.99 0.794078 1.55885
      vertex -11.99 -0.622649 1.81865
      vertex -11.99 -0.794078 1.55885
    endloop
  endfacet
  facet normal 0 0.841704 0.539939
    outer loop
      vertex -2 1.30863 1.07773
      vertex -4.99 1 1.55885
      vertex -1.62265 1 1.55885
    endloop
  endfacet
  facet normal 2.81203e-06 0.841696 0.539951
    outer loop
      vertex -2.8453 2 0
      vertex -4.99 1 1.55885
      vertex -2 1.30863 1.07773
    endloop
  endfacet
  facet normal 0 0.841698 0.539948
    outer loop
      vertex -4.99 1 1.55885
      vertex -2.8453 2 0
      vertex -4.99 2 0
    endloop
  endfacet
  facet normal 0 0.841698 0.539948
    outer loop
      vertex -11.6775 2 0
      vertex -11.99 1 1.55885
      vertex -10.7032 1 1.55885
    endloop
  endfacet
  facet normal 0 0.841698 0.539948
    outer loop
      vertex -11.99 1 1.55885
      vertex -11.6775 2 0
      vertex -11.99 2 0
    endloop
  endfacet
  facet normal 0 0 -1
    outer loop
      vertex -11.99 -1.67925 -0.5
      vertex -4.99 -1.67925 -0.5
      vertex -4.99 -2.88675 -0.5
    endloop
  endfacet
  facet normal 0 0 -1
    outer loop
      vertex -4.99 -1.67925 -0.5
      vertex -11.99 -1.49273 -0.5
      vertex -4.99 1.67925 -0.5
    endloop
  endfacet
  facet normal 0 0 -1
    outer loop
      vertex -11.99 -1.67925 -0.5
      vertex -4.99 -2.88675 -0.5
      vertex -11.99 -6.9282 -0.5
    endloop
  endfacet
  facet normal 0 0 -1
    outer loop
      vertex -4.99 -1.67925 -0.5
      vertex -11.99 -1.67925 -0.5
      vertex -11.99 -1.49273 -0.5
    endloop
  endfacet
  facet normal 0 0 -1
    outer loop
      vertex -11.99 1.49273 -0.5
      vertex -4.99 1.67925 -0.5
      vertex -11.99 -1.49273 -0.5
    endloop
  endfacet
  facet normal 0 0 -1
    outer loop
      vertex -11.99 1.67925 -0.5
      vertex -4.99 1.67925 -0.5
      vertex -11.99 1.49273 -0.5
    endloop
  endfacet
  facet normal 0 0 -1
    outer loop
      vertex -4.99 1.67925 -0.5
      vertex -11.99 1.67925 -0.5
      vertex -4.99 2.88675 -0.5
    endloop
  endfacet
  facet normal -0 0 -1
    outer loop
      vertex -4.99 2.88675 -0.5
      vertex -11.99 1.67925 -0.5
      vertex -11.99 6.9282 -0.5
    endloop
  endfacet
  facet normal 0 0 -1
    outer loop
      vertex 2.45313 -1.67925 -0.5
      vertex 3.99 1.67925 -0.5
      vertex 3.99 -1.67925 -0.5
    endloop
  endfacet
  facet normal 0 0 -1
    outer loop
      vertex 2.45313 -1.67925 -0.5
      vertex 2.45313 1.67925 -0.5
      vertex 3.99 1.67925 -0.5
    endloop
  endfacet
  facet normal 0 0 -1
    outer loop
      vertex -2.45313 -1.67925 -0.5
      vertex 2.45313 -1.67925 -0.5
      vertex 2 -2.4641 -0.5
    endloop
  endfacet
  facet normal 0 0 -1
    outer loop
      vertex 2.45313 -1.67925 -0.5
      vertex -2.45313 -1.67925 -0.5
      vertex 2.45313 1.67925 -0.5
    endloop
  endfacet
  facet normal 0 0 -1
    outer loop
      vertex -2 -2.4641 -0.5
      vertex 2 -2.4641 -0.5
      vertex 1.71132 -2.9641 -0.5
    endloop
  endfacet
  facet normal 0 0 -1
    outer loop
      vertex -2.45313 1.67925 -0.5
      vertex 2.45313 1.67925 -0.5
      vertex -2.45313 -1.67925 -0.5
    endloop
  endfacet
  facet normal 0 0 -1
    outer loop
      vertex -2 -2.4641 -0.5
      vertex 1.71132 -2.9641 -0.5
      vertex -1.71132 -2.9641 -0.5
    endloop
  endfacet
  facet normal 0 0 -1
    outer loop
      vertex 2 -2.4641 -0.5
      vertex -2 -2.4641 -0.5
      vertex -2.45313 -1.67925 -0.5
    endloop
  endfacet
  facet normal 0 0 -1
    outer loop
      vertex 2.45313 1.67925 -0.5
      vertex -2.45313 1.67925 -0.5
      vertex 2 2.4641 -0.5
    endloop
  endfacet
  facet normal -0 0 -1
    outer loop
      vertex 1.71132 2.9641 -0.5
      vertex -2 2.4641 -0.5
      vertex -1.71132 2.9641 -0.5
    endloop
  endfacet
  facet normal 0 -0 -1
    outer loop
      vertex -2 2.4641 -0.5
      vertex 2 2.4641 -0.5
      vertex -2.45313 1.67925 -0.5
    endloop
  endfacet
  facet normal 0 0 -1
    outer loop
      vertex 2 2.4641 -0.5
      vertex -2 2.4641 -0.5
      vertex 1.71132 2.9641 -0.5
    endloop
  endfacet
  facet normal 0 0 -1
    outer loop
      vertex -4.99 -1.67925 -0.5
      vertex -2.45313 1.67925 -0.5
      vertex -2.45313 -1.67925 -0.5
    endloop
  endfacet
  facet normal -0 0 -1
    outer loop
      vertex -2.45313 1.67925 -0.5
      vertex -4.99 -1.67925 -0.5
      vertex -4.99 1.67925 -0.5
    endloop
  endfacet
  facet normal 0 0 -1
    outer loop
      vertex 9.00758 -1.2 -0.5
      vertex 9.72187 1.03504 -0.5
      vertex 9.72187 -1.03504 -0.5
    endloop
  endfacet
  facet normal 0 0 -1
    outer loop
      vertex 9.00758 -1.2 -0.5
      vertex 9.00758 1.2 -0.5
      vertex 9.72187 1.03504 -0.5
    endloop
  endfacet
  facet normal 0 0 -1
    outer loop
      vertex 5.24 -2.07009 -0.5
      vertex 9.00758 1.2 -0.5
      vertex 9.00758 -1.2 -0.5
    endloop
  endfacet
  facet normal 0 0 -1
    outer loop
      vertex 5.24 -2.07009 -0.5
      vertex 5.24 2.07009 -0.5
      vertex 9.00758 1.2 -0.5
    endloop
  endfacet
  facet normal 0 0 -1
    outer loop
      vertex 3.99 -1.67925 -0.5
      vertex 5.24 -2.07009 -0.5
      vertex 3.99 -1.78141 -0.5
    endloop
  endfacet
  facet normal 0 0 -1
    outer loop
      vertex 5.24 -2.07009 -0.5
      vertex 3.99 -1.67925 -0.5
      vertex 5.24 2.07009 -0.5
    endloop
  endfacet
  facet normal 0 0 -1
    outer loop
      vertex 3.99 1.67925 -0.5
      vertex 5.24 2.07009 -0.5
      vertex 3.99 -1.67925 -0.5
    endloop
  endfacet
  facet normal 0 0 -1
    outer loop
      vertex 5.24 2.07009 -0.5
      vertex 3.99 1.67925 -0.5
      vertex 3.99 1.78141 -0.5
    endloop
  endfacet
  facet normal 0.0317376 -0.0549708 -0.997983
    outer loop
      vertex -11.7188 -6.77164 -0.499999
      vertex -11.99 -6.9282 -0.5
      vertex -6.92901 -4.00624 -0.499999
    endloop
  endfacet
  facet normal 0.423955 -0.734396 0.530023
    outer loop
      vertex -11.99 -6.9282 -0.5
      vertex -11.7188 -6.77164 -0.499999
      vertex -11.677 -6.38608 0.000795156
    endloop
  endfacet
  facet normal 0.424002 -0.734388 0.529997
    outer loop
      vertex -9.18551 -4.443 0.699999
      vertex -10.49 -4.33013 1.9
      vertex -11.24 -5.62917 0.699999
    endloop
  endfacet
  facet normal 0.423999 -0.734391 0.529994
    outer loop
      vertex -9.18551 -4.443 0.699999
      vertex -4.99 -2.06197 0.642857
      vertex -10.49 -4.33013 1.9
    endloop
  endfacet
  facet normal 0.423997 -0.734388 0.53
    outer loop
      vertex -6.92901 -4.00624 -0.499999
      vertex -4.99 -2.06197 0.642857
      vertex -9.18551 -4.443 0.699999
    endloop
  endfacet
  facet normal 0.424001 -0.734389 0.529996
    outer loop
      vertex -6.92901 -4.00624 -0.499999
      vertex -4.99 -2.88675 -0.5
      vertex -4.99 -2.06197 0.642857
    endloop
  endfacet
  facet normal 0.204486 -0.354181 -0.912547
    outer loop
      vertex -4.99 -2.88675 -0.5
      vertex -6.92901 -4.00624 -0.499999
      vertex -11.99 -6.9282 -0.5
    endloop
  endfacet
  facet normal -0.847998 2.27762e-07 0.529999
    outer loop
      vertex -11.99 -1.67925 -0.5
      vertex -11.99 -4.00624 -0.499999
      vertex -11.6775 -2 0
    endloop
  endfacet
  facet normal -1 0 0
    outer loop
      vertex -11.99 -1.67925 -0.5
      vertex -11.99 -6.77164 -0.499999
      vertex -11.99 -4.00624 -0.499999
    endloop
  endfacet
  facet normal -1 0 -0
    outer loop
      vertex -11.99 -6.77164 -0.499999
      vertex -11.99 -1.67925 -0.5
      vertex -11.99 -6.9282 -0.5
    endloop
  endfacet
  facet normal -1 0 0
    outer loop
      vertex -11.99 6.9282 -0.5
      vertex -11.99 4.00624 -0.499999
      vertex -11.99 6.77164 -0.499999
    endloop
  endfacet
  facet normal -0.847998 -2.27762e-07 0.529999
    outer loop
      vertex -11.99 4.00624 -0.499999
      vertex -11.99 1.67925 -0.5
      vertex -11.6775 2 0
    endloop
  endfacet
  facet normal -1 0 0
    outer loop
      vertex -11.99 1.67925 -0.5
      vertex -11.99 4.00624 -0.499999
      vertex -11.99 6.9282 -0.5
    endloop
  endfacet
  facet normal -0.847994 3.38532e-06 0.530005
    outer loop
      vertex -11.99 6.9282 -0.5
      vertex -11.99 6.77164 -0.499999
      vertex -11.677 6.38608 0.000795156
    endloop
  endfacet
  facet normal -0.847999 0 0.529999
    outer loop
      vertex -11.24 4.443 0.699999
      vertex -10.49 4.33013 1.9
      vertex -11.24 5.62917 0.699999
    endloop
  endfacet
  facet normal -0.847998 -4.03676e-08 0.53
    outer loop
      vertex -11.6775 2 0
      vertex -11.24 4.443 0.699999
      vertex -11.99 4.00624 -0.499999
    endloop
  endfacet
  facet normal -0.847998 3.34483e-07 0.529999
    outer loop
      vertex -11.24 4.443 0.699999
      vertex -11.6775 2 0
      vertex -10.49 4.33013 1.9
    endloop
  endfacet
  facet normal -0.847995 -5.46061e-06 0.530004
    outer loop
      vertex -10.7032 1 1.55885
      vertex -10.49 4.33013 1.9
      vertex -11.6775 2 0
    endloop
  endfacet
  facet normal -0.848019 0 0.529965
    outer loop
      vertex -10.7032 -1 1.55885
      vertex -10.49 4.33013 1.9
      vertex -10.7032 1 1.55885
    endloop
  endfacet
  facet normal -0.847998 4.03676e-08 0.53
    outer loop
      vertex -11.24 -4.443 0.699999
      vertex -11.6775 -2 0
      vertex -11.99 -4.00624 -0.499999
    endloop
  endfacet
  facet normal -0.848019 0 0.529965
    outer loop
      vertex -10.7032 -1 1.55885
      vertex -10.49 -4.33013 1.9
      vertex -10.49 4.33013 1.9
    endloop
  endfacet
  facet normal -0.847998 -3.34483e-07 0.529999
    outer loop
      vertex -10.49 -4.33013 1.9
      vertex -11.6775 -2 0
      vertex -11.24 -4.443 0.699999
    endloop
  endfacet
  facet normal -0.847995 5.46061e-06 0.530004
    outer loop
      vertex -11.6775 -2 0
      vertex -10.49 -4.33013 1.9
      vertex -10.7032 -1 1.55885
    endloop
  endfacet
  facet normal -0.847999 0 0.529999
    outer loop
      vertex -10.49 -4.33013 1.9
      vertex -11.24 -4.443 0.699999
      vertex -11.24 -5.62917 0.699999
    endloop
  endfacet
  facet normal -0.847994 -3.38532e-06 0.530005
    outer loop
      vertex -11.677 -6.38608 0.000795156
      vertex -11.99 -6.77164 -0.499999
      vertex -11.99 -6.9282 -0.5
    endloop
  endfacet
  facet normal 0.423999 -0.734387 0.530001
    outer loop
      vertex -4.99 -1.1547 1.9
      vertex -10.49 -4.33013 1.9
      vertex -4.99 -2.06197 0.642857
    endloop
  endfacet
  facet normal 0.423999 0.734387 0.530001
    outer loop
      vertex -4.99 2.06197 0.642857
      vertex -10.49 4.33013 1.9
      vertex -4.99 1.1547 1.9
    endloop
  endfacet
  facet normal 0.423999 0.734391 0.529994
    outer loop
      vertex -4.99 2.06197 0.642857
      vertex -9.18551 4.443 0.699999
      vertex -10.49 4.33013 1.9
    endloop
  endfacet
  facet normal 0.423997 0.734388 0.53
    outer loop
      vertex -4.99 2.06197 0.642857
      vertex -6.92901 4.00624 -0.499999
      vertex -9.18551 4.443 0.699999
    endloop
  endfacet
  facet normal 0.16113 0.279085 0.946651
    outer loop
      vertex -6.92901 4.00624 -0.499999
      vertex -4.99 2.88675 -0.5
      vertex -11.7188 6.77164 -0.499999
    endloop
  endfacet
  facet normal 0.424001 0.734389 0.529996
    outer loop
      vertex -4.99 2.88675 -0.5
      vertex -6.92901 4.00624 -0.499999
      vertex -4.99 2.06197 0.642857
    endloop
  endfacet
  facet normal 0.424002 0.734388 0.529997
    outer loop
      vertex -10.49 4.33013 1.9
      vertex -9.18551 4.443 0.699999
      vertex -11.24 5.62917 0.699999
    endloop
  endfacet
  facet normal 0.423955 0.734396 0.530023
    outer loop
      vertex -11.7188 6.77164 -0.499999
      vertex -11.99 6.9282 -0.5
      vertex -11.677 6.38608 0.000795156
    endloop
  endfacet
  facet normal 0.0332605 0.0576088 -0.997785
    outer loop
      vertex -11.99 6.9282 -0.5
      vertex -11.7188 6.77164 -0.499999
      vertex -4.99 2.88675 -0.5
    endloop
  endfacet
  facet normal 0 0 1
    outer loop
      vertex -10.49 4.33013 1.9
      vertex -4.99 -1.1547 1.9
      vertex -4.99 1.1547 1.9
    endloop
  endfacet
  facet normal 0 0 1
    outer loop
      vertex -4.99 -1.1547 1.9
      vertex -10.49 4.33013 1.9
      vertex -10.49 -4.33013 1.9
    endloop
  endfacet
  facet normal 1 -0 0
    outer loop
      vertex -4.99 1 1.55885
      vertex -4.99 2.06197 0.642857
      vertex -4.99 1.1547 1.9
    endloop
  endfacet
  facet normal 1 0 0
    outer loop
      vertex -4.99 2.06197 0.642857
      vertex -4.99 1 1.55885
      vertex -4.99 2 0
    endloop
  endfacet
  facet normal 1 0 0
    outer loop
      vertex -4.99 1.1547 1.9
      vertex -4.99 -1 1.55885
      vertex -4.99 1 1.55885
    endloop
  endfacet
  facet normal 1 -0 0
    outer loop
      vertex -4.99 -1.1547 1.9
      vertex -4.99 -1 1.55885
      vertex -4.99 1.1547 1.9
    endloop
  endfacet
  facet normal 1 0 0
    outer loop
      vertex -4.99 -2.06197 0.642857
      vertex -4.99 -1 1.55885
      vertex -4.99 -1.1547 1.9
    endloop
  endfacet
  facet normal 1 0 0
    outer loop
      vertex -4.99 -1 1.55885
      vertex -4.99 -2.06197 0.642857
      vertex -4.99 -2 0
    endloop
  endfacet
  facet normal 1 -0 0
    outer loop
      vertex -4.99 2 0
      vertex -4.99 2.88675 -0.5
      vertex -4.99 2.06197 0.642857
    endloop
  endfacet
  facet normal 1 0 0
    outer loop
      vertex -4.99 2.88675 -0.5
      vertex -4.99 2 0
      vertex -4.99 1.67925 -0.5
    endloop
  endfacet
  facet normal 1 0 0
    outer loop
      vertex -4.99 -2 0
      vertex -4.99 -2.88675 -0.5
      vertex -4.99 -1.67925 -0.5
    endloop
  endfacet
  facet normal 1 0 0
    outer loop
      vertex -4.99 -2.88675 -0.5
      vertex -4.99 -2 0
      vertex -4.99 -2.06197 0.642857
    endloop
  endfacet
  facet normal 0 0.792366 0.610046
    outer loop
      vertex -7.57658 5.84776 0.699999
      vertex -11.677 6.38608 0.000795156
      vertex -11.4034 5.84776 0.699999
    endloop
  endfacet
  facet normal -0 0.792367 0.610044
    outer loop
      vertex -11.7188 6.77164 -0.499999
      vertex -7.57658 5.84776 0.699999
      vertex -6.61988 6.77164 -0.499999
    endloop
  endfacet
  facet normal 9.69192e-07 0.792369 0.610042
    outer loop
      vertex -7.57658 5.84776 0.699999
      vertex -11.7188 6.77164 -0.499999
      vertex -11.677 6.38608 0.000795156
    endloop
  endfacet
  facet normal -0 0.792369 0.610042
    outer loop
      vertex -12.3601 6.77164 -0.499999
      vertex -11.677 6.38608 0.000795156
      vertex -11.99 6.77164 -0.499999
    endloop
  endfacet
  facet normal -5.75989e-06 0.792365 0.610047
    outer loop
      vertex -11.677 6.38608 0.000795156
      vertex -12.3601 6.77164 -0.499999
      vertex -11.4034 5.84776 0.699999
    endloop
  endfacet
  facet normal 0 0 1
    outer loop
      vertex -7.57658 5.84776 0.699999
      vertex -4.8706 4.443 0.699999
      vertex -4.8706 4.76537 0.699999
    endloop
  endfacet
  facet normal 0 0 1
    outer loop
      vertex -7.57658 5.84776 0.699999
      vertex -9.18551 4.443 0.699999
      vertex -4.8706 4.443 0.699999
    endloop
  endfacet
  facet normal 0 0 1
    outer loop
      vertex -7.57658 5.84776 0.699999
      vertex -11.24 5.62917 0.699999
      vertex -9.18551 4.443 0.699999
    endloop
  endfacet
  facet normal -0 0 1
    outer loop
      vertex -11.4034 5.84776 0.699999
      vertex -11.24 5.62917 0.699999
      vertex -7.57658 5.84776 0.699999
    endloop
  endfacet
  facet normal 0 0 1
    outer loop
      vertex -11.4034 5.84776 0.699999
      vertex -11.24 4.443 0.699999
      vertex -11.24 5.62917 0.699999
    endloop
  endfacet
  facet normal -0 0 1
    outer loop
      vertex -14.1094 4.76537 0.699999
      vertex -11.24 4.443 0.699999
      vertex -11.4034 5.84776 0.699999
    endloop
  endfacet
  facet normal 0 0 1
    outer loop
      vertex -11.24 4.443 0.699999
      vertex -14.1094 4.76537 0.699999
      vertex -14.1094 4.443 0.699999
    endloop
  endfacet
  facet normal 0.261183 0.652956 0.710938
    outer loop
      vertex -6.61988 6.77164 -0.499999
      vertex -4.8706 4.76537 0.699999
      vertex -2.56091 5.14805 -0.499999
    endloop
  endfacet
  facet normal 0.261182 0.652955 0.710939
    outer loop
      vertex -4.8706 4.76537 0.699999
      vertex -6.61988 6.77164 -0.499999
      vertex -7.57658 5.84776 0.699999
    endloop
  endfacet
  facet normal -0.26118 0.652956 0.710938
    outer loop
      vertex -12.3601 6.77164 -0.499999
      vertex -14.1094 4.76537 0.699999
      vertex -11.4034 5.84776 0.699999
    endloop
  endfacet
  facet normal -0.261181 0.652957 0.710937
    outer loop
      vertex -14.1094 4.76537 0.699999
      vertex -12.3601 6.77164 -0.499999
      vertex -16.4191 5.14805 -0.499999
    endloop
  endfacet
  facet normal 0 0 -1
    outer loop
      vertex -6.92901 4.00624 -0.499999
      vertex -2.56091 5.14805 -0.499999
      vertex -2.56091 4.00624 -0.499999
    endloop
  endfacet
  facet normal -0 0 -1
    outer loop
      vertex -2.56091 5.14805 -0.499999
      vertex -6.92901 4.00624 -0.499999
      vertex -6.61988 6.77164 -0.499999
    endloop
  endfacet
  facet normal -0 0 -1
    outer loop
      vertex -6.61988 6.77164 -0.499999
      vertex -6.92901 4.00624 -0.499999
      vertex -11.7188 6.77164 -0.499999
    endloop
  endfacet
  facet normal 0 0 -1
    outer loop
      vertex -11.99 4.00624 -0.499999
      vertex -12.3601 6.77164 -0.499999
      vertex -11.99 6.77164 -0.499999
    endloop
  endfacet
  facet normal 0 0 -1
    outer loop
      vertex -16.4191 5.14805 -0.499999
      vertex -11.99 4.00624 -0.499999
      vertex -16.4191 4.00624 -0.499999
    endloop
  endfacet
  facet normal 0 0 -1
    outer loop
      vertex -11.99 4.00624 -0.499999
      vertex -16.4191 5.14805 -0.499999
      vertex -12.3601 6.77164 -0.499999
    endloop
  endfacet
  facet normal -0.461036 0 0.887381
    outer loop
      vertex -16.4191 5.14805 -0.499999
      vertex -14.1094 4.443 0.699999
      vertex -14.1094 4.76537 0.699999
    endloop
  endfacet
  facet normal -0.461036 0 0.887381
    outer loop
      vertex -14.1094 4.443 0.699999
      vertex -16.4191 5.14805 -0.499999
      vertex -16.4191 4.00624 -0.499999
    endloop
  endfacet
  facet normal 0.461038 -0 0.88738
    outer loop
      vertex -4.8706 4.443 0.699999
      vertex -2.56091 5.14805 -0.499999
      vertex -4.8706 4.76537 0.699999
    endloop
  endfacet
  facet normal 0.461038 0 0.88738
    outer loop
      vertex -2.56091 5.14805 -0.499999
      vertex -4.8706 4.443 0.699999
      vertex -2.56091 4.00624 -0.499999
    endloop
  endfacet
  facet normal 0 -0.939694 0.342018
    outer loop
      vertex -11.99 4.00624 -0.499999
      vertex -14.1094 4.443 0.699999
      vertex -16.4191 4.00624 -0.499999
    endloop
  endfacet
  facet normal 0 -0.939694 0.342018
    outer loop
      vertex -14.1094 4.443 0.699999
      vertex -11.99 4.00624 -0.499999
      vertex -11.24 4.443 0.699999
    endloop
  endfacet
  facet normal 0 -0.939694 0.342018
    outer loop
      vertex -6.92901 4.00624 -0.499999
      vertex -4.8706 4.443 0.699999
      vertex -9.18551 4.443 0.699999
    endloop
  endfacet
  facet normal 0 -0.939694 0.342018
    outer loop
      vertex -4.8706 4.443 0.699999
      vertex -6.92901 4.00624 -0.499999
      vertex -2.56091 4.00624 -0.499999
    endloop
  endfacet
  facet normal 0 -0.792366 0.610046
    outer loop
      vertex -11.4034 -5.84776 0.699999
      vertex -11.677 -6.38608 0.000795156
      vertex -7.57658 -5.84776 0.699999
    endloop
  endfacet
  facet normal -5.75989e-06 -0.792365 0.610047
    outer loop
      vertex -12.3601 -6.77164 -0.499999
      vertex -11.677 -6.38608 0.000795156
      vertex -11.4034 -5.84776 0.699999
    endloop
  endfacet
  facet normal 0 -0.792369 0.610042
    outer loop
      vertex -11.677 -6.38608 0.000795156
      vertex -12.3601 -6.77164 -0.499999
      vertex -11.99 -6.77164 -0.499999
    endloop
  endfacet
  facet normal 9.69192e-07 -0.792369 0.610042
    outer loop
      vertex -11.7188 -6.77164 -0.499999
      vertex -7.57658 -5.84776 0.699999
      vertex -11.677 -6.38608 0.000795156
    endloop
  endfacet
  facet normal 0 -0.792367 0.610044
    outer loop
      vertex -7.57658 -5.84776 0.699999
      vertex -11.7188 -6.77164 -0.499999
      vertex -6.61988 -6.77164 -0.499999
    endloop
  endfacet
  facet normal 0 0 1
    outer loop
      vertex -11.24 -4.443 0.699999
      vertex -11.4034 -5.84776 0.699999
      vertex -11.24 -5.62917 0.699999
    endloop
  endfacet
  facet normal 0 0 1
    outer loop
      vertex -14.1094 -4.76537 0.699999
      vertex -11.24 -4.443 0.699999
      vertex -14.1094 -4.443 0.699999
    endloop
  endfacet
  facet normal 0 0 1
    outer loop
      vertex -11.24 -4.443 0.699999
      vertex -14.1094 -4.76537 0.699999
      vertex -11.4034 -5.84776 0.699999
    endloop
  endfacet
  facet normal 0 0 1
    outer loop
      vertex -4.8706 -4.443 0.699999
      vertex -7.57658 -5.84776 0.699999
      vertex -4.8706 -4.76537 0.699999
    endloop
  endfacet
  facet normal -0 0 1
    outer loop
      vertex -9.18551 -4.443 0.699999
      vertex -7.57658 -5.84776 0.699999
      vertex -4.8706 -4.443 0.699999
    endloop
  endfacet
  facet normal -0 0 1
    outer loop
      vertex -11.24 -5.62917 0.699999
      vertex -7.57658 -5.84776 0.699999
      vertex -9.18551 -4.443 0.699999
    endloop
  endfacet
  facet normal 0 0 1
    outer loop
      vertex -7.57658 -5.84776 0.699999
      vertex -11.24 -5.62917 0.699999
      vertex -11.4034 -5.84776 0.699999
    endloop
  endfacet
  facet normal 0.261183 -0.652956 0.710938
    outer loop
      vertex -4.8706 -4.76537 0.699999
      vertex -6.61988 -6.77164 -0.499999
      vertex -2.56091 -5.14805 -0.499999
    endloop
  endfacet
  facet normal 0.261182 -0.652955 0.710939
    outer loop
      vertex -6.61988 -6.77164 -0.499999
      vertex -4.8706 -4.76537 0.699999
      vertex -7.57658 -5.84776 0.699999
    endloop
  endfacet
  facet normal -0.26118 -0.652956 0.710938
    outer loop
      vertex -14.1094 -4.76537 0.699999
      vertex -12.3601 -6.77164 -0.499999
      vertex -11.4034 -5.84776 0.699999
    endloop
  endfacet
  facet normal -0.261181 -0.652957 0.710937
    outer loop
      vertex -12.3601 -6.77164 -0.499999
      vertex -14.1094 -4.76537 0.699999
      vertex -16.4191 -5.14805 -0.499999
    endloop
  endfacet
  facet normal 0 0 -1
    outer loop
      vertex -6.92901 -4.00624 -0.499999
      vertex -2.56091 -5.14805 -0.499999
      vertex -6.61988 -6.77164 -0.499999
    endloop
  endfacet
  facet normal 0 0 -1
    outer loop
      vertex -2.56091 -5.14805 -0.499999
      vertex -6.92901 -4.00624 -0.499999
      vertex -2.56091 -4.00624 -0.499999
    endloop
  endfacet
  facet normal 0 -0 -1
    outer loop
      vertex -6.92901 -4.00624 -0.499999
      vertex -6.61988 -6.77164 -0.499999
      vertex -11.7188 -6.77164 -0.499999
    endloop
  endfacet
  facet normal 0 0 -1
    outer loop
      vertex -12.3601 -6.77164 -0.499999
      vertex -11.99 -4.00624 -0.499999
      vertex -11.99 -6.77164 -0.499999
    endloop
  endfacet
  facet normal 0 0 -1
    outer loop
      vertex -16.4191 -5.14805 -0.499999
      vertex -11.99 -4.00624 -0.499999
      vertex -12.3601 -6.77164 -0.499999
    endloop
  endfacet
  facet normal -0 0 -1
    outer loop
      vertex -11.99 -4.00624 -0.499999
      vertex -16.4191 -5.14805 -0.499999
      vertex -16.4191 -4.00624 -0.499999
    endloop
  endfacet
  facet normal -0.461036 0 0.887381
    outer loop
      vertex -16.4191 -5.14805 -0.499999
      vertex -14.1094 -4.443 0.699999
      vertex -16.4191 -4.00624 -0.499999
    endloop
  endfacet
  facet normal -0.461036 0 0.887381
    outer loop
      vertex -14.1094 -4.443 0.699999
      vertex -16.4191 -5.14805 -0.499999
      vertex -14.1094 -4.76537 0.699999
    endloop
  endfacet
  facet normal 0.461038 0 0.88738
    outer loop
      vertex -4.8706 -4.443 0.699999
      vertex -2.56091 -5.14805 -0.499999
      vertex -2.56091 -4.00624 -0.499999
    endloop
  endfacet
  facet normal 0.461038 0 0.88738
    outer loop
      vertex -2.56091 -5.14805 -0.499999
      vertex -4.8706 -4.443 0.699999
      vertex -4.8706 -4.76537 0.699999
    endloop
  endfacet
  facet normal 0 0.939694 0.342018
    outer loop
      vertex -11.99 -4.00624 -0.499999
      vertex -14.1094 -4.443 0.699999
      vertex -11.24 -4.443 0.699999
    endloop
  endfacet
  facet normal 0 0.939694 0.342018
    outer loop
      vertex -14.1094 -4.443 0.699999
      vertex -11.99 -4.00624 -0.499999
      vertex -16.4191 -4.00624 -0.499999
    endloop
  endfacet
  facet normal -0 0.939694 0.342018
    outer loop
      vertex -6.92901 -4.00624 -0.499999
      vertex -4.8706 -4.443 0.699999
      vertex -2.56091 -4.00624 -0.499999
    endloop
  endfacet
  facet normal 0 0.939694 0.342018
    outer loop
      vertex -4.8706 -4.443 0.699999
      vertex -6.92901 -4.00624 -0.499999
      vertex -9.18551 -4.443 0.699999
    endloop
  endfacet
  facet normal 0 0 1
    outer loop
      vertex 3.99 1 1.55885
      vertex 2.2 0 1.55885
      vertex 3.99 -1 1.55885
    endloop
  endfacet
  facet normal 0 0 1
    outer loop
      vertex 3.99 1 1.55885
      vertex 2 0.346409 1.55885
      vertex 2.2 0 1.55885
    endloop
  endfacet
  facet normal 0 -0 1
    outer loop
      vertex 2 0.346409 1.55885
      vertex 3.99 1 1.55885
      vertex 1.62265 1 1.55885
    endloop
  endfacet
  facet normal -0 0 1
    outer loop
      vertex 2 -0.346409 1.55885
      vertex 3.99 -1 1.55885
      vertex 2.2 0 1.55885
    endloop
  endfacet
  facet normal 0 0 1
    outer loop
      vertex 3.99 -1 1.55885
      vertex 2 -0.346409 1.55885
      vertex 1.62265 -1 1.55885
    endloop
  endfacet
  facet normal 0 0.841698 -0.539949
    outer loop
      vertex 3.99 1.67925 -0.5
      vertex 2.8453 2 0
      vertex 3.99 2 0
    endloop
  endfacet
  facet normal 0 0.841698 -0.539949
    outer loop
      vertex 2.8453 2 0
      vertex 3.99 1.67925 -0.5
      vertex 2.45313 1.67925 -0.5
    endloop
  endfacet
  facet normal -0 -0.841698 -0.539949
    outer loop
      vertex 3.99 -1.67925 -0.5
      vertex 2.8453 -2 0
      vertex 2.45313 -1.67925 -0.5
    endloop
  endfacet
  facet normal 0 -0.841698 -0.539949
    outer loop
      vertex 2.8453 -2 0
      vertex 3.99 -1.67925 -0.5
      vertex 3.99 -2 0
    endloop
  endfacet
  facet normal 0 -0.841704 0.539939
    outer loop
      vertex 2 -1.30863 1.07773
      vertex 3.99 -1 1.55885
      vertex 1.62265 -1 1.55885
    endloop
  endfacet
  facet normal -3.99987e-06 -0.841697 0.53995
    outer loop
      vertex 2.8453 -2 0
      vertex 3.99 -1 1.55885
      vertex 2 -1.30863 1.07773
    endloop
  endfacet
  facet normal 0 -0.841698 0.539948
    outer loop
      vertex 3.99 -1 1.55885
      vertex 2.8453 -2 0
      vertex 3.99 -2 0
    endloop
  endfacet
  facet normal 0 0.841704 0.539939
    outer loop
      vertex 3.99 1 1.55885
      vertex 2 1.30863 1.07773
      vertex 1.62265 1 1.55885
    endloop
  endfacet
  facet normal -0 0.841698 0.539948
    outer loop
      vertex 2.8453 2 0
      vertex 3.99 1 1.55885
      vertex 3.99 2 0
    endloop
  endfacet
  facet normal -3.99987e-06 0.841697 0.53995
    outer loop
      vertex 3.99 1 1.55885
      vertex 2.8453 2 0
      vertex 2 1.30863 1.07773
    endloop
  endfacet
  facet normal -0.61237 0.353553 0.707109
    outer loop
      vertex -2 3.4641 0
      vertex -2.8453 2 0
      vertex -2 1.30863 1.07773
    endloop
  endfacet
  facet normal -0.612363 0.353549 0.707117
    outer loop
      vertex -2 0.346409 1.55885
      vertex -2.2 0 1.55885
      vertex -2 0 1.73205
    endloop
  endfacet
  facet normal 0 0.707107 0.707107
    outer loop
      vertex 2 3.4641 0
      vertex -1 1.73205 1.73205
      vertex 1 1.73205 1.73205
    endloop
  endfacet
  facet normal 0 0.707107 0.707107
    outer loop
      vertex -1 1.73205 1.73205
      vertex 2 3.4641 0
      vertex -2 3.4641 0
    endloop
  endfacet
  facet normal -0.612363 -0.353549 0.707117
    outer loop
      vertex -2 0 1.73205
      vertex -2.2 0 1.55885
      vertex -2 -0.346409 1.55885
    endloop
  endfacet
  facet normal -0.61237 -0.353553 0.707109
    outer loop
      vertex -2 -1.30863 1.07773
      vertex -2.8453 -2 0
      vertex -2 -3.4641 0
    endloop
  endfacet
  facet normal 0 -0.707107 -0.707107
    outer loop
      vertex 2 -3.4641 0
      vertex -1.71132 -2.9641 -0.5
      vertex 1.71132 -2.9641 -0.5
    endloop
  endfacet
  facet normal 0 -0.707107 -0.707107
    outer loop
      vertex -1.71132 -2.9641 -0.5
      vertex 2 -3.4641 0
      vertex -2 -3.4641 0
    endloop
  endfacet
  facet normal 0.612374 0.353551 0.707106
    outer loop
      vertex 1 1.73205 1.73205
      vertex 2 1.30863 1.07773
      vertex 2 3.4641 0
    endloop
  endfacet
  facet normal 0.612375 0.353563 0.7071
    outer loop
      vertex 2 1.30863 1.07773
      vertex 1 1.73205 1.73205
      vertex 1.62265 1 1.55885
    endloop
  endfacet
  facet normal 0.612365 0.353548 0.707115
    outer loop
      vertex 1.62265 1 1.55885
      vertex 2 0 1.73205
      vertex 2 0.346409 1.55885
    endloop
  endfacet
  facet normal 0.612363 0.353548 0.707118
    outer loop
      vertex 2 0 1.73205
      vertex 1.62265 1 1.55885
      vertex 1 1.73205 1.73205
    endloop
  endfacet
  facet normal -0.612371 0.35355 -0.70711
    outer loop
      vertex -2.8453 2 0
      vertex -2 2.4641 -0.5
      vertex -2.45313 1.67925 -0.5
    endloop
  endfacet
  facet normal -0.612372 0.353554 -0.707107
    outer loop
      vertex -2 2.4641 -0.5
      vertex -2.8453 2 0
      vertex -2 3.4641 0
    endloop
  endfacet
  facet normal 0.612371 0.35355 -0.70711
    outer loop
      vertex 2 2.4641 -0.5
      vertex 2.8453 2 0
      vertex 2.45313 1.67925 -0.5
    endloop
  endfacet
  facet normal 0.612372 0.353554 -0.707107
    outer loop
      vertex 2.8453 2 0
      vertex 2 2.4641 -0.5
      vertex 2 3.4641 0
    endloop
  endfacet
  facet normal 0.612363 0.353549 0.707117
    outer loop
      vertex 2 0.346409 1.55885
      vertex 2 0 1.73205
      vertex 2.2 0 1.55885
    endloop
  endfacet
  facet normal 0.61237 0.353553 0.707109
    outer loop
      vertex 2 3.4641 0
      vertex 2 1.30863 1.07773
      vertex 2.8453 2 0
    endloop
  endfacet
  facet normal 0.612366 -0.353556 -0.707111
    outer loop
      vertex 2 -3.4641 0
      vertex 1.71132 -2.9641 -0.5
      vertex 2 -2.4641 -0.5
    endloop
  endfacet
  facet normal 0 -0.707107 0.707107
    outer loop
      vertex -1 -1.73205 1.73205
      vertex 2 -3.4641 0
      vertex 1 -1.73205 1.73205
    endloop
  endfacet
  facet normal 0 -0.707107 0.707107
    outer loop
      vertex 2 -3.4641 0
      vertex -1 -1.73205 1.73205
      vertex -2 -3.4641 0
    endloop
  endfacet
  facet normal 0.612372 -0.353554 -0.707107
    outer loop
      vertex 2 -2.4641 -0.5
      vertex 2.8453 -2 0
      vertex 2 -3.4641 0
    endloop
  endfacet
  facet normal 0.612371 -0.35355 -0.70711
    outer loop
      vertex 2.8453 -2 0
      vertex 2 -2.4641 -0.5
      vertex 2.45313 -1.67925 -0.5
    endloop
  endfacet
  facet normal 0.612363 -0.353549 0.707117
    outer loop
      vertex 2 0 1.73205
      vertex 2 -0.346409 1.55885
      vertex 2.2 0 1.55885
    endloop
  endfacet
  facet normal 0.61237 -0.353553 0.707109
    outer loop
      vertex 2 -1.30863 1.07773
      vertex 2 -3.4641 0
      vertex 2.8453 -2 0
    endloop
  endfacet
  facet normal -0.612374 0.353551 0.707106
    outer loop
      vertex -2 1.30863 1.07773
      vertex -1 1.73205 1.73205
      vertex -2 3.4641 0
    endloop
  endfacet
  facet normal -0.612375 0.353563 0.7071
    outer loop
      vertex -1 1.73205 1.73205
      vertex -2 1.30863 1.07773
      vertex -1.62265 1 1.55885
    endloop
  endfacet
  facet normal -0.612365 0.353548 0.707115
    outer loop
      vertex -2 0 1.73205
      vertex -1.62265 1 1.55885
      vertex -2 0.346409 1.55885
    endloop
  endfacet
  facet normal -0.612363 0.353548 0.707118
    outer loop
      vertex -1.62265 1 1.55885
      vertex -2 0 1.73205
      vertex -1 1.73205 1.73205
    endloop
  endfacet
  facet normal -0.612372 -0.353554 -0.707107
    outer loop
      vertex -2.8453 -2 0
      vertex -2 -2.4641 -0.5
      vertex -2 -3.4641 0
    endloop
  endfacet
  facet normal -0.612371 -0.35355 -0.70711
    outer loop
      vertex -2 -2.4641 -0.5
      vertex -2.8453 -2 0
      vertex -2.45313 -1.67925 -0.5
    endloop
  endfacet
  facet normal 0 0.707107 -0.707107
    outer loop
      vertex -1.71132 2.9641 -0.5
      vertex 2 3.4641 0
      vertex 1.71132 2.9641 -0.5
    endloop
  endfacet
  facet normal 0 0.707107 -0.707107
    outer loop
      vertex 2 3.4641 0
      vertex -1.71132 2.9641 -0.5
      vertex -2 3.4641 0
    endloop
  endfacet
  facet normal -0.612363 -0.353548 0.707118
    outer loop
      vertex -2 0 1.73205
      vertex -1.62265 -1 1.55885
      vertex -1 -1.73205 1.73205
    endloop
  endfacet
  facet normal -0.612365 -0.353548 0.707115
    outer loop
      vertex -1.62265 -1 1.55885
      vertex -2 0 1.73205
      vertex -2 -0.346409 1.55885
    endloop
  endfacet
  facet normal -0.612375 -0.353563 0.7071
    outer loop
      vertex -2 -1.30863 1.07773
      vertex -1 -1.73205 1.73205
      vertex -1.62265 -1 1.55885
    endloop
  endfacet
  facet normal -0.612374 -0.353551 0.707106
    outer loop
      vertex -1 -1.73205 1.73205
      vertex -2 -1.30863 1.07773
      vertex -2 -3.4641 0
    endloop
  endfacet
  facet normal 0 0 1
    outer loop
      vertex 1 1.73205 1.73205
      vertex 1 -1.73205 1.73205
      vertex 2 0 1.73205
    endloop
  endfacet
  facet normal -0 0 1
    outer loop
      vertex -1 1.73205 1.73205
      vertex 1 -1.73205 1.73205
      vertex 1 1.73205 1.73205
    endloop
  endfacet
  facet normal 0 0 1
    outer loop
      vertex -1 1.73205 1.73205
      vertex -1 -1.73205 1.73205
      vertex 1 -1.73205 1.73205
    endloop
  endfacet
  facet normal 0 -0 1
    outer loop
      vertex -1 -1.73205 1.73205
      vertex -1 1.73205 1.73205
      vertex -2 0 1.73205
    endloop
  endfacet
  facet normal 0.612365 -0.353548 0.707115
    outer loop
      vertex 2 0 1.73205
      vertex 1.62265 -1 1.55885
      vertex 2 -0.346409 1.55885
    endloop
  endfacet
  facet normal 0.612363 -0.353548 0.707118
    outer loop
      vertex 1.62265 -1 1.55885
      vertex 2 0 1.73205
      vertex 1 -1.73205 1.73205
    endloop
  endfacet
  facet normal 0.612375 -0.353563 0.7071
    outer loop
      vertex 1 -1.73205 1.73205
      vertex 2 -1.30863 1.07773
      vertex 1.62265 -1 1.55885
    endloop
  endfacet
  facet normal 0.612374 -0.353551 0.707106
    outer loop
      vertex 2 -1.30863 1.07773
      vertex 1 -1.73205 1.73205
      vertex 2 -3.4641 0
    endloop
  endfacet
  facet normal 0.612366 0.353556 -0.707111
    outer loop
      vertex 2 2.4641 -0.5
      vertex 1.71132 2.9641 -0.5
      vertex 2 3.4641 0
    endloop
  endfacet
  facet normal -0.612366 -0.353556 -0.707111
    outer loop
      vertex -1.71132 -2.9641 -0.5
      vertex -2 -3.4641 0
      vertex -2 -2.4641 -0.5
    endloop
  endfacet
  facet normal -0.612366 0.353556 -0.707111
    outer loop
      vertex -1.71132 2.9641 -0.5
      vertex -2 2.4641 -0.5
      vertex -2 3.4641 0
    endloop
  endfacet
  facet normal -1 0 0
    outer loop
      vertex 3.99 -1.78141 -0.5
      vertex 3.99 -2 0
      vertex 3.99 -1.67925 -0.5
    endloop
  endfacet
  facet normal -1 -0 -0
    outer loop
      vertex 3.99 -2 0
      vertex 3.99 -1.78141 -0.5
      vertex 3.99 -2.11132 0
    endloop
  endfacet
  facet normal -1 0 0
    outer loop
      vertex 3.99 1.78141 -0.5
      vertex 3.99 2 0
      vertex 3.99 2.11132 0
    endloop
  endfacet
  facet normal -1 0 0
    outer loop
      vertex 3.99 2 0
      vertex 3.99 1.78141 -0.5
      vertex 3.99 1.67925 -0.5
    endloop
  endfacet
  facet normal -1 0 0
    outer loop
      vertex 3.99 2 0
      vertex 3.99 1.2 1.38115
      vertex 3.99 2.11132 0
    endloop
  endfacet
  facet normal -1 0 0
    outer loop
      vertex 3.99 1 1.55885
      vertex 3.99 1.2 1.38115
      vertex 3.99 2 0
    endloop
  endfacet
  facet normal -1 0 0
    outer loop
      vertex 3.99 1 1.55885
      vertex 3.99 0.911324 1.81865
      vertex 3.99 1.2 1.38115
    endloop
  endfacet
  facet normal -1 0 0
    outer loop
      vertex 3.99 1 1.55885
      vertex 3.99 -0.911324 1.81865
      vertex 3.99 0.911324 1.81865
    endloop
  endfacet
  facet normal -1 0 0
    outer loop
      vertex 3.99 -1 1.55885
      vertex 3.99 -0.911324 1.81865
      vertex 3.99 1 1.55885
    endloop
  endfacet
  facet normal -1 -0 0
    outer loop
      vertex 3.99 -1 1.55885
      vertex 3.99 -1.2 1.38115
      vertex 3.99 -0.911324 1.81865
    endloop
  endfacet
  facet normal -1 0 0
    outer loop
      vertex 3.99 -2 0
      vertex 3.99 -1.2 1.38115
      vertex 3.99 -1 1.55885
    endloop
  endfacet
  facet normal -1 0 0
    outer loop
      vertex 3.99 -1.2 1.38115
      vertex 3.99 -2 0
      vertex 3.99 -2.11132 0
    endloop
  endfacet
  facet normal 0.189275 0.819576 -0.540804
    outer loop
      vertex 9.72187 1.03504 -0.5
      vertex 9.00758 1.2 -0.5
      vertex 10.4362 1.2 0
    endloop
  endfacet
  facet normal -0.189279 -0.819588 0.540786
    outer loop
      vertex 5.24 -2.4 0
      vertex 3.99 -1.2 1.38115
      vertex 3.99 -2.11132 0
    endloop
  endfacet
  facet normal -0.189276 -0.819587 0.540788
    outer loop
      vertex 3.99 -1.2 1.38115
      vertex 5.24 -2.4 0
      vertex 5.24 -1.2 1.81865
    endloop
  endfacet
  facet normal 0.189274 -0.819587 0.540788
    outer loop
      vertex 5.24 -1.2 1.81865
      vertex 5.24 -2.4 0
      vertex 10.4362 -1.2 0
    endloop
  endfacet
  facet normal -0.189276 0.819587 0.540789
    outer loop
      vertex 3.99 1.2 1.38115
      vertex 3.99 0.911324 1.81865
      vertex 5.24 1.2 1.81865
    endloop
  endfacet
  facet normal 0.573438 0 -0.819249
    outer loop
      vertex 9.72187 -1.03504 -0.5
      vertex 10.4362 1.2 0
      vertex 10.4362 -1.2 0
    endloop
  endfacet
  facet normal 0.573438 0 -0.819249
    outer loop
      vertex 10.4362 1.2 0
      vertex 9.72187 -1.03504 -0.5
      vertex 9.72187 1.03504 -0.5
    endloop
  endfacet
  facet normal -0.189279 0.81959 -0.540782
    outer loop
      vertex 5.24 2.07009 -0.5
      vertex 3.99 2.11132 0
      vertex 5.24 2.4 0
    endloop
  endfacet
  facet normal -0.189279 0.81959 -0.540782
    outer loop
      vertex 3.99 2.11132 0
      vertex 5.24 2.07009 -0.5
      vertex 3.99 1.78141 -0.5
    endloop
  endfacet
  facet normal -0.189276 0.819587 0.540788
    outer loop
      vertex 5.24 2.4 0
      vertex 3.99 1.2 1.38115
      vertex 5.24 1.2 1.81865
    endloop
  endfacet
  facet normal -0.189279 0.819588 0.540786
    outer loop
      vertex 3.99 1.2 1.38115
      vertex 5.24 2.4 0
      vertex 3.99 2.11132 0
    endloop
  endfacet
  facet normal 0 0 1
    outer loop
      vertex 5.24 1.2 1.81865
      vertex 7.83808 -0.599999 1.81865
      vertex 7.83808 0.599999 1.81865
    endloop
  endfacet
  facet normal 0 0 1
    outer loop
      vertex 5.24 1.2 1.81865
      vertex 5.24 -1.2 1.81865
      vertex 7.83808 -0.599999 1.81865
    endloop
  endfacet
  facet normal -0 0 1
    outer loop
      vertex 3.99 0.911324 1.81865
      vertex 5.24 -1.2 1.81865
      vertex 5.24 1.2 1.81865
    endloop
  endfacet
  facet normal 0 0 1
    outer loop
      vertex 5.24 -1.2 1.81865
      vertex 3.99 0.911324 1.81865
      vertex 3.99 -0.911324 1.81865
    endloop
  endfacet
  facet normal 0.573455 0 0.819237
    outer loop
      vertex 7.83808 0.599999 1.81865
      vertex 10.4362 -1.2 0
      vertex 10.4362 1.2 0
    endloop
  endfacet
  facet normal 0.573455 0 0.819237
    outer loop
      vertex 10.4362 -1.2 0
      vertex 7.83808 0.599999 1.81865
      vertex 7.83808 -0.599999 1.81865
    endloop
  endfacet
  facet normal 0.189273 0.819582 -0.540797
    outer loop
      vertex 9.00758 1.2 -0.5
      vertex 5.24 2.4 0
      vertex 10.4362 1.2 0
    endloop
  endfacet
  facet normal 0.189277 0.819591 -0.540782
    outer loop
      vertex 5.24 2.4 0
      vertex 9.00758 1.2 -0.5
      vertex 5.24 2.07009 -0.5
    endloop
  endfacet
  facet normal 0.189274 0.819587 0.540788
    outer loop
      vertex 5.24 2.4 0
      vertex 5.24 1.2 1.81865
      vertex 10.4362 1.2 0
    endloop
  endfacet
  facet normal -0.189276 -0.819587 0.540789
    outer loop
      vertex 3.99 -0.911324 1.81865
      vertex 3.99 -1.2 1.38115
      vertex 5.24 -1.2 1.81865
    endloop
  endfacet
  facet normal 0.189275 -0.819576 -0.540804
    outer loop
      vertex 10.4362 -1.2 0
      vertex 9.00758 -1.2 -0.5
      vertex 9.72187 -1.03504 -0.5
    endloop
  endfacet
  facet normal 0.189275 -0.819585 0.540792
    outer loop
      vertex 7.83808 -0.599999 1.81865
      vertex 5.24 -1.2 1.81865
      vertex 10.4362 -1.2 0
    endloop
  endfacet
  facet normal 0.189275 0.819585 0.540792
    outer loop
      vertex 10.4362 1.2 0
      vertex 5.24 1.2 1.81865
      vertex 7.83808 0.599999 1.81865
    endloop
  endfacet
  facet normal 0.189277 -0.819591 -0.540782
    outer loop
      vertex 9.00758 -1.2 -0.5
      vertex 5.24 -2.4 0
      vertex 5.24 -2.07009 -0.5
    endloop
  endfacet
  facet normal 0.189273 -0.819582 -0.540797
    outer loop
      vertex 5.24 -2.4 0
      vertex 9.00758 -1.2 -0.5
      vertex 10.4362 -1.2 0
    endloop
  endfacet
  facet normal -0.189279 -0.81959 -0.540782
    outer loop
      vertex 3.99 -1.78141 -0.5
      vertex 5.24 -2.4 0
      vertex 3.99 -2.11132 0
    endloop
  endfacet
  facet normal -0.189279 -0.81959 -0.540782
    outer loop
      vertex 5.24 -2.4 0
      vertex 3.99 -1.78141 -0.5
      vertex 5.24 -2.07009 -0.5
    endloop
  endfacet
  facet normal 0 0 -1
    outer loop
      vertex -13.24 -2.07009 -0.5
      vertex -11.99 1.49273 -0.5
      vertex -11.99 -1.49273 -0.5
    endloop
  endfacet
  facet normal 0 0 -1
    outer loop
      vertex -13.24 -2.07009 -0.5
      vertex -13.24 2.07009 -0.5
      vertex -11.99 1.49273 -0.5
    endloop
  endfacet
  facet normal 0 0 -1
    outer loop
      vertex -15.1238 -1.2 -0.5
      vertex -13.24 2.07009 -0.5
      vertex -13.24 -2.07009 -0.5
    endloop
  endfacet
  facet normal 0 0 -1
    outer loop
      vertex -15.1238 -1.2 -0.5
      vertex -15.1238 1.2 -0.5
      vertex -13.24 2.07009 -0.5
    endloop
  endfacet
  facet normal 0 0 -1
    outer loop
      vertex -15.4809 -1.03504 -0.5
      vertex -15.1238 1.2 -0.5
      vertex -15.1238 -1.2 -0.5
    endloop
  endfacet
  facet normal 0 0 -1
    outer loop
      vertex -15.1238 1.2 -0.5
      vertex -15.4809 -1.03504 -0.5
      vertex -15.4809 1.03504 -0.5
    endloop
  endfacet
  facet normal -0.359742 0.778758 -0.513928
    outer loop
      vertex -15.1238 1.2 -0.5
      vertex -15.4809 1.03504 -0.5
      vertex -15.8381 1.2 0
    endloop
  endfacet
  facet normal 0.359714 -0.778804 0.513878
    outer loop
      vertex -13.24 -2.4 0
      vertex -11.99 -1.2 0.943653
      vertex -13.24 -1.2 1.81865
    endloop
  endfacet
  facet normal 0.359714 -0.778804 0.513878
    outer loop
      vertex -11.99 -1.2 0.943653
      vertex -13.24 -2.4 0
      vertex -11.99 -1.82265 0
    endloop
  endfacet
  facet normal -0.359711 -0.778805 0.513879
    outer loop
      vertex -13.24 -2.4 0
      vertex -13.24 -1.2 1.81865
      vertex -15.8381 -1.2 0
    endloop
  endfacet
  facet normal 0.359712 0.778797 0.513889
    outer loop
      vertex -11.99 0.794078 1.55885
      vertex -13.24 1.2 1.81865
      vertex -11.99 0.622649 1.81865
    endloop
  endfacet
  facet normal 0.359712 0.778806 0.513876
    outer loop
      vertex -13.24 1.2 1.81865
      vertex -11.99 0.794078 1.55885
      vertex -11.99 1.2 0.943653
    endloop
  endfacet
  facet normal -0.813689 0 -0.5813
    outer loop
      vertex -15.4809 -1.03504 -0.5
      vertex -15.8381 1.2 0
      vertex -15.4809 1.03504 -0.5
    endloop
  endfacet
  facet normal -0.813689 -0 -0.5813
    outer loop
      vertex -15.8381 1.2 0
      vertex -15.4809 -1.03504 -0.5
      vertex -15.8381 -1.2 0
    endloop
  endfacet
  facet normal 0.359712 0.778801 -0.513884
    outer loop
      vertex -11.99 1.49273 -0.5
      vertex -13.24 2.4 0
      vertex -11.99 1.82265 0
    endloop
  endfacet
  facet normal 0.359721 0.778805 -0.513871
    outer loop
      vertex -13.24 2.4 0
      vertex -11.99 1.49273 -0.5
      vertex -13.24 2.07009 -0.5
    endloop
  endfacet
  facet normal 0.359714 0.778804 0.513878
    outer loop
      vertex -13.24 2.4 0
      vertex -11.99 1.2 0.943653
      vertex -11.99 1.82265 0
    endloop
  endfacet
  facet normal 0.359714 0.778804 0.513878
    outer loop
      vertex -11.99 1.2 0.943653
      vertex -13.24 2.4 0
      vertex -13.24 1.2 1.81865
    endloop
  endfacet
  facet normal 0 0 1
    outer loop
      vertex -13.24 1.2 1.81865
      vertex -11.99 -0.622649 1.81865
      vertex -11.99 0.622649 1.81865
    endloop
  endfacet
  facet normal 0 0 1
    outer loop
      vertex -13.24 1.2 1.81865
      vertex -13.24 -1.2 1.81865
      vertex -11.99 -0.622649 1.81865
    endloop
  endfacet
  facet normal -0 0 1
    outer loop
      vertex -14.539 0.599999 1.81865
      vertex -13.24 -1.2 1.81865
      vertex -13.24 1.2 1.81865
    endloop
  endfacet
  facet normal 0 0 1
    outer loop
      vertex -13.24 -1.2 1.81865
      vertex -14.539 0.599999 1.81865
      vertex -14.539 -0.599999 1.81865
    endloop
  endfacet
  facet normal -0.81372 0 0.581257
    outer loop
      vertex -15.8381 1.2 0
      vertex -14.539 -0.599999 1.81865
      vertex -14.539 0.599999 1.81865
    endloop
  endfacet
  facet normal -0.81372 0 0.581257
    outer loop
      vertex -14.539 -0.599999 1.81865
      vertex -15.8381 1.2 0
      vertex -15.8381 -1.2 0
    endloop
  endfacet
  facet normal -0.359715 0.778807 -0.513872
    outer loop
      vertex -15.1238 1.2 -0.5
      vertex -13.24 2.4 0
      vertex -13.24 2.07009 -0.5
    endloop
  endfacet
  facet normal -0.35971 0.778803 -0.513882
    outer loop
      vertex -13.24 2.4 0
      vertex -15.1238 1.2 -0.5
      vertex -15.8381 1.2 0
    endloop
  endfacet
  facet normal -0.359711 0.778805 0.513879
    outer loop
      vertex -13.24 1.2 1.81865
      vertex -13.24 2.4 0
      vertex -15.8381 1.2 0
    endloop
  endfacet
  facet normal 0.359712 -0.778797 0.513889
    outer loop
      vertex -13.24 -1.2 1.81865
      vertex -11.99 -0.794078 1.55885
      vertex -11.99 -0.622649 1.81865
    endloop
  endfacet
  facet normal 0.359712 -0.778806 0.513876
    outer loop
      vertex -11.99 -0.794078 1.55885
      vertex -13.24 -1.2 1.81865
      vertex -11.99 -1.2 0.943653
    endloop
  endfacet
  facet normal -0.359742 -0.778758 -0.513928
    outer loop
      vertex -15.4809 -1.03504 -0.5
      vertex -15.1238 -1.2 -0.5
      vertex -15.8381 -1.2 0
    endloop
  endfacet
  facet normal -0.35972 -0.778792 0.513891
    outer loop
      vertex -13.24 -1.2 1.81865
      vertex -14.539 -0.599999 1.81865
      vertex -15.8381 -1.2 0
    endloop
  endfacet
  facet normal -0.35972 0.778792 0.513891
    outer loop
      vertex -14.539 0.599999 1.81865
      vertex -13.24 1.2 1.81865
      vertex -15.8381 1.2 0
    endloop
  endfacet
  facet normal -0.35971 -0.778803 -0.513882
    outer loop
      vertex -15.1238 -1.2 -0.5
      vertex -13.24 -2.4 0
      vertex -15.8381 -1.2 0
    endloop
  endfacet
  facet normal -0.359715 -0.778807 -0.513872
    outer loop
      vertex -13.24 -2.4 0
      vertex -15.1238 -1.2 -0.5
      vertex -13.24 -2.07009 -0.5
    endloop
  endfacet
  facet normal 0.359715 -0.778807 -0.513872
    outer loop
      vertex -13.24 -2.07009 -0.5
      vertex -11.99 -1.82265 0
      vertex -13.24 -2.4 0
    endloop
  endfacet
  facet normal 0.359718 -0.778799 -0.513883
    outer loop
      vertex -11.99 -1.82265 0
      vertex -13.24 -2.07009 -0.5
      vertex -11.99 -1.49273 -0.5
    endloop
  endfacet
endsolid OpenSCAD_Model
