<?xml version="1.0" standalone="no"?>
<!DOCTYPE svg PUBLIC "-//W3C//DTD SVG 1.1//EN" "http://www.w3.org/Graphics/SVG/1.1/DTD/svg11.dtd">
<svg width="79" height="27" viewBox="-39 -10 79 27" xmlns="http://www.w3.org/2000/svg" version="1.1">
<title>OpenSCAD Model</title>
<path d="
M -38.2433,5.93684 L -32.6557,11.5245 L -31.1807,11.8848 L -27.5,12.7839 L -24.534,13.3766 L -21,14.0829
 L -17.9412,14.5584 L -14.5,15.0933 L -11.374,15.4403 L -8,15.815 L -4.82014,16.0268 L -1.5,16.248
 L 1.72727,16.3196 L 5,16.3923 L 5,16.3923 L 5,16.3923 L 10.1962,11.1962 L 10.1962,5.93684
 z
M -5.83146,4.975 L 39.8,4.975 L 39.8,3.80244 L 39.6666,3.7472 L 39.6666,3.7472 L 39.2528,3.33335
 L 39.0288,2.79263 L 39.0288,2.20736 L 39.2528,1.66664 L 39.6666,1.2528 L 39.6666,1.2528 L 39.8,1.19756
 L 39.8,0.0263157 L 39.8074,0.0263157 L 39.8074,-0 L 39.8074,-0.980171 L 39.8074,-0.980171 L 39.3329,-1.57656
 L 39,-1 L 30.3397,-6 L 30.5865,-6.42741 L 25.3757,-7.7301 L 18.8559,-8.81921 L 18.8559,-8.81921
 L 18.8559,-8.81921 L 11.6114,-9.5694 L 3.92068,-9.95185 L 3.92068,-9.95185 L -1.83182,-9.95185 z
" stroke="black" fill="lightgray" stroke-width="0.5"/></svg>
