solid OpenSCAD_Model
  facet normal 0 0 -1
    outer loop
      vertex -3.5 -3 -0.673204
      vertex -3.8455 3.47553 -0.673204
      vertex -3.5 3 -0.673204
    endloop
  endfacet
  facet normal 0.135031 -0.549133 0.824754
    outer loop
      vertex 2 -0.5 0.866024
      vertex -3.53422 -0.5 1.7721
      vertex -3.69099 -3.95106 -0.5
    endloop
  endfacet
  facet normal 0.317507 -0.601368 -0.733175
    outer loop
      vertex -3.69099 -3.95106 -0.5
      vertex 3.95382 -0.5 -0.0199986
      vertex 4 -0.5 0
    endloop
  endfacet
  facet normal 0.182958 0.283434 -0.941377
    outer loop
      vertex 2 0.5 -0.433012
      vertex -3.8455 3.47553 -0.673204
      vertex -3.69099 3.95106 -0.5
    endloop
  endfacet
  facet normal 0.161571 -0 0.986861
    outer loop
      vertex -3.53422 -0.5 1.7721
      vertex 2 0.5 0.866024
      vertex -3.53422 0.5 1.7721
    endloop
  endfacet
  facet normal -0.0143299 0.550106 0.834972
    outer loop
      vertex -6.28997 0.970037 1.41939
      vertex -6.25833 0.964547 1.42355
      vertex -3.69099 3.95106 -0.5
    endloop
  endfacet
  facet normal -0.0458603 -0.568749 0.821232
    outer loop
      vertex -6.28997 -0.970037 1.41939
      vertex -6.91552 -0.737763 1.54532
      vertex -3.69099 -3.95106 -0.5
    endloop
  endfacet
  facet normal 0.161571 -0 0.986861
    outer loop
      vertex 2 -0.5 0.866024
      vertex 2 0.5 0.866024
      vertex -3.53422 -0.5 1.7721
    endloop
  endfacet
  facet normal -0.635397 0 -0.772185
    outer loop
      vertex -7.84453 -0.646946 0.767894
      vertex -8.30209 0.793892 1.1444
      vertex -7.84453 0.646946 0.767894
    endloop
  endfacet
  facet normal 0.0649949 0.0472226 -0.996768
    outer loop
      vertex -3.5 3 -0.673204
      vertex -3.8455 3.47553 -0.673204
      vertex 2 0.5 -0.433012
    endloop
  endfacet
  facet normal -0.141755 -0.631048 0.762682
    outer loop
      vertex -7.50843 -0.715911 1.46726
      vertex -7.60757 -0.709413 1.45421
      vertex -3.69099 -3.95106 -0.5
    endloop
  endfacet
  facet normal -0.0458603 0.568749 0.821232
    outer loop
      vertex -6.91552 0.737763 1.54532
      vertex -6.28997 0.970037 1.41939
      vertex -3.69099 3.95106 -0.5
    endloop
  endfacet
  facet normal -0.223327 -0.687309 0.691181
    outer loop
      vertex -3.69099 -3.95106 -0.5
      vertex -8.29414 -0.790499 1.15554
      vertex -4.80902 -3.58778 -0.5
    endloop
  endfacet
  facet normal -0.0217506 0.521145 0.853191
    outer loop
      vertex -6.91552 0.737763 1.54532
      vertex -6.25833 0.964547 1.42355
      vertex -6.28997 0.970037 1.41939
    endloop
  endfacet
  facet normal 0.278388 -0.713559 0.642911
    outer loop
      vertex 4 -0.5 0
      vertex 2 -0.5 0.866024
      vertex -3.69099 -3.95106 -0.5
    endloop
  endfacet
  facet normal 0.19686 0.306556 -0.931273
    outer loop
      vertex -3.69099 3.95106 -0.5
      vertex 3.95382 0.5 -0.0199986
      vertex 2 0.5 -0.433012
    endloop
  endfacet
  facet normal -0.121638 -0.374351 -0.919274
    outer loop
      vertex -4.80902 -3.58778 -0.5
      vertex -4.40451 -3.29389 -0.673204
      vertex -3.8455 -3.47553 -0.673204
    endloop
  endfacet
  facet normal -0.121638 -0.374353 -0.919274
    outer loop
      vertex -4.80902 -3.58778 -0.5
      vertex -3.8455 -3.47553 -0.673204
      vertex -3.69099 -3.95106 -0.5
    endloop
  endfacet
  facet normal -0.81398 0 0.580893
    outer loop
      vertex -8.29414 0.790499 1.15554
      vertex -8.30209 0.793892 1.1444
      vertex -8.29414 -0.790499 1.15554
    endloop
  endfacet
  facet normal -0.390108 -0.00569986 -0.920751
    outer loop
      vertex -7.84453 -0.646946 0.767894
      vertex -4.40451 -3.29389 -0.673204
      vertex -4.80902 -3.58778 -0.5
    endloop
  endfacet
  facet normal 0.0687004 -0.550774 0.831822
    outer loop
      vertex -3.69099 -3.95106 -0.5
      vertex -3.53422 -0.5 1.7721
      vertex -3.58132 -0.5 1.77599
    endloop
  endfacet
  facet normal 0.135031 0.549133 0.824754
    outer loop
      vertex -3.53422 0.5 1.7721
      vertex 2 0.5 0.866024
      vertex -3.69099 3.95106 -0.5
    endloop
  endfacet
  facet normal -0.0218386 -0.52135 0.853063
    outer loop
      vertex -5.54537 -0.5 1.72571
      vertex -6.25833 -0.964547 1.42355
      vertex -3.58132 -0.5 1.77599
    endloop
  endfacet
  facet normal -0.0218429 -0.521345 0.853066
    outer loop
      vertex -6.91552 -0.737763 1.54532
      vertex -6.25833 -0.964547 1.42355
      vertex -5.54537 -0.5 1.72571
    endloop
  endfacet
  facet normal -0.0218429 0.521345 0.853066
    outer loop
      vertex -5.54537 0.5 1.72571
      vertex -6.25833 0.964547 1.42355
      vertex -6.91552 0.737763 1.54532
    endloop
  endfacet
  facet normal -0.130559 0.000818929 0.99144
    outer loop
      vertex -6.91552 0.737763 1.54532
      vertex -7.50843 0.715911 1.46726
      vertex -7.60757 0.709413 1.45421
    endloop
  endfacet
  facet normal 0.397394 0 -0.917648
    outer loop
      vertex 4 -0.5 0
      vertex 3.95382 -0.5 -0.0199986
      vertex 4 0.5 0
    endloop
  endfacet
  facet normal 0.317507 0.601368 -0.733175
    outer loop
      vertex 4 0.5 0
      vertex 3.95382 0.5 -0.0199986
      vertex -3.69099 3.95106 -0.5
    endloop
  endfacet
  facet normal 0.0436297 0 -0.999048
    outer loop
      vertex 2 -0.5 -0.433012
      vertex -3.5 3 -0.673204
      vertex 2 0.5 -0.433012
    endloop
  endfacet
  facet normal 0.0436297 0 -0.999048
    outer loop
      vertex -3.5 -3 -0.673204
      vertex -3.5 3 -0.673204
      vertex 2 -0.5 -0.433012
    endloop
  endfacet
  facet normal -0.130559 -0.000818929 0.99144
    outer loop
      vertex -6.91552 -0.737763 1.54532
      vertex -7.60757 -0.709413 1.45421
      vertex -7.50843 -0.715911 1.46726
    endloop
  endfacet
  facet normal -0.380146 -0.773639 0.506923
    outer loop
      vertex -8.29414 -0.790499 1.15554
      vertex -8.30209 -0.793892 1.1444
      vertex -4.80902 -3.58778 -0.5
    endloop
  endfacet
  facet normal -0.567259 -0.246782 -0.785694
    outer loop
      vertex -4.80902 -3.58778 -0.5
      vertex -8.30209 -0.793892 1.1444
      vertex -7.84453 -0.646946 0.767894
    endloop
  endfacet
  facet normal -0.386387 -0 -0.922337
    outer loop
      vertex -7.84453 0.646946 0.767894
      vertex -4.40451 -3.29389 -0.673204
      vertex -7.84453 -0.646946 0.767894
    endloop
  endfacet
  facet normal -0.567259 0.246782 -0.785694
    outer loop
      vertex -7.84453 0.646946 0.767894
      vertex -8.30209 0.793892 1.1444
      vertex -4.80902 3.58778 -0.5
    endloop
  endfacet
  facet normal 0.08231 0 0.996607
    outer loop
      vertex -3.53422 -0.5 1.7721
      vertex -3.58132 0.5 1.77599
      vertex -3.58132 -0.5 1.77599
    endloop
  endfacet
  facet normal 0.397359 0 0.917663
    outer loop
      vertex 4 -0.5 0
      vertex 2 0.5 0.866024
      vertex 2 -0.5 0.866024
    endloop
  endfacet
  facet normal -0.0255918 0 0.999672
    outer loop
      vertex -3.58132 -0.5 1.77599
      vertex -3.58132 0.5 1.77599
      vertex -5.54537 -0.5 1.72571
    endloop
  endfacet
  facet normal -0.223327 0.687309 0.691181
    outer loop
      vertex -4.80902 3.58778 -0.5
      vertex -8.29414 0.790499 1.15554
      vertex -3.69099 3.95106 -0.5
    endloop
  endfacet
  facet normal -0.0255918 0 0.999672
    outer loop
      vertex -5.54537 -0.5 1.72571
      vertex -3.58132 0.5 1.77599
      vertex -5.54537 0.5 1.72571
    endloop
  endfacet
  facet normal -0.130527 2.20968e-05 0.991445
    outer loop
      vertex -6.91552 0.737763 1.54532
      vertex -7.60757 0.709413 1.45421
      vertex -5.54537 0.5 1.72571
    endloop
  endfacet
  facet normal -0.0217506 -0.521145 0.853191
    outer loop
      vertex -6.28997 -0.970037 1.41939
      vertex -6.25833 -0.964547 1.42355
      vertex -6.91552 -0.737763 1.54532
    endloop
  endfacet
  facet normal -0.130527 -2.20968e-05 0.991445
    outer loop
      vertex -5.54537 -0.5 1.72571
      vertex -7.60757 -0.709413 1.45421
      vertex -6.91552 -0.737763 1.54532
    endloop
  endfacet
  facet normal -0.124904 -0.618929 0.775452
    outer loop
      vertex -3.69099 -3.95106 -0.5
      vertex -6.91552 -0.737763 1.54532
      vertex -7.50843 -0.715911 1.46726
    endloop
  endfacet
  facet normal -0.130529 0 0.991444
    outer loop
      vertex -5.54537 0.5 1.72571
      vertex -7.60757 0.709413 1.45421
      vertex -5.54537 -0.5 1.72571
    endloop
  endfacet
  facet normal 0.206817 0 -0.97838
    outer loop
      vertex 3.95382 0.5 -0.0199986
      vertex 3.95382 -0.5 -0.0199986
      vertex 2 0.5 -0.433012
    endloop
  endfacet
  facet normal 0.397394 0 -0.917648
    outer loop
      vertex 4 0.5 0
      vertex 3.95382 -0.5 -0.0199986
      vertex 3.95382 0.5 -0.0199986
    endloop
  endfacet
  facet normal 0.397359 0 0.917663
    outer loop
      vertex 4 0.5 0
      vertex 2 0.5 0.866024
      vertex 4 -0.5 0
    endloop
  endfacet
  facet normal 0.278388 0.713559 0.642911
    outer loop
      vertex -3.69099 3.95106 -0.5
      vertex 2 0.5 0.866024
      vertex 4 0.5 0
    endloop
  endfacet
  facet normal 0.0649949 -0.0472226 -0.996768
    outer loop
      vertex 2 -0.5 -0.433012
      vertex -3.8455 -3.47553 -0.673204
      vertex -3.5 -3 -0.673204
    endloop
  endfacet
  facet normal 0.182958 -0.283434 -0.941377
    outer loop
      vertex -3.69099 -3.95106 -0.5
      vertex -3.8455 -3.47553 -0.673204
      vertex 2 -0.5 -0.433012
    endloop
  endfacet
  facet normal -0.386387 -0 -0.922337
    outer loop
      vertex -4.40451 3.29389 -0.673204
      vertex -4.40451 -3.29389 -0.673204
      vertex -7.84453 0.646946 0.767894
    endloop
  endfacet
  facet normal 0 0 -1
    outer loop
      vertex -4.40451 -3.29389 -0.673204
      vertex -3.8455 3.47553 -0.673204
      vertex -3.8455 -3.47553 -0.673204
    endloop
  endfacet
  facet normal -0.121638 0.374353 -0.919274
    outer loop
      vertex -3.69099 3.95106 -0.5
      vertex -3.8455 3.47553 -0.673204
      vertex -4.80902 3.58778 -0.5
    endloop
  endfacet
  facet normal -0.220944 -0.685289 0.693947
    outer loop
      vertex -3.69099 -3.95106 -0.5
      vertex -7.60757 -0.709413 1.45421
      vertex -8.29414 -0.790499 1.15554
    endloop
  endfacet
  facet normal -0.130529 0 0.991444
    outer loop
      vertex -5.54537 -0.5 1.72571
      vertex -7.60757 0.709413 1.45421
      vertex -7.60757 -0.709413 1.45421
    endloop
  endfacet
  facet normal -0.574875 0 0.818241
    outer loop
      vertex -7.92931 0.646946 1.41186
      vertex -8.29414 0.790499 1.15554
      vertex -7.92931 -0.646946 1.41186
    endloop
  endfacet
  facet normal -0.81398 0 0.580893
    outer loop
      vertex -8.29414 -0.790499 1.15554
      vertex -8.30209 0.793892 1.1444
      vertex -8.30209 -0.793892 1.1444
    endloop
  endfacet
  facet normal -0.380146 0.773639 0.506923
    outer loop
      vertex -4.80902 3.58778 -0.5
      vertex -8.30209 0.793892 1.1444
      vertex -8.29414 0.790499 1.15554
    endloop
  endfacet
  facet normal 0.08231 0 0.996607
    outer loop
      vertex -3.53422 0.5 1.7721
      vertex -3.58132 0.5 1.77599
      vertex -3.53422 -0.5 1.7721
    endloop
  endfacet
  facet normal 0.0687004 0.550774 0.831822
    outer loop
      vertex -3.69099 3.95106 -0.5
      vertex -3.58132 0.5 1.77599
      vertex -3.53422 0.5 1.7721
    endloop
  endfacet
  facet normal -0.0143299 -0.550106 0.834972
    outer loop
      vertex -3.69099 -3.95106 -0.5
      vertex -6.25833 -0.964547 1.42355
      vertex -6.28997 -0.970037 1.41939
    endloop
  endfacet
  facet normal -0.014448 -0.550177 0.834923
    outer loop
      vertex -3.58132 -0.5 1.77599
      vertex -6.25833 -0.964547 1.42355
      vertex -3.69099 -3.95106 -0.5
    endloop
  endfacet
  facet normal -0.141755 0.631048 0.762682
    outer loop
      vertex -7.60757 0.709413 1.45421
      vertex -7.50843 0.715911 1.46726
      vertex -3.69099 3.95106 -0.5
    endloop
  endfacet
  facet normal -0.130502 0 0.991448
    outer loop
      vertex -7.92931 -0.646946 1.41186
      vertex -7.60757 0.709413 1.45421
      vertex -7.92931 0.646946 1.41186
    endloop
  endfacet
  facet normal 0.19686 -0.306556 -0.931273
    outer loop
      vertex 2 -0.5 -0.433012
      vertex 3.95382 -0.5 -0.0199986
      vertex -3.69099 -3.95106 -0.5
    endloop
  endfacet
  facet normal 0.206817 0 -0.97838
    outer loop
      vertex 2 0.5 -0.433012
      vertex 3.95382 -0.5 -0.0199986
      vertex 2 -0.5 -0.433012
    endloop
  endfacet
  facet normal -0.121638 0.374351 -0.919274
    outer loop
      vertex -4.80902 3.58778 -0.5
      vertex -3.8455 3.47553 -0.673204
      vertex -4.40451 3.29389 -0.673204
    endloop
  endfacet
  facet normal 0 0 -1
    outer loop
      vertex -4.40451 3.29389 -0.673204
      vertex -3.8455 3.47553 -0.673204
      vertex -4.40451 -3.29389 -0.673204
    endloop
  endfacet
  facet normal -0.223872 -0.679163 0.699013
    outer loop
      vertex -7.60757 -0.709413 1.45421
      vertex -7.92931 -0.646946 1.41186
      vertex -8.29414 -0.790499 1.15554
    endloop
  endfacet
  facet normal -0.130502 0 0.991448
    outer loop
      vertex -7.60757 -0.709413 1.45421
      vertex -7.60757 0.709413 1.45421
      vertex -7.92931 -0.646946 1.41186
    endloop
  endfacet
  facet normal -0.220944 0.685289 0.693947
    outer loop
      vertex -8.29414 0.790499 1.15554
      vertex -7.60757 0.709413 1.45421
      vertex -3.69099 3.95106 -0.5
    endloop
  endfacet
  facet normal -0.574875 0 0.818241
    outer loop
      vertex -7.92931 -0.646946 1.41186
      vertex -8.29414 0.790499 1.15554
      vertex -8.29414 -0.790499 1.15554
    endloop
  endfacet
  facet normal -0.0218386 0.52135 0.853063
    outer loop
      vertex -3.58132 0.5 1.77599
      vertex -6.25833 0.964547 1.42355
      vertex -5.54537 0.5 1.72571
    endloop
  endfacet
  facet normal -0.014448 0.550177 0.834923
    outer loop
      vertex -3.69099 3.95106 -0.5
      vertex -6.25833 0.964547 1.42355
      vertex -3.58132 0.5 1.77599
    endloop
  endfacet
  facet normal -0.124904 0.618929 0.775452
    outer loop
      vertex -3.69099 3.95106 -0.5
      vertex -7.50843 0.715911 1.46726
      vertex -6.91552 0.737763 1.54532
    endloop
  endfacet
  facet normal -0.635397 0 -0.772185
    outer loop
      vertex -8.30209 -0.793892 1.1444
      vertex -8.30209 0.793892 1.1444
      vertex -7.84453 -0.646946 0.767894
    endloop
  endfacet
  facet normal -0.223872 0.679163 0.699013
    outer loop
      vertex -7.92931 0.646946 1.41186
      vertex -7.60757 0.709413 1.45421
      vertex -8.29414 0.790499 1.15554
    endloop
  endfacet
  facet normal -0.390108 0.00569986 -0.920751
    outer loop
      vertex -4.80902 3.58778 -0.5
      vertex -4.40451 3.29389 -0.673204
      vertex -7.84453 0.646946 0.767894
    endloop
  endfacet
  facet normal 0 0 -1
    outer loop
      vertex -3.8455 -3.47553 -0.673204
      vertex -3.8455 3.47553 -0.673204
      vertex -3.5 -3 -0.673204
    endloop
  endfacet
endsolid OpenSCAD_Model
