<?xml version="1.0" standalone="no"?>
<!DOCTYPE svg PUBLIC "-//W3C//DTD SVG 1.1//EN" "http://www.w3.org/Graphics/SVG/1.1/DTD/svg11.dtd">
<svg width="80" height="31" viewBox="-60 -3 80 31" xmlns="http://www.w3.org/2000/svg" version="1.1">
<title>OpenSCAD Model</title>
<path d="
M -59.8555,3.26431 L -58.7082,6.72512 L -58.7082,6.72512 L -58.7082,6.72512 L -56.4576,9.98514 L -53.2707,12.8469
 L -36.3464,19.0068 L -32.9405,19.4133 L -27.0595,19.4133 L -21.2915,18.7249 L -21.2915,18.7249 L -21.2915,18.7249
 L -15.8581,17.3746 L -10.9682,15.4142 L -10.9682,15.4142 L -10.9682,15.4142 L -6.80969,12.9191 L -6.80969,12.9191
 L -3.54237,9.98514 L -3.29004,9.61963 L -3.38893,9.57867 L -3.38893,9.57867 L -3.38893,9.57867 L -4.07867,8.88893
 L -4.07867,8.88893 L -4.45196,7.98773 L -4.45196,7.01227 L -4.07867,6.11107 L -4.07867,6.11107 L -3.38893,5.42133
 L -3.38893,5.42133 L -3.38893,5.42133 L -2.48773,5.04804 L -1.51227,5.04804 L -0.829554,5.33083 L -0.144463,3.26431
 L -0.144463,3 L 7.5,3 L 7.5,2.75 L 10,2.75 L 10,2.5 L 18,2.5
 L 18,2.5 L 20,1.5 L 20,-0 L 20,-1.5 L 18,-2.5 L 18,-2.5
 L 10,-2.5 L 10,-2.75 L 7.5,-2.75 L 7.5,-3 L -7.5,-3 L -7.5,-2.75
 L -10,-2.75 L -10,-2.5 L -18,-2.5 L -18,-2.5 L -20,-1.5 L -20,-0.190396
 L -21.2915,-0.222493 L -21.2915,-0.222493 L -21.2915,-0.222493 L -27.0595,-0.291332 L -32.9405,-0.291332 L -38.7085,-0.222493
 L -38.7085,-0.222493 L -38.7085,-0.222493 L -44.1419,-0.087458 L -46.3234,-0 L -49.0318,0.108581 L -49.0318,0.108581
 L -53.1903,0.358092 L -53.1903,0.358092 L -56.4576,0.651486 L -58.7082,0.977488 L -58.7082,0.977488 L -59.8555,1.32357
 z
M -48.414,21.9684 L -45.6047,24.7777 L -44.3253,24.9424 L -40.8333,25.3919 L -38.0194,25.6883 L -34.6667,26.0415
 L -31.7647,26.2792 L -28.5,26.5466 L -25.5344,26.7202 L -22.3333,26.9075 L -19.3165,27.0134 L -16.1667,27.124
 L -13.1049,27.1598 L -10,27.1962 L -10,27.1962 L -7.40192,24.5981 L -7.40192,21.9684 z
" stroke="black" fill="lightgray" stroke-width="0.5"/></svg>
