solid OpenSCAD_Model
  facet normal 0.00487355 -0.0989683 0.995079
    outer loop
      vertex 0 -1.96034 9.95185
      vertex 0 -5.80569 9.5694
      vertex 2.26527 -5.69414 9.5694
    endloop
  endfacet
  facet normal -0.0496674 0.00976322 0.998718
    outer loop
      vertex -3.92068 0 9.95185
      vertex -5.95021 0.307825 9.84791
      vertex -5.94939 0 9.85096
    endloop
  endfacet
  facet normal 0.0989036 0.0600082 0.993286
    outer loop
      vertex 17.4206 3.60791 8.81921
      vertex 10.7275 2.22174 9.5694
      vertex 11.3883 1.13263 9.5694
    endloop
  endfacet
  facet normal 0.421137 0.450215 0.787369
    outer loop
      vertex 35.3639 7.3241 2.90285
      vertex 29.3316 9.79938 4.71397
      vertex 32.5916 6.74993 4.71397
    endloop
  endfacet
  facet normal 0.253721 -0.416455 0.873035
    outer loop
      vertex 25.7094 -8.58923 6.34393
      vertex 21.864 -10.932 6.34393
      vertex 24.9445 -12.4722 4.71397
    endloop
  endfacet
  facet normal 0.236878 -0.886339 0.397859
    outer loop
      vertex 22.1158 -16.5493 0.980171
      vertex 14.6482 -17.682 2.90285
      vertex 15.2336 -18.3886 0.980171
    endloop
  endfacet
  facet normal 0.114156 0.752647 0.648452
    outer loop
      vertex 7.46759 18.7711 2.90285
      vertex 6.88217 17.2995 4.71397
      vertex 14.6482 17.682 2.90285
    endloop
  endfacet
  facet normal 0.0315906 0.0769856 0.996532
    outer loop
      vertex 6.45094 4.82726 9.5694
      vertex 2.77234 1.38617 9.95185
      vertex 8.21049 4.10524 9.5694
    endloop
  endfacet
  facet normal 0.24225 0.0482679 0.969012
    outer loop
      vertex 30.8443 0.0312177 6.36141
      vertex 25.3757 0 7.7301
      vertex 30.845 0 6.36279
    endloop
  endfacet
  facet normal 0.24226 0.0477222 0.969037
    outer loop
      vertex 25.3757 0 7.7301
      vertex 30.8443 0.0312177 6.36141
      vertex 24.8881 2.47528 7.7301
    endloop
  endfacet
  facet normal 0.459162 0.753629 0.470334
    outer loop
      vertex 33.0986 11.0579 0.980171
      vertex 27.0664 13.5332 2.90285
      vertex 31.8267 10.6329 2.90285
    endloop
  endfacet
  facet normal 0.253724 0.416456 0.873034
    outer loop
      vertex 29.3316 9.79938 4.71397
      vertex 24.9445 12.4722 4.71397
      vertex 25.7094 8.58923 6.34393
    endloop
  endfacet
  facet normal 0.514078 0.101273 0.851744
    outer loop
      vertex 36.3323 3.61347 3.64735
      vertex 35.6051 2.5 4.21865
      vertex 36.389 2.5 3.74552
    endloop
  endfacet
  facet normal 0.514068 0.101282 0.851749
    outer loop
      vertex 35.6051 2.5 4.21865
      vertex 36.3323 3.61347 3.64735
      vertex 34.599 3.44109 4.71397
    endloop
  endfacet
  facet normal 0.210743 0.225284 0.951228
    outer loop
      vertex 25.7094 8.58923 6.34393
      vertex 23.4441 4.85543 7.7301
      vertex 28.5667 5.91636 6.34393
    endloop
  endfacet
  facet normal -0.00998639 0.202793 0.979171
    outer loop
      vertex 0 9.42793 8.81921
      vertex -3.6786 9.24678 8.81921
      vertex -2.26527 5.69414 9.5694
    endloop
  endfacet
  facet normal 0.0477429 0.0289672 0.99844
    outer loop
      vertex 10.7275 2.22174 9.5694
      vertex 3.84535 0.382442 9.95185
      vertex 11.3883 1.13263 9.5694
    endloop
  endfacet
  facet normal 0.0315906 -0.0769856 0.996532
    outer loop
      vertex 8.21049 -4.10524 9.5694
      vertex 2.77234 -1.38617 9.95185
      vertex 6.45094 -4.82726 9.5694
    endloop
  endfacet
  facet normal -0.0296107 -0.195225 0.980311
    outer loop
      vertex -6.14846 -7.42185 9.10804
      vertex -2.26527 -5.69414 9.5694
      vertex -4.44349 -5.36376 9.5694
    endloop
  endfacet
  facet normal -0.0296098 -0.195227 0.980311
    outer loop
      vertex -2.26527 -5.69414 9.5694
      vertex -6.14846 -7.42185 9.10804
      vertex -6.18395 -8.0816 8.97558
    endloop
  endfacet
  facet normal -0.0496644 -0.00978246 0.998718
    outer loop
      vertex -5.95021 -0.307825 9.84791
      vertex -3.84535 -0.382442 9.95185
      vertex -3.92068 0 9.95185
    endloop
  endfacet
  facet normal -0.0496645 -0.00978277 0.998718
    outer loop
      vertex -3.84535 -0.382442 9.95185
      vertex -5.95021 -0.307825 9.84791
      vertex -5.95097 -0.591859 9.84509
    endloop
  endfacet
  facet normal -0.0385182 -0.0632362 0.997255
    outer loop
      vertex -5.96998 -2.24076 9.77415
      vertex -3.25993 -1.08911 9.95185
      vertex -5.96572 -1.99308 9.79002
    endloop
  endfacet
  facet normal -0.0385215 -0.0632286 0.997255
    outer loop
      vertex -3.25993 -1.08911 9.95185
      vertex -5.96998 -2.24076 9.77415
      vertex -2.77234 -1.38617 9.95185
    endloop
  endfacet
  facet normal -0.0315902 -0.0769858 0.996532
    outer loop
      vertex -6.01263 -4.41725 9.61497
      vertex -2.17822 -1.62996 9.95185
      vertex -2.77234 -1.38617 9.95185
    endloop
  endfacet
  facet normal -0.0316074 -0.0769623 0.996533
    outer loop
      vertex -2.17822 -1.62996 9.95185
      vertex -6.01263 -4.41725 9.61497
      vertex -6.01437 -4.50057 9.60848
    endloop
  endfacet
  facet normal 0.0756528 0.283069 0.956111
    outer loop
      vertex 9.71087 11.7221 7.7301
      vertex 7.21583 8.71028 8.81921
      vertex 14.098 10.5496 7.7301
    endloop
  endfacet
  facet normal 0.0491933 0.998789 -5.78481e-05
    outer loop
      vertex 7.76603 19.5212 0.980171
      vertex 1 19.8544 0.168069
      vertex 0 19.9037 0.980171
    endloop
  endfacet
  facet normal 0.0491634 0.998791 0.000191753
    outer loop
      vertex 7.76603 19.5212 0.980171
      vertex 1.22616 19.8433 0
      vertex 1 19.8544 0.168069
    endloop
  endfacet
  facet normal 0.0491933 0.998789 0.000303065
    outer loop
      vertex 0 19.9037 -0.0263157
      vertex 1.22616 19.8433 0
      vertex 7.76603 19.5212 -0.0263157
    endloop
  endfacet
  facet normal 0.0491921 0.998789 -0
    outer loop
      vertex 7.76603 19.5212 -0.0263157
      vertex 1.22616 19.8433 0
      vertex 7.76603 19.5212 0.980171
    endloop
  endfacet
  facet normal 0.0493146 0.998783 9.18388e-05
    outer loop
      vertex 0.803856 19.8641 0
      vertex 0 19.9037 0.980171
      vertex 1 19.8544 0.168069
    endloop
  endfacet
  facet normal 0.0492029 0.998789 0
    outer loop
      vertex 0.803856 19.8641 0
      vertex 0 19.9037 -0.0263157
      vertex 0 19.9037 0.980171
    endloop
  endfacet
  facet normal 0.049194 0.998789 0.000272642
    outer loop
      vertex 1.22616 19.8433 0
      vertex 0 19.9037 -0.0263157
      vertex 0.803856 19.8641 0
    endloop
  endfacet
  facet normal 0.0463397 0.305525 0.951056
    outer loop
      vertex 4.95056 12.4441 7.7301
      vertex 3.6786 9.24678 8.81921
      vertex 7.21583 8.71028 8.81921
    endloop
  endfacet
  facet normal 0.157866 -0.0957756 0.982805
    outer loop
      vertex 18.4936 -1.8393 8.81921
      vertex 17.4206 -3.60791 8.81921
      vertex 24.8881 -2.47528 7.7301
    endloop
  endfacet
  facet normal 0.146946 -0.358097 0.922048
    outer loop
      vertex 21.864 -10.932 6.34393
      vertex 14.098 -10.5496 7.7301
      vertex 17.1785 -12.8547 6.34393
    endloop
  endfacet
  facet normal 0.0378904 -0.769514 0.637505
    outer loop
      vertex 6.88217 -17.2995 4.71397
      vertex 0 -19.1388 2.90285
      vertex 7.46759 -18.7711 2.90285
    endloop
  endfacet
  facet normal 0.582329 -0.622526 0.522832
    outer loop
      vertex 35.3639 -7.3241 2.90285
      vertex 31.8267 -10.6329 2.90285
      vertex 33.0986 -11.0579 0.980171
    endloop
  endfacet
  facet normal 0.0909503 0.0972262 0.991098
    outer loop
      vertex 17.4206 3.60791 8.81921
      vertex 9.65451 3.22547 9.5694
      vertex 10.7275 2.22174 9.5694
    endloop
  endfacet
  facet normal 0.049665 0.00978258 0.998718
    outer loop
      vertex 11.3883 1.13263 9.5694
      vertex 3.84535 0.382442 9.95185
      vertex 3.92068 0 9.95185
    endloop
  endfacet
  facet normal 0.258193 0.966093 -0
    outer loop
      vertex 22.1158 16.5493 -0.0263157
      vertex 15.2336 18.3886 0.980171
      vertex 22.1158 16.5493 0.980171
    endloop
  endfacet
  facet normal 0.258193 0.966093 0
    outer loop
      vertex 15.2336 18.3886 0.980171
      vertex 22.1158 16.5493 -0.0263157
      vertex 15.2336 18.3886 -0.0263157
    endloop
  endfacet
  facet normal 0.065575 0.432378 0.899305
    outer loop
      vertex 11.8327 14.2834 6.34393
      vertex 6.03227 15.1631 6.34393
      vertex 9.71087 11.7221 7.7301
    endloop
  endfacet
  facet normal 0.0234584 -0.0877735 0.995864
    outer loop
      vertex 2.17822 -1.62996 9.95185
      vertex 1.50038 -1.81112 9.95185
      vertex 4.44349 -5.36376 9.5694
    endloop
  endfacet
  facet normal 0.0296105 -0.195227 0.980311
    outer loop
      vertex 7.21583 -8.71028 8.81921
      vertex 2.26527 -5.69414 9.5694
      vertex 3.6786 -9.24678 8.81921
    endloop
  endfacet
  facet normal 0.210739 -0.225287 0.951228
    outer loop
      vertex 23.4441 -4.85543 7.7301
      vertex 21.0991 -7.049 7.7301
      vertex 25.7094 -8.58923 6.34393
    endloop
  endfacet
  facet normal -0.0296107 0.195225 0.980311
    outer loop
      vertex -2.26527 5.69414 9.5694
      vertex -6.14846 7.42185 9.10804
      vertex -4.44349 5.36376 9.5694
    endloop
  endfacet
  facet normal -0.0296098 0.195227 0.980311
    outer loop
      vertex -6.14846 7.42185 9.10804
      vertex -2.26527 5.69414 9.5694
      vertex -6.18395 8.0816 8.97558
    endloop
  endfacet
  facet normal 0.236885 -0.88632 0.397897
    outer loop
      vertex 21.2659 -15.9133 2.90285
      vertex 14.6482 -17.682 2.90285
      vertex 22.1158 -16.5493 0.980171
    endloop
  endfacet
  facet normal 0.138797 -0.915111 0.378559
    outer loop
      vertex 14.6482 -17.682 2.90285
      vertex 7.46759 -18.7711 2.90285
      vertex 7.76603 -19.5212 0.980171
    endloop
  endfacet
  facet normal 0.379623 0.925141 -0
    outer loop
      vertex 28.1481 14.074 -0.0263157
      vertex 22.1158 16.5493 0.980171
      vertex 28.1481 14.074 0.980171
    endloop
  endfacet
  facet normal 0.379623 0.925141 0
    outer loop
      vertex 22.1158 16.5493 0.980171
      vertex 28.1481 14.074 -0.0263157
      vertex 22.1158 16.5493 -0.0263157
    endloop
  endfacet
  facet normal 0.343065 0.836049 0.428168
    outer loop
      vertex 28.1481 14.074 0.980171
      vertex 22.1158 16.5493 0.980171
      vertex 27.0664 13.5332 2.90285
    endloop
  endfacet
  facet normal 0.421136 0.450206 0.787375
    outer loop
      vertex 31.8267 10.6329 2.90285
      vertex 29.3316 9.79938 4.71397
      vertex 35.3639 7.3241 2.90285
    endloop
  endfacet
  facet normal 0.331604 0.201177 0.92172
    outer loop
      vertex 32.5916 6.74993 4.71397
      vertex 28.5667 5.91636 6.34393
      vertex 34.599 3.44109 4.71397
    endloop
  endfacet
  facet normal 0.231417 0.140397 0.962671
    outer loop
      vertex 30.3263 3.01614 6.34393
      vertex 23.4441 4.85543 7.7301
      vertex 24.8881 2.47528 7.7301
    endloop
  endfacet
  facet normal 0.349599 0.0688729 0.934365
    outer loop
      vertex 34.599 3.44109 4.71397
      vertex 33.593 2.5 5.15974
      vertex 34.7844 2.5 4.71397
    endloop
  endfacet
  facet normal 0.24225 -0.0482679 0.969012
    outer loop
      vertex 25.3757 0 7.7301
      vertex 30.8443 -0.0312177 6.36141
      vertex 30.845 0 6.36279
    endloop
  endfacet
  facet normal 0.24226 -0.0477222 0.969037
    outer loop
      vertex 30.8443 -0.0312177 6.36141
      vertex 25.3757 0 7.7301
      vertex 24.8881 -2.47528 7.7301
    endloop
  endfacet
  facet normal 0.164677 -0.0324393 0.985814
    outer loop
      vertex 25.3757 0 7.7301
      vertex 18.8559 0 8.81921
      vertex 24.8881 -2.47528 7.7301
    endloop
  endfacet
  facet normal 0.231418 -0.140404 0.962669
    outer loop
      vertex 30.3263 -3.01614 6.34393
      vertex 23.4441 -4.85543 7.7301
      vertex 28.5667 -5.91636 6.34393
    endloop
  endfacet
  facet normal 0.253724 -0.416456 0.873034
    outer loop
      vertex 25.7094 -8.58923 6.34393
      vertex 24.9445 -12.4722 4.71397
      vertex 29.3316 -9.79938 4.71397
    endloop
  endfacet
  facet normal -0.00487355 -0.0989683 0.995079
    outer loop
      vertex 0 -1.96034 9.95185
      vertex -2.26527 -5.69414 9.5694
      vertex 0 -5.80569 9.5694
    endloop
  endfacet
  facet normal 0.114154 -0.752654 0.648445
    outer loop
      vertex 13.4999 -16.2958 4.71397
      vertex 6.88217 -17.2995 4.71397
      vertex 14.6482 -17.682 2.90285
    endloop
  endfacet
  facet normal 0.049665 -0.00978277 0.998718
    outer loop
      vertex 11.6114 0 9.5694
      vertex 3.92068 0 9.95185
      vertex 11.3883 -1.13263 9.5694
    endloop
  endfacet
  facet normal 0.102981 -0.0202847 0.994476
    outer loop
      vertex 11.6114 0 9.5694
      vertex 11.3883 -1.13263 9.5694
      vertex 18.8559 0 8.81921
    endloop
  endfacet
  facet normal 0.164677 -0.0324377 0.985814
    outer loop
      vertex 18.8559 0 8.81921
      vertex 18.4936 -1.8393 8.81921
      vertex 24.8881 -2.47528 7.7301
    endloop
  endfacet
  facet normal 0.164677 0.0324393 0.985814
    outer loop
      vertex 24.8881 2.47528 7.7301
      vertex 18.8559 0 8.81921
      vertex 25.3757 0 7.7301
    endloop
  endfacet
  facet normal -0.046344 0.305524 0.951056
    outer loop
      vertex -6.33883 10.1558 8.39756
      vertex -3.6786 9.24678 8.81921
      vertex -4.95056 12.4441 7.7301
    endloop
  endfacet
  facet normal -0.046341 0.305531 0.951054
    outer loop
      vertex -3.6786 9.24678 8.81921
      vertex -6.33883 10.1558 8.39756
      vertex -6.22585 8.86043 8.81921
    endloop
  endfacet
  facet normal 0.253721 0.416455 0.873035
    outer loop
      vertex 24.9445 12.4722 4.71397
      vertex 21.864 10.932 6.34393
      vertex 25.7094 8.58923 6.34393
    endloop
  endfacet
  facet normal -0.0463415 0.305522 0.951057
    outer loop
      vertex -4.95056 12.4441 7.7301
      vertex -6.51768 12.2064 7.7301
      vertex -6.33883 10.1558 8.39756
    endloop
  endfacet
  facet normal 0.0156022 0.316833 0.948353
    outer loop
      vertex 4.95056 12.4441 7.7301
      vertex 0 9.42793 8.81921
      vertex 3.6786 9.24678 8.81921
    endloop
  endfacet
  facet normal 0.125897 -0.206643 0.970283
    outer loop
      vertex 21.0991 -7.049 7.7301
      vertex 13.3331 -6.66656 8.81921
      vertex 17.9433 -8.97167 7.7301
    endloop
  endfacet
  facet normal -0.0481892 -0.180309 0.982429
    outer loop
      vertex -6.02484 -4.94113 9.5694
      vertex -6.14846 -7.42185 9.10804
      vertex -4.44349 -5.36376 9.5694
    endloop
  endfacet
  facet normal 0.146118 -0.546732 0.824459
    outer loop
      vertex 17.1785 -12.8547 6.34393
      vertex 11.8327 -14.2834 6.34393
      vertex 19.5988 -14.6658 4.71397
    endloop
  endfacet
  facet normal 0.379623 -0.925141 0
    outer loop
      vertex 22.1158 -16.5493 -0.0263157
      vertex 28.1481 -14.074 0.980171
      vertex 22.1158 -16.5493 0.980171
    endloop
  endfacet
  facet normal 0.379623 -0.925141 0
    outer loop
      vertex 28.1481 -14.074 0.980171
      vertex 22.1158 -16.5493 -0.0263157
      vertex 28.1481 -14.074 -0.0263157
    endloop
  endfacet
  facet normal 0.421136 -0.450206 0.787375
    outer loop
      vertex 35.3639 -7.3241 2.90285
      vertex 29.3316 -9.79938 4.71397
      vertex 31.8267 -10.6329 2.90285
    endloop
  endfacet
  facet normal 0.520293 -0.853988 0
    outer loop
      vertex 28.1481 -14.074 -0.0263157
      vertex 33.0986 -11.0579 0.980171
      vertex 28.1481 -14.074 0.980171
    endloop
  endfacet
  facet normal 0.520293 -0.853988 0
    outer loop
      vertex 33.0986 -11.0579 0.980171
      vertex 28.1481 -14.074 -0.0263157
      vertex 33.0986 -11.0579 -0.0263157
    endloop
  endfacet
  facet normal -0.015603 -0.316832 0.948353
    outer loop
      vertex 0 -9.42793 8.81921
      vertex -4.95056 -12.4441 7.7301
      vertex 0 -12.6879 7.7301
    endloop
  endfacet
  facet normal 0.138794 -0.915108 0.378568
    outer loop
      vertex 14.6482 -17.682 2.90285
      vertex 7.76603 -19.5212 0.980171
      vertex 15.2336 -18.3886 0.980171
    endloop
  endfacet
  facet normal 0.0491933 -0.998789 -5.78481e-05
    outer loop
      vertex 0 -19.9037 0.980171
      vertex 1 -19.8544 0.168069
      vertex 7.76603 -19.5212 0.980171
    endloop
  endfacet
  facet normal 0.0493146 -0.998783 9.18388e-05
    outer loop
      vertex 0 -19.9037 0.980171
      vertex 0.803856 -19.8641 0
      vertex 1 -19.8544 0.168069
    endloop
  endfacet
  facet normal 0.049194 -0.998789 0.000272642
    outer loop
      vertex 0.803856 -19.8641 0
      vertex 0 -19.9037 -0.0263157
      vertex 1.22616 -19.8433 0
    endloop
  endfacet
  facet normal 0.0492029 -0.998789 0
    outer loop
      vertex 0 -19.9037 -0.0263157
      vertex 0.803856 -19.8641 0
      vertex 0 -19.9037 0.980171
    endloop
  endfacet
  facet normal 0.0491634 -0.998791 0.000191753
    outer loop
      vertex 1.22616 -19.8433 0
      vertex 7.76603 -19.5212 0.980171
      vertex 1 -19.8544 0.168069
    endloop
  endfacet
  facet normal 0.0491921 -0.998789 0
    outer loop
      vertex 1.22616 -19.8433 0
      vertex 7.76603 -19.5212 -0.0263157
      vertex 7.76603 -19.5212 0.980171
    endloop
  endfacet
  facet normal 0.0491933 -0.998789 0.000303065
    outer loop
      vertex 7.76603 -19.5212 -0.0263157
      vertex 1.22616 -19.8433 0
      vertex 0 -19.9037 -0.0263157
    endloop
  endfacet
  facet normal 0.045704 -0.928199 0.369266
    outer loop
      vertex 0 -19.1388 2.90285
      vertex 0 -19.9037 0.980171
      vertex 7.46759 -18.7711 2.90285
    endloop
  endfacet
  facet normal 0.149954 -0.988693 0
    outer loop
      vertex 7.76603 -19.5212 -0.0263157
      vertex 15.2336 -18.3886 0.980171
      vertex 7.76603 -19.5212 0.980171
    endloop
  endfacet
  facet normal 0.149954 -0.988693 0
    outer loop
      vertex 15.2336 -18.3886 0.980171
      vertex 7.76603 -19.5212 -0.0263157
      vertex 15.2336 -18.3886 -0.0263157
    endloop
  endfacet
  facet normal 0.854958 0.518697 0
    outer loop
      vertex 38.3648 5 0.980171
      vertex 36.7772 7.61681 -0.0263157
      vertex 36.7772 7.61681 0.980171
    endloop
  endfacet
  facet normal 0.854958 0.518697 0
    outer loop
      vertex 36.7772 7.61681 -0.0263157
      vertex 38.3648 5 0.980171
      vertex 38.3648 5 -0.0263157
    endloop
  endfacet
  facet normal 0.236885 0.88632 0.397897
    outer loop
      vertex 22.1158 16.5493 0.980171
      vertex 14.6482 17.682 2.90285
      vertex 21.2659 15.9133 2.90285
    endloop
  endfacet
  facet normal 0.34305 0.836042 0.428195
    outer loop
      vertex 22.1158 16.5493 0.980171
      vertex 21.2659 15.9133 2.90285
      vertex 27.0664 13.5332 2.90285
    endloop
  endfacet
  facet normal 0.582329 0.622526 0.522832
    outer loop
      vertex 33.0986 11.0579 0.980171
      vertex 31.8267 10.6329 2.90285
      vertex 35.3639 7.3241 2.90285
    endloop
  endfacet
  facet normal 0.138797 0.915111 0.378559
    outer loop
      vertex 7.76603 19.5212 0.980171
      vertex 7.46759 18.7711 2.90285
      vertex 14.6482 17.682 2.90285
    endloop
  endfacet
  facet normal 0.697967 0.423454 0.57752
    outer loop
      vertex 37.8484 5 1.60428
      vertex 36.7772 7.61681 0.980171
      vertex 35.3639 7.3241 2.90285
    endloop
  endfacet
  facet normal 0.697971 0.423454 0.577515
    outer loop
      vertex 36.7772 7.61681 0.980171
      vertex 37.8484 5 1.60428
      vertex 38.3648 5 0.980171
    endloop
  endfacet
  facet normal 0.582333 0.622526 0.522828
    outer loop
      vertex 36.7772 7.61681 0.980171
      vertex 33.0986 11.0579 0.980171
      vertex 35.3639 7.3241 2.90285
    endloop
  endfacet
  facet normal 0.697964 -0.423445 0.577529
    outer loop
      vertex 36.7739 -5 2.90285
      vertex 35.3639 -7.3241 2.90285
      vertex 37.8484 -5 1.60428
    endloop
  endfacet
  facet normal 0.480175 -0.291319 0.827384
    outer loop
      vertex 34.599 -3.44109 4.71397
      vertex 36.1212 -5 3.28167
      vertex 36.3323 -3.61347 3.64735
    endloop
  endfacet
  facet normal 0.480172 -0.291323 0.827385
    outer loop
      vertex 36.1212 -5 3.28167
      vertex 34.599 -3.44109 4.71397
      vertex 35.3639 -7.3241 2.90285
    endloop
  endfacet
  facet normal 0.480196 -0.291328 0.827369
    outer loop
      vertex 36.7739 -5 2.90285
      vertex 36.1212 -5 3.28167
      vertex 35.3639 -7.3241 2.90285
    endloop
  endfacet
  facet normal 0.331608 0.201191 0.921715
    outer loop
      vertex 34.599 3.44109 4.71397
      vertex 28.5667 5.91636 6.34393
      vertex 30.3263 3.01614 6.34393
    endloop
  endfacet
  facet normal 0.348281 0.57166 0.742903
    outer loop
      vertex 31.8267 10.6329 2.90285
      vertex 24.9445 12.4722 4.71397
      vertex 29.3316 9.79938 4.71397
    endloop
  endfacet
  facet normal 0.231418 0.140404 0.962669
    outer loop
      vertex 28.5667 5.91636 6.34393
      vertex 23.4441 4.85543 7.7301
      vertex 30.3263 3.01614 6.34393
    endloop
  endfacet
  facet normal 0.0909502 -0.0972292 0.991098
    outer loop
      vertex 17.4206 -3.60791 8.81921
      vertex 9.65451 -3.22547 9.5694
      vertex 15.6781 -5.23788 8.81921
    endloop
  endfacet
  facet normal 0.181929 -0.298612 0.936874
    outer loop
      vertex 21.0991 -7.049 7.7301
      vertex 17.9433 -8.97167 7.7301
      vertex 21.864 -10.932 6.34393
    endloop
  endfacet
  facet normal 0.270214 -0.658533 0.702367
    outer loop
      vertex 24.9445 -12.4722 4.71397
      vertex 21.2659 -15.9133 2.90285
      vertex 27.0664 -13.5332 2.90285
    endloop
  endfacet
  facet normal 0.242245 -0.0476839 0.969043
    outer loop
      vertex 24.8881 -2.47528 7.7301
      vertex 30.8362 -0.4276 6.34393
      vertex 30.8443 -0.0312177 6.36141
    endloop
  endfacet
  facet normal 0.242257 -0.0477206 0.969038
    outer loop
      vertex 30.8362 -0.4276 6.34393
      vertex 24.8881 -2.47528 7.7301
      vertex 30.3263 -3.01614 6.34393
    endloop
  endfacet
  facet normal 0.349645 -0.0688744 0.934347
    outer loop
      vertex 30.8362 -0.4276 6.34393
      vertex 30.3263 -3.01614 6.34393
      vertex 30.7755 -2.5 6.21388
    endloop
  endfacet
  facet normal 0.349587 -0.0688167 0.934373
    outer loop
      vertex 30.3263 -3.01614 6.34393
      vertex 33.593 -2.5 5.15974
      vertex 30.7755 -2.5 6.21388
    endloop
  endfacet
  facet normal 0.349594 -0.0688787 0.934366
    outer loop
      vertex 33.593 -2.5 5.15974
      vertex 30.3263 -3.01614 6.34393
      vertex 34.599 -3.44109 4.71397
    endloop
  endfacet
  facet normal 0.34305 -0.836042 0.428195
    outer loop
      vertex 27.0664 -13.5332 2.90285
      vertex 21.2659 -15.9133 2.90285
      vertex 22.1158 -16.5493 0.980171
    endloop
  endfacet
  facet normal 0.157866 0.0957756 0.982805
    outer loop
      vertex 24.8881 2.47528 7.7301
      vertex 17.4206 3.60791 8.81921
      vertex 18.4936 1.8393 8.81921
    endloop
  endfacet
  facet normal 0.098905 0.0600048 0.993286
    outer loop
      vertex 17.4206 3.60791 8.81921
      vertex 11.3883 1.13263 9.5694
      vertex 18.4936 1.8393 8.81921
    endloop
  endfacet
  facet normal 0.102981 0.0202847 0.994476
    outer loop
      vertex 18.8559 0 8.81921
      vertex 11.3883 1.13263 9.5694
      vertex 11.6114 0 9.5694
    endloop
  endfacet
  facet normal 0.049665 0.00978277 0.998718
    outer loop
      vertex 11.3883 1.13263 9.5694
      vertex 3.92068 0 9.95185
      vertex 11.6114 0 9.5694
    endloop
  endfacet
  facet normal 0.102981 -0.0202849 0.994476
    outer loop
      vertex 18.8559 0 8.81921
      vertex 11.3883 -1.13263 9.5694
      vertex 18.4936 -1.8393 8.81921
    endloop
  endfacet
  facet normal 0.098905 -0.0600048 0.993286
    outer loop
      vertex 18.4936 -1.8393 8.81921
      vertex 11.3883 -1.13263 9.5694
      vertex 17.4206 -3.60791 8.81921
    endloop
  endfacet
  facet normal 0.144676 -0.154664 0.977317
    outer loop
      vertex 23.4441 -4.85543 7.7301
      vertex 17.4206 -3.60791 8.81921
      vertex 21.0991 -7.049 7.7301
    endloop
  endfacet
  facet normal 0.349599 -0.0688729 0.934365
    outer loop
      vertex 34.7844 -2.5 4.71397
      vertex 33.593 -2.5 5.15974
      vertex 34.599 -3.44109 4.71397
    endloop
  endfacet
  facet normal 0.146118 0.546732 0.824459
    outer loop
      vertex 19.5988 14.6658 4.71397
      vertex 11.8327 14.2834 6.34393
      vertex 17.1785 12.8547 6.34393
    endloop
  endfacet
  facet normal 0.20196 0.492164 0.846751
    outer loop
      vertex 24.9445 12.4722 4.71397
      vertex 17.1785 12.8547 6.34393
      vertex 21.864 10.932 6.34393
    endloop
  endfacet
  facet normal -0.0385222 0.063226 0.997255
    outer loop
      vertex -2.77234 1.38617 9.95185
      vertex -5.98286 2.99143 9.72606
      vertex -5.96998 2.24076 9.77415
    endloop
  endfacet
  facet normal 0.0315903 -0.0769859 0.996532
    outer loop
      vertex 2.77234 -1.38617 9.95185
      vertex 2.17822 -1.62996 9.95185
      vertex 6.45094 -4.82726 9.5694
    endloop
  endfacet
  facet normal -0.0156022 0.316833 0.948353
    outer loop
      vertex 0 9.42793 8.81921
      vertex -4.95056 12.4441 7.7301
      vertex -3.6786 9.24678 8.81921
    endloop
  endfacet
  facet normal 0.0296108 0.195226 0.980311
    outer loop
      vertex 7.21583 8.71028 8.81921
      vertex 2.26527 5.69414 9.5694
      vertex 4.44349 5.36376 9.5694
    endloop
  endfacet
  facet normal -0.0477411 0.0289791 0.998439
    outer loop
      vertex -3.84535 0.382442 9.95185
      vertex -5.95376 0.945927 9.83468
      vertex -5.95097 0.591859 9.84509
    endloop
  endfacet
  facet normal 0.0385209 -0.0632267 0.997255
    outer loop
      vertex 9.65451 -3.22547 9.5694
      vertex 2.77234 -1.38617 9.95185
      vertex 8.21049 -4.10524 9.5694
    endloop
  endfacet
  facet normal 0.102529 -0.249859 0.962839
    outer loop
      vertex 13.3331 -6.66656 8.81921
      vertex 10.4758 -7.83904 8.81921
      vertex 14.098 -10.5496 7.7301
    endloop
  endfacet
  facet normal 0.107639 -0.402755 0.908957
    outer loop
      vertex 17.1785 -12.8547 6.34393
      vertex 9.71087 -11.7221 7.7301
      vertex 11.8327 -14.2834 6.34393
    endloop
  endfacet
  facet normal 0.0882382 -0.581784 0.808543
    outer loop
      vertex 11.8327 -14.2834 6.34393
      vertex 6.88217 -17.2995 4.71397
      vertex 13.4999 -16.2958 4.71397
    endloop
  endfacet
  facet normal 0.107639 -0.402753 0.908957
    outer loop
      vertex 14.098 -10.5496 7.7301
      vertex 9.71087 -11.7221 7.7301
      vertex 17.1785 -12.8547 6.34393
    endloop
  endfacet
  facet normal 0.075652 -0.283072 0.95611
    outer loop
      vertex 10.4758 -7.83904 8.81921
      vertex 7.21583 -8.71028 8.81921
      vertex 14.098 -10.5496 7.7301
    endloop
  endfacet
  facet normal 0.854958 -0.518697 0
    outer loop
      vertex 36.7772 -7.61681 0.980171
      vertex 38.3648 -5 -0.0263157
      vertex 38.3648 -5 0.980171
    endloop
  endfacet
  facet normal 0.854958 -0.518697 0
    outer loop
      vertex 38.3648 -5 -0.0263157
      vertex 36.7772 -7.61681 0.980171
      vertex 36.7772 -7.61681 -0.0263157
    endloop
  endfacet
  facet normal 0.348281 -0.57166 0.742903
    outer loop
      vertex 29.3316 -9.79938 4.71397
      vertex 24.9445 -12.4722 4.71397
      vertex 31.8267 -10.6329 2.90285
    endloop
  endfacet
  facet normal 0.191625 -0.716977 0.670241
    outer loop
      vertex 19.5988 -14.6658 4.71397
      vertex 14.6482 -17.682 2.90285
      vertex 21.2659 -15.9133 2.90285
    endloop
  endfacet
  facet normal 0.114156 -0.752647 0.648452
    outer loop
      vertex 14.6482 -17.682 2.90285
      vertex 6.88217 -17.2995 4.71397
      vertex 7.46759 -18.7711 2.90285
    endloop
  endfacet
  facet normal 0.0457174 -0.928215 0.369224
    outer loop
      vertex 7.46759 -18.7711 2.90285
      vertex 0 -19.9037 0.980171
      vertex 7.76603 -19.5212 0.980171
    endloop
  endfacet
  facet normal 0.258193 -0.966093 0
    outer loop
      vertex 15.2336 -18.3886 -0.0263157
      vertex 22.1158 -16.5493 0.980171
      vertex 15.2336 -18.3886 0.980171
    endloop
  endfacet
  facet normal 0.258193 -0.966093 0
    outer loop
      vertex 22.1158 -16.5493 0.980171
      vertex 15.2336 -18.3886 -0.0263157
      vertex 22.1158 -16.5493 -0.0263157
    endloop
  endfacet
  facet normal 0.520293 0.853988 -0
    outer loop
      vertex 33.0986 11.0579 -0.0263157
      vertex 28.1481 14.074 0.980171
      vertex 33.0986 11.0579 0.980171
    endloop
  endfacet
  facet normal 0.520293 0.853988 0
    outer loop
      vertex 28.1481 14.074 0.980171
      vertex 33.0986 11.0579 -0.0263157
      vertex 28.1481 14.074 -0.0263157
    endloop
  endfacet
  facet normal 0.149954 0.988693 -0
    outer loop
      vertex 15.2336 18.3886 -0.0263157
      vertex 7.76603 19.5212 0.980171
      vertex 15.2336 18.3886 0.980171
    endloop
  endfacet
  facet normal 0.149954 0.988693 0
    outer loop
      vertex 7.76603 19.5212 0.980171
      vertex 15.2336 18.3886 -0.0263157
      vertex 7.76603 19.5212 -0.0263157
    endloop
  endfacet
  facet normal 0.683138 0.730289 -0
    outer loop
      vertex 36.7772 7.61681 -0.0263157
      vertex 33.0986 11.0579 0.980171
      vertex 36.7772 7.61681 0.980171
    endloop
  endfacet
  facet normal 0.683138 0.730289 0
    outer loop
      vertex 33.0986 11.0579 0.980171
      vertex 36.7772 7.61681 -0.0263157
      vertex 33.0986 11.0579 -0.0263157
    endloop
  endfacet
  facet normal 0.697964 0.423445 0.577529
    outer loop
      vertex 37.8484 5 1.60428
      vertex 35.3639 7.3241 2.90285
      vertex 36.7739 5 2.90285
    endloop
  endfacet
  facet normal 0.480196 0.291328 0.827369
    outer loop
      vertex 36.7739 5 2.90285
      vertex 35.3639 7.3241 2.90285
      vertex 36.1212 5 3.28167
    endloop
  endfacet
  facet normal 0.480172 0.291323 0.827385
    outer loop
      vertex 34.599 3.44109 4.71397
      vertex 36.1212 5 3.28167
      vertex 35.3639 7.3241 2.90285
    endloop
  endfacet
  facet normal 0.480175 0.291319 0.827384
    outer loop
      vertex 36.1212 5 3.28167
      vertex 34.599 3.44109 4.71397
      vertex 36.3323 3.61347 3.64735
    endloop
  endfacet
  facet normal 0.480185 0.291318 0.827379
    outer loop
      vertex 35.3639 7.3241 2.90285
      vertex 32.5916 6.74993 4.71397
      vertex 34.599 3.44109 4.71397
    endloop
  endfacet
  facet normal 0.075652 0.283072 0.95611
    outer loop
      vertex 14.098 10.5496 7.7301
      vertex 7.21583 8.71028 8.81921
      vertex 10.4758 7.83904 8.81921
    endloop
  endfacet
  facet normal 0.157865 0.0957745 0.982805
    outer loop
      vertex 23.4441 4.85543 7.7301
      vertex 17.4206 3.60791 8.81921
      vertex 24.8881 2.47528 7.7301
    endloop
  endfacet
  facet normal 0.298293 -0.318876 0.899633
    outer loop
      vertex 28.5667 -5.91636 6.34393
      vertex 25.7094 -8.58923 6.34393
      vertex 29.3316 -9.79938 4.71397
    endloop
  endfacet
  facet normal 0.181926 -0.298612 0.936874
    outer loop
      vertex 25.7094 -8.58923 6.34393
      vertex 21.0991 -7.049 7.7301
      vertex 21.864 -10.932 6.34393
    endloop
  endfacet
  facet normal 0.125897 -0.206644 0.970283
    outer loop
      vertex 15.6781 -5.23788 8.81921
      vertex 13.3331 -6.66656 8.81921
      vertex 21.0991 -7.049 7.7301
    endloop
  endfacet
  facet normal 0.144676 -0.154664 0.977317
    outer loop
      vertex 17.4206 -3.60791 8.81921
      vertex 15.6781 -5.23788 8.81921
      vertex 21.0991 -7.049 7.7301
    endloop
  endfacet
  facet normal 0.0756528 -0.283069 0.956111
    outer loop
      vertex 14.098 -10.5496 7.7301
      vertex 7.21583 -8.71028 8.81921
      vertex 9.71087 -11.7221 7.7301
    endloop
  endfacet
  facet normal 0.191619 -0.716972 0.670249
    outer loop
      vertex 19.5988 -14.6658 4.71397
      vertex 13.4999 -16.2958 4.71397
      vertex 14.6482 -17.682 2.90285
    endloop
  endfacet
  facet normal 0.270233 -0.658544 0.702349
    outer loop
      vertex 24.9445 -12.4722 4.71397
      vertex 19.5988 -14.6658 4.71397
      vertex 21.2659 -15.9133 2.90285
    endloop
  endfacet
  facet normal 0.146119 -0.546727 0.824463
    outer loop
      vertex 19.5988 -14.6658 4.71397
      vertex 11.8327 -14.2834 6.34393
      vertex 13.4999 -16.2958 4.71397
    endloop
  endfacet
  facet normal 0.343065 -0.836049 0.428168
    outer loop
      vertex 27.0664 -13.5332 2.90285
      vertex 22.1158 -16.5493 0.980171
      vertex 28.1481 -14.074 0.980171
    endloop
  endfacet
  facet normal 0.459161 -0.753647 0.470306
    outer loop
      vertex 33.0986 -11.0579 0.980171
      vertex 27.0664 -13.5332 2.90285
      vertex 28.1481 -14.074 0.980171
    endloop
  endfacet
  facet normal 0.697967 -0.423454 0.57752
    outer loop
      vertex 36.7772 -7.61681 0.980171
      vertex 37.8484 -5 1.60428
      vertex 35.3639 -7.3241 2.90285
    endloop
  endfacet
  facet normal 0.697971 -0.423454 0.577515
    outer loop
      vertex 37.8484 -5 1.60428
      vertex 36.7772 -7.61681 0.980171
      vertex 38.3648 -5 0.980171
    endloop
  endfacet
  facet normal 0.582333 -0.622526 0.522828
    outer loop
      vertex 35.3639 -7.3241 2.90285
      vertex 33.0986 -11.0579 0.980171
      vertex 36.7772 -7.61681 0.980171
    endloop
  endfacet
  facet normal 0.421137 -0.450215 0.787369
    outer loop
      vertex 32.5916 -6.74993 4.71397
      vertex 29.3316 -9.79938 4.71397
      vertex 35.3639 -7.3241 2.90285
    endloop
  endfacet
  facet normal 0.480185 -0.291318 0.827379
    outer loop
      vertex 34.599 -3.44109 4.71397
      vertex 32.5916 -6.74993 4.71397
      vertex 35.3639 -7.3241 2.90285
    endloop
  endfacet
  facet normal 0.102981 0.0202849 0.994476
    outer loop
      vertex 18.4936 1.8393 8.81921
      vertex 11.3883 1.13263 9.5694
      vertex 18.8559 0 8.81921
    endloop
  endfacet
  facet normal 0.164677 0.0324377 0.985814
    outer loop
      vertex 24.8881 2.47528 7.7301
      vertex 18.4936 1.8393 8.81921
      vertex 18.8559 0 8.81921
    endloop
  endfacet
  facet normal 0.349594 0.0688787 0.934366
    outer loop
      vertex 30.3263 3.01614 6.34393
      vertex 33.593 2.5 5.15974
      vertex 34.599 3.44109 4.71397
    endloop
  endfacet
  facet normal 0.349587 0.0688167 0.934373
    outer loop
      vertex 33.593 2.5 5.15974
      vertex 30.3263 3.01614 6.34393
      vertex 30.7755 2.5 6.21388
    endloop
  endfacet
  facet normal 0.349645 0.0688744 0.934347
    outer loop
      vertex 30.8362 0.4276 6.34393
      vertex 30.7755 2.5 6.21388
      vertex 30.3263 3.01614 6.34393
    endloop
  endfacet
  facet normal 0.242257 0.0477206 0.969038
    outer loop
      vertex 24.8881 2.47528 7.7301
      vertex 30.8362 0.4276 6.34393
      vertex 30.3263 3.01614 6.34393
    endloop
  endfacet
  facet normal 0.242245 0.0476839 0.969043
    outer loop
      vertex 30.8362 0.4276 6.34393
      vertex 24.8881 2.47528 7.7301
      vertex 30.8443 0.0312177 6.36141
    endloop
  endfacet
  facet normal 0.0378904 0.769514 0.637505
    outer loop
      vertex 7.46759 18.7711 2.90285
      vertex 0 19.1388 2.90285
      vertex 6.88217 17.2995 4.71397
    endloop
  endfacet
  facet normal 0.0294949 0.598861 0.80031
    outer loop
      vertex 6.88217 17.2995 4.71397
      vertex 0 15.4602 6.34393
      vertex 6.03227 15.1631 6.34393
    endloop
  endfacet
  facet normal 0.34828 0.571636 0.742922
    outer loop
      vertex 27.0664 13.5332 2.90285
      vertex 24.9445 12.4722 4.71397
      vertex 31.8267 10.6329 2.90285
    endloop
  endfacet
  facet normal 0.270214 0.658533 0.702367
    outer loop
      vertex 27.0664 13.5332 2.90285
      vertex 21.2659 15.9133 2.90285
      vertex 24.9445 12.4722 4.71397
    endloop
  endfacet
  facet normal -0.0496674 -0.00976322 0.998718
    outer loop
      vertex -5.94939 0 9.85096
      vertex -5.95021 -0.307825 9.84791
      vertex -3.92068 0 9.95185
    endloop
  endfacet
  facet normal 0.0882332 0.581778 0.808548
    outer loop
      vertex 6.88217 17.2995 4.71397
      vertex 6.03227 15.1631 6.34393
      vertex 11.8327 14.2834 6.34393
    endloop
  endfacet
  facet normal -0.0655814 0.432368 0.899309
    outer loop
      vertex -5.38339 13.5321 7.17545
      vertex -6.51768 12.2064 7.7301
      vertex -4.95056 12.4441 7.7301
    endloop
  endfacet
  facet normal -0.065606 0.432385 0.899299
    outer loop
      vertex -6.51768 12.2064 7.7301
      vertex -5.38339 13.5321 7.17545
      vertex -6.68622 13.4891 7.10108
    endloop
  endfacet
  facet normal 0.10253 0.249859 0.962839
    outer loop
      vertex 14.098 10.5496 7.7301
      vertex 13.3331 6.66656 8.81921
      vertex 17.9433 8.97167 7.7301
    endloop
  endfacet
  facet normal 0.181926 0.298612 0.936874
    outer loop
      vertex 21.864 10.932 6.34393
      vertex 21.0991 7.049 7.7301
      vertex 25.7094 8.58923 6.34393
    endloop
  endfacet
  facet normal 0.125897 0.206643 0.970283
    outer loop
      vertex 17.9433 8.97167 7.7301
      vertex 13.3331 6.66656 8.81921
      vertex 21.0991 7.049 7.7301
    endloop
  endfacet
  facet normal 0.00487355 0.0989683 0.995079
    outer loop
      vertex 0 5.80569 9.5694
      vertex 0 1.96034 9.95185
      vertex 2.26527 5.69414 9.5694
    endloop
  endfacet
  facet normal 0.00998624 0.202793 0.979171
    outer loop
      vertex 0 9.42793 8.81921
      vertex 0 5.80569 9.5694
      vertex 2.26527 5.69414 9.5694
    endloop
  endfacet
  facet normal -0.0220116 -0.447102 0.894212
    outer loop
      vertex -4.95056 -12.4441 7.7301
      vertex -5.38339 -13.5321 7.17545
      vertex -3.12385 -13.557 7.21862
    endloop
  endfacet
  facet normal -0.0296099 0.195227 0.980311
    outer loop
      vertex -3.6786 9.24678 8.81921
      vertex -6.18395 8.0816 8.97558
      vertex -2.26527 5.69414 9.5694
    endloop
  endfacet
  facet normal -0.0296111 0.195229 0.980311
    outer loop
      vertex -6.18395 8.0816 8.97558
      vertex -3.6786 9.24678 8.81921
      vertex -6.22585 8.86043 8.81921
    endloop
  endfacet
  facet normal 0.0385207 0.0632274 0.997255
    outer loop
      vertex 9.65451 3.22547 9.5694
      vertex 2.77234 1.38617 9.95185
      vertex 3.25993 1.08911 9.95185
    endloop
  endfacet
  facet normal 0.0048741 -0.098968 0.995079
    outer loop
      vertex 0.764885 -1.92267 9.95185
      vertex 0 -1.96034 9.95185
      vertex 2.26527 -5.69414 9.5694
    endloop
  endfacet
  facet normal 0.0378936 -0.769519 0.637499
    outer loop
      vertex 0 -17.6384 4.71397
      vertex 0 -19.1388 2.90285
      vertex 6.88217 -17.2995 4.71397
    endloop
  endfacet
  facet normal 0.0882332 -0.581778 0.808548
    outer loop
      vertex 11.8327 -14.2834 6.34393
      vertex 6.03227 -15.1631 6.34393
      vertex 6.88217 -17.2995 4.71397
    endloop
  endfacet
  facet normal -0.0156022 -0.316833 0.948353
    outer loop
      vertex -3.6786 -9.24678 8.81921
      vertex -4.95056 -12.4441 7.7301
      vertex 0 -9.42793 8.81921
    endloop
  endfacet
  facet normal 0.0650359 -0.158491 0.985216
    outer loop
      vertex 13.3331 -6.66656 8.81921
      vertex 6.45094 -4.82726 9.5694
      vertex 10.4758 -7.83904 8.81921
    endloop
  endfacet
  facet normal 0.0909503 -0.0972262 0.991098
    outer loop
      vertex 10.7275 -2.22174 9.5694
      vertex 9.65451 -3.22547 9.5694
      vertex 17.4206 -3.60791 8.81921
    endloop
  endfacet
  facet normal 0.0989036 -0.0600082 0.993286
    outer loop
      vertex 11.3883 -1.13263 9.5694
      vertex 10.7275 -2.22174 9.5694
      vertex 17.4206 -3.60791 8.81921
    endloop
  endfacet
  facet normal 0.683138 -0.730289 0
    outer loop
      vertex 33.0986 -11.0579 -0.0263157
      vertex 36.7772 -7.61681 0.980171
      vertex 33.0986 -11.0579 0.980171
    endloop
  endfacet
  facet normal 0.683138 -0.730289 0
    outer loop
      vertex 36.7772 -7.61681 0.980171
      vertex 33.0986 -11.0579 -0.0263157
      vertex 36.7772 -7.61681 -0.0263157
    endloop
  endfacet
  facet normal 0.138794 0.915108 0.378568
    outer loop
      vertex 15.2336 18.3886 0.980171
      vertex 7.76603 19.5212 0.980171
      vertex 14.6482 17.682 2.90285
    endloop
  endfacet
  facet normal 0.236878 0.886339 0.397859
    outer loop
      vertex 15.2336 18.3886 0.980171
      vertex 14.6482 17.682 2.90285
      vertex 22.1158 16.5493 0.980171
    endloop
  endfacet
  facet normal 0.459161 0.753647 0.470306
    outer loop
      vertex 28.1481 14.074 0.980171
      vertex 27.0664 13.5332 2.90285
      vertex 33.0986 11.0579 0.980171
    endloop
  endfacet
  facet normal 0.514062 0.101273 0.851754
    outer loop
      vertex 35.6051 2.5 4.21865
      vertex 34.599 3.44109 4.71397
      vertex 34.7844 2.5 4.71397
    endloop
  endfacet
  facet normal 0.514062 -0.101273 0.851754
    outer loop
      vertex 34.7844 -2.5 4.71397
      vertex 34.599 -3.44109 4.71397
      vertex 35.6051 -2.5 4.21865
    endloop
  endfacet
  facet normal 0.181929 0.298612 0.936874
    outer loop
      vertex 21.864 10.932 6.34393
      vertex 17.9433 8.97167 7.7301
      vertex 21.0991 7.049 7.7301
    endloop
  endfacet
  facet normal 0.102529 0.249859 0.962839
    outer loop
      vertex 14.098 10.5496 7.7301
      vertex 10.4758 7.83904 8.81921
      vertex 13.3331 6.66656 8.81921
    endloop
  endfacet
  facet normal 0.0794903 -0.130473 0.98826
    outer loop
      vertex 15.6781 -5.23788 8.81921
      vertex 9.65451 -3.22547 9.5694
      vertex 13.3331 -6.66656 8.81921
    endloop
  endfacet
  facet normal 0.10253 -0.249859 0.962839
    outer loop
      vertex 17.9433 -8.97167 7.7301
      vertex 13.3331 -6.66656 8.81921
      vertex 14.098 -10.5496 7.7301
    endloop
  endfacet
  facet normal 0.146946 -0.358096 0.922049
    outer loop
      vertex 17.9433 -8.97167 7.7301
      vertex 14.098 -10.5496 7.7301
      vertex 21.864 -10.932 6.34393
    endloop
  endfacet
  facet normal 0.0220182 -0.447097 0.894214
    outer loop
      vertex 0 -13.5915 7.27831
      vertex 4.95056 -12.4441 7.7301
      vertex 0 -12.6879 7.7301
    endloop
  endfacet
  facet normal 0.0220236 -0.447117 0.894205
    outer loop
      vertex 4.95056 -12.4441 7.7301
      vertex 0 -13.5915 7.27831
      vertex 0 -15.4602 6.34393
    endloop
  endfacet
  facet normal 0.20196 -0.492167 0.846749
    outer loop
      vertex 24.9445 -12.4722 4.71397
      vertex 17.1785 -12.8547 6.34393
      vertex 19.5988 -14.6658 4.71397
    endloop
  endfacet
  facet normal 0.20196 -0.492164 0.846751
    outer loop
      vertex 21.864 -10.932 6.34393
      vertex 17.1785 -12.8547 6.34393
      vertex 24.9445 -12.4722 4.71397
    endloop
  endfacet
  facet normal 0.34828 -0.571636 0.742922
    outer loop
      vertex 31.8267 -10.6329 2.90285
      vertex 24.9445 -12.4722 4.71397
      vertex 27.0664 -13.5332 2.90285
    endloop
  endfacet
  facet normal 0.459162 -0.753629 0.470334
    outer loop
      vertex 31.8267 -10.6329 2.90285
      vertex 27.0664 -13.5332 2.90285
      vertex 33.0986 -11.0579 0.980171
    endloop
  endfacet
  facet normal 0.298284 -0.318879 0.899635
    outer loop
      vertex 32.5916 -6.74993 4.71397
      vertex 28.5667 -5.91636 6.34393
      vertex 29.3316 -9.79938 4.71397
    endloop
  endfacet
  facet normal 0.331604 -0.201177 0.92172
    outer loop
      vertex 34.599 -3.44109 4.71397
      vertex 28.5667 -5.91636 6.34393
      vertex 32.5916 -6.74993 4.71397
    endloop
  endfacet
  facet normal -0.0220116 0.447102 0.894212
    outer loop
      vertex -3.12385 13.557 7.21862
      vertex -5.38339 13.5321 7.17545
      vertex -4.95056 12.4441 7.7301
    endloop
  endfacet
  facet normal 0.0378936 0.769519 0.637499
    outer loop
      vertex 0 19.1388 2.90285
      vertex 0 17.6384 4.71397
      vertex 6.88217 17.2995 4.71397
    endloop
  endfacet
  facet normal 0.107639 0.402755 0.908957
    outer loop
      vertex 11.8327 14.2834 6.34393
      vertex 9.71087 11.7221 7.7301
      vertex 17.1785 12.8547 6.34393
    endloop
  endfacet
  facet normal 0.191625 0.716977 0.670241
    outer loop
      vertex 21.2659 15.9133 2.90285
      vertex 14.6482 17.682 2.90285
      vertex 19.5988 14.6658 4.71397
    endloop
  endfacet
  facet normal 0.298293 0.318876 0.899633
    outer loop
      vertex 29.3316 9.79938 4.71397
      vertex 25.7094 8.58923 6.34393
      vertex 28.5667 5.91636 6.34393
    endloop
  endfacet
  facet normal 0.298284 0.318879 0.899635
    outer loop
      vertex 29.3316 9.79938 4.71397
      vertex 28.5667 5.91636 6.34393
      vertex 32.5916 6.74993 4.71397
    endloop
  endfacet
  facet normal -0.0144381 0.0951912 0.995354
    outer loop
      vertex -2.26527 5.69414 9.5694
      vertex -4.44349 5.36376 9.5694
      vertex -0.764885 1.92267 9.95185
    endloop
  endfacet
  facet normal -0.0144381 -0.0951912 0.995354
    outer loop
      vertex -0.764885 -1.92267 9.95185
      vertex -4.44349 -5.36376 9.5694
      vertex -2.26527 -5.69414 9.5694
    endloop
  endfacet
  facet normal -0.0315902 0.0769858 0.996532
    outer loop
      vertex -2.17822 1.62996 9.95185
      vertex -6.01263 4.41725 9.61497
      vertex -2.77234 1.38617 9.95185
    endloop
  endfacet
  facet normal -0.0316074 0.0769623 0.996533
    outer loop
      vertex -6.01263 4.41725 9.61497
      vertex -2.17822 1.62996 9.95185
      vertex -6.01437 4.50057 9.60848
    endloop
  endfacet
  facet normal 0.015603 0.316832 0.948353
    outer loop
      vertex 0 12.6879 7.7301
      vertex 0 9.42793 8.81921
      vertex 4.95056 12.4441 7.7301
    endloop
  endfacet
  facet normal -0.015603 0.316832 0.948353
    outer loop
      vertex 0 12.6879 7.7301
      vertex -4.95056 12.4441 7.7301
      vertex 0 9.42793 8.81921
    endloop
  endfacet
  facet normal 0.00998639 0.202793 0.979171
    outer loop
      vertex 3.6786 9.24678 8.81921
      vertex 0 9.42793 8.81921
      vertex 2.26527 5.69414 9.5694
    endloop
  endfacet
  facet normal 0.043978 0.0470129 0.997926
    outer loop
      vertex 10.7275 2.22174 9.5694
      vertex 3.25993 1.08911 9.95185
      vertex 3.62224 0.750189 9.95185
    endloop
  endfacet
  facet normal 0.0477433 0.0289656 0.99844
    outer loop
      vertex 10.7275 2.22174 9.5694
      vertex 3.62224 0.750189 9.95185
      vertex 3.84535 0.382442 9.95185
    endloop
  endfacet
  facet normal 0.0234579 -0.0877738 0.995864
    outer loop
      vertex 6.45094 -4.82726 9.5694
      vertex 2.17822 -1.62996 9.95185
      vertex 4.44349 -5.36376 9.5694
    endloop
  endfacet
  facet normal 0.0296105 0.195227 0.980311
    outer loop
      vertex 3.6786 9.24678 8.81921
      vertex 2.26527 5.69414 9.5694
      vertex 7.21583 8.71028 8.81921
    endloop
  endfacet
  facet normal 0.0463392 0.305525 0.951056
    outer loop
      vertex 9.71087 11.7221 7.7301
      vertex 4.95056 12.4441 7.7301
      vertex 7.21583 8.71028 8.81921
    endloop
  endfacet
  facet normal 0.0385209 0.0632267 0.997255
    outer loop
      vertex 8.21049 4.10524 9.5694
      vertex 2.77234 1.38617 9.95185
      vertex 9.65451 3.22547 9.5694
    endloop
  endfacet
  facet normal 0.0650358 0.158491 0.985216
    outer loop
      vertex 13.3331 6.66656 8.81921
      vertex 6.45094 4.82726 9.5694
      vertex 8.21049 4.10524 9.5694
    endloop
  endfacet
  facet normal -0.00998624 0.202793 0.979171
    outer loop
      vertex 0 9.42793 8.81921
      vertex -2.26527 5.69414 9.5694
      vertex 0 5.80569 9.5694
    endloop
  endfacet
  facet normal -0.0048741 0.098968 0.995079
    outer loop
      vertex 0 1.96034 9.95185
      vertex -2.26527 5.69414 9.5694
      vertex -0.764885 1.92267 9.95185
    endloop
  endfacet
  facet normal 0.0385207 -0.0632274 0.997255
    outer loop
      vertex 3.25993 -1.08911 9.95185
      vertex 2.77234 -1.38617 9.95185
      vertex 9.65451 -3.22547 9.5694
    endloop
  endfacet
  facet normal -0.0439754 0.0470216 0.997925
    outer loop
      vertex -3.25993 1.08911 9.95185
      vertex -5.96572 1.99308 9.79002
      vertex -5.95941 1.49855 9.8136
    endloop
  endfacet
  facet normal -0.0385215 0.0632286 0.997255
    outer loop
      vertex -5.96998 2.24076 9.77415
      vertex -3.25993 1.08911 9.95185
      vertex -2.77234 1.38617 9.95185
    endloop
  endfacet
  facet normal -0.0385182 0.0632362 0.997255
    outer loop
      vertex -3.25993 1.08911 9.95185
      vertex -5.96998 2.24076 9.77415
      vertex -5.96572 1.99308 9.79002
    endloop
  endfacet
  facet normal -0.0220243 -0.447097 0.894214
    outer loop
      vertex 0 -12.6879 7.7301
      vertex -3.12385 -13.557 7.21862
      vertex 0 -13.5915 7.27831
    endloop
  endfacet
  facet normal -0.0220189 -0.447112 0.894207
    outer loop
      vertex -3.12385 -13.557 7.21862
      vertex 0 -12.6879 7.7301
      vertex -4.95056 -12.4441 7.7301
    endloop
  endfacet
  facet normal -0.0463415 -0.305522 0.951057
    outer loop
      vertex -6.33883 -10.1558 8.39756
      vertex -6.51768 -12.2064 7.7301
      vertex -4.95056 -12.4441 7.7301
    endloop
  endfacet
  facet normal 0.043978 0.0470126 0.997926
    outer loop
      vertex 9.65451 3.22547 9.5694
      vertex 3.25993 1.08911 9.95185
      vertex 10.7275 2.22174 9.5694
    endloop
  endfacet
  facet normal -0.0496644 0.00978246 0.998718
    outer loop
      vertex -3.84535 0.382442 9.95185
      vertex -5.95021 0.307825 9.84791
      vertex -3.92068 0 9.95185
    endloop
  endfacet
  facet normal -0.0496645 0.00978277 0.998718
    outer loop
      vertex -5.95021 0.307825 9.84791
      vertex -3.84535 0.382442 9.95185
      vertex -5.95097 0.591859 9.84509
    endloop
  endfacet
  facet normal 0.0294903 -0.598871 0.800302
    outer loop
      vertex 0 -15.4602 6.34393
      vertex 0 -17.6384 4.71397
      vertex 6.88217 -17.2995 4.71397
    endloop
  endfacet
  facet normal -0.0477438 0.0289659 0.99844
    outer loop
      vertex -5.95602 1.23353 9.82623
      vertex -3.84535 0.382442 9.95185
      vertex -3.62224 0.750189 9.95185
    endloop
  endfacet
  facet normal -0.0477463 0.0289597 0.99844
    outer loop
      vertex -3.84535 0.382442 9.95185
      vertex -5.95602 1.23353 9.82623
      vertex -5.95376 0.945927 9.83468
    endloop
  endfacet
  facet normal 0.0296108 -0.195226 0.980311
    outer loop
      vertex 4.44349 -5.36376 9.5694
      vertex 2.26527 -5.69414 9.5694
      vertex 7.21583 -8.71028 8.81921
    endloop
  endfacet
  facet normal -0.0234584 0.0877735 0.995864
    outer loop
      vertex -1.50038 1.81112 9.95185
      vertex -4.44349 5.36376 9.5694
      vertex -2.17822 1.62996 9.95185
    endloop
  endfacet
  facet normal -0.00487355 0.0989683 0.995079
    outer loop
      vertex 0 5.80569 9.5694
      vertex -2.26527 5.69414 9.5694
      vertex 0 1.96034 9.95185
    endloop
  endfacet
  facet normal 0.114154 0.752654 0.648445
    outer loop
      vertex 14.6482 17.682 2.90285
      vertex 6.88217 17.2995 4.71397
      vertex 13.4999 16.2958 4.71397
    endloop
  endfacet
  facet normal 0.0882382 0.581784 0.808543
    outer loop
      vertex 13.4999 16.2958 4.71397
      vertex 6.88217 17.2995 4.71397
      vertex 11.8327 14.2834 6.34393
    endloop
  endfacet
  facet normal 0.514078 -0.101273 0.851744
    outer loop
      vertex 35.6051 -2.5 4.21865
      vertex 36.3323 -3.61347 3.64735
      vertex 36.389 -2.5 3.74552
    endloop
  endfacet
  facet normal 0.514068 -0.101282 0.851749
    outer loop
      vertex 36.3323 -3.61347 3.64735
      vertex 35.6051 -2.5 4.21865
      vertex 34.599 -3.44109 4.71397
    endloop
  endfacet
  facet normal 0.146946 0.358096 0.922049
    outer loop
      vertex 21.864 10.932 6.34393
      vertex 14.098 10.5496 7.7301
      vertex 17.9433 8.97167 7.7301
    endloop
  endfacet
  facet normal 0.144676 0.154664 0.977317
    outer loop
      vertex 21.0991 7.049 7.7301
      vertex 15.6781 5.23788 8.81921
      vertex 17.4206 3.60791 8.81921
    endloop
  endfacet
  facet normal 0.146946 0.358097 0.922048
    outer loop
      vertex 17.1785 12.8547 6.34393
      vertex 14.098 10.5496 7.7301
      vertex 21.864 10.932 6.34393
    endloop
  endfacet
  facet normal 0.107639 0.402753 0.908957
    outer loop
      vertex 17.1785 12.8547 6.34393
      vertex 9.71087 11.7221 7.7301
      vertex 14.098 10.5496 7.7301
    endloop
  endfacet
  facet normal 0.0794907 0.130473 0.98826
    outer loop
      vertex 13.3331 6.66656 8.81921
      vertex 8.21049 4.10524 9.5694
      vertex 9.65451 3.22547 9.5694
    endloop
  endfacet
  facet normal 0.0909502 0.0972292 0.991098
    outer loop
      vertex 15.6781 5.23788 8.81921
      vertex 9.65451 3.22547 9.5694
      vertex 17.4206 3.60791 8.81921
    endloop
  endfacet
  facet normal 0.065575 -0.432378 0.899305
    outer loop
      vertex 9.71087 -11.7221 7.7301
      vertex 6.03227 -15.1631 6.34393
      vertex 11.8327 -14.2834 6.34393
    endloop
  endfacet
  facet normal 0.0655798 -0.432382 0.899302
    outer loop
      vertex 9.71087 -11.7221 7.7301
      vertex 4.95056 -12.4441 7.7301
      vertex 6.03227 -15.1631 6.34393
    endloop
  endfacet
  facet normal 0.0463392 -0.305525 0.951056
    outer loop
      vertex 7.21583 -8.71028 8.81921
      vertex 4.95056 -12.4441 7.7301
      vertex 9.71087 -11.7221 7.7301
    endloop
  endfacet
  facet normal 0.0463397 -0.305525 0.951056
    outer loop
      vertex 7.21583 -8.71028 8.81921
      vertex 3.6786 -9.24678 8.81921
      vertex 4.95056 -12.4441 7.7301
    endloop
  endfacet
  facet normal 0.210743 -0.225284 0.951228
    outer loop
      vertex 28.5667 -5.91636 6.34393
      vertex 23.4441 -4.85543 7.7301
      vertex 25.7094 -8.58923 6.34393
    endloop
  endfacet
  facet normal 0.331608 -0.201191 0.921715
    outer loop
      vertex 30.3263 -3.01614 6.34393
      vertex 28.5667 -5.91636 6.34393
      vertex 34.599 -3.44109 4.71397
    endloop
  endfacet
  facet normal 0.231417 -0.140397 0.962671
    outer loop
      vertex 24.8881 -2.47528 7.7301
      vertex 23.4441 -4.85543 7.7301
      vertex 30.3263 -3.01614 6.34393
    endloop
  endfacet
  facet normal 0.157865 -0.0957745 0.982805
    outer loop
      vertex 24.8881 -2.47528 7.7301
      vertex 17.4206 -3.60791 8.81921
      vertex 23.4441 -4.85543 7.7301
    endloop
  endfacet
  facet normal 0.0234579 0.0877738 0.995864
    outer loop
      vertex 4.44349 5.36376 9.5694
      vertex 2.17822 1.62996 9.95185
      vertex 6.45094 4.82726 9.5694
    endloop
  endfacet
  facet normal -0.0220243 0.447097 0.894214
    outer loop
      vertex -3.12385 13.557 7.21862
      vertex 0 12.6879 7.7301
      vertex 0 13.5915 7.27831
    endloop
  endfacet
  facet normal -0.0220189 0.447112 0.894207
    outer loop
      vertex 0 12.6879 7.7301
      vertex -3.12385 13.557 7.21862
      vertex -4.95056 12.4441 7.7301
    endloop
  endfacet
  facet normal 0.0220236 0.447117 0.894205
    outer loop
      vertex 0 13.5915 7.27831
      vertex 4.95056 12.4441 7.7301
      vertex 0 15.4602 6.34393
    endloop
  endfacet
  facet normal 0.0220182 0.447097 0.894214
    outer loop
      vertex 4.95056 12.4441 7.7301
      vertex 0 13.5915 7.27831
      vertex 0 12.6879 7.7301
    endloop
  endfacet
  facet normal 0.0144374 0.0951918 0.995354
    outer loop
      vertex 4.44349 5.36376 9.5694
      vertex 0.764885 1.92267 9.95185
      vertex 1.50038 1.81112 9.95185
    endloop
  endfacet
  facet normal -0.0234567 0.0877745 0.995864
    outer loop
      vertex -4.44349 5.36376 9.5694
      vertex -6.01437 4.50057 9.60848
      vertex -2.17822 1.62996 9.95185
    endloop
  endfacet
  facet normal -0.0234602 0.0877808 0.995864
    outer loop
      vertex -6.01437 4.50057 9.60848
      vertex -4.44349 5.36376 9.5694
      vertex -6.02484 4.94113 9.5694
    endloop
  endfacet
  facet normal 0.043978 -0.0470126 0.997926
    outer loop
      vertex 10.7275 -2.22174 9.5694
      vertex 3.25993 -1.08911 9.95185
      vertex 9.65451 -3.22547 9.5694
    endloop
  endfacet
  facet normal 0.0477433 -0.0289656 0.99844
    outer loop
      vertex 3.84535 -0.382442 9.95185
      vertex 3.62224 -0.750189 9.95185
      vertex 10.7275 -2.22174 9.5694
    endloop
  endfacet
  facet normal -0.0315927 0.0769832 0.996532
    outer loop
      vertex -2.77234 1.38617 9.95185
      vertex -6.01263 4.41725 9.61497
      vertex -5.98286 2.99143 9.72606
    endloop
  endfacet
  facet normal -0.0144374 0.0951918 0.995354
    outer loop
      vertex -0.764885 1.92267 9.95185
      vertex -4.44349 5.36376 9.5694
      vertex -1.50038 1.81112 9.95185
    endloop
  endfacet
  facet normal -0.0439769 0.0470118 0.997926
    outer loop
      vertex -5.95941 1.49855 9.8136
      vertex -3.62224 0.750189 9.95185
      vertex -3.25993 1.08911 9.95185
    endloop
  endfacet
  facet normal -0.0439822 0.0469954 0.997926
    outer loop
      vertex -3.62224 0.750189 9.95185
      vertex -5.95941 1.49855 9.8136
      vertex -5.95602 1.23353 9.82623
    endloop
  endfacet
  facet normal 0.0144374 -0.0951918 0.995354
    outer loop
      vertex 1.50038 -1.81112 9.95185
      vertex 0.764885 -1.92267 9.95185
      vertex 4.44349 -5.36376 9.5694
    endloop
  endfacet
  facet normal -0.0477411 -0.0289791 0.998439
    outer loop
      vertex -5.95097 -0.591859 9.84509
      vertex -5.95376 -0.945927 9.83468
      vertex -3.84535 -0.382442 9.95185
    endloop
  endfacet
  facet normal 0.0048741 0.098968 0.995079
    outer loop
      vertex 2.26527 5.69414 9.5694
      vertex 0 1.96034 9.95185
      vertex 0.764885 1.92267 9.95185
    endloop
  endfacet
  facet normal 0.0144381 -0.0951912 0.995354
    outer loop
      vertex 4.44349 -5.36376 9.5694
      vertex 0.764885 -1.92267 9.95185
      vertex 2.26527 -5.69414 9.5694
    endloop
  endfacet
  facet normal 0.015603 -0.316832 0.948353
    outer loop
      vertex 0 -9.42793 8.81921
      vertex 0 -12.6879 7.7301
      vertex 4.95056 -12.4441 7.7301
    endloop
  endfacet
  facet normal 0.0156022 -0.316833 0.948353
    outer loop
      vertex 3.6786 -9.24678 8.81921
      vertex 0 -9.42793 8.81921
      vertex 4.95056 -12.4441 7.7301
    endloop
  endfacet
  facet normal -0.0048741 -0.098968 0.995079
    outer loop
      vertex -0.764885 -1.92267 9.95185
      vertex -2.26527 -5.69414 9.5694
      vertex 0 -1.96034 9.95185
    endloop
  endfacet
  facet normal 0.00998624 -0.202793 0.979171
    outer loop
      vertex 0 -5.80569 9.5694
      vertex 0 -9.42793 8.81921
      vertex 2.26527 -5.69414 9.5694
    endloop
  endfacet
  facet normal 0.00998639 -0.202793 0.979171
    outer loop
      vertex 2.26527 -5.69414 9.5694
      vertex 0 -9.42793 8.81921
      vertex 3.6786 -9.24678 8.81921
    endloop
  endfacet
  facet normal 0.0481888 -0.18031 0.982429
    outer loop
      vertex 6.45094 -4.82726 9.5694
      vertex 4.44349 -5.36376 9.5694
      vertex 7.21583 -8.71028 8.81921
    endloop
  endfacet
  facet normal 0.0481887 -0.18031 0.982429
    outer loop
      vertex 10.4758 -7.83904 8.81921
      vertex 6.45094 -4.82726 9.5694
      vertex 7.21583 -8.71028 8.81921
    endloop
  endfacet
  facet normal 0.0315903 0.0769859 0.996532
    outer loop
      vertex 6.45094 4.82726 9.5694
      vertex 2.17822 1.62996 9.95185
      vertex 2.77234 1.38617 9.95185
    endloop
  endfacet
  facet normal 0.043978 -0.0470129 0.997926
    outer loop
      vertex 3.62224 -0.750189 9.95185
      vertex 3.25993 -1.08911 9.95185
      vertex 10.7275 -2.22174 9.5694
    endloop
  endfacet
  facet normal 0.0481888 0.18031 0.982429
    outer loop
      vertex 7.21583 8.71028 8.81921
      vertex 4.44349 5.36376 9.5694
      vertex 6.45094 4.82726 9.5694
    endloop
  endfacet
  facet normal 0.0477429 -0.0289672 0.99844
    outer loop
      vertex 11.3883 -1.13263 9.5694
      vertex 3.84535 -0.382442 9.95185
      vertex 10.7275 -2.22174 9.5694
    endloop
  endfacet
  facet normal 0.049665 -0.00978258 0.998718
    outer loop
      vertex 3.92068 0 9.95185
      vertex 3.84535 -0.382442 9.95185
      vertex 11.3883 -1.13263 9.5694
    endloop
  endfacet
  facet normal 0.0457174 0.928215 0.369224
    outer loop
      vertex 7.76603 19.5212 0.980171
      vertex 0 19.9037 0.980171
      vertex 7.46759 18.7711 2.90285
    endloop
  endfacet
  facet normal 0.045704 0.928199 0.369266
    outer loop
      vertex 0 19.9037 0.980171
      vertex 0 19.1388 2.90285
      vertex 7.46759 18.7711 2.90285
    endloop
  endfacet
  facet normal 0.146119 0.546727 0.824463
    outer loop
      vertex 13.4999 16.2958 4.71397
      vertex 11.8327 14.2834 6.34393
      vertex 19.5988 14.6658 4.71397
    endloop
  endfacet
  facet normal 0.191619 0.716972 0.670249
    outer loop
      vertex 14.6482 17.682 2.90285
      vertex 13.4999 16.2958 4.71397
      vertex 19.5988 14.6658 4.71397
    endloop
  endfacet
  facet normal 0.144676 0.154664 0.977317
    outer loop
      vertex 21.0991 7.049 7.7301
      vertex 17.4206 3.60791 8.81921
      vertex 23.4441 4.85543 7.7301
    endloop
  endfacet
  facet normal 0.210739 0.225287 0.951228
    outer loop
      vertex 25.7094 8.58923 6.34393
      vertex 21.0991 7.049 7.7301
      vertex 23.4441 4.85543 7.7301
    endloop
  endfacet
  facet normal 0.0794903 0.130473 0.98826
    outer loop
      vertex 13.3331 6.66656 8.81921
      vertex 9.65451 3.22547 9.5694
      vertex 15.6781 5.23788 8.81921
    endloop
  endfacet
  facet normal 0.125897 0.206644 0.970283
    outer loop
      vertex 21.0991 7.049 7.7301
      vertex 13.3331 6.66656 8.81921
      vertex 15.6781 5.23788 8.81921
    endloop
  endfacet
  facet normal 0.0220211 -0.447113 0.894206
    outer loop
      vertex 4.95056 -12.4441 7.7301
      vertex 0 -15.4602 6.34393
      vertex 6.03227 -15.1631 6.34393
    endloop
  endfacet
  facet normal 0.0294949 -0.598861 0.80031
    outer loop
      vertex 6.03227 -15.1631 6.34393
      vertex 0 -15.4602 6.34393
      vertex 6.88217 -17.2995 4.71397
    endloop
  endfacet
  facet normal 0.0294903 0.598871 0.800302
    outer loop
      vertex 0 17.6384 4.71397
      vertex 0 15.4602 6.34393
      vertex 6.88217 17.2995 4.71397
    endloop
  endfacet
  facet normal 0.0655798 0.432382 0.899302
    outer loop
      vertex 6.03227 15.1631 6.34393
      vertex 4.95056 12.4441 7.7301
      vertex 9.71087 11.7221 7.7301
    endloop
  endfacet
  facet normal 0.0220211 0.447113 0.894206
    outer loop
      vertex 6.03227 15.1631 6.34393
      vertex 0 15.4602 6.34393
      vertex 4.95056 12.4441 7.7301
    endloop
  endfacet
  facet normal -0.0439822 -0.0469954 0.997926
    outer loop
      vertex -5.95941 -1.49855 9.8136
      vertex -3.62224 -0.750189 9.95185
      vertex -5.95602 -1.23353 9.82623
    endloop
  endfacet
  facet normal -0.0439769 -0.0470118 0.997926
    outer loop
      vertex -3.62224 -0.750189 9.95185
      vertex -5.95941 -1.49855 9.8136
      vertex -3.25993 -1.08911 9.95185
    endloop
  endfacet
  facet normal -0.0315927 -0.0769832 0.996532
    outer loop
      vertex -5.98286 -2.99143 9.72606
      vertex -6.01263 -4.41725 9.61497
      vertex -2.77234 -1.38617 9.95185
    endloop
  endfacet
  facet normal 0.0144381 0.0951912 0.995354
    outer loop
      vertex 2.26527 5.69414 9.5694
      vertex 0.764885 1.92267 9.95185
      vertex 4.44349 5.36376 9.5694
    endloop
  endfacet
  facet normal 0.0234584 0.0877735 0.995864
    outer loop
      vertex 4.44349 5.36376 9.5694
      vertex 1.50038 1.81112 9.95185
      vertex 2.17822 1.62996 9.95185
    endloop
  endfacet
  facet normal -0.0385222 -0.063226 0.997255
    outer loop
      vertex -5.96998 -2.24076 9.77415
      vertex -5.98286 -2.99143 9.72606
      vertex -2.77234 -1.38617 9.95185
    endloop
  endfacet
  facet normal -0.0481892 0.180309 0.982429
    outer loop
      vertex -4.44349 5.36376 9.5694
      vertex -6.14846 7.42185 9.10804
      vertex -6.02484 4.94113 9.5694
    endloop
  endfacet
  facet normal -0.0477463 -0.0289597 0.99844
    outer loop
      vertex -5.95602 -1.23353 9.82623
      vertex -3.84535 -0.382442 9.95185
      vertex -5.95376 -0.945927 9.83468
    endloop
  endfacet
  facet normal -0.0477438 -0.0289659 0.99844
    outer loop
      vertex -3.84535 -0.382442 9.95185
      vertex -5.95602 -1.23353 9.82623
      vertex -3.62224 -0.750189 9.95185
    endloop
  endfacet
  facet normal 0 0 1
    outer loop
      vertex 3.84535 0.382442 9.95185
      vertex 3.84535 -0.382442 9.95185
      vertex 3.92068 0 9.95185
    endloop
  endfacet
  facet normal 0 0 1
    outer loop
      vertex 3.62224 0.750189 9.95185
      vertex 3.84535 -0.382442 9.95185
      vertex 3.84535 0.382442 9.95185
    endloop
  endfacet
  facet normal 0 0 1
    outer loop
      vertex 3.62224 0.750189 9.95185
      vertex 3.62224 -0.750189 9.95185
      vertex 3.84535 -0.382442 9.95185
    endloop
  endfacet
  facet normal 0 0 1
    outer loop
      vertex 3.25993 1.08911 9.95185
      vertex 3.62224 -0.750189 9.95185
      vertex 3.62224 0.750189 9.95185
    endloop
  endfacet
  facet normal 0 0 1
    outer loop
      vertex 3.25993 1.08911 9.95185
      vertex 3.25993 -1.08911 9.95185
      vertex 3.62224 -0.750189 9.95185
    endloop
  endfacet
  facet normal 0 0 1
    outer loop
      vertex 2.77234 1.38617 9.95185
      vertex 3.25993 -1.08911 9.95185
      vertex 3.25993 1.08911 9.95185
    endloop
  endfacet
  facet normal 0 0 1
    outer loop
      vertex 2.77234 1.38617 9.95185
      vertex 2.77234 -1.38617 9.95185
      vertex 3.25993 -1.08911 9.95185
    endloop
  endfacet
  facet normal 0 0 1
    outer loop
      vertex 2.17822 1.62996 9.95185
      vertex 2.77234 -1.38617 9.95185
      vertex 2.77234 1.38617 9.95185
    endloop
  endfacet
  facet normal 0 0 1
    outer loop
      vertex 2.17822 1.62996 9.95185
      vertex 2.17822 -1.62996 9.95185
      vertex 2.77234 -1.38617 9.95185
    endloop
  endfacet
  facet normal 0 0 1
    outer loop
      vertex 1.50038 1.81112 9.95185
      vertex 2.17822 -1.62996 9.95185
      vertex 2.17822 1.62996 9.95185
    endloop
  endfacet
  facet normal 0 0 1
    outer loop
      vertex 1.50038 1.81112 9.95185
      vertex 1.50038 -1.81112 9.95185
      vertex 2.17822 -1.62996 9.95185
    endloop
  endfacet
  facet normal 0 0 1
    outer loop
      vertex 0.764885 1.92267 9.95185
      vertex 1.50038 -1.81112 9.95185
      vertex 1.50038 1.81112 9.95185
    endloop
  endfacet
  facet normal 0 0 1
    outer loop
      vertex 0.764885 1.92267 9.95185
      vertex 0.764885 -1.92267 9.95185
      vertex 1.50038 -1.81112 9.95185
    endloop
  endfacet
  facet normal 0 0 1
    outer loop
      vertex 0 1.96034 9.95185
      vertex 0.764885 -1.92267 9.95185
      vertex 0.764885 1.92267 9.95185
    endloop
  endfacet
  facet normal 0 0 1
    outer loop
      vertex 0 1.96034 9.95185
      vertex 0 -1.96034 9.95185
      vertex 0.764885 -1.92267 9.95185
    endloop
  endfacet
  facet normal -0 0 1
    outer loop
      vertex -0.764885 1.92267 9.95185
      vertex 0 -1.96034 9.95185
      vertex 0 1.96034 9.95185
    endloop
  endfacet
  facet normal 0 0 1
    outer loop
      vertex -0.764885 1.92267 9.95185
      vertex -0.764885 -1.92267 9.95185
      vertex 0 -1.96034 9.95185
    endloop
  endfacet
  facet normal -0 0 1
    outer loop
      vertex -1.50038 1.81112 9.95185
      vertex -0.764885 -1.92267 9.95185
      vertex -0.764885 1.92267 9.95185
    endloop
  endfacet
  facet normal 0 0 1
    outer loop
      vertex -1.50038 1.81112 9.95185
      vertex -1.50038 -1.81112 9.95185
      vertex -0.764885 -1.92267 9.95185
    endloop
  endfacet
  facet normal -0 0 1
    outer loop
      vertex -2.17822 1.62996 9.95185
      vertex -1.50038 -1.81112 9.95185
      vertex -1.50038 1.81112 9.95185
    endloop
  endfacet
  facet normal 0 0 1
    outer loop
      vertex -2.17822 1.62996 9.95185
      vertex -2.17822 -1.62996 9.95185
      vertex -1.50038 -1.81112 9.95185
    endloop
  endfacet
  facet normal -0 0 1
    outer loop
      vertex -2.77234 1.38617 9.95185
      vertex -2.17822 -1.62996 9.95185
      vertex -2.17822 1.62996 9.95185
    endloop
  endfacet
  facet normal 0 0 1
    outer loop
      vertex -2.77234 1.38617 9.95185
      vertex -2.77234 -1.38617 9.95185
      vertex -2.17822 -1.62996 9.95185
    endloop
  endfacet
  facet normal -0 0 1
    outer loop
      vertex -3.25993 1.08911 9.95185
      vertex -2.77234 -1.38617 9.95185
      vertex -2.77234 1.38617 9.95185
    endloop
  endfacet
  facet normal 0 0 1
    outer loop
      vertex -3.25993 1.08911 9.95185
      vertex -3.25993 -1.08911 9.95185
      vertex -2.77234 -1.38617 9.95185
    endloop
  endfacet
  facet normal -0 0 1
    outer loop
      vertex -3.62224 0.750189 9.95185
      vertex -3.25993 -1.08911 9.95185
      vertex -3.25993 1.08911 9.95185
    endloop
  endfacet
  facet normal 0 0 1
    outer loop
      vertex -3.62224 0.750189 9.95185
      vertex -3.62224 -0.750189 9.95185
      vertex -3.25993 -1.08911 9.95185
    endloop
  endfacet
  facet normal -0 0 1
    outer loop
      vertex -3.84535 0.382442 9.95185
      vertex -3.62224 -0.750189 9.95185
      vertex -3.62224 0.750189 9.95185
    endloop
  endfacet
  facet normal 0 0 1
    outer loop
      vertex -3.84535 0.382442 9.95185
      vertex -3.84535 -0.382442 9.95185
      vertex -3.62224 -0.750189 9.95185
    endloop
  endfacet
  facet normal 0 -0 1
    outer loop
      vertex -3.84535 -0.382442 9.95185
      vertex -3.84535 0.382442 9.95185
      vertex -3.92068 0 9.95185
    endloop
  endfacet
  facet normal -0.00998639 -0.202793 0.979171
    outer loop
      vertex -2.26527 -5.69414 9.5694
      vertex -3.6786 -9.24678 8.81921
      vertex 0 -9.42793 8.81921
    endloop
  endfacet
  facet normal -0.00998624 -0.202793 0.979171
    outer loop
      vertex 0 -5.80569 9.5694
      vertex -2.26527 -5.69414 9.5694
      vertex 0 -9.42793 8.81921
    endloop
  endfacet
  facet normal 0.0650358 -0.158491 0.985216
    outer loop
      vertex 8.21049 -4.10524 9.5694
      vertex 6.45094 -4.82726 9.5694
      vertex 13.3331 -6.66656 8.81921
    endloop
  endfacet
  facet normal 0.0794907 -0.130473 0.98826
    outer loop
      vertex 9.65451 -3.22547 9.5694
      vertex 8.21049 -4.10524 9.5694
      vertex 13.3331 -6.66656 8.81921
    endloop
  endfacet
  facet normal -0.0439754 -0.0470216 0.997925
    outer loop
      vertex -5.95941 -1.49855 9.8136
      vertex -5.96572 -1.99308 9.79002
      vertex -3.25993 -1.08911 9.95185
    endloop
  endfacet
  facet normal 0.20196 0.492167 0.846749
    outer loop
      vertex 19.5988 14.6658 4.71397
      vertex 17.1785 12.8547 6.34393
      vertex 24.9445 12.4722 4.71397
    endloop
  endfacet
  facet normal 0.270233 0.658544 0.702349
    outer loop
      vertex 21.2659 15.9133 2.90285
      vertex 19.5988 14.6658 4.71397
      vertex 24.9445 12.4722 4.71397
    endloop
  endfacet
  facet normal 0.0481887 0.18031 0.982429
    outer loop
      vertex 7.21583 8.71028 8.81921
      vertex 6.45094 4.82726 9.5694
      vertex 10.4758 7.83904 8.81921
    endloop
  endfacet
  facet normal 0.0650359 0.158491 0.985216
    outer loop
      vertex 10.4758 7.83904 8.81921
      vertex 6.45094 4.82726 9.5694
      vertex 13.3331 6.66656 8.81921
    endloop
  endfacet
  facet normal -0.0234567 -0.0877745 0.995864
    outer loop
      vertex -6.01437 -4.50057 9.60848
      vertex -4.44349 -5.36376 9.5694
      vertex -2.17822 -1.62996 9.95185
    endloop
  endfacet
  facet normal -0.0234602 -0.0877808 0.995864
    outer loop
      vertex -4.44349 -5.36376 9.5694
      vertex -6.01437 -4.50057 9.60848
      vertex -6.02484 -4.94113 9.5694
    endloop
  endfacet
  facet normal -0.046341 -0.305531 0.951054
    outer loop
      vertex -6.33883 -10.1558 8.39756
      vertex -3.6786 -9.24678 8.81921
      vertex -6.22585 -8.86043 8.81921
    endloop
  endfacet
  facet normal -0.046344 -0.305524 0.951056
    outer loop
      vertex -3.6786 -9.24678 8.81921
      vertex -6.33883 -10.1558 8.39756
      vertex -4.95056 -12.4441 7.7301
    endloop
  endfacet
  facet normal -0.0296099 -0.195227 0.980311
    outer loop
      vertex -6.18395 -8.0816 8.97558
      vertex -3.6786 -9.24678 8.81921
      vertex -2.26527 -5.69414 9.5694
    endloop
  endfacet
  facet normal -0.0296111 -0.195229 0.980311
    outer loop
      vertex -3.6786 -9.24678 8.81921
      vertex -6.18395 -8.0816 8.97558
      vertex -6.22585 -8.86043 8.81921
    endloop
  endfacet
  facet normal -0.0234584 -0.0877735 0.995864
    outer loop
      vertex -2.17822 -1.62996 9.95185
      vertex -4.44349 -5.36376 9.5694
      vertex -1.50038 -1.81112 9.95185
    endloop
  endfacet
  facet normal -0.0144374 -0.0951918 0.995354
    outer loop
      vertex -1.50038 -1.81112 9.95185
      vertex -4.44349 -5.36376 9.5694
      vertex -0.764885 -1.92267 9.95185
    endloop
  endfacet
  facet normal -0.0655814 -0.432368 0.899309
    outer loop
      vertex -6.51768 -12.2064 7.7301
      vertex -5.38339 -13.5321 7.17545
      vertex -4.95056 -12.4441 7.7301
    endloop
  endfacet
  facet normal -0.065606 -0.432385 0.899299
    outer loop
      vertex -5.38339 -13.5321 7.17545
      vertex -6.51768 -12.2064 7.7301
      vertex -6.68622 -13.4891 7.10108
    endloop
  endfacet
  facet normal 0 0 -1
    outer loop
      vertex 36.7772 -7.61681 -0.0263157
      vertex 34.2113 -5 -0.0263157
      vertex 38.3648 -5 -0.0263157
    endloop
  endfacet
  facet normal 0 0 -1
    outer loop
      vertex 28.1481 -14.074 -0.0263157
      vertex 34.2113 -5 -0.0263157
      vertex 33.0986 -11.0579 -0.0263157
    endloop
  endfacet
  facet normal 0 0 -1
    outer loop
      vertex 33.0986 -11.0579 -0.0263157
      vertex 34.2113 -5 -0.0263157
      vertex 36.7772 -7.61681 -0.0263157
    endloop
  endfacet
  facet normal 0 0 -1
    outer loop
      vertex 34.2113 5 -0.0263157
      vertex 36.7772 7.61681 -0.0263157
      vertex 38.3648 5 -0.0263157
    endloop
  endfacet
  facet normal 0 0 -1
    outer loop
      vertex 34.2113 5 -0.0263157
      vertex 33.0986 11.0579 -0.0263157
      vertex 36.7772 7.61681 -0.0263157
    endloop
  endfacet
  facet normal 0 0 -1
    outer loop
      vertex 22.1158 -16.5493 -0.0263157
      vertex 34.2113 -5 -0.0263157
      vertex 28.1481 -14.074 -0.0263157
    endloop
  endfacet
  facet normal -0 0 -1
    outer loop
      vertex 34.2113 -5 -0.0263157
      vertex 22.1158 -16.5493 -0.0263157
      vertex 34.2113 5 -0.0263157
    endloop
  endfacet
  facet normal 0 0 -1
    outer loop
      vertex 34.2113 5 -0.0263157
      vertex 28.1481 14.074 -0.0263157
      vertex 33.0986 11.0579 -0.0263157
    endloop
  endfacet
  facet normal 0 0 -1
    outer loop
      vertex 22.1158 16.5493 -0.0263157
      vertex 34.2113 5 -0.0263157
      vertex 22.1158 -16.5493 -0.0263157
    endloop
  endfacet
  facet normal 0 0 -1
    outer loop
      vertex 34.2113 5 -0.0263157
      vertex 22.1158 16.5493 -0.0263157
      vertex 28.1481 14.074 -0.0263157
    endloop
  endfacet
  facet normal 0 0 -1
    outer loop
      vertex 0 -9.37413 -0.0263157
      vertex 22.1158 -16.5493 -0.0263157
      vertex 15.2336 -18.3886 -0.0263157
    endloop
  endfacet
  facet normal 0 0 -1
    outer loop
      vertex 22.1158 -16.5493 -0.0263157
      vertex 0 -9.37413 -0.0263157
      vertex 22.1158 16.5493 -0.0263157
    endloop
  endfacet
  facet normal 0 0 -1
    outer loop
      vertex 0 -9.37413 -0.0263157
      vertex 15.2336 -18.3886 -0.0263157
      vertex 7.76603 -19.5212 -0.0263157
    endloop
  endfacet
  facet normal 0 0 -1
    outer loop
      vertex 0 9.37413 -0.0263157
      vertex 22.1158 16.5493 -0.0263157
      vertex 0 -9.37413 -0.0263157
    endloop
  endfacet
  facet normal 0 0 -1
    outer loop
      vertex 0 -9.37413 -0.0263157
      vertex 7.76603 -19.5212 -0.0263157
      vertex 0 -19.9037 -0.0263157
    endloop
  endfacet
  facet normal -0 0 -1
    outer loop
      vertex 22.1158 16.5493 -0.0263157
      vertex 0 9.37413 -0.0263157
      vertex 15.2336 18.3886 -0.0263157
    endloop
  endfacet
  facet normal -0 0 -1
    outer loop
      vertex 15.2336 18.3886 -0.0263157
      vertex 0 9.37413 -0.0263157
      vertex 7.76603 19.5212 -0.0263157
    endloop
  endfacet
  facet normal -0 0 -1
    outer loop
      vertex 7.76603 19.5212 -0.0263157
      vertex 0 9.37413 -0.0263157
      vertex 0 19.9037 -0.0263157
    endloop
  endfacet
  facet normal 0 0 -1
    outer loop
      vertex -8.596 -9.37413 -0.0263157
      vertex 0 9.37413 -0.0263157
      vertex 0 -9.37413 -0.0263157
    endloop
  endfacet
  facet normal -0 0 -1
    outer loop
      vertex 0 9.37413 -0.0263157
      vertex -8.596 -9.37413 -0.0263157
      vertex -8.596 9.37413 -0.0263157
    endloop
  endfacet
  facet normal -1 0 0
    outer loop
      vertex 0 19.9037 -0.0263157
      vertex 0 19.3072 0
      vertex 0 19.9037 0.980171
    endloop
  endfacet
  facet normal -1 0 0
    outer loop
      vertex 0 9.37413 -0.0263157
      vertex 0 19.3072 0
      vertex 0 19.9037 -0.0263157
    endloop
  endfacet
  facet normal -1 -0 0
    outer loop
      vertex 0 19.3072 0
      vertex 0 9.37413 -0.0263157
      vertex 0 9.38933 0
    endloop
  endfacet
  facet normal -1 0 0
    outer loop
      vertex 0 19.3072 0
      vertex 0 19.1388 2.90285
      vertex 0 19.9037 0.980171
    endloop
  endfacet
  facet normal -1 0 0
    outer loop
      vertex 0 19.3072 0
      vertex 0 17.6384 4.71397
      vertex 0 19.1388 2.90285
    endloop
  endfacet
  facet normal -1 0 0
    outer loop
      vertex 0 14 6.1282
      vertex 0 17.6384 4.71397
      vertex 0 19.3072 0
    endloop
  endfacet
  facet normal -1 0 0
    outer loop
      vertex 0 17.6384 4.71397
      vertex 0 14 6.1282
      vertex 0 15.4602 6.34393
    endloop
  endfacet
  facet normal -1 0 0
    outer loop
      vertex 0 13.5915 7.27831
      vertex 0 14 6.1282
      vertex 0 13.6536 6.5282
    endloop
  endfacet
  facet normal -1 0 0
    outer loop
      vertex 0 14 6.1282
      vertex 0 13.5915 7.27831
      vertex 0 15.4602 6.34393
    endloop
  endfacet
  facet normal -1 0 -0
    outer loop
      vertex 0 13.5915 7.27831
      vertex 0 13.6536 6.5282
      vertex 0 13.1584 6.5282
    endloop
  endfacet
  facet normal 0 0.865931 -0.500163
    outer loop
      vertex 0 9.38933 0
      vertex 0 9.37413 -0.0263157
      vertex -7.66025 9.38933 0
    endloop
  endfacet
  facet normal 9.24021e-06 0.866026 -0.499998
    outer loop
      vertex -4.28858 12.168 4.81277
      vertex -5.38339 13.5321 7.17545
      vertex -3.12385 13.557 7.21862
    endloop
  endfacet
  facet normal -9.99938e-06 0.866014 -0.500021
    outer loop
      vertex 0 13.1584 6.5282
      vertex -3.12385 13.557 7.21862
      vertex 0 13.5915 7.27831
    endloop
  endfacet
  facet normal -2.24531e-06 0.866029 -0.499994
    outer loop
      vertex -3.12385 13.557 7.21862
      vertex 0 13.1584 6.5282
      vertex -4.28858 12.168 4.81277
    endloop
  endfacet
  facet normal -4.03251e-05 0.866016 -0.500016
    outer loop
      vertex -5.38339 13.5321 7.17545
      vertex -4.28858 12.168 4.81277
      vertex -6.68622 13.4891 7.10108
    endloop
  endfacet
  facet normal -9.60629e-06 0.86603 -0.499992
    outer loop
      vertex -7.66025 11.2336 3.19437
      vertex -6.68622 13.4891 7.10108
      vertex -4.28858 12.168 4.81277
    endloop
  endfacet
  facet normal -0.000256226 0.866057 -0.499945
    outer loop
      vertex -7.66025 11.2336 3.19437
      vertex -8.596 9.37413 -0.0263157
      vertex -6.68622 13.4891 7.10108
    endloop
  endfacet
  facet normal -6.13288e-06 0.866025 -0.5
    outer loop
      vertex -7.66025 9.38933 0
      vertex -8.596 9.37413 -0.0263157
      vertex -7.66025 11.2336 3.19437
    endloop
  endfacet
  facet normal 0 0.865931 -0.500163
    outer loop
      vertex -8.596 9.37413 -0.0263157
      vertex -7.66025 9.38933 0
      vertex 0 9.37413 -0.0263157
    endloop
  endfacet
  facet normal -1 0 0
    outer loop
      vertex 0 -9.37413 -0.0263157
      vertex 0 -19.3072 0
      vertex 0 -9.38933 0
    endloop
  endfacet
  facet normal -1 0 -0
    outer loop
      vertex 0 -19.3072 0
      vertex 0 -9.37413 -0.0263157
      vertex 0 -19.9037 -0.0263157
    endloop
  endfacet
  facet normal -1 0 0
    outer loop
      vertex 0 -13.6536 6.5282
      vertex 0 -13.5915 7.27831
      vertex 0 -13.1584 6.5282
    endloop
  endfacet
  facet normal -1 0 0
    outer loop
      vertex 0 -14 6.1282
      vertex 0 -13.5915 7.27831
      vertex 0 -13.6536 6.5282
    endloop
  endfacet
  facet normal -1 0 0
    outer loop
      vertex 0 -14 6.1282
      vertex 0 -15.4602 6.34393
      vertex 0 -13.5915 7.27831
    endloop
  endfacet
  facet normal -1 -0 0
    outer loop
      vertex 0 -14 6.1282
      vertex 0 -17.6384 4.71397
      vertex 0 -15.4602 6.34393
    endloop
  endfacet
  facet normal -1 0 0
    outer loop
      vertex 0 -19.3072 0
      vertex 0 -17.6384 4.71397
      vertex 0 -14 6.1282
    endloop
  endfacet
  facet normal -1 0 0
    outer loop
      vertex 0 -17.6384 4.71397
      vertex 0 -19.3072 0
      vertex 0 -19.1388 2.90285
    endloop
  endfacet
  facet normal -1 0 0
    outer loop
      vertex 0 -19.9037 0.980171
      vertex 0 -19.3072 0
      vertex 0 -19.9037 -0.0263157
    endloop
  endfacet
  facet normal -1 0 0
    outer loop
      vertex 0 -19.3072 0
      vertex 0 -19.9037 0.980171
      vertex 0 -19.1388 2.90285
    endloop
  endfacet
  facet normal -4.03251e-05 -0.866016 -0.500016
    outer loop
      vertex -4.28858 -12.168 4.81277
      vertex -5.38339 -13.5321 7.17545
      vertex -6.68622 -13.4891 7.10108
    endloop
  endfacet
  facet normal 9.24021e-06 -0.866026 -0.499998
    outer loop
      vertex -5.38339 -13.5321 7.17545
      vertex -4.28858 -12.168 4.81277
      vertex -3.12385 -13.557 7.21862
    endloop
  endfacet
  facet normal -2.24531e-06 -0.866029 -0.499994
    outer loop
      vertex 0 -13.1584 6.5282
      vertex -3.12385 -13.557 7.21862
      vertex -4.28858 -12.168 4.81277
    endloop
  endfacet
  facet normal -9.99938e-06 -0.866014 -0.500021
    outer loop
      vertex -3.12385 -13.557 7.21862
      vertex 0 -13.1584 6.5282
      vertex 0 -13.5915 7.27831
    endloop
  endfacet
  facet normal -9.60629e-06 -0.86603 -0.499992
    outer loop
      vertex -6.68622 -13.4891 7.10108
      vertex -7.66025 -11.2336 3.19437
      vertex -4.28858 -12.168 4.81277
    endloop
  endfacet
  facet normal -0.000256226 -0.866057 -0.499945
    outer loop
      vertex -8.596 -9.37413 -0.0263157
      vertex -7.66025 -11.2336 3.19437
      vertex -6.68622 -13.4891 7.10108
    endloop
  endfacet
  facet normal -6.13288e-06 -0.866025 -0.5
    outer loop
      vertex -8.596 -9.37413 -0.0263157
      vertex -7.66025 -9.38933 0
      vertex -7.66025 -11.2336 3.19437
    endloop
  endfacet
  facet normal -0 -0.865931 -0.500163
    outer loop
      vertex 0 -9.37413 -0.0263157
      vertex -7.66025 -9.38933 0
      vertex -8.596 -9.37413 -0.0263157
    endloop
  endfacet
  facet normal 0 -0.865931 -0.500163
    outer loop
      vertex -7.66025 -9.38933 0
      vertex 0 -9.37413 -0.0263157
      vertex 0 -9.38933 0
    endloop
  endfacet
  facet normal -0.965926 3.1738e-06 0.258817
    outer loop
      vertex -8.596 9.37413 -0.0263157
      vertex -6.51768 12.2064 7.7301
      vertex -6.68622 13.4891 7.10108
    endloop
  endfacet
  facet normal -0.965926 -2.14296e-06 0.258819
    outer loop
      vertex -6.51768 12.2064 7.7301
      vertex -8.596 9.37413 -0.0263157
      vertex -6.33883 10.1558 8.39756
    endloop
  endfacet
  facet normal -0.965926 5.37361e-07 0.258819
    outer loop
      vertex -8.596 9.37413 -0.0263157
      vertex -6.22585 8.86043 8.81921
      vertex -6.33883 10.1558 8.39756
    endloop
  endfacet
  facet normal -0.965926 -1.01735e-06 0.258819
    outer loop
      vertex -8.596 9.37413 -0.0263157
      vertex -6.18395 8.0816 8.97558
      vertex -6.22585 8.86043 8.81921
    endloop
  endfacet
  facet normal -0.965926 3.82911e-06 0.258819
    outer loop
      vertex -8.596 9.37413 -0.0263157
      vertex -6.14846 7.42185 9.10804
      vertex -6.18395 8.0816 8.97558
    endloop
  endfacet
  facet normal -0.965926 3.55258e-07 0.258819
    outer loop
      vertex -8.596 9.37413 -0.0263157
      vertex -6.02484 4.94113 9.5694
      vertex -6.14846 7.42185 9.10804
    endloop
  endfacet
  facet normal -0.965926 3.28533e-06 0.25882
    outer loop
      vertex -8.596 9.37413 -0.0263157
      vertex -6.01437 4.50057 9.60848
      vertex -6.02484 4.94113 9.5694
    endloop
  endfacet
  facet normal -0.965928 -1.22326e-05 0.258813
    outer loop
      vertex -8.596 9.37413 -0.0263157
      vertex -6.01263 4.41725 9.61497
      vertex -6.01437 4.50057 9.60848
    endloop
  endfacet
  facet normal -0.965926 -2.52548e-06 0.258817
    outer loop
      vertex -8.596 9.37413 -0.0263157
      vertex -5.98286 2.99143 9.72606
      vertex -6.01263 4.41725 9.61497
    endloop
  endfacet
  facet normal -0.965925 7.61621e-06 0.258824
    outer loop
      vertex -8.596 9.37413 -0.0263157
      vertex -5.96998 2.24076 9.77415
      vertex -5.98286 2.99143 9.72606
    endloop
  endfacet
  facet normal -0.965932 -3.13243e-05 0.258797
    outer loop
      vertex -8.596 9.37413 -0.0263157
      vertex -5.96572 1.99308 9.79002
      vertex -5.96998 2.24076 9.77415
    endloop
  endfacet
  facet normal -0.965923 1.67007e-05 0.258831
    outer loop
      vertex -8.596 9.37413 -0.0263157
      vertex -5.95941 1.49855 9.8136
      vertex -5.96572 1.99308 9.79002
    endloop
  endfacet
  facet normal -0.96593 -2.20206e-05 0.258802
    outer loop
      vertex -8.596 9.37413 -0.0263157
      vertex -5.95602 1.23353 9.82623
      vertex -5.95941 1.49855 9.8136
    endloop
  endfacet
  facet normal -0.965923 1.43509e-05 0.25883
    outer loop
      vertex -8.596 9.37413 -0.0263157
      vertex -5.95376 0.945927 9.83468
      vertex -5.95602 1.23353 9.82623
    endloop
  endfacet
  facet normal -0.965926 -1.83314e-06 0.258817
    outer loop
      vertex -8.596 9.37413 -0.0263157
      vertex -5.95097 0.591859 9.84509
      vertex -5.95376 0.945927 9.83468
    endloop
  endfacet
  facet normal -0.965929 -1.50444e-05 0.258806
    outer loop
      vertex -8.596 9.37413 -0.0263157
      vertex -5.95021 0.307825 9.84791
      vertex -5.95097 0.591859 9.84509
    endloop
  endfacet
  facet normal -0.965928 -8.72499e-06 0.258811
    outer loop
      vertex -8.596 9.37413 -0.0263157
      vertex -5.94939 0 9.85096
      vertex -5.95021 0.307825 9.84791
    endloop
  endfacet
  facet normal -0.965924 8.56239e-06 0.258827
    outer loop
      vertex -8.596 9.37413 -0.0263157
      vertex -5.95021 -0.307825 9.84791
      vertex -5.94939 0 9.85096
    endloop
  endfacet
  facet normal -0.965926 0 0.258819
    outer loop
      vertex -8.596 -9.37413 -0.0263157
      vertex -5.95021 -0.307825 9.84791
      vertex -8.596 9.37413 -0.0263157
    endloop
  endfacet
  facet normal -0.965929 1.50444e-05 0.258806
    outer loop
      vertex -5.95021 -0.307825 9.84791
      vertex -8.596 -9.37413 -0.0263157
      vertex -5.95097 -0.591859 9.84509
    endloop
  endfacet
  facet normal -0.965926 1.83314e-06 0.258817
    outer loop
      vertex -5.95097 -0.591859 9.84509
      vertex -8.596 -9.37413 -0.0263157
      vertex -5.95376 -0.945927 9.83468
    endloop
  endfacet
  facet normal -0.965923 -1.43509e-05 0.25883
    outer loop
      vertex -5.95376 -0.945927 9.83468
      vertex -8.596 -9.37413 -0.0263157
      vertex -5.95602 -1.23353 9.82623
    endloop
  endfacet
  facet normal -0.96593 2.20206e-05 0.258802
    outer loop
      vertex -5.95602 -1.23353 9.82623
      vertex -8.596 -9.37413 -0.0263157
      vertex -5.95941 -1.49855 9.8136
    endloop
  endfacet
  facet normal -0.965923 -1.67007e-05 0.258831
    outer loop
      vertex -5.95941 -1.49855 9.8136
      vertex -8.596 -9.37413 -0.0263157
      vertex -5.96572 -1.99308 9.79002
    endloop
  endfacet
  facet normal -0.965932 3.13243e-05 0.258797
    outer loop
      vertex -5.96572 -1.99308 9.79002
      vertex -8.596 -9.37413 -0.0263157
      vertex -5.96998 -2.24076 9.77415
    endloop
  endfacet
  facet normal -0.965925 -7.61621e-06 0.258824
    outer loop
      vertex -5.96998 -2.24076 9.77415
      vertex -8.596 -9.37413 -0.0263157
      vertex -5.98286 -2.99143 9.72606
    endloop
  endfacet
  facet normal -0.965926 2.52548e-06 0.258817
    outer loop
      vertex -5.98286 -2.99143 9.72606
      vertex -8.596 -9.37413 -0.0263157
      vertex -6.01263 -4.41725 9.61497
    endloop
  endfacet
  facet normal -0.965928 1.22326e-05 0.258813
    outer loop
      vertex -6.01263 -4.41725 9.61497
      vertex -8.596 -9.37413 -0.0263157
      vertex -6.01437 -4.50057 9.60848
    endloop
  endfacet
  facet normal -0.965926 -3.28533e-06 0.25882
    outer loop
      vertex -6.01437 -4.50057 9.60848
      vertex -8.596 -9.37413 -0.0263157
      vertex -6.02484 -4.94113 9.5694
    endloop
  endfacet
  facet normal -0.965926 -3.55258e-07 0.258819
    outer loop
      vertex -6.02484 -4.94113 9.5694
      vertex -8.596 -9.37413 -0.0263157
      vertex -6.14846 -7.42185 9.10804
    endloop
  endfacet
  facet normal -0.965926 -3.82911e-06 0.258819
    outer loop
      vertex -6.14846 -7.42185 9.10804
      vertex -8.596 -9.37413 -0.0263157
      vertex -6.18395 -8.0816 8.97558
    endloop
  endfacet
  facet normal -0.965926 1.01735e-06 0.258819
    outer loop
      vertex -6.18395 -8.0816 8.97558
      vertex -8.596 -9.37413 -0.0263157
      vertex -6.22585 -8.86043 8.81921
    endloop
  endfacet
  facet normal -0.965926 -5.37361e-07 0.258819
    outer loop
      vertex -8.596 -9.37413 -0.0263157
      vertex -6.33883 -10.1558 8.39756
      vertex -6.22585 -8.86043 8.81921
    endloop
  endfacet
  facet normal -0.965926 2.14296e-06 0.258819
    outer loop
      vertex -8.596 -9.37413 -0.0263157
      vertex -6.51768 -12.2064 7.7301
      vertex -6.33883 -10.1558 8.39756
    endloop
  endfacet
  facet normal -0.965926 -3.1738e-06 0.258817
    outer loop
      vertex -6.51768 -12.2064 7.7301
      vertex -8.596 -9.37413 -0.0263157
      vertex -6.68622 -13.4891 7.10108
    endloop
  endfacet
  facet normal 0.866037 -1.91103e-05 -0.49998
    outer loop
      vertex 36.389 -2.5 3.74552
      vertex 36.3323 -3.61347 3.64735
      vertex 36.0471 -2.5 3.1533
    endloop
  endfacet
  facet normal 0.866022 -1.82113e-05 -0.500007
    outer loop
      vertex 36.3323 3.61347 3.64735
      vertex 34.2113 5 -0.0263157
      vertex 36.1212 5 3.28167
    endloop
  endfacet
  facet normal 0.866037 1.91103e-05 -0.49998
    outer loop
      vertex 36.0471 2.5 3.1533
      vertex 36.3323 3.61347 3.64735
      vertex 36.389 2.5 3.74552
    endloop
  endfacet
  facet normal 0.866029 2.73095e-05 -0.499994
    outer loop
      vertex 36.3323 3.61347 3.64735
      vertex 36.0471 2.5 3.1533
      vertex 34.2113 5 -0.0263157
    endloop
  endfacet
  facet normal 0.86602 0 -0.50001
    outer loop
      vertex 36.0471 -2.5 3.1533
      vertex 34.2113 5 -0.0263157
      vertex 36.0471 2.5 3.1533
    endloop
  endfacet
  facet normal 0.866054 -1.60097e-06 -0.49995
    outer loop
      vertex 36.1212 -5 3.28167
      vertex 36.0471 -2.5 3.1533
      vertex 36.3323 -3.61347 3.64735
    endloop
  endfacet
  facet normal 0.866022 -5.45822e-06 -0.500007
    outer loop
      vertex 34.2113 -5 -0.0263157
      vertex 36.0471 -2.5 3.1533
      vertex 36.1212 -5 3.28167
    endloop
  endfacet
  facet normal 0.86602 0 -0.50001
    outer loop
      vertex 36.0471 -2.5 3.1533
      vertex 34.2113 -5 -0.0263157
      vertex 34.2113 5 -0.0263157
    endloop
  endfacet
  facet normal 0 -1 0
    outer loop
      vertex 34.2113 5 -0.0263157
      vertex 36.7739 5 2.90285
      vertex 36.1212 5 3.28167
    endloop
  endfacet
  facet normal 0 -1 -0
    outer loop
      vertex 36.7739 5 2.90285
      vertex 34.2113 5 -0.0263157
      vertex 37.8484 5 1.60428
    endloop
  endfacet
  facet normal 0 -1 0
    outer loop
      vertex 38.3648 5 -0.0263157
      vertex 37.8484 5 1.60428
      vertex 34.2113 5 -0.0263157
    endloop
  endfacet
  facet normal 0 -1 0
    outer loop
      vertex 37.8484 5 1.60428
      vertex 38.3648 5 -0.0263157
      vertex 38.3648 5 0.980171
    endloop
  endfacet
  facet normal 0 1 0
    outer loop
      vertex 34.2113 -5 -0.0263157
      vertex 36.7739 -5 2.90285
      vertex 37.8484 -5 1.60428
    endloop
  endfacet
  facet normal 0 1 -0
    outer loop
      vertex 38.3648 -5 -0.0263157
      vertex 37.8484 -5 1.60428
      vertex 38.3648 -5 0.980171
    endloop
  endfacet
  facet normal 0 1 0
    outer loop
      vertex 37.8484 -5 1.60428
      vertex 38.3648 -5 -0.0263157
      vertex 34.2113 -5 -0.0263157
    endloop
  endfacet
  facet normal 0 1 0
    outer loop
      vertex 36.7739 -5 2.90285
      vertex 34.2113 -5 -0.0263157
      vertex 36.1212 -5 3.28167
    endloop
  endfacet
  facet normal 0.422616 0 0.906309
    outer loop
      vertex 30.5448 2.5 5.71905
      vertex 36.0471 -2.5 3.1533
      vertex 36.0471 2.5 3.1533
    endloop
  endfacet
  facet normal 0.422616 0 0.906309
    outer loop
      vertex 36.0471 -2.5 3.1533
      vertex 30.5448 2.5 5.71905
      vertex 30.5448 -2.5 5.71905
    endloop
  endfacet
  facet normal 0.906338 2.97368e-05 -0.422554
    outer loop
      vertex 30.8362 0.4276 6.34393
      vertex 30.5448 2.5 5.71905
      vertex 30.7755 2.5 6.21388
    endloop
  endfacet
  facet normal 0.906125 -0.000137736 -0.42301
    outer loop
      vertex 30.8443 0.0312177 6.36141
      vertex 30.5448 2.5 5.71905
      vertex 30.8362 0.4276 6.34393
    endloop
  endfacet
  facet normal 0.891827 0 -0.452376
    outer loop
      vertex 30.8443 -0.0312177 6.36141
      vertex 30.8443 0.0312177 6.36141
      vertex 30.845 0 6.36279
    endloop
  endfacet
  facet normal 0.906328 0 -0.422575
    outer loop
      vertex 30.8443 0.0312177 6.36141
      vertex 30.8443 -0.0312177 6.36141
      vertex 30.5448 2.5 5.71905
    endloop
  endfacet
  facet normal 0.906475 9.74944e-05 -0.422259
    outer loop
      vertex 30.8362 -0.4276 6.34393
      vertex 30.5448 2.5 5.71905
      vertex 30.8443 -0.0312177 6.36141
    endloop
  endfacet
  facet normal 0.906338 -2.97368e-05 -0.422554
    outer loop
      vertex 30.5448 -2.5 5.71905
      vertex 30.8362 -0.4276 6.34393
      vertex 30.7755 -2.5 6.21388
    endloop
  endfacet
  facet normal 0.9063 0 -0.422635
    outer loop
      vertex 30.8362 -0.4276 6.34393
      vertex 30.5448 -2.5 5.71905
      vertex 30.5448 2.5 5.71905
    endloop
  endfacet
  facet normal 0 1 0
    outer loop
      vertex 33.593 -2.5 5.15974
      vertex 30.5448 -2.5 5.71905
      vertex 30.7755 -2.5 6.21388
    endloop
  endfacet
  facet normal 0 1 0
    outer loop
      vertex 36.0471 -2.5 3.1533
      vertex 33.593 -2.5 5.15974
      vertex 34.7844 -2.5 4.71397
    endloop
  endfacet
  facet normal 0 1 0
    outer loop
      vertex 36.0471 -2.5 3.1533
      vertex 34.7844 -2.5 4.71397
      vertex 35.6051 -2.5 4.21865
    endloop
  endfacet
  facet normal 0 1 -0
    outer loop
      vertex 36.0471 -2.5 3.1533
      vertex 35.6051 -2.5 4.21865
      vertex 36.389 -2.5 3.74552
    endloop
  endfacet
  facet normal 0 1 0
    outer loop
      vertex 33.593 -2.5 5.15974
      vertex 36.0471 -2.5 3.1533
      vertex 30.5448 -2.5 5.71905
    endloop
  endfacet
  facet normal 0 -1 0
    outer loop
      vertex 30.5448 2.5 5.71905
      vertex 33.593 2.5 5.15974
      vertex 30.7755 2.5 6.21388
    endloop
  endfacet
  facet normal 0 -1 0
    outer loop
      vertex 36.0471 2.5 3.1533
      vertex 33.593 2.5 5.15974
      vertex 30.5448 2.5 5.71905
    endloop
  endfacet
  facet normal 0 -1 0
    outer loop
      vertex 33.593 2.5 5.15974
      vertex 36.0471 2.5 3.1533
      vertex 34.7844 2.5 4.71397
    endloop
  endfacet
  facet normal 0 -1 0
    outer loop
      vertex 34.7844 2.5 4.71397
      vertex 36.0471 2.5 3.1533
      vertex 35.6051 2.5 4.21865
    endloop
  endfacet
  facet normal 0 -1 0
    outer loop
      vertex 35.6051 2.5 4.21865
      vertex 36.0471 2.5 3.1533
      vertex 36.389 2.5 3.74552
    endloop
  endfacet
  facet normal -0.463915 0.669567 0.580054
    outer loop
      vertex 1 20 0
      vertex 0.803856 19.8641 0
      vertex 1 19.8544 0.168069
    endloop
  endfacet
  facet normal -0.463948 0.669648 0.579935
    outer loop
      vertex 0 19.3072 0
      vertex -7.66025 14 0
      vertex 0 14 6.1282
    endloop
  endfacet
  facet normal 0.463923 0.669564 0.580051
    outer loop
      vertex 1 20 0
      vertex 1 19.8544 0.168069
      vertex 1.22616 19.8433 0
    endloop
  endfacet
  facet normal -1 0 0
    outer loop
      vertex -7.66025 14 0
      vertex -7.66025 9.38933 0
      vertex -7.66025 11.2336 3.19437
    endloop
  endfacet
  facet normal -0.463945 0.669659 0.579924
    outer loop
      vertex 0 14 6.1282
      vertex -4.28858 12.168 4.81277
      vertex 0 13.6536 6.5282
    endloop
  endfacet
  facet normal -0.463945 0.669653 0.579931
    outer loop
      vertex -7.66025 14 0
      vertex -4.28858 12.168 4.81277
      vertex 0 14 6.1282
    endloop
  endfacet
  facet normal -0.463949 0.669649 0.579932
    outer loop
      vertex -4.28858 12.168 4.81277
      vertex -7.66025 14 0
      vertex -7.66025 11.2336 3.19437
    endloop
  endfacet
  facet normal -0.37139 0 0.928477
    outer loop
      vertex 0 13.6536 6.5282
      vertex -4.28858 12.168 4.81277
      vertex 0 13.1584 6.5282
    endloop
  endfacet
  facet normal 0 0 -1
    outer loop
      vertex 1.22616 -19.8433 0
      vertex 1 -20 0
      vertex 0.803856 -19.8641 0
    endloop
  endfacet
  facet normal 0 0 -1
    outer loop
      vertex -7.66025 -14 0
      vertex 0 -9.38933 0
      vertex 0 -19.3072 0
    endloop
  endfacet
  facet normal -0 0 -1
    outer loop
      vertex 0 -9.38933 0
      vertex -7.66025 -14 0
      vertex -7.66025 -9.38933 0
    endloop
  endfacet
  facet normal 0 -0 -1
    outer loop
      vertex 1 20 0
      vertex 1.22616 19.8433 0
      vertex 0.803856 19.8641 0
    endloop
  endfacet
  facet normal 0 0 -1
    outer loop
      vertex -7.66025 14 0
      vertex 0 9.38933 0
      vertex -7.66025 9.38933 0
    endloop
  endfacet
  facet normal 0 0 -1
    outer loop
      vertex 0 9.38933 0
      vertex -7.66025 14 0
      vertex 0 19.3072 0
    endloop
  endfacet
  facet normal -0.463915 -0.669567 0.580054
    outer loop
      vertex 1 -20 0
      vertex 1 -19.8544 0.168069
      vertex 0.803856 -19.8641 0
    endloop
  endfacet
  facet normal -0.463948 -0.669648 0.579935
    outer loop
      vertex 0 -19.3072 0
      vertex 0 -14 6.1282
      vertex -7.66025 -14 0
    endloop
  endfacet
  facet normal 0.463923 -0.669564 0.580051
    outer loop
      vertex 1.22616 -19.8433 0
      vertex 1 -19.8544 0.168069
      vertex 1 -20 0
    endloop
  endfacet
  facet normal -1 0 -0
    outer loop
      vertex -7.66025 -11.2336 3.19437
      vertex -7.66025 -9.38933 0
      vertex -7.66025 -14 0
    endloop
  endfacet
  facet normal -0.463945 -0.669659 0.579924
    outer loop
      vertex -4.28858 -12.168 4.81277
      vertex 0 -14 6.1282
      vertex 0 -13.6536 6.5282
    endloop
  endfacet
  facet normal -0.463949 -0.669649 0.579932
    outer loop
      vertex -7.66025 -14 0
      vertex -4.28858 -12.168 4.81277
      vertex -7.66025 -11.2336 3.19437
    endloop
  endfacet
  facet normal -0.463945 -0.669653 0.579931
    outer loop
      vertex -4.28858 -12.168 4.81277
      vertex -7.66025 -14 0
      vertex 0 -14 6.1282
    endloop
  endfacet
  facet normal -0.37139 0 0.928477
    outer loop
      vertex 0 -13.6536 6.5282
      vertex 0 -13.1584 6.5282
      vertex -4.28858 -12.168 4.81277
    endloop
  endfacet
endsolid OpenSCAD_Model
