solid OpenSCAD_Model
  facet normal 0.0786958 0.346609 0.934703
    outer loop
      vertex 3.99998 3.8471 1.76335
      vertex 1.52786 1.46946 2.85317
      vertex 10.4721 2.37764 1.76335
    endloop
  endfacet
  facet normal 0 0.889017 0.457874
    outer loop
      vertex 1.2664 4.40265 0.684683
      vertex -1.74999 3.8471 1.76335
      vertex 3.99998 3.8471 1.76335
    endloop
  endfacet
  facet normal 7.97738e-06 0.889018 0.457873
    outer loop
      vertex -1.74999 3.8471 1.76335
      vertex -1.72002 4.22571 1.02823
      vertex -1.9204 4.22171 1.036
    endloop
  endfacet
  facet normal -7.33618e-07 0.889018 0.457872
    outer loop
      vertex -1.74999 3.8471 1.76335
      vertex 1.2664 4.40265 0.684683
      vertex -1.72002 4.22571 1.02823
    endloop
  endfacet
  facet normal 6.77694e-06 0.888991 0.457924
    outer loop
      vertex -1.72002 4.22571 1.02823
      vertex 1.2664 4.40265 0.684683
      vertex -1.72002 4.23577 1.0087
    endloop
  endfacet
  facet normal -0 0.889018 0.457872
    outer loop
      vertex 2.34912 4.75528 0
      vertex 3.99998 3.8471 1.76335
      vertex 4.94426 4.75528 0
    endloop
  endfacet
  facet normal 1.54913e-06 0.889019 0.457871
    outer loop
      vertex 3.99998 3.8471 1.76335
      vertex 2.34912 4.75528 0
      vertex 1.2664 4.40265 0.684683
    endloop
  endfacet
  facet normal 0.188103 -0.828485 -0.527474
    outer loop
      vertex 5.0383 -4.71483 -0.0299978
      vertex 12.9443 -2.93892 0
      vertex 4.94426 -4.75528 0
    endloop
  endfacet
  facet normal 0.188103 -0.828488 -0.527469
    outer loop
      vertex 12.9443 -2.93892 0
      vertex 5.0383 -4.71483 -0.0299978
      vertex 12.9022 -2.92938 -0.0299978
    endloop
  endfacet
  facet normal 0.443498 0.46112 0.768556
    outer loop
      vertex 12.9443 2.93892 0
      vertex 10.4721 2.37764 1.76335
      vertex 16 0 0
    endloop
  endfacet
  facet normal 0.188103 0.828488 -0.527469
    outer loop
      vertex 5.0383 4.71483 -0.0299978
      vertex 12.9443 2.93892 0
      vertex 12.9022 2.92938 -0.0299978
    endloop
  endfacet
  facet normal 0.188103 0.828485 -0.527474
    outer loop
      vertex 12.9443 2.93892 0
      vertex 5.0383 4.71483 -0.0299978
      vertex 4.94426 4.75528 0
    endloop
  endfacet
  facet normal 0.443502 0.46114 0.768542
    outer loop
      vertex 16 0 0
      vertex 10.4721 2.37764 1.76335
      vertex 12.9443 0 1.76335
    endloop
  endfacet
  facet normal 0 -0.889016 -0.457877
    outer loop
      vertex 2.41845 -4.73983 -0.0299978
      vertex 4.94426 -4.75528 0
      vertex 2.34912 -4.75528 0
    endloop
  endfacet
  facet normal 0 -0.889016 -0.457877
    outer loop
      vertex 4.94426 -4.75528 0
      vertex 2.41845 -4.73983 -0.0299978
      vertex 4.9282 -4.73983 -0.0299978
    endloop
  endfacet
  facet normal 0.078696 0.346608 0.934703
    outer loop
      vertex 10.4721 2.37764 1.76335
      vertex 1.52786 1.46946 2.85317
      vertex 3.99998 0.908175 2.85317
    endloop
  endfacet
  facet normal 0.133671 0.138985 0.981232
    outer loop
      vertex 10.4721 2.37764 1.76335
      vertex 3.99998 0.908175 2.85317
      vertex 4.94426 0 2.85317
    endloop
  endfacet
  facet normal 0 0 1
    outer loop
      vertex 3.99998 0.908175 2.85317
      vertex 3.99998 -0.908175 2.85317
      vertex 4.94426 0 2.85317
    endloop
  endfacet
  facet normal 0 0 1
    outer loop
      vertex 1.52786 1.46946 2.85317
      vertex 3.99998 -0.908175 2.85317
      vertex 3.99998 0.908175 2.85317
    endloop
  endfacet
  facet normal 0 0 1
    outer loop
      vertex 1.52786 1.46946 2.85317
      vertex 1.52786 -1.46946 2.85317
      vertex 3.99998 -0.908175 2.85317
    endloop
  endfacet
  facet normal -0 0 1
    outer loop
      vertex -0.66844 1.46946 2.85317
      vertex 1.52786 -1.46946 2.85317
      vertex 1.52786 1.46946 2.85317
    endloop
  endfacet
  facet normal 0 0 1
    outer loop
      vertex -0.66844 1.46946 2.85317
      vertex -0.66844 -1.46946 2.85317
      vertex 1.52786 -1.46946 2.85317
    endloop
  endfacet
  facet normal -0 0 1
    outer loop
      vertex -1.74999 0.908175 2.85317
      vertex -0.66844 -1.46946 2.85317
      vertex -0.66844 1.46946 2.85317
    endloop
  endfacet
  facet normal 0 0 1
    outer loop
      vertex -1.74999 0.908175 2.85317
      vertex -1.74999 -0.908175 2.85317
      vertex -0.66844 -1.46946 2.85317
    endloop
  endfacet
  facet normal 0 -0 1
    outer loop
      vertex -1.74999 -0.908175 2.85317
      vertex -1.74999 0.908175 2.85317
      vertex -2.16311 0 2.85317
    endloop
  endfacet
  facet normal 7.97738e-06 -0.889018 0.457873
    outer loop
      vertex -1.72002 -4.22571 1.02823
      vertex -1.74999 -3.8471 1.76335
      vertex -1.9204 -4.22171 1.036
    endloop
  endfacet
  facet normal -7.33618e-07 -0.889018 0.457872
    outer loop
      vertex 1.2664 -4.40265 0.684683
      vertex -1.74999 -3.8471 1.76335
      vertex -1.72002 -4.22571 1.02823
    endloop
  endfacet
  facet normal 6.77694e-06 -0.888991 0.457924
    outer loop
      vertex 1.2664 -4.40265 0.684683
      vertex -1.72002 -4.22571 1.02823
      vertex -1.72002 -4.23577 1.0087
    endloop
  endfacet
  facet normal 0 -0.889017 0.457874
    outer loop
      vertex -1.74999 -3.8471 1.76335
      vertex 1.2664 -4.40265 0.684683
      vertex 3.99998 -3.8471 1.76335
    endloop
  endfacet
  facet normal 1.54913e-06 -0.889019 0.457871
    outer loop
      vertex 2.34912 -4.75528 0
      vertex 3.99998 -3.8471 1.76335
      vertex 1.2664 -4.40265 0.684683
    endloop
  endfacet
  facet normal 0 -0.889018 0.457872
    outer loop
      vertex 3.99998 -3.8471 1.76335
      vertex 2.34912 -4.75528 0
      vertex 4.94426 -4.75528 0
    endloop
  endfacet
  facet normal 0.188107 -0.828506 0.527441
    outer loop
      vertex 10.4721 -2.37764 1.76335
      vertex 4.94426 -4.75528 0
      vertex 12.9443 -2.93892 0
    endloop
  endfacet
  facet normal 0.443697 -0.461328 -0.768316
    outer loop
      vertex 12.9443 -2.93892 0
      vertex 15.906 -0.0404479 -0.0299978
      vertex 16 0 0
    endloop
  endfacet
  facet normal 0.44332 -0.460947 -0.768763
    outer loop
      vertex 15.906 -0.0404479 -0.0299978
      vertex 12.9443 -2.93892 0
      vertex 12.9022 -2.92938 -0.0299978
    endloop
  endfacet
  facet normal 0.13367 0.138986 0.981231
    outer loop
      vertex 10.4721 2.37764 1.76335
      vertex 4.94426 0 2.85317
      vertex 12.9443 0 1.76335
    endloop
  endfacet
  facet normal 0.188126 0.828508 -0.527431
    outer loop
      vertex 5.0383 4.71483 -0.0299978
      vertex 4.9282 4.73983 -0.0299978
      vertex 4.94426 4.75528 0
    endloop
  endfacet
  facet normal 0.188126 -0.828508 -0.527431
    outer loop
      vertex 4.94426 -4.75528 0
      vertex 4.9282 -4.73983 -0.0299978
      vertex 5.0383 -4.71483 -0.0299978
    endloop
  endfacet
  facet normal 0.443543 -0.460563 -0.768864
    outer loop
      vertex 16 0 0
      vertex 15.906 -0.0404479 -0.0299978
      vertex 15.948 0 -0.0299978
    endloop
  endfacet
  facet normal 0.443697 0.461328 -0.768316
    outer loop
      vertex 15.906 0.0404479 -0.0299978
      vertex 12.9443 2.93892 0
      vertex 16 0 0
    endloop
  endfacet
  facet normal 0.44332 0.460947 -0.768763
    outer loop
      vertex 12.9443 2.93892 0
      vertex 15.906 0.0404479 -0.0299978
      vertex 12.9022 2.92938 -0.0299978
    endloop
  endfacet
  facet normal 0.188108 0.828507 0.527439
    outer loop
      vertex 4.94426 4.75528 0
      vertex 3.99998 3.8471 1.76335
      vertex 10.4721 2.37764 1.76335
    endloop
  endfacet
  facet normal 0.188107 0.828506 0.527441
    outer loop
      vertex 12.9443 2.93892 0
      vertex 4.94426 4.75528 0
      vertex 10.4721 2.37764 1.76335
    endloop
  endfacet
  facet normal 0.443543 0.460563 -0.768864
    outer loop
      vertex 15.948 0 -0.0299978
      vertex 15.906 0.0404479 -0.0299978
      vertex 16 0 0
    endloop
  endfacet
  facet normal 0 0.889016 -0.457877
    outer loop
      vertex 2.41845 4.73983 -0.0299978
      vertex 4.94426 4.75528 0
      vertex 4.9282 4.73983 -0.0299978
    endloop
  endfacet
  facet normal 0 0.889016 -0.457877
    outer loop
      vertex 4.94426 4.75528 0
      vertex 2.41845 4.73983 -0.0299978
      vertex 2.34912 4.75528 0
    endloop
  endfacet
  facet normal 0.0786958 -0.346609 0.934703
    outer loop
      vertex 10.4721 -2.37764 1.76335
      vertex 1.52786 -1.46946 2.85317
      vertex 3.99998 -3.8471 1.76335
    endloop
  endfacet
  facet normal -0 0.416676 0.909055
    outer loop
      vertex -1.74999 3.8471 1.76335
      vertex 1.52786 1.46946 2.85317
      vertex 3.99998 3.8471 1.76335
    endloop
  endfacet
  facet normal 0 0.416676 0.909055
    outer loop
      vertex 1.52786 1.46946 2.85317
      vertex -1.74999 3.8471 1.76335
      vertex -0.66844 1.46946 2.85317
    endloop
  endfacet
  facet normal 0.188108 -0.828507 0.527439
    outer loop
      vertex 10.4721 -2.37764 1.76335
      vertex 3.99998 -3.8471 1.76335
      vertex 4.94426 -4.75528 0
    endloop
  endfacet
  facet normal 0.443498 -0.46112 0.768556
    outer loop
      vertex 16 0 0
      vertex 10.4721 -2.37764 1.76335
      vertex 12.9443 -2.93892 0
    endloop
  endfacet
  facet normal 0.443502 -0.46114 0.768542
    outer loop
      vertex 12.9443 0 1.76335
      vertex 10.4721 -2.37764 1.76335
      vertex 16 0 0
    endloop
  endfacet
  facet normal 0.13367 -0.138986 0.981231
    outer loop
      vertex 12.9443 0 1.76335
      vertex 4.94426 0 2.85317
      vertex 10.4721 -2.37764 1.76335
    endloop
  endfacet
  facet normal 0 -0.416676 0.909055
    outer loop
      vertex -1.74999 -3.8471 1.76335
      vertex 1.52786 -1.46946 2.85317
      vertex -0.66844 -1.46946 2.85317
    endloop
  endfacet
  facet normal 0 -0.416676 0.909055
    outer loop
      vertex 1.52786 -1.46946 2.85317
      vertex -1.74999 -3.8471 1.76335
      vertex 3.99998 -3.8471 1.76335
    endloop
  endfacet
  facet normal 0.078696 -0.346608 0.934703
    outer loop
      vertex 3.99998 -0.908175 2.85317
      vertex 1.52786 -1.46946 2.85317
      vertex 10.4721 -2.37764 1.76335
    endloop
  endfacet
  facet normal 0.133671 -0.138985 0.981232
    outer loop
      vertex 4.94426 0 2.85317
      vertex 3.99998 -0.908175 2.85317
      vertex 10.4721 -2.37764 1.76335
    endloop
  endfacet
  facet normal 0 0 -1
    outer loop
      vertex -5.82919 -2.52383 -0.0299978
      vertex -6.87657 -0.121344 -0.0299978
      vertex -5.78398 -2.52323 -0.0299978
    endloop
  endfacet
  facet normal 0 0 -1
    outer loop
      vertex -6.95886 -0.0404479 -0.0299978
      vertex -6.87657 -0.121344 -0.0299978
      vertex -5.82919 -2.52383 -0.0299978
    endloop
  endfacet
  facet normal 0 0 -1
    outer loop
      vertex -6.87657 -0.121344 -0.0299978
      vertex -6.95886 -0.0404479 -0.0299978
      vertex -6.93177 0 -0.0299978
    endloop
  endfacet
  facet normal 0 0 -1
    outer loop
      vertex -6.87657 0.121344 -0.0299978
      vertex -5.82919 2.52383 -0.0299978
      vertex -5.78398 2.52323 -0.0299978
    endloop
  endfacet
  facet normal 0 0 -1
    outer loop
      vertex -6.95886 0.0404479 -0.0299978
      vertex -6.87657 0.121344 -0.0299978
      vertex -6.93177 0 -0.0299978
    endloop
  endfacet
  facet normal 0 0 -1
    outer loop
      vertex -6.97726 0 -0.0299978
      vertex -6.93177 0 -0.0299978
      vertex -6.95886 -0.0404479 -0.0299978
    endloop
  endfacet
  facet normal -0 0 -1
    outer loop
      vertex -6.87657 0.121344 -0.0299978
      vertex -6.95886 0.0404479 -0.0299978
      vertex -5.82919 2.52383 -0.0299978
    endloop
  endfacet
  facet normal 0 0 -1
    outer loop
      vertex -6.93177 0 -0.0299978
      vertex -6.97726 0 -0.0299978
      vertex -6.95886 0.0404479 -0.0299978
    endloop
  endfacet
  facet normal 0 0 -1
    outer loop
      vertex 15.906 -0.0404479 -0.0299978
      vertex 15.906 0.0404479 -0.0299978
      vertex 15.948 0 -0.0299978
    endloop
  endfacet
  facet normal 0 0 -1
    outer loop
      vertex 15.906 -0.0404479 -0.0299978
      vertex 15.844 0 -0.0299978
      vertex 15.906 0.0404479 -0.0299978
    endloop
  endfacet
  facet normal -0 0 -1
    outer loop
      vertex 15.906 -0.0404479 -0.0299978
      vertex 15.7179 -0.121344 -0.0299978
      vertex 15.844 0 -0.0299978
    endloop
  endfacet
  facet normal 0 0 -1
    outer loop
      vertex 12.9022 -2.92938 -0.0299978
      vertex 15.7179 -0.121344 -0.0299978
      vertex 15.906 -0.0404479 -0.0299978
    endloop
  endfacet
  facet normal 0 0 -1
    outer loop
      vertex 12.9022 -2.92938 -0.0299978
      vertex 12.8181 -2.91028 -0.0299978
      vertex 15.7179 -0.121344 -0.0299978
    endloop
  endfacet
  facet normal -0 0 -1
    outer loop
      vertex 12.9022 -2.92938 -0.0299978
      vertex 5.22638 -4.63394 -0.0299978
      vertex 12.8181 -2.91028 -0.0299978
    endloop
  endfacet
  facet normal 0 0 -1
    outer loop
      vertex 5.0383 -4.71483 -0.0299978
      vertex 5.22638 -4.63394 -0.0299978
      vertex 12.9022 -2.92938 -0.0299978
    endloop
  endfacet
  facet normal 0 0 -1
    outer loop
      vertex 4.89607 -4.70893 -0.0299978
      vertex 5.0383 -4.71483 -0.0299978
      vertex 4.9282 -4.73983 -0.0299978
    endloop
  endfacet
  facet normal 0 0 -1
    outer loop
      vertex 5.0383 -4.71483 -0.0299978
      vertex 4.89607 -4.70893 -0.0299978
      vertex 5.22638 -4.63394 -0.0299978
    endloop
  endfacet
  facet normal 0 0 -1
    outer loop
      vertex 2.41845 -4.73983 -0.0299978
      vertex 4.89607 -4.70893 -0.0299978
      vertex 4.9282 -4.73983 -0.0299978
    endloop
  endfacet
  facet normal -0 0 -1
    outer loop
      vertex 4.89607 -4.70893 -0.0299978
      vertex 2.41845 -4.73983 -0.0299978
      vertex 2.44034 -4.70893 -0.0299978
    endloop
  endfacet
  facet normal 0 0 -1
    outer loop
      vertex 15.7179 0.121344 -0.0299978
      vertex 15.906 0.0404479 -0.0299978
      vertex 15.844 0 -0.0299978
    endloop
  endfacet
  facet normal 0 0 -1
    outer loop
      vertex 15.7179 0.121344 -0.0299978
      vertex 12.9022 2.92938 -0.0299978
      vertex 15.906 0.0404479 -0.0299978
    endloop
  endfacet
  facet normal 0 0 -1
    outer loop
      vertex 12.8181 2.91028 -0.0299978
      vertex 12.9022 2.92938 -0.0299978
      vertex 15.7179 0.121344 -0.0299978
    endloop
  endfacet
  facet normal 0 0 -1
    outer loop
      vertex 5.22638 4.63394 -0.0299978
      vertex 12.9022 2.92938 -0.0299978
      vertex 12.8181 2.91028 -0.0299978
    endloop
  endfacet
  facet normal 0 0 -1
    outer loop
      vertex 5.22638 4.63394 -0.0299978
      vertex 5.0383 4.71483 -0.0299978
      vertex 12.9022 2.92938 -0.0299978
    endloop
  endfacet
  facet normal 0 0 -1
    outer loop
      vertex 4.89607 4.70893 -0.0299978
      vertex 5.0383 4.71483 -0.0299978
      vertex 5.22638 4.63394 -0.0299978
    endloop
  endfacet
  facet normal -0 0 -1
    outer loop
      vertex 5.0383 4.71483 -0.0299978
      vertex 4.89607 4.70893 -0.0299978
      vertex 4.9282 4.73983 -0.0299978
    endloop
  endfacet
  facet normal 0 0 -1
    outer loop
      vertex 2.41845 4.73983 -0.0299978
      vertex 4.89607 4.70893 -0.0299978
      vertex 2.44034 4.70893 -0.0299978
    endloop
  endfacet
  facet normal 0 0 -1
    outer loop
      vertex 4.89607 4.70893 -0.0299978
      vertex 2.41845 4.73983 -0.0299978
      vertex 4.9282 4.73983 -0.0299978
    endloop
  endfacet
  facet normal 0.104738 -0.461312 -0.881034
    outer loop
      vertex 12.8181 -2.91028 -0.0299978
      vertex 5.22638 -4.63394 -0.0299978
      vertex 10.4721 -2.37764 -0.587785
    endloop
  endfacet
  facet normal 0.104738 0.461312 -0.881034
    outer loop
      vertex 10.4721 2.37764 -0.587785
      vertex 5.22638 4.63394 -0.0299978
      vertex 12.8181 2.91028 -0.0299978
    endloop
  endfacet
  facet normal 1.38555e-06 -0.543341 -0.839512
    outer loop
      vertex 4.89607 -4.70893 -0.0299978
      vertex 2.61939 -4.61795 -0.0888848
      vertex 3.99998 -3.8471 -0.587785
    endloop
  endfacet
  facet normal 0 -0.543366 -0.839496
    outer loop
      vertex 2.61939 -4.61795 -0.0888848
      vertex 4.89607 -4.70893 -0.0299978
      vertex 2.44034 -4.70893 -0.0299978
    endloop
  endfacet
  facet normal 5.95527e-07 -0.54334 -0.839513
    outer loop
      vertex 1.2664 -3.93043 -0.533855
      vertex 3.99998 -3.8471 -0.587785
      vertex 2.61939 -4.61795 -0.0888848
    endloop
  endfacet
  facet normal -0 -0.543326 -0.839522
    outer loop
      vertex 3.99998 -3.8471 -0.587785
      vertex 1.2664 -3.93043 -0.533855
      vertex 0.310653 -3.8471 -0.587785
    endloop
  endfacet
  facet normal 0.0453115 -0.0471136 -0.997861
    outer loop
      vertex 10.4721 -2.37764 -0.587785
      vertex 4.94426 0 -0.951056
      vertex 12.9443 0 -0.587785
    endloop
  endfacet
  facet normal 0.185349 -0.192717 -0.96359
    outer loop
      vertex 12.8181 -2.91028 -0.0299978
      vertex 10.4721 -2.37764 -0.587785
      vertex 15.7179 -0.121344 -0.0299978
    endloop
  endfacet
  facet normal 0.104738 0.461312 -0.881034
    outer loop
      vertex 3.99998 3.8471 -0.587785
      vertex 5.22638 4.63394 -0.0299978
      vertex 10.4721 2.37764 -0.587785
    endloop
  endfacet
  facet normal 0.104733 0.461318 -0.881031
    outer loop
      vertex 5.22638 4.63394 -0.0299978
      vertex 3.99998 3.8471 -0.587785
      vertex 4.89607 4.70893 -0.0299978
    endloop
  endfacet
  facet normal 0.0453117 -0.0471131 -0.997861
    outer loop
      vertex 10.4721 -2.37764 -0.587785
      vertex 3.99998 -0.908175 -0.951056
      vertex 4.94426 0 -0.951056
    endloop
  endfacet
  facet normal 0.104733 -0.461318 -0.881031
    outer loop
      vertex 3.99998 -3.8471 -0.587785
      vertex 5.22638 -4.63394 -0.0299978
      vertex 4.89607 -4.70893 -0.0299978
    endloop
  endfacet
  facet normal 0.104738 -0.461312 -0.881034
    outer loop
      vertex 5.22638 -4.63394 -0.0299978
      vertex 3.99998 -3.8471 -0.587785
      vertex 10.4721 -2.37764 -0.587785
    endloop
  endfacet
  facet normal 0.18536 -0.192625 -0.963607
    outer loop
      vertex 15.7179 -0.121344 -0.0299978
      vertex 12.9443 0 -0.587785
      vertex 15.844 0 -0.0299978
    endloop
  endfacet
  facet normal 0.185352 -0.192723 -0.963588
    outer loop
      vertex 12.9443 0 -0.587785
      vertex 15.7179 -0.121344 -0.0299978
      vertex 10.4721 -2.37764 -0.587785
    endloop
  endfacet
  facet normal 0.185349 0.192717 -0.96359
    outer loop
      vertex 15.7179 0.121344 -0.0299978
      vertex 10.4721 2.37764 -0.587785
      vertex 12.8181 2.91028 -0.0299978
    endloop
  endfacet
  facet normal 0.18536 0.192625 -0.963607
    outer loop
      vertex 12.9443 0 -0.587785
      vertex 15.7179 0.121344 -0.0299978
      vertex 15.844 0 -0.0299978
    endloop
  endfacet
  facet normal 0.185352 0.192723 -0.963588
    outer loop
      vertex 15.7179 0.121344 -0.0299978
      vertex 12.9443 0 -0.587785
      vertex 10.4721 2.37764 -0.587785
    endloop
  endfacet
  facet normal 0.0453115 0.0471136 -0.997861
    outer loop
      vertex 12.9443 0 -0.587785
      vertex 4.94426 0 -0.951056
      vertex 10.4721 2.37764 -0.587785
    endloop
  endfacet
  facet normal 0 0.151034 -0.988529
    outer loop
      vertex 1.52786 1.46946 -0.951056
      vertex 0.310653 3.8471 -0.587785
      vertex 3.99998 3.8471 -0.587785
    endloop
  endfacet
  facet normal 0 0.151034 -0.988529
    outer loop
      vertex -0.66844 1.46946 -0.951056
      vertex 0.310653 3.8471 -0.587785
      vertex 1.52786 1.46946 -0.951056
    endloop
  endfacet
  facet normal 2.78239e-07 0.151034 -0.988529
    outer loop
      vertex 0.310653 3.8471 -0.587785
      vertex -0.66844 1.46946 -0.951056
      vertex -1.6016 3.52087 -0.637629
    endloop
  endfacet
  facet normal 5.95527e-07 0.54334 -0.839513
    outer loop
      vertex 3.99998 3.8471 -0.587785
      vertex 1.2664 3.93043 -0.533855
      vertex 2.61939 4.61795 -0.0888848
    endloop
  endfacet
  facet normal 0 0.543326 -0.839522
    outer loop
      vertex 1.2664 3.93043 -0.533855
      vertex 3.99998 3.8471 -0.587785
      vertex 0.310653 3.8471 -0.587785
    endloop
  endfacet
  facet normal 1.38555e-06 0.543341 -0.839512
    outer loop
      vertex 2.61939 4.61795 -0.0888848
      vertex 4.89607 4.70893 -0.0299978
      vertex 3.99998 3.8471 -0.587785
    endloop
  endfacet
  facet normal 0 0.543366 -0.839496
    outer loop
      vertex 4.89607 4.70893 -0.0299978
      vertex 2.61939 4.61795 -0.0888848
      vertex 2.44034 4.70893 -0.0299978
    endloop
  endfacet
  facet normal 0.0278415 -0.122626 -0.992062
    outer loop
      vertex 3.99998 -3.8471 -0.587785
      vertex 1.52786 -1.46946 -0.951056
      vertex 10.4721 -2.37764 -0.587785
    endloop
  endfacet
  facet normal 0 -0.151034 -0.988529
    outer loop
      vertex 0.310653 -3.8471 -0.587785
      vertex 1.52786 -1.46946 -0.951056
      vertex 3.99998 -3.8471 -0.587785
    endloop
  endfacet
  facet normal 0 -0.151034 -0.988529
    outer loop
      vertex 0.310653 -3.8471 -0.587785
      vertex -0.66844 -1.46946 -0.951056
      vertex 1.52786 -1.46946 -0.951056
    endloop
  endfacet
  facet normal 2.78239e-07 -0.151034 -0.988529
    outer loop
      vertex -0.66844 -1.46946 -0.951056
      vertex 0.310653 -3.8471 -0.587785
      vertex -1.6016 -3.52087 -0.637629
    endloop
  endfacet
  facet normal 0.0278416 -0.122625 -0.992062
    outer loop
      vertex 10.4721 -2.37764 -0.587785
      vertex 1.52786 -1.46946 -0.951056
      vertex 3.99998 -0.908175 -0.951056
    endloop
  endfacet
  facet normal 0.0278415 0.122626 -0.992062
    outer loop
      vertex 10.4721 2.37764 -0.587785
      vertex 1.52786 1.46946 -0.951056
      vertex 3.99998 3.8471 -0.587785
    endloop
  endfacet
  facet normal 0 0 -1
    outer loop
      vertex 3.99998 -0.908175 -0.951056
      vertex 3.99998 0.908175 -0.951056
      vertex 4.94426 0 -0.951056
    endloop
  endfacet
  facet normal 0 0 -1
    outer loop
      vertex 1.52786 -1.46946 -0.951056
      vertex 3.99998 0.908175 -0.951056
      vertex 3.99998 -0.908175 -0.951056
    endloop
  endfacet
  facet normal 0 0 -1
    outer loop
      vertex 1.52786 -1.46946 -0.951056
      vertex 1.52786 1.46946 -0.951056
      vertex 3.99998 0.908175 -0.951056
    endloop
  endfacet
  facet normal 0 0 -1
    outer loop
      vertex -0.66844 -1.46946 -0.951056
      vertex 1.52786 1.46946 -0.951056
      vertex 1.52786 -1.46946 -0.951056
    endloop
  endfacet
  facet normal 0 0 -1
    outer loop
      vertex -0.66844 -1.46946 -0.951056
      vertex -0.66844 1.46946 -0.951056
      vertex 1.52786 1.46946 -0.951056
    endloop
  endfacet
  facet normal 0 0 -1
    outer loop
      vertex -1.74999 -0.908175 -0.951056
      vertex -0.66844 1.46946 -0.951056
      vertex -0.66844 -1.46946 -0.951056
    endloop
  endfacet
  facet normal 0 0 -1
    outer loop
      vertex -1.74999 -0.908175 -0.951056
      vertex -1.74999 0.908175 -0.951056
      vertex -0.66844 1.46946 -0.951056
    endloop
  endfacet
  facet normal 0 -0 -1
    outer loop
      vertex -1.74999 0.908175 -0.951056
      vertex -1.74999 -0.908175 -0.951056
      vertex -2.16311 0 -0.951056
    endloop
  endfacet
  facet normal 0.0278416 0.122625 -0.992062
    outer loop
      vertex 3.99998 0.908175 -0.951056
      vertex 1.52786 1.46946 -0.951056
      vertex 10.4721 2.37764 -0.587785
    endloop
  endfacet
  facet normal 0.0453117 0.0471131 -0.997861
    outer loop
      vertex 4.94426 0 -0.951056
      vertex 3.99998 0.908175 -0.951056
      vertex 10.4721 2.37764 -0.587785
    endloop
  endfacet
  facet normal -0.395903 0.180091 -0.90046
    outer loop
      vertex -5.66311 0 -0.587785
      vertex -6.87657 0.121344 -0.0299978
      vertex -4.58155 2.37764 -0.587785
    endloop
  endfacet
  facet normal -0.395902 0.180098 -0.900459
    outer loop
      vertex -6.87657 0.121344 -0.0299978
      vertex -5.66311 0 -0.587785
      vertex -6.93177 0 -0.0299978
    endloop
  endfacet
  facet normal -0.395903 -0.180091 -0.90046
    outer loop
      vertex -6.87657 -0.121344 -0.0299978
      vertex -5.66311 0 -0.587785
      vertex -4.58155 -2.37764 -0.587785
    endloop
  endfacet
  facet normal -0.395902 -0.180098 -0.900459
    outer loop
      vertex -5.66311 0 -0.587785
      vertex -6.87657 -0.121344 -0.0299978
      vertex -6.93177 0 -0.0299978
    endloop
  endfacet
  facet normal -0.234037 -0.450974 -0.861307
    outer loop
      vertex -3.92937 -3.01883 -0.429275
      vertex -4.58155 -2.37764 -0.587785
      vertex -2.71009 -3.34885 -0.587785
    endloop
  endfacet
  facet normal -0.103123 0.0469096 -0.993562
    outer loop
      vertex -2.16311 0 -0.951056
      vertex -5.66311 0 -0.587785
      vertex -4.58155 2.37764 -0.587785
    endloop
  endfacet
  facet normal -0.0635339 -0.122425 -0.990442
    outer loop
      vertex -0.66844 -1.46946 -0.951056
      vertex -4.58155 -2.37764 -0.587785
      vertex -1.74999 -0.908175 -0.951056
    endloop
  endfacet
  facet normal -0.103123 0.0469098 -0.993562
    outer loop
      vertex -2.16311 0 -0.951056
      vertex -4.58155 2.37764 -0.587785
      vertex -1.74999 0.908175 -0.951056
    endloop
  endfacet
  facet normal -0.395906 -0.180081 -0.900461
    outer loop
      vertex -5.36993 -2.53831 -0.209026
      vertex -4.58155 -2.37764 -0.587785
      vertex -5.17 -2.68302 -0.267989
    endloop
  endfacet
  facet normal -0.395903 -0.180092 -0.90046
    outer loop
      vertex -6.87657 -0.121344 -0.0299978
      vertex -5.36993 -2.53831 -0.209026
      vertex -5.78398 -2.52323 -0.0299978
    endloop
  endfacet
  facet normal -0.395903 -0.180092 -0.90046
    outer loop
      vertex -5.36993 -2.53831 -0.209026
      vertex -6.87657 -0.121344 -0.0299978
      vertex -4.58155 -2.37764 -0.587785
    endloop
  endfacet
  facet normal -0.234042 -0.450978 -0.861303
    outer loop
      vertex -3.92937 -3.01883 -0.429275
      vertex -5.17 -2.68302 -0.267989
      vertex -4.58155 -2.37764 -0.587785
    endloop
  endfacet
  facet normal -0.103123 -0.0469098 -0.993562
    outer loop
      vertex -1.74999 -0.908175 -0.951056
      vertex -4.58155 -2.37764 -0.587785
      vertex -2.16311 0 -0.951056
    endloop
  endfacet
  facet normal -0.234037 0.450974 -0.861307
    outer loop
      vertex -2.71009 3.34885 -0.587785
      vertex -4.58155 2.37764 -0.587785
      vertex -3.92937 3.01883 -0.429275
    endloop
  endfacet
  facet normal -0.0635204 -0.122383 -0.990448
    outer loop
      vertex -1.72002 -3.45133 -0.638627
      vertex -1.6016 -3.52087 -0.637629
      vertex -1.72002 -3.48388 -0.634605
    endloop
  endfacet
  facet normal -0.0635425 -0.122421 -0.990442
    outer loop
      vertex -1.6016 -3.52087 -0.637629
      vertex -1.72002 -3.45133 -0.638627
      vertex -0.66844 -1.46946 -0.951056
    endloop
  endfacet
  facet normal -0.0635319 -0.122427 -0.990442
    outer loop
      vertex -2 -3.39642 -0.627455
      vertex -0.66844 -1.46946 -0.951056
      vertex -1.72002 -3.45133 -0.638627
    endloop
  endfacet
  facet normal -0.0635337 -0.122426 -0.990442
    outer loop
      vertex -2.71009 -3.34885 -0.587785
      vertex -0.66844 -1.46946 -0.951056
      vertex -2 -3.39642 -0.627455
    endloop
  endfacet
  facet normal -0.0635337 -0.122425 -0.990442
    outer loop
      vertex -0.66844 -1.46946 -0.951056
      vertex -2.71009 -3.34885 -0.587785
      vertex -4.58155 -2.37764 -0.587785
    endloop
  endfacet
  facet normal -0.103123 -0.0469096 -0.993562
    outer loop
      vertex -4.58155 -2.37764 -0.587785
      vertex -5.66311 0 -0.587785
      vertex -2.16311 0 -0.951056
    endloop
  endfacet
  facet normal -0.0635425 0.122421 -0.990442
    outer loop
      vertex -0.66844 1.46946 -0.951056
      vertex -1.72002 3.45133 -0.638627
      vertex -1.6016 3.52087 -0.637629
    endloop
  endfacet
  facet normal -0.0635319 0.122427 -0.990442
    outer loop
      vertex -0.66844 1.46946 -0.951056
      vertex -2 3.39642 -0.627455
      vertex -1.72002 3.45133 -0.638627
    endloop
  endfacet
  facet normal -0.0635337 0.122426 -0.990442
    outer loop
      vertex -0.66844 1.46946 -0.951056
      vertex -2.71009 3.34885 -0.587785
      vertex -2 3.39642 -0.627455
    endloop
  endfacet
  facet normal -0.0635337 0.122425 -0.990442
    outer loop
      vertex -2.71009 3.34885 -0.587785
      vertex -0.66844 1.46946 -0.951056
      vertex -4.58155 2.37764 -0.587785
    endloop
  endfacet
  facet normal -0.0635204 0.122383 -0.990448
    outer loop
      vertex -1.6016 3.52087 -0.637629
      vertex -1.72002 3.45133 -0.638627
      vertex -1.72002 3.48388 -0.634605
    endloop
  endfacet
  facet normal -0.0635339 0.122425 -0.990442
    outer loop
      vertex -1.74999 0.908175 -0.951056
      vertex -4.58155 2.37764 -0.587785
      vertex -0.66844 1.46946 -0.951056
    endloop
  endfacet
  facet normal -0.395906 0.180081 -0.900461
    outer loop
      vertex -4.58155 2.37764 -0.587785
      vertex -5.36993 2.53831 -0.209026
      vertex -5.17 2.68302 -0.267989
    endloop
  endfacet
  facet normal -0.395903 0.180092 -0.90046
    outer loop
      vertex -6.87657 0.121344 -0.0299978
      vertex -5.36993 2.53831 -0.209026
      vertex -4.58155 2.37764 -0.587785
    endloop
  endfacet
  facet normal -0.395903 0.180092 -0.90046
    outer loop
      vertex -5.36993 2.53831 -0.209026
      vertex -6.87657 0.121344 -0.0299978
      vertex -5.78398 2.52323 -0.0299978
    endloop
  endfacet
  facet normal -0.234042 0.450978 -0.861303
    outer loop
      vertex -4.58155 2.37764 -0.587785
      vertex -5.17 2.68302 -0.267989
      vertex -3.92937 3.01883 -0.429275
    endloop
  endfacet
  facet normal -0.177569 0.34216 0.922711
    outer loop
      vertex -0.66844 1.46946 2.85317
      vertex -4.58155 2.37764 1.76335
      vertex -1.74999 0.908175 2.85317
    endloop
  endfacet
  facet normal -0.74917 -0.340791 0.567983
    outer loop
      vertex -7 0 0
      vertex -5.57431 -2.4712 0.397763
      vertex -4.58155 -2.37764 1.76335
    endloop
  endfacet
  facet normal -0.749171 -0.340792 0.567982
    outer loop
      vertex -7 0 0
      vertex -5.74362 -2.50123 0.156424
      vertex -5.57431 -2.4712 0.397763
    endloop
  endfacet
  facet normal -0.749163 -0.340786 0.567996
    outer loop
      vertex -5.74362 -2.50123 0.156424
      vertex -7 0 0
      vertex -5.85336 -2.5207 0
    endloop
  endfacet
  facet normal -0.749171 -0.34079 0.567984
    outer loop
      vertex -4.58155 -2.37764 1.76335
      vertex -5.57431 -2.4712 0.397763
      vertex -5.11249 -2.65317 0.897722
    endloop
  endfacet
  facet normal -0.749198 0.340815 -0.567933
    outer loop
      vertex -6.97726 0 -0.0299978
      vertex -7 0 0
      vertex -6.95886 0.0404479 -0.0299978
    endloop
  endfacet
  facet normal -0.294616 -0.134017 0.946172
    outer loop
      vertex -2.16311 0 2.85317
      vertex -5.66311 0 1.76335
      vertex -4.58155 -2.37764 1.76335
    endloop
  endfacet
  facet normal -0.749198 -0.340815 -0.567933
    outer loop
      vertex -6.95886 -0.0404479 -0.0299978
      vertex -7 0 0
      vertex -6.97726 0 -0.0299978
    endloop
  endfacet
  facet normal -0.401029 0.772762 0.491949
    outer loop
      vertex -4.63195 2.79661 1.06414
      vertex -4.58155 2.37764 1.76335
      vertex -3.92907 3.01911 1.28761
    endloop
  endfacet
  facet normal -0.401022 0.772765 0.491951
    outer loop
      vertex -5.04457 2.666 0.93295
      vertex -4.58155 2.37764 1.76335
      vertex -4.63195 2.79661 1.06414
    endloop
  endfacet
  facet normal -0.401137 0.772683 0.491986
    outer loop
      vertex -4.58155 2.37764 1.76335
      vertex -5.04457 2.666 0.93295
      vertex -5.11249 2.65317 0.897722
    endloop
  endfacet
  facet normal -0.749194 -0.3408 -0.567947
    outer loop
      vertex -6.95886 -0.0404479 -0.0299978
      vertex -5.85336 -2.5207 0
      vertex -7 0 0
    endloop
  endfacet
  facet normal -0.749135 -0.340775 -0.56804
    outer loop
      vertex -5.85336 -2.5207 0
      vertex -6.95886 -0.0404479 -0.0299978
      vertex -5.82919 -2.52383 -0.0299978
    endloop
  endfacet
  facet normal -0.40103 -0.772761 0.49195
    outer loop
      vertex -4.58155 -2.37764 1.76335
      vertex -3.61074 -3.11988 1.38882
      vertex -1.74999 -3.8471 1.76335
    endloop
  endfacet
  facet normal -0.401034 -0.772763 0.491945
    outer loop
      vertex -3.61074 -3.11988 1.38882
      vertex -4.58155 -2.37764 1.76335
      vertex -3.92907 -3.01911 1.28761
    endloop
  endfacet
  facet normal -0.40103 -0.772757 0.491957
    outer loop
      vertex -2 -4.16587 1.05883
      vertex -1.74999 -3.8471 1.76335
      vertex -3.61074 -3.11988 1.38882
    endloop
  endfacet
  facet normal -0.401007 -0.77277 0.491955
    outer loop
      vertex -1.74999 -3.8471 1.76335
      vertex -2 -4.16587 1.05883
      vertex -1.9204 -4.22171 1.036
    endloop
  endfacet
  facet normal -0.294616 0.134018 0.946172
    outer loop
      vertex -1.74999 0.908175 2.85317
      vertex -4.58155 2.37764 1.76335
      vertex -2.16311 0 2.85317
    endloop
  endfacet
  facet normal -0.177568 -0.342163 0.92271
    outer loop
      vertex -0.66844 -1.46946 2.85317
      vertex -4.58155 -2.37764 1.76335
      vertex -1.74999 -3.8471 1.76335
    endloop
  endfacet
  facet normal -0.294616 -0.134018 0.946172
    outer loop
      vertex -2.16311 0 2.85317
      vertex -4.58155 -2.37764 1.76335
      vertex -1.74999 -0.908175 2.85317
    endloop
  endfacet
  facet normal -0.401029 -0.772762 0.491949
    outer loop
      vertex -4.58155 -2.37764 1.76335
      vertex -4.63195 -2.79661 1.06414
      vertex -3.92907 -3.01911 1.28761
    endloop
  endfacet
  facet normal -0.401022 -0.772765 0.491951
    outer loop
      vertex -4.58155 -2.37764 1.76335
      vertex -5.04457 -2.666 0.93295
      vertex -4.63195 -2.79661 1.06414
    endloop
  endfacet
  facet normal -0.401137 -0.772683 0.491986
    outer loop
      vertex -5.04457 -2.666 0.93295
      vertex -4.58155 -2.37764 1.76335
      vertex -5.11249 -2.65317 0.897722
    endloop
  endfacet
  facet normal -0.177568 0.342163 0.92271
    outer loop
      vertex -1.74999 3.8471 1.76335
      vertex -4.58155 2.37764 1.76335
      vertex -0.66844 1.46946 2.85317
    endloop
  endfacet
  facet normal -0.40103 0.772761 0.49195
    outer loop
      vertex -1.74999 3.8471 1.76335
      vertex -3.61074 3.11988 1.38882
      vertex -4.58155 2.37764 1.76335
    endloop
  endfacet
  facet normal -0.40103 0.772757 0.491957
    outer loop
      vertex -1.74999 3.8471 1.76335
      vertex -2 4.16587 1.05883
      vertex -3.61074 3.11988 1.38882
    endloop
  endfacet
  facet normal -0.401007 0.77277 0.491955
    outer loop
      vertex -2 4.16587 1.05883
      vertex -1.74999 3.8471 1.76335
      vertex -1.9204 4.22171 1.036
    endloop
  endfacet
  facet normal -0.401034 0.772763 0.491945
    outer loop
      vertex -4.58155 2.37764 1.76335
      vertex -3.61074 3.11988 1.38882
      vertex -3.92907 3.01911 1.28761
    endloop
  endfacet
  facet normal -0.177569 -0.34216 0.922711
    outer loop
      vertex -1.74999 -0.908175 2.85317
      vertex -4.58155 -2.37764 1.76335
      vertex -0.66844 -1.46946 2.85317
    endloop
  endfacet
  facet normal -0.749135 0.340775 -0.56804
    outer loop
      vertex -6.95886 0.0404479 -0.0299978
      vertex -5.85336 2.5207 0
      vertex -5.82919 2.52383 -0.0299978
    endloop
  endfacet
  facet normal -0.749194 0.3408 -0.567947
    outer loop
      vertex -5.85336 2.5207 0
      vertex -6.95886 0.0404479 -0.0299978
      vertex -7 0 0
    endloop
  endfacet
  facet normal -0.749163 0.340786 0.567996
    outer loop
      vertex -7 0 0
      vertex -5.74362 2.50123 0.156424
      vertex -5.85336 2.5207 0
    endloop
  endfacet
  facet normal -0.74917 0.340791 0.567983
    outer loop
      vertex -5.57431 2.4712 0.397763
      vertex -7 0 0
      vertex -4.58155 2.37764 1.76335
    endloop
  endfacet
  facet normal -0.749171 0.340792 0.567982
    outer loop
      vertex -5.74362 2.50123 0.156424
      vertex -7 0 0
      vertex -5.57431 2.4712 0.397763
    endloop
  endfacet
  facet normal -0.749171 0.34079 0.567984
    outer loop
      vertex -5.11249 2.65317 0.897722
      vertex -5.57431 2.4712 0.397763
      vertex -4.58155 2.37764 1.76335
    endloop
  endfacet
  facet normal -0.294616 0.134017 0.946172
    outer loop
      vertex -4.58155 2.37764 1.76335
      vertex -5.66311 0 1.76335
      vertex -2.16311 0 2.85317
    endloop
  endfacet
  facet normal -0.74917 0.340788 0.567986
    outer loop
      vertex -4.58155 2.37764 1.76335
      vertex -7 0 0
      vertex -5.66311 0 1.76335
    endloop
  endfacet
  facet normal -0.74917 -0.340788 0.567986
    outer loop
      vertex -5.66311 0 1.76335
      vertex -7 0 0
      vertex -4.58155 -2.37764 1.76335
    endloop
  endfacet
  facet normal 0.0814446 -0.490217 0.867787
    outer loop
      vertex -1.72002 -5.46568 0.561054
      vertex -1.72002 -8.08624 -0.919314
      vertex 1.2664 -5.38106 0.328571
    endloop
  endfacet
  facet normal 0.0814434 -0.490216 0.867787
    outer loop
      vertex -1.72002 -8.08624 -0.919314
      vertex -0.647013 -8.30152 -1.14163
      vertex 1.2664 -5.38106 0.328571
    endloop
  endfacet
  facet normal 0.0814429 -0.490218 0.867787
    outer loop
      vertex -0.647013 -8.30152 -1.14163
      vertex -1.72002 -8.08624 -0.919314
      vertex -1.72002 -8.33192 -1.0581
    endloop
  endfacet
  facet normal 0.408803 -0.609696 0.679081
    outer loop
      vertex 1.2664 -5.38106 0.328571
      vertex -0.647013 -8.30152 -1.14163
      vertex -0.086586 -8.20897 -1.39591
    endloop
  endfacet
  facet normal 0.408799 -0.609696 0.679083
    outer loop
      vertex 1.2664 -5.38106 0.328571
      vertex -0.086586 -8.20897 -1.39591
      vertex 2.61939 -5.15763 -0.285311
    endloop
  endfacet
  facet normal 0.408801 -0.0305492 -0.912112
    outer loop
      vertex 2.61939 -5.15763 -0.285311
      vertex -0.086586 -8.20897 -1.39591
      vertex 1.2664 -4.93419 -0.899194
    endloop
  endfacet
  facet normal 0.0825592 -0.340849 0.936486
    outer loop
      vertex -1.72002 -5.46568 0.561054
      vertex 1.2664 -4.40265 0.684683
      vertex -1.72002 -4.23577 1.0087
    endloop
  endfacet
  facet normal 0.0825603 -0.340852 0.936485
    outer loop
      vertex 1.2664 -4.40265 0.684683
      vertex -1.72002 -5.46568 0.561054
      vertex 1.2664 -5.38106 0.328571
    endloop
  endfacet
  facet normal 0.434811 0.307995 -0.846214
    outer loop
      vertex 1.2664 -4.93419 -0.899194
      vertex 2.61939 -4.61795 -0.0888848
      vertex 2.61939 -5.15763 -0.285311
    endloop
  endfacet
  facet normal 0.43481 0.307997 -0.846214
    outer loop
      vertex 2.61939 -4.61795 -0.0888848
      vertex 1.2664 -4.93419 -0.899194
      vertex 1.2664 -3.93043 -0.533855
    endloop
  endfacet
  facet normal -1.93324e-05 -0.939676 -0.342066
    outer loop
      vertex -2 -8.33985 -1.0363
      vertex -1.72002 -8.33192 -1.0581
      vertex -1.72002 -8.33702 -1.04409
    endloop
  endfacet
  facet normal 1.69506e-06 -0.939693 -0.342019
    outer loop
      vertex -2 -8.07808 -1.75551
      vertex -2 -8.33985 -1.0363
      vertex -5.78836 -8.30152 -1.14163
    endloop
  endfacet
  facet normal -1.51698e-05 -0.939693 -0.342019
    outer loop
      vertex -2 -8.33985 -1.0363
      vertex -2 -8.07808 -1.75551
      vertex -1.72002 -8.33192 -1.0581
    endloop
  endfacet
  facet normal 5.31091e-16 -0.939693 -0.342019
    outer loop
      vertex -5.78836 -8.11642 -1.65019
      vertex -5.78836 -8.30152 -1.14163
      vertex -7.35756 -8.20897 -1.39591
    endloop
  endfacet
  facet normal 1.68682e-06 -0.939693 -0.342019
    outer loop
      vertex -2 -8.07808 -1.75551
      vertex -5.78836 -8.30152 -1.14163
      vertex -5.78836 -8.11642 -1.65019
    endloop
  endfacet
  facet normal 3.53849e-06 -0.939691 -0.342026
    outer loop
      vertex -1.72002 -8.08601 -1.73372
      vertex -1.72002 -8.33192 -1.0581
      vertex -2 -8.07808 -1.75551
    endloop
  endfacet
  facet normal -2.61098e-06 -0.939691 -0.342026
    outer loop
      vertex -1.72002 -8.33192 -1.0581
      vertex -1.72002 -8.08601 -1.73372
      vertex -0.647013 -8.30152 -1.14163
    endloop
  endfacet
  facet normal -1.48706e-15 -0.939693 -0.342019
    outer loop
      vertex -0.647013 -8.30152 -1.14163
      vertex -0.647013 -8.11642 -1.65019
      vertex -0.086586 -8.20897 -1.39591
    endloop
  endfacet
  facet normal -6.72729e-06 -0.939693 -0.342019
    outer loop
      vertex -0.647013 -8.11642 -1.65019
      vertex -0.647013 -8.30152 -1.14163
      vertex -1.72002 -8.08601 -1.73372
    endloop
  endfacet
  facet normal 7.11491e-06 -0.939676 -0.342066
    outer loop
      vertex -1.72002 -8.08601 -1.73372
      vertex -2 -8.07808 -1.75551
      vertex -1.72002 -8.08091 -1.74773
    endloop
  endfacet
  facet normal 0.0814453 0.182272 -0.979869
    outer loop
      vertex 1.2664 -4.93419 -0.899194
      vertex -1.72002 -7.8086 -1.68211
      vertex -1.72002 -4.84957 -1.13168
    endloop
  endfacet
  facet normal 0.0814456 0.182296 -0.979865
    outer loop
      vertex -1.72002 -7.8086 -1.68211
      vertex -0.647013 -8.11642 -1.65019
      vertex -1.72002 -8.08601 -1.73372
    endloop
  endfacet
  facet normal 0.0814403 0.182277 -0.979869
    outer loop
      vertex -0.647013 -8.11642 -1.65019
      vertex -1.72002 -7.8086 -1.68211
      vertex 1.2664 -4.93419 -0.899194
    endloop
  endfacet
  facet normal 0.408803 -0.03055 -0.912111
    outer loop
      vertex -0.086586 -8.20897 -1.39591
      vertex -0.647013 -8.11642 -1.65019
      vertex 1.2664 -4.93419 -0.899194
    endloop
  endfacet
  facet normal 0.434821 -0.308034 0.846195
    outer loop
      vertex 2.41845 -4.73983 -0.0299978
      vertex 2.61939 -4.61795 -0.0888848
      vertex 2.44034 -4.70893 -0.0299978
    endloop
  endfacet
  facet normal 0.434805 -0.307996 0.846217
    outer loop
      vertex 2.61939 -4.61795 -0.0888848
      vertex 2.41845 -4.73983 -0.0299978
      vertex 2.61939 -5.15763 -0.285311
    endloop
  endfacet
  facet normal 0.434784 -0.30801 0.846223
    outer loop
      vertex 2.34912 -4.75528 0
      vertex 2.61939 -5.15763 -0.285311
      vertex 2.41845 -4.73983 -0.0299978
    endloop
  endfacet
  facet normal 0.434812 -0.307996 0.846213
    outer loop
      vertex 1.2664 -5.38106 0.328571
      vertex 2.34912 -4.75528 0
      vertex 1.2664 -4.40265 0.684683
    endloop
  endfacet
  facet normal 0.434809 -0.307989 0.846218
    outer loop
      vertex 2.34912 -4.75528 0
      vertex 1.2664 -5.38106 0.328571
      vertex 2.61939 -5.15763 -0.285311
    endloop
  endfacet
  facet normal 0.0825614 0.340853 -0.936484
    outer loop
      vertex 1.2664 -4.93419 -0.899194
      vertex 0.310653 -3.8471 -0.587785
      vertex 1.2664 -3.93043 -0.533855
    endloop
  endfacet
  facet normal 0.0825612 0.340852 -0.936485
    outer loop
      vertex -1.72002 -4.84957 -1.13168
      vertex 0.310653 -3.8471 -0.587785
      vertex 1.2664 -4.93419 -0.899194
    endloop
  endfacet
  facet normal 0.0825598 0.340855 -0.936484
    outer loop
      vertex 0.310653 -3.8471 -0.587785
      vertex -1.72002 -4.84957 -1.13168
      vertex -1.6016 -3.52087 -0.637629
    endloop
  endfacet
  facet normal 0.0825563 0.340855 -0.936484
    outer loop
      vertex -1.6016 -3.52087 -0.637629
      vertex -1.72002 -4.84957 -1.13168
      vertex -1.72002 -3.48388 -0.634605
    endloop
  endfacet
  facet normal -1.69489e-06 0.939622 0.342213
    outer loop
      vertex -5.11249 -2.65317 0.897722
      vertex -5.78836 -2.65847 0.912271
      vertex -5.04457 -2.666 0.93295
    endloop
  endfacet
  facet normal -6.27459e-06 0.939691 0.342025
    outer loop
      vertex -5.57431 -2.4712 0.397763
      vertex -5.78836 -2.65847 0.912271
      vertex -5.11249 -2.65317 0.897722
    endloop
  endfacet
  facet normal -1.08979e-07 0.939692 0.342021
    outer loop
      vertex -5.78836 -2.65847 0.912271
      vertex -5.78836 -2.47337 0.403714
      vertex -7.35756 -2.56592 0.657992
    endloop
  endfacet
  facet normal -1.75979e-05 0.939692 0.342021
    outer loop
      vertex -5.78836 -2.65847 0.912271
      vertex -5.57431 -2.4712 0.397763
      vertex -5.78836 -2.47337 0.403714
    endloop
  endfacet
  facet normal -0.0349509 0.850287 0.525158
    outer loop
      vertex -7.35756 -2.56592 0.657992
      vertex -14.9343 -2.8202 0.565443
      vertex -11.1459 -3.04363 1.17933
    endloop
  endfacet
  facet normal -0.169935 -0.337045 0.926025
    outer loop
      vertex -14.9343 -5.15763 -0.285311
      vertex -11.1459 -3.04363 1.17933
      vertex -14.9343 -2.8202 0.565443
    endloop
  endfacet
  facet normal -0.169934 -0.337047 0.926025
    outer loop
      vertex -11.1459 -3.04363 1.17933
      vertex -14.9343 -5.15763 -0.285311
      vertex -11.1459 -5.38106 0.328571
    endloop
  endfacet
  facet normal -0.169935 0.337045 -0.926025
    outer loop
      vertex -14.9343 -2.8202 0.565443
      vertex -11.1459 -4.93419 -0.899194
      vertex -14.9343 -5.15763 -0.285311
    endloop
  endfacet
  facet normal -0.169935 0.337045 -0.926025
    outer loop
      vertex -11.1459 -4.93419 -0.899194
      vertex -14.9343 -2.8202 0.565443
      vertex -11.1459 -2.59676 -0.04844
    endloop
  endfacet
  facet normal -0.029577 -0.341872 0.939281
    outer loop
      vertex -3.61074 -3.11988 1.38882
      vertex -2 -5.47361 0.58285
      vertex -2 -4.16587 1.05883
    endloop
  endfacet
  facet normal -0.0295731 -0.341872 0.939281
    outer loop
      vertex -11.1459 -5.38106 0.328571
      vertex -3.61074 -3.11988 1.38882
      vertex -11.1459 -3.04363 1.17933
    endloop
  endfacet
  facet normal -0.0295739 -0.34187 0.939282
    outer loop
      vertex -3.61074 -3.11988 1.38882
      vertex -11.1459 -5.38106 0.328571
      vertex -2 -5.47361 0.58285
    endloop
  endfacet
  facet normal -0.0295717 0.341869 -0.939282
    outer loop
      vertex -2 -4.84164 -1.15347
      vertex -2.71009 -3.34885 -0.587785
      vertex -2 -3.39642 -0.627455
    endloop
  endfacet
  facet normal -0.0295771 0.341867 -0.939283
    outer loop
      vertex -2 -4.84164 -1.15347
      vertex -3.92937 -3.01883 -0.429275
      vertex -2.71009 -3.34885 -0.587785
    endloop
  endfacet
  facet normal -0.0295732 0.341871 -0.939282
    outer loop
      vertex -2 -4.84164 -1.15347
      vertex -5.17 -2.68302 -0.267989
      vertex -3.92937 -3.01883 -0.429275
    endloop
  endfacet
  facet normal -0.0295736 0.34187 -0.939282
    outer loop
      vertex -11.1459 -4.93419 -0.899194
      vertex -5.17 -2.68302 -0.267989
      vertex -2 -4.84164 -1.15347
    endloop
  endfacet
  facet normal -0.0295705 0.341863 -0.939284
    outer loop
      vertex -11.1459 -4.93419 -0.899194
      vertex -5.36993 -2.53831 -0.209026
      vertex -5.17 -2.68302 -0.267989
    endloop
  endfacet
  facet normal -0.0295739 0.34187 -0.939282
    outer loop
      vertex -5.36993 -2.53831 -0.209026
      vertex -11.1459 -4.93419 -0.899194
      vertex -11.1459 -2.59676 -0.04844
    endloop
  endfacet
  facet normal -0.0132299 0.687467 0.726095
    outer loop
      vertex -11.1459 -3.04363 1.17933
      vertex -3.92907 -3.01911 1.28761
      vertex -4.63195 -2.79661 1.06414
    endloop
  endfacet
  facet normal -0.0132299 0.68747 0.726092
    outer loop
      vertex -3.92907 -3.01911 1.28761
      vertex -11.1459 -3.04363 1.17933
      vertex -3.61074 -3.11988 1.38882
    endloop
  endfacet
  facet normal 0.0295975 -0.341867 0.939282
    outer loop
      vertex -1.9204 -4.22171 1.036
      vertex -1.72002 -5.47078 0.575066
      vertex -1.72002 -4.22571 1.02823
    endloop
  endfacet
  facet normal 0.0295689 -0.341872 0.939281
    outer loop
      vertex -2 -5.47361 0.58285
      vertex -1.9204 -4.22171 1.036
      vertex -2 -4.16587 1.05883
    endloop
  endfacet
  facet normal 0.0295695 -0.341872 0.939281
    outer loop
      vertex -1.9204 -4.22171 1.036
      vertex -2 -5.47361 0.58285
      vertex -1.72002 -5.47078 0.575066
    endloop
  endfacet
  facet normal -0.0349501 0.850285 0.525161
    outer loop
      vertex -7.35756 -2.56592 0.657992
      vertex -11.1459 -3.04363 1.17933
      vertex -5.78836 -2.65847 0.912271
    endloop
  endfacet
  facet normal -0.0349509 0.988923 0.144257
    outer loop
      vertex -11.1459 -2.59676 -0.04844
      vertex -14.9343 -2.8202 0.565443
      vertex -7.35756 -2.56592 0.657992
    endloop
  endfacet
  facet normal 0.0295561 0.341872 -0.939282
    outer loop
      vertex -2 -4.84164 -1.15347
      vertex -1.72002 -3.45133 -0.638627
      vertex -1.72002 -4.84447 -1.14569
    endloop
  endfacet
  facet normal 0.0295678 0.341869 -0.939282
    outer loop
      vertex -1.72002 -3.45133 -0.638627
      vertex -2 -4.84164 -1.15347
      vertex -2 -3.39642 -0.627455
    endloop
  endfacet
  facet normal -0.0131835 0.993374 -0.114165
    outer loop
      vertex -5.36993 -2.53831 -0.209026
      vertex -5.82919 -2.52383 -0.0299978
      vertex -5.78398 -2.52323 -0.0299978
    endloop
  endfacet
  facet normal -0.0132296 0.99336 -0.114282
    outer loop
      vertex -5.82919 -2.52383 -0.0299978
      vertex -5.36993 -2.53831 -0.209026
      vertex -11.1459 -2.59676 -0.04844
    endloop
  endfacet
  facet normal -0.0132289 0.993351 -0.114361
    outer loop
      vertex -5.85336 -2.5207 0
      vertex -11.1459 -2.59676 -0.04844
      vertex -5.74362 -2.50123 0.156424
    endloop
  endfacet
  facet normal -0.0132295 0.993357 -0.114307
    outer loop
      vertex -11.1459 -2.59676 -0.04844
      vertex -5.85336 -2.5207 0
      vertex -5.82919 -2.52383 -0.0299978
    endloop
  endfacet
  facet normal -0.0132485 0.993357 -0.11431
    outer loop
      vertex -5.74362 -2.50123 0.156424
      vertex -5.78836 -2.47337 0.403714
      vertex -5.57431 -2.4712 0.397763
    endloop
  endfacet
  facet normal -0.0132311 0.993357 -0.114307
    outer loop
      vertex -5.78836 -2.47337 0.403714
      vertex -5.74362 -2.50123 0.156424
      vertex -11.1459 -2.59676 -0.04844
    endloop
  endfacet
  facet normal -0.0349504 0.988923 0.144254
    outer loop
      vertex -5.78836 -2.47337 0.403714
      vertex -11.1459 -2.59676 -0.04844
      vertex -7.35756 -2.56592 0.657992
    endloop
  endfacet
  facet normal -0.013226 0.687503 0.726061
    outer loop
      vertex -5.78836 -2.65847 0.912271
      vertex -4.63195 -2.79661 1.06414
      vertex -5.04457 -2.666 0.93295
    endloop
  endfacet
  facet normal -0.0132308 0.687483 0.72608
    outer loop
      vertex -4.63195 -2.79661 1.06414
      vertex -5.78836 -2.65847 0.912271
      vertex -11.1459 -3.04363 1.17933
    endloop
  endfacet
  facet normal 1 0 0
    outer loop
      vertex -1.72002 -5.47078 0.575066
      vertex -1.72002 -4.23577 1.0087
      vertex -1.72002 -4.22571 1.02823
    endloop
  endfacet
  facet normal 1 0 0
    outer loop
      vertex -1.72002 -4.23577 1.0087
      vertex -1.72002 -5.47078 0.575066
      vertex -1.72002 -5.46568 0.561054
    endloop
  endfacet
  facet normal 1 0 0
    outer loop
      vertex -1.72002 -5.47078 0.575066
      vertex -1.72002 -8.08624 -0.919314
      vertex -1.72002 -5.46568 0.561054
    endloop
  endfacet
  facet normal 1 0 0
    outer loop
      vertex -1.72002 -8.24928 -0.994522
      vertex -1.72002 -8.08624 -0.919314
      vertex -1.72002 -5.47078 0.575066
    endloop
  endfacet
  facet normal 1 -0 0
    outer loop
      vertex -1.72002 -8.24928 -0.994522
      vertex -1.72002 -8.33192 -1.0581
      vertex -1.72002 -8.08624 -0.919314
    endloop
  endfacet
  facet normal 1 0 -0
    outer loop
      vertex -1.72002 -8.33192 -1.0581
      vertex -1.72002 -8.24928 -0.994522
      vertex -1.72002 -8.33702 -1.04409
    endloop
  endfacet
  facet normal 1 0 0
    outer loop
      vertex -1.72002 -3.48388 -0.634605
      vertex -1.72002 -4.84447 -1.14569
      vertex -1.72002 -3.45133 -0.638627
    endloop
  endfacet
  facet normal 1 -0 0
    outer loop
      vertex -1.72002 -4.84957 -1.13168
      vertex -1.72002 -4.84447 -1.14569
      vertex -1.72002 -3.48388 -0.634605
    endloop
  endfacet
  facet normal 1 0 0
    outer loop
      vertex -1.72002 -7.8086 -1.68211
      vertex -1.72002 -4.84447 -1.14569
      vertex -1.72002 -4.84957 -1.13168
    endloop
  endfacet
  facet normal 1 -0 0
    outer loop
      vertex -1.72002 -7.8086 -1.68211
      vertex -1.72002 -7.98184 -1.7293
      vertex -1.72002 -4.84447 -1.14569
    endloop
  endfacet
  facet normal 1 0 0
    outer loop
      vertex -1.72002 -8.08601 -1.73372
      vertex -1.72002 -7.98184 -1.7293
      vertex -1.72002 -7.8086 -1.68211
    endloop
  endfacet
  facet normal 1 0 0
    outer loop
      vertex -1.72002 -7.98184 -1.7293
      vertex -1.72002 -8.08601 -1.73372
      vertex -1.72002 -8.08091 -1.74773
    endloop
  endfacet
  facet normal -0.0291718 -0.491641 0.870309
    outer loop
      vertex -2 -5.47361 0.58285
      vertex -11.1459 -5.38106 0.328571
      vertex -2 -8.33985 -1.0363
    endloop
  endfacet
  facet normal -0.157971 -0.0330532 -0.98689
    outer loop
      vertex -7.35756 -8.20897 -1.39591
      vertex -11.1459 -4.93419 -0.899194
      vertex -5.78836 -8.11642 -1.65019
    endloop
  endfacet
  facet normal 0.0291658 -0.491642 0.870309
    outer loop
      vertex -2 -5.47361 0.58285
      vertex -1.72002 -8.24928 -0.994522
      vertex -1.72002 -5.47078 0.575066
    endloop
  endfacet
  facet normal 0.029174 -0.491641 0.870309
    outer loop
      vertex -1.72002 -8.24928 -0.994522
      vertex -2 -5.47361 0.58285
      vertex -2 -8.33985 -1.0363
    endloop
  endfacet
  facet normal -0.157968 -0.659679 0.734758
    outer loop
      vertex -11.1459 -5.38106 0.328571
      vertex -14.9343 -5.15763 -0.285311
      vertex -7.35756 -8.20897 -1.39591
    endloop
  endfacet
  facet normal 0.0291843 -0.491666 0.870295
    outer loop
      vertex -1.72002 -8.24928 -0.994522
      vertex -2 -8.33985 -1.0363
      vertex -1.72002 -8.33702 -1.04409
    endloop
  endfacet
  facet normal -0.157969 -0.0330515 -0.986891
    outer loop
      vertex -7.35756 -8.20897 -1.39591
      vertex -14.9343 -5.15763 -0.285311
      vertex -11.1459 -4.93419 -0.899194
    endloop
  endfacet
  facet normal -0.0291705 0.182807 -0.982716
    outer loop
      vertex -5.78836 -8.11642 -1.65019
      vertex -11.1459 -4.93419 -0.899194
      vertex -2 -8.07808 -1.75551
    endloop
  endfacet
  facet normal -0.0291721 -0.491642 0.870309
    outer loop
      vertex -2 -8.33985 -1.0363
      vertex -11.1459 -5.38106 0.328571
      vertex -5.78836 -8.30152 -1.14163
    endloop
  endfacet
  facet normal -0.15797 -0.659681 0.734756
    outer loop
      vertex -5.78836 -8.30152 -1.14163
      vertex -11.1459 -5.38106 0.328571
      vertex -7.35756 -8.20897 -1.39591
    endloop
  endfacet
  facet normal 0.029159 0.182804 -0.982717
    outer loop
      vertex -2 -4.84164 -1.15347
      vertex -1.72002 -7.98184 -1.7293
      vertex -2 -8.07808 -1.75551
    endloop
  endfacet
  facet normal 0.0291552 0.182804 -0.982717
    outer loop
      vertex -1.72002 -7.98184 -1.7293
      vertex -2 -4.84164 -1.15347
      vertex -1.72002 -4.84447 -1.14569
    endloop
  endfacet
  facet normal -0.0291715 0.182804 -0.982716
    outer loop
      vertex -2 -8.07808 -1.75551
      vertex -11.1459 -4.93419 -0.899194
      vertex -2 -4.84164 -1.15347
    endloop
  endfacet
  facet normal 0.0291553 0.182815 -0.982715
    outer loop
      vertex -1.72002 -8.08091 -1.74773
      vertex -2 -8.07808 -1.75551
      vertex -1.72002 -7.98184 -1.7293
    endloop
  endfacet
  facet normal 0.0814446 0.490217 0.867787
    outer loop
      vertex 1.2664 5.38106 0.328571
      vertex -1.72002 8.08624 -0.919314
      vertex -1.72002 5.46568 0.561054
    endloop
  endfacet
  facet normal 0.0814429 0.490218 0.867787
    outer loop
      vertex -1.72002 8.08624 -0.919314
      vertex -0.647013 8.30152 -1.14163
      vertex -1.72002 8.33192 -1.0581
    endloop
  endfacet
  facet normal 0.0814434 0.490216 0.867787
    outer loop
      vertex -0.647013 8.30152 -1.14163
      vertex -1.72002 8.08624 -0.919314
      vertex 1.2664 5.38106 0.328571
    endloop
  endfacet
  facet normal 0.408803 0.609696 0.679081
    outer loop
      vertex 1.2664 5.38106 0.328571
      vertex -0.086586 8.20897 -1.39591
      vertex -0.647013 8.30152 -1.14163
    endloop
  endfacet
  facet normal 0.408799 0.609696 0.679083
    outer loop
      vertex 1.2664 5.38106 0.328571
      vertex 2.61939 5.15763 -0.285311
      vertex -0.086586 8.20897 -1.39591
    endloop
  endfacet
  facet normal 0.408801 0.0305492 -0.912112
    outer loop
      vertex 2.61939 5.15763 -0.285311
      vertex 1.2664 4.93419 -0.899194
      vertex -0.086586 8.20897 -1.39591
    endloop
  endfacet
  facet normal 0.0825603 0.340852 0.936485
    outer loop
      vertex -1.72002 5.46568 0.561054
      vertex 1.2664 4.40265 0.684683
      vertex 1.2664 5.38106 0.328571
    endloop
  endfacet
  facet normal 0.0825592 0.340849 0.936486
    outer loop
      vertex 1.2664 4.40265 0.684683
      vertex -1.72002 5.46568 0.561054
      vertex -1.72002 4.23577 1.0087
    endloop
  endfacet
  facet normal 0.43481 -0.307997 -0.846214
    outer loop
      vertex 1.2664 4.93419 -0.899194
      vertex 2.61939 4.61795 -0.0888848
      vertex 1.2664 3.93043 -0.533855
    endloop
  endfacet
  facet normal 0.434811 -0.307995 -0.846214
    outer loop
      vertex 2.61939 4.61795 -0.0888848
      vertex 1.2664 4.93419 -0.899194
      vertex 2.61939 5.15763 -0.285311
    endloop
  endfacet
  facet normal -1.93324e-05 0.939676 -0.342066
    outer loop
      vertex -1.72002 8.33192 -1.0581
      vertex -2 8.33985 -1.0363
      vertex -1.72002 8.33702 -1.04409
    endloop
  endfacet
  facet normal -1.51698e-05 0.939693 -0.342019
    outer loop
      vertex -2 8.07808 -1.75551
      vertex -2 8.33985 -1.0363
      vertex -1.72002 8.33192 -1.0581
    endloop
  endfacet
  facet normal -2.61098e-06 0.939691 -0.342026
    outer loop
      vertex -1.72002 8.08601 -1.73372
      vertex -1.72002 8.33192 -1.0581
      vertex -0.647013 8.30152 -1.14163
    endloop
  endfacet
  facet normal -1.48706e-15 0.939693 -0.342019
    outer loop
      vertex -0.647013 8.11642 -1.65019
      vertex -0.647013 8.30152 -1.14163
      vertex -0.086586 8.20897 -1.39591
    endloop
  endfacet
  facet normal 1.69506e-06 0.939693 -0.342019
    outer loop
      vertex -2 8.33985 -1.0363
      vertex -2 8.07808 -1.75551
      vertex -5.78836 8.30152 -1.14163
    endloop
  endfacet
  facet normal -6.72729e-06 0.939693 -0.342019
    outer loop
      vertex -0.647013 8.30152 -1.14163
      vertex -0.647013 8.11642 -1.65019
      vertex -1.72002 8.08601 -1.73372
    endloop
  endfacet
  facet normal 3.53849e-06 0.939691 -0.342026
    outer loop
      vertex -1.72002 8.33192 -1.0581
      vertex -1.72002 8.08601 -1.73372
      vertex -2 8.07808 -1.75551
    endloop
  endfacet
  facet normal 5.31091e-16 0.939693 -0.342019
    outer loop
      vertex -5.78836 8.30152 -1.14163
      vertex -5.78836 8.11642 -1.65019
      vertex -7.35756 8.20897 -1.39591
    endloop
  endfacet
  facet normal 7.11491e-06 0.939676 -0.342066
    outer loop
      vertex -2 8.07808 -1.75551
      vertex -1.72002 8.08601 -1.73372
      vertex -1.72002 8.08091 -1.74773
    endloop
  endfacet
  facet normal 1.68682e-06 0.939693 -0.342019
    outer loop
      vertex -5.78836 8.30152 -1.14163
      vertex -2 8.07808 -1.75551
      vertex -5.78836 8.11642 -1.65019
    endloop
  endfacet
  facet normal 0.0814453 -0.182272 -0.979869
    outer loop
      vertex -1.72002 7.8086 -1.68211
      vertex 1.2664 4.93419 -0.899194
      vertex -1.72002 4.84957 -1.13168
    endloop
  endfacet
  facet normal 0.0814403 -0.182277 -0.979869
    outer loop
      vertex -1.72002 7.8086 -1.68211
      vertex -0.647013 8.11642 -1.65019
      vertex 1.2664 4.93419 -0.899194
    endloop
  endfacet
  facet normal 0.0814456 -0.182296 -0.979865
    outer loop
      vertex -0.647013 8.11642 -1.65019
      vertex -1.72002 7.8086 -1.68211
      vertex -1.72002 8.08601 -1.73372
    endloop
  endfacet
  facet normal 0.408803 0.03055 -0.912111
    outer loop
      vertex -0.086586 8.20897 -1.39591
      vertex 1.2664 4.93419 -0.899194
      vertex -0.647013 8.11642 -1.65019
    endloop
  endfacet
  facet normal 0.434805 0.307996 0.846217
    outer loop
      vertex 2.41845 4.73983 -0.0299978
      vertex 2.61939 4.61795 -0.0888848
      vertex 2.61939 5.15763 -0.285311
    endloop
  endfacet
  facet normal 0.434821 0.308034 0.846195
    outer loop
      vertex 2.61939 4.61795 -0.0888848
      vertex 2.41845 4.73983 -0.0299978
      vertex 2.44034 4.70893 -0.0299978
    endloop
  endfacet
  facet normal 0.434784 0.30801 0.846223
    outer loop
      vertex 2.61939 5.15763 -0.285311
      vertex 2.34912 4.75528 0
      vertex 2.41845 4.73983 -0.0299978
    endloop
  endfacet
  facet normal 0.434809 0.307989 0.846218
    outer loop
      vertex 1.2664 5.38106 0.328571
      vertex 2.34912 4.75528 0
      vertex 2.61939 5.15763 -0.285311
    endloop
  endfacet
  facet normal 0.434812 0.307996 0.846213
    outer loop
      vertex 2.34912 4.75528 0
      vertex 1.2664 5.38106 0.328571
      vertex 1.2664 4.40265 0.684683
    endloop
  endfacet
  facet normal 0.0825614 -0.340853 -0.936484
    outer loop
      vertex 0.310653 3.8471 -0.587785
      vertex 1.2664 4.93419 -0.899194
      vertex 1.2664 3.93043 -0.533855
    endloop
  endfacet
  facet normal 0.0825598 -0.340855 -0.936484
    outer loop
      vertex -1.72002 4.84957 -1.13168
      vertex 0.310653 3.8471 -0.587785
      vertex -1.6016 3.52087 -0.637629
    endloop
  endfacet
  facet normal 0.0825563 -0.340855 -0.936484
    outer loop
      vertex -1.72002 4.84957 -1.13168
      vertex -1.6016 3.52087 -0.637629
      vertex -1.72002 3.48388 -0.634605
    endloop
  endfacet
  facet normal 0.0825612 -0.340852 -0.936485
    outer loop
      vertex 0.310653 3.8471 -0.587785
      vertex -1.72002 4.84957 -1.13168
      vertex 1.2664 4.93419 -0.899194
    endloop
  endfacet
  facet normal -1.69489e-06 -0.939622 0.342213
    outer loop
      vertex -5.78836 2.65847 0.912271
      vertex -5.11249 2.65317 0.897722
      vertex -5.04457 2.666 0.93295
    endloop
  endfacet
  facet normal -1.08979e-07 -0.939692 0.342021
    outer loop
      vertex -5.78836 2.47337 0.403714
      vertex -5.78836 2.65847 0.912271
      vertex -7.35756 2.56592 0.657992
    endloop
  endfacet
  facet normal -1.75979e-05 -0.939692 0.342021
    outer loop
      vertex -5.57431 2.4712 0.397763
      vertex -5.78836 2.65847 0.912271
      vertex -5.78836 2.47337 0.403714
    endloop
  endfacet
  facet normal -6.27459e-06 -0.939691 0.342025
    outer loop
      vertex -5.78836 2.65847 0.912271
      vertex -5.57431 2.4712 0.397763
      vertex -5.11249 2.65317 0.897722
    endloop
  endfacet
  facet normal -0.0349509 -0.850287 0.525158
    outer loop
      vertex -7.35756 2.56592 0.657992
      vertex -11.1459 3.04363 1.17933
      vertex -14.9343 2.8202 0.565443
    endloop
  endfacet
  facet normal -0.169934 0.337047 0.926025
    outer loop
      vertex -14.9343 5.15763 -0.285311
      vertex -11.1459 3.04363 1.17933
      vertex -11.1459 5.38106 0.328571
    endloop
  endfacet
  facet normal -0.169935 0.337045 0.926025
    outer loop
      vertex -11.1459 3.04363 1.17933
      vertex -14.9343 5.15763 -0.285311
      vertex -14.9343 2.8202 0.565443
    endloop
  endfacet
  facet normal -0.169935 -0.337045 -0.926025
    outer loop
      vertex -14.9343 2.8202 0.565443
      vertex -11.1459 4.93419 -0.899194
      vertex -11.1459 2.59676 -0.04844
    endloop
  endfacet
  facet normal -0.169935 -0.337045 -0.926025
    outer loop
      vertex -11.1459 4.93419 -0.899194
      vertex -14.9343 2.8202 0.565443
      vertex -14.9343 5.15763 -0.285311
    endloop
  endfacet
  facet normal -0.029577 0.341872 0.939281
    outer loop
      vertex -2 5.47361 0.58285
      vertex -3.61074 3.11988 1.38882
      vertex -2 4.16587 1.05883
    endloop
  endfacet
  facet normal -0.0295739 0.34187 0.939282
    outer loop
      vertex -11.1459 5.38106 0.328571
      vertex -3.61074 3.11988 1.38882
      vertex -2 5.47361 0.58285
    endloop
  endfacet
  facet normal -0.0295731 0.341872 0.939281
    outer loop
      vertex -3.61074 3.11988 1.38882
      vertex -11.1459 5.38106 0.328571
      vertex -11.1459 3.04363 1.17933
    endloop
  endfacet
  facet normal -0.0295717 -0.341869 -0.939282
    outer loop
      vertex -2.71009 3.34885 -0.587785
      vertex -2 4.84164 -1.15347
      vertex -2 3.39642 -0.627455
    endloop
  endfacet
  facet normal -0.0295771 -0.341867 -0.939283
    outer loop
      vertex -3.92937 3.01883 -0.429275
      vertex -2 4.84164 -1.15347
      vertex -2.71009 3.34885 -0.587785
    endloop
  endfacet
  facet normal -0.0295732 -0.341871 -0.939282
    outer loop
      vertex -5.17 2.68302 -0.267989
      vertex -2 4.84164 -1.15347
      vertex -3.92937 3.01883 -0.429275
    endloop
  endfacet
  facet normal -0.0295739 -0.34187 -0.939282
    outer loop
      vertex -11.1459 4.93419 -0.899194
      vertex -5.36993 2.53831 -0.209026
      vertex -11.1459 2.59676 -0.04844
    endloop
  endfacet
  facet normal -0.0295705 -0.341863 -0.939284
    outer loop
      vertex -5.36993 2.53831 -0.209026
      vertex -11.1459 4.93419 -0.899194
      vertex -5.17 2.68302 -0.267989
    endloop
  endfacet
  facet normal -0.0295736 -0.34187 -0.939282
    outer loop
      vertex -5.17 2.68302 -0.267989
      vertex -11.1459 4.93419 -0.899194
      vertex -2 4.84164 -1.15347
    endloop
  endfacet
  facet normal -0.0132299 -0.68747 0.726092
    outer loop
      vertex -11.1459 3.04363 1.17933
      vertex -3.92907 3.01911 1.28761
      vertex -3.61074 3.11988 1.38882
    endloop
  endfacet
  facet normal -0.0132299 -0.687467 0.726095
    outer loop
      vertex -3.92907 3.01911 1.28761
      vertex -11.1459 3.04363 1.17933
      vertex -4.63195 2.79661 1.06414
    endloop
  endfacet
  facet normal 0.0295975 0.341867 0.939282
    outer loop
      vertex -1.72002 5.47078 0.575066
      vertex -1.9204 4.22171 1.036
      vertex -1.72002 4.22571 1.02823
    endloop
  endfacet
  facet normal 0.0295695 0.341872 0.939281
    outer loop
      vertex -2 5.47361 0.58285
      vertex -1.9204 4.22171 1.036
      vertex -1.72002 5.47078 0.575066
    endloop
  endfacet
  facet normal 0.0295689 0.341872 0.939281
    outer loop
      vertex -1.9204 4.22171 1.036
      vertex -2 5.47361 0.58285
      vertex -2 4.16587 1.05883
    endloop
  endfacet
  facet normal -0.0349501 -0.850285 0.525161
    outer loop
      vertex -7.35756 2.56592 0.657992
      vertex -5.78836 2.65847 0.912271
      vertex -11.1459 3.04363 1.17933
    endloop
  endfacet
  facet normal -0.0349509 -0.988923 0.144257
    outer loop
      vertex -11.1459 2.59676 -0.04844
      vertex -7.35756 2.56592 0.657992
      vertex -14.9343 2.8202 0.565443
    endloop
  endfacet
  facet normal 0.0295678 -0.341869 -0.939282
    outer loop
      vertex -2 4.84164 -1.15347
      vertex -1.72002 3.45133 -0.638627
      vertex -2 3.39642 -0.627455
    endloop
  endfacet
  facet normal 0.0295561 -0.341872 -0.939282
    outer loop
      vertex -1.72002 3.45133 -0.638627
      vertex -2 4.84164 -1.15347
      vertex -1.72002 4.84447 -1.14569
    endloop
  endfacet
  facet normal -0.0132289 -0.993351 -0.114361
    outer loop
      vertex -11.1459 2.59676 -0.04844
      vertex -5.85336 2.5207 0
      vertex -5.74362 2.50123 0.156424
    endloop
  endfacet
  facet normal -0.0132295 -0.993357 -0.114307
    outer loop
      vertex -11.1459 2.59676 -0.04844
      vertex -5.82919 2.52383 -0.0299978
      vertex -5.85336 2.5207 0
    endloop
  endfacet
  facet normal -0.0132296 -0.99336 -0.114282
    outer loop
      vertex -5.36993 2.53831 -0.209026
      vertex -5.82919 2.52383 -0.0299978
      vertex -11.1459 2.59676 -0.04844
    endloop
  endfacet
  facet normal -0.0131835 -0.993374 -0.114165
    outer loop
      vertex -5.82919 2.52383 -0.0299978
      vertex -5.36993 2.53831 -0.209026
      vertex -5.78398 2.52323 -0.0299978
    endloop
  endfacet
  facet normal -0.0132485 -0.993357 -0.11431
    outer loop
      vertex -5.78836 2.47337 0.403714
      vertex -5.74362 2.50123 0.156424
      vertex -5.57431 2.4712 0.397763
    endloop
  endfacet
  facet normal -0.0132311 -0.993357 -0.114307
    outer loop
      vertex -5.74362 2.50123 0.156424
      vertex -5.78836 2.47337 0.403714
      vertex -11.1459 2.59676 -0.04844
    endloop
  endfacet
  facet normal -0.0349504 -0.988923 0.144254
    outer loop
      vertex -5.78836 2.47337 0.403714
      vertex -7.35756 2.56592 0.657992
      vertex -11.1459 2.59676 -0.04844
    endloop
  endfacet
  facet normal -0.013226 -0.687503 0.726061
    outer loop
      vertex -4.63195 2.79661 1.06414
      vertex -5.78836 2.65847 0.912271
      vertex -5.04457 2.666 0.93295
    endloop
  endfacet
  facet normal -0.0132308 -0.687483 0.72608
    outer loop
      vertex -5.78836 2.65847 0.912271
      vertex -4.63195 2.79661 1.06414
      vertex -11.1459 3.04363 1.17933
    endloop
  endfacet
  facet normal 1 0 0
    outer loop
      vertex -1.72002 8.24928 -0.994522
      vertex -1.72002 8.33192 -1.0581
      vertex -1.72002 8.33702 -1.04409
    endloop
  endfacet
  facet normal 1 0 0
    outer loop
      vertex -1.72002 8.24928 -0.994522
      vertex -1.72002 8.08624 -0.919314
      vertex -1.72002 8.33192 -1.0581
    endloop
  endfacet
  facet normal 1 0 0
    outer loop
      vertex -1.72002 5.47078 0.575066
      vertex -1.72002 8.08624 -0.919314
      vertex -1.72002 8.24928 -0.994522
    endloop
  endfacet
  facet normal 1 0 0
    outer loop
      vertex -1.72002 5.47078 0.575066
      vertex -1.72002 5.46568 0.561054
      vertex -1.72002 8.08624 -0.919314
    endloop
  endfacet
  facet normal 1 0 0
    outer loop
      vertex -1.72002 5.47078 0.575066
      vertex -1.72002 4.23577 1.0087
      vertex -1.72002 5.46568 0.561054
    endloop
  endfacet
  facet normal 1 -0 -0
    outer loop
      vertex -1.72002 4.23577 1.0087
      vertex -1.72002 5.47078 0.575066
      vertex -1.72002 4.22571 1.02823
    endloop
  endfacet
  facet normal 1 0 0
    outer loop
      vertex -1.72002 8.08601 -1.73372
      vertex -1.72002 7.98184 -1.7293
      vertex -1.72002 8.08091 -1.74773
    endloop
  endfacet
  facet normal 1 0 0
    outer loop
      vertex -1.72002 7.8086 -1.68211
      vertex -1.72002 7.98184 -1.7293
      vertex -1.72002 8.08601 -1.73372
    endloop
  endfacet
  facet normal 1 -0 0
    outer loop
      vertex -1.72002 4.84447 -1.14569
      vertex -1.72002 7.8086 -1.68211
      vertex -1.72002 4.84957 -1.13168
    endloop
  endfacet
  facet normal 1 0 0
    outer loop
      vertex -1.72002 7.8086 -1.68211
      vertex -1.72002 4.84447 -1.14569
      vertex -1.72002 7.98184 -1.7293
    endloop
  endfacet
  facet normal 1 0 0
    outer loop
      vertex -1.72002 3.48388 -0.634605
      vertex -1.72002 4.84447 -1.14569
      vertex -1.72002 4.84957 -1.13168
    endloop
  endfacet
  facet normal 1 0 0
    outer loop
      vertex -1.72002 4.84447 -1.14569
      vertex -1.72002 3.48388 -0.634605
      vertex -1.72002 3.45133 -0.638627
    endloop
  endfacet
  facet normal -0.0291718 0.491641 0.870309
    outer loop
      vertex -2 5.47361 0.58285
      vertex -2 8.33985 -1.0363
      vertex -11.1459 5.38106 0.328571
    endloop
  endfacet
  facet normal -0.157971 0.0330532 -0.98689
    outer loop
      vertex -7.35756 8.20897 -1.39591
      vertex -5.78836 8.11642 -1.65019
      vertex -11.1459 4.93419 -0.899194
    endloop
  endfacet
  facet normal 0.029174 0.491641 0.870309
    outer loop
      vertex -2 5.47361 0.58285
      vertex -1.72002 8.24928 -0.994522
      vertex -2 8.33985 -1.0363
    endloop
  endfacet
  facet normal 0.0291658 0.491642 0.870309
    outer loop
      vertex -1.72002 8.24928 -0.994522
      vertex -2 5.47361 0.58285
      vertex -1.72002 5.47078 0.575066
    endloop
  endfacet
  facet normal -0.157968 0.659679 0.734758
    outer loop
      vertex -11.1459 5.38106 0.328571
      vertex -7.35756 8.20897 -1.39591
      vertex -14.9343 5.15763 -0.285311
    endloop
  endfacet
  facet normal 0.0291843 0.491666 0.870295
    outer loop
      vertex -1.72002 8.24928 -0.994522
      vertex -1.72002 8.33702 -1.04409
      vertex -2 8.33985 -1.0363
    endloop
  endfacet
  facet normal -0.157969 0.0330515 -0.986891
    outer loop
      vertex -7.35756 8.20897 -1.39591
      vertex -11.1459 4.93419 -0.899194
      vertex -14.9343 5.15763 -0.285311
    endloop
  endfacet
  facet normal -0.0291705 -0.182807 -0.982716
    outer loop
      vertex -5.78836 8.11642 -1.65019
      vertex -2 8.07808 -1.75551
      vertex -11.1459 4.93419 -0.899194
    endloop
  endfacet
  facet normal -0.0291721 0.491642 0.870309
    outer loop
      vertex -2 8.33985 -1.0363
      vertex -5.78836 8.30152 -1.14163
      vertex -11.1459 5.38106 0.328571
    endloop
  endfacet
  facet normal -0.15797 0.659681 0.734756
    outer loop
      vertex -5.78836 8.30152 -1.14163
      vertex -7.35756 8.20897 -1.39591
      vertex -11.1459 5.38106 0.328571
    endloop
  endfacet
  facet normal 0.0291552 -0.182804 -0.982717
    outer loop
      vertex -2 4.84164 -1.15347
      vertex -1.72002 7.98184 -1.7293
      vertex -1.72002 4.84447 -1.14569
    endloop
  endfacet
  facet normal 0.029159 -0.182804 -0.982717
    outer loop
      vertex -1.72002 7.98184 -1.7293
      vertex -2 4.84164 -1.15347
      vertex -2 8.07808 -1.75551
    endloop
  endfacet
  facet normal -0.0291715 -0.182804 -0.982716
    outer loop
      vertex -2 8.07808 -1.75551
      vertex -2 4.84164 -1.15347
      vertex -11.1459 4.93419 -0.899194
    endloop
  endfacet
  facet normal 0.0291553 -0.182815 -0.982715
    outer loop
      vertex -1.72002 8.08091 -1.74773
      vertex -1.72002 7.98184 -1.7293
      vertex -2 8.07808 -1.75551
    endloop
  endfacet
endsolid OpenSCAD_Model
