<?xml version="1.0" encoding="UTF-8" standalone="no"?>
<!-- Generator: Adobe Illustrator 22.0.1, SVG Export Plug-In . SVG Version: 6.00 Build 0)  -->

<svg
   xmlns:dc="http://purl.org/dc/elements/1.1/"
   xmlns:cc="http://creativecommons.org/ns#"
   xmlns:rdf="http://www.w3.org/1999/02/22-rdf-syntax-ns#"
   xmlns:svg="http://www.w3.org/2000/svg"
   xmlns="http://www.w3.org/2000/svg"
   xmlns:sodipodi="http://sodipodi.sourceforge.net/DTD/sodipodi-0.dtd"
   xmlns:inkscape="http://www.inkscape.org/namespaces/inkscape"
   version="1.1"
   x="0px"
   y="0px"
   viewBox="0 0 800 480"
   style="enable-background:new 0 0 800 480;"
   xml:space="preserve"
   id="svg580"
   sodipodi:docname="LCARS.svg"
   inkscape:version="0.92.3 (2405546, 2018-03-11)"><metadata
   id="metadata586"><rdf:RDF><cc:Work
       rdf:about=""><dc:format>image/svg+xml</dc:format><dc:type
         rdf:resource="http://purl.org/dc/dcmitype/StillImage" /><dc:title></dc:title></cc:Work></rdf:RDF></metadata><defs
   id="defs584" /><sodipodi:namedview
   pagecolor="#ffffff"
   bordercolor="#666666"
   borderopacity="1"
   objecttolerance="10"
   gridtolerance="10"
   guidetolerance="10"
   inkscape:pageopacity="0"
   inkscape:pageshadow="2"
   inkscape:window-width="1317"
   inkscape:window-height="985"
   id="namedview582"
   showgrid="false"
   inkscape:zoom="0.845"
   inkscape:cx="466.56104"
   inkscape:cy="217.02041"
   inkscape:window-x="83"
   inkscape:window-y="27"
   inkscape:window-maximized="0"
   inkscape:current-layer="svg580" />
<style
   type="text/css"
   id="style2">
	.st0{fill:#664466;}
	.st1{fill:#006699;}
	.st2{fill:#FF9933;}
	.st3{fill:#FFFF99;}
	.st4{fill:#FFCC66;}
	.st5{fill:#CC99CC;}
	.st6{font-family:'HelveticaLT-UltraCompressed';}
	.st7{font-size:16px;}
	.st8{fill:#3366CC;}
	.st9{fill:#99CCFF;}
	.st10{font-size:44px;}
	.st11{font-size:30px;}
	.st12{font-size:24px;}
	.st13{fill:none;stroke:#99CCFF;stroke-width:5;}
	.st14{fill:#006699;stroke:#99CCFF;}
	.st15{fill:none;stroke:#99CCFF;stroke-width:2;stroke-linecap:round;}
	.st16{fill:none;stroke:#FFFFFF;stroke-width:5;stroke-linecap:round;}
	.st17{fill:none;stroke:#99CCFF;stroke-width:3;stroke-linecap:round;}
	.st18{fill:none;stroke:#99CCFF;stroke-width:2;}
	.st19{fill:none;stroke:#FFFFFF;stroke-width:4;}
	.st20{fill:#FFFF99;stroke:#99CCFF;}
	.st21{stroke:#99CCFF;}
	.st22{fill:none;stroke:#99CCFF;stroke-width:4;stroke-linecap:round;}
	.st23{fill:#FF9933;stroke:#99CCFF;stroke-width:2;stroke-linecap:round;}
	.st24{fill:#FFFF99;stroke:#FFFF99;stroke-width:2;stroke-linecap:round;stroke-linejoin:round;}
	.st25{fill:#FF9933;stroke:#99CCFF;stroke-width:2;}
	.st26{fill:#FFCC66;stroke:#99CCFF;stroke-width:2;}
	.st27{fill:none;stroke:#FFFFFF;stroke-width:5;stroke-linecap:round;stroke-linejoin:round;}
	.st28{fill:#CC99CC;stroke:#99CCFF;stroke-width:2;}
	.st29{fill:none;stroke:#FFFFFF;stroke-width:5;}
	.st30{fill:#99CCFF;stroke:#99CCFF;stroke-width:2;}
	.st31{fill:#FFCC66;stroke:#FFCC66;stroke-width:2;}
	.st32{font-size:20px;}
	.st33{fill:none;stroke:#3366CC;stroke-width:4;stroke-linecap:square;}
	.st34{fill:none;stroke:#3366CC;stroke-width:4;}
	.st35{fill:none;}
	.st36{fill:none;stroke:#FF9933;}
	.st37{fill:none;stroke:#FF9933;stroke-width:4;}
	.st38{fill:none;stroke:#FFFF99;stroke-width:3;stroke-linecap:round;}
	.st39{fill:none;stroke:#FF9933;stroke-width:3;}
	.st40{fill:none;stroke:#FFCC66;stroke-width:3;}
	.st41{font-size:19.0271px;}
</style>
<g
   id="black_layer">
	<rect
   x="0.8"
   y="-0.3"
   width="800"
   height="480"
   id="rect4" />
</g>
<g
   id="main_frame">
	<rect
   x="659.8"
   y="156"
   class="st0"
   width="37.2"
   height="140.7"
   id="rect7" />
	<rect
   x="659.8"
   y="301.2"
   class="st1"
   width="37.2"
   height="68"
   id="rect9" />
	<rect
   x="714.3"
   y="234.5"
   class="st2"
   width="73"
   height="245.5"
   id="rect11" />
	<rect
   x="714.3"
   y="64.5"
   class="st3"
   width="73"
   height="47.8"
   id="rect13" />
	<rect
   x="714.3"
   y="121.2"
   class="st4"
   width="73"
   height="25.2"
   id="rect15" />
	<polygon
   class="st4"
   points="714.3,153.7 714.3,201.5 714.3,226.7 787.3,226.7 787.3,201.5 787.3,153.7  "
   id="polygon17" />
	<rect
   x="659.8"
   y="72.8"
   class="st1"
   width="37.2"
   height="13"
   id="rect19" />
	<path
   class="st5"
   d="M697,68.5c-0.2-17.6-3.9-19.9-27-20.1v0h-8.2H648H74H47h-7.7v0.1C20.3,49,13.7,52.3,13.7,68.5h46   c0,0-2.3-13.5,14.3-13.5h574c13.5,0,11.8,13.5,11.8,13.5H697z"
   id="path21" />
	<rect
   x="13.7"
   y="73.3"
   class="st1"
   width="46"
   height="46"
   id="rect23" />
	<rect
   x="659.8"
   y="90.4"
   class="st0"
   width="37.2"
   height="60.2"
   id="rect25" />
	<text
   transform="translate(756.9213,252.252)"
   class="st6 st7"
   id="text27"
   style="font-size:16px;font-family:HelveticaLT-UltraCompressed" />

	<text
   transform="translate(752.669,106.5567)"
   class="st6 st7"
   id="text29"
   style="font-size:16px;font-family:HelveticaLT-UltraCompressed" />

	<text
   transform="translate(743.5827,141.3926)"
   class="st6 st7"
   id="text31"
   style="font-size:16px;font-family:HelveticaLT-UltraCompressed" />

	<text
   transform="translate(756.0866,220.441)"
   class="st6 st7"
   id="text33"
   style="font-size:16px;font-family:HelveticaLT-UltraCompressed" />

	<g
   id="g39">
		<path
   class="st3"
   d="M28.2,8L28.2,8c-0.5,0-1.1,0-1.7,0c-8.8,0-15.9,7.1-15.9,15.9c0,8.8,7.1,15.9,15.9,15.9c0.6,0,1.1,0,1.7-0.1    V40h26.4V8H28.2z"
   id="path35" />
		<path
   class="st3"
   d="M787.3,56.8C787.3,36,786.2,8,748,8h-33.7H706H231.4v32h467.1c18.5,0,15.8,16.8,15.8,16.8H787.3z"
   id="path37" />
	</g>
	<path
   class="st5"
   d="M56.7,407.5c0,0-1.8-13.5,11.8-13.5h587.1v-6.7H68.5H54.7h-8.2v0c-23.1,0.3-26.8,2.5-27,20.1H56.7z"
   id="path41" />
	<path
   class="st5"
   d="M659.8,373.6c0,0,1.8,13.5-11.8,13.5H138.4v6.7H648h13.8h8.2v0c23.1-0.3,26.8-2.5,27-20.1H659.8z"
   id="path43" />
	<rect
   x="19.5"
   y="411.7"
   class="st1"
   width="37.2"
   height="11.3"
   id="rect45" />
	<rect
   x="19.5"
   y="427"
   class="st0"
   width="37.2"
   height="41"
   id="rect47" />
	<g
   id="g189">
		
		
		
	</g>
</g>
<g
   id="ACCORD_CLASS">
	<text
   transform="translate(61.25,40.0846)"
   class="st3 st6 st10"
   id="text192"
   style="font-size:44px;font-family:HelveticaLT-UltraCompressed;fill:#ffff99" />

</g>
<g
   id="USS_ANDROMEDA">
	<text
   transform="translate(270.6653,35.4213)"
   id="text199" />

</g>




</svg>