solid OpenSCAD_Model
  facet normal -0.410998 -0.569495 0.711868
    outer loop
      vertex -766 -55.9208 -79.952
      vertex -802 -30 -80
      vertex -766 -55.9808 -80
    endloop
  endfacet
  facet normal -0.411002 -0.5695 -0.711862
    outer loop
      vertex -766 -55.9808 -80
      vertex -802 -30 -80
      vertex -766 -30 -100.785
    endloop
  endfacet
  facet normal -0.116214 -0.1627 0.979808
    outer loop
      vertex -748 -42.9904 -75.6699
      vertex -766 -55.9208 -79.952
      vertex -765.958 -55.9508 -79.952
    endloop
  endfacet
  facet normal -0.116822 0.161874 0.979872
    outer loop
      vertex -766 55.9208 -79.952
      vertex -801.917 30 -79.952
      vertex -766 30 -75.6699
    endloop
  endfacet
  facet normal 0.177575 0 -0.984107
    outer loop
      vertex -614.8 -30 -100.785
      vertex -595.6 -25 -97.3205
      vertex -595.6 -30 -97.3205
    endloop
  endfacet
  facet normal 0.177575 0 -0.984107
    outer loop
      vertex -595.6 -25 -97.3205
      vertex -614.8 -30 -100.785
      vertex -614.8 -25 -100.785
    endloop
  endfacet
  facet normal 0.177575 0 -0.984107
    outer loop
      vertex -614.8 25 -100.785
      vertex -595.6 30 -97.3205
      vertex -595.6 25 -97.3205
    endloop
  endfacet
  facet normal 0.177575 0 -0.984107
    outer loop
      vertex -595.6 30 -97.3205
      vertex -614.8 25 -100.785
      vertex -614.8 30 -100.785
    endloop
  endfacet
  facet normal 0 0.848002 -0.529992
    outer loop
      vertex -672.4 42.9904 -100.785
      vertex -766 55.9808 -80
      vertex -614.8 55.9808 -80
    endloop
  endfacet
  facet normal 0 0.848002 -0.529992
    outer loop
      vertex -766 55.9808 -80
      vertex -672.4 42.9904 -100.785
      vertex -748 42.9904 -100.785
    endloop
  endfacet
  facet normal 0.139517 -0.618592 -0.773226
    outer loop
      vertex -614.8 -30 -100.785
      vertex -598.493 -43.9987 -86.6435
      vertex -614.8 -55.9808 -80
    endloop
  endfacet
  facet normal 0.139509 -0.618585 -0.773234
    outer loop
      vertex -614.8 -55.9808 -80
      vertex -598.493 -43.9987 -86.6435
      vertex -576.4 -47.3205 -80
    endloop
  endfacet
  facet normal 0.139519 -0.618621 -0.773203
    outer loop
      vertex -603.684 -31.8232 -97.3205
      vertex -614.8 -30 -100.785
      vertex -595.6 -30 -97.3205
    endloop
  endfacet
  facet normal 0.139536 -0.618578 -0.773234
    outer loop
      vertex -598.493 -43.9987 -86.6435
      vertex -614.8 -30 -100.785
      vertex -603.684 -31.8232 -97.3205
    endloop
  endfacet
  facet normal 0.0367348 -0.162878 0.985962
    outer loop
      vertex -560.222 -38.6602 -79.134
      vertex -614.8 -30 -75.6699
      vertex -580.302 -47.2205 -79.8
    endloop
  endfacet
  facet normal 0.0367342 -0.162882 0.985961
    outer loop
      vertex -614.8 -30 -75.6699
      vertex -560.222 -38.6602 -79.134
      vertex -521.822 -30 -79.134
    endloop
  endfacet
  facet normal 0.0367409 -0.162908 0.985957
    outer loop
      vertex -580.302 -47.2205 -79.8
      vertex -614.8 -55.9208 -79.952
      vertex -576.56 -47.2965 -79.952
    endloop
  endfacet
  facet normal 0.0367338 -0.16288 0.985962
    outer loop
      vertex -614.8 -55.9208 -79.952
      vertex -580.302 -47.2205 -79.8
      vertex -614.8 -30 -75.6699
    endloop
  endfacet
  facet normal 0.0372313 0 0.999307
    outer loop
      vertex -521.822 30 -79.134
      vertex -552.812 25 -77.9794
      vertex -521.822 26.7522 -79.134
    endloop
  endfacet
  facet normal 0.0372314 -1.29403e-07 0.999307
    outer loop
      vertex -614.8 30 -75.6699
      vertex -552.812 25 -77.9794
      vertex -521.822 30 -79.134
    endloop
  endfacet
  facet normal 0.0372314 0 0.999307
    outer loop
      vertex -552.812 25 -77.9794
      vertex -614.8 30 -75.6699
      vertex -614.8 25 -75.6699
    endloop
  endfacet
  facet normal 0.0372313 0 0.999307
    outer loop
      vertex -552.812 -25 -77.9794
      vertex -521.822 -30 -79.134
      vertex -521.822 -26.7522 -79.134
    endloop
  endfacet
  facet normal 0.0372314 -0 0.999307
    outer loop
      vertex -614.8 -30 -75.6699
      vertex -552.812 -25 -77.9794
      vertex -614.8 -25 -75.6699
    endloop
  endfacet
  facet normal 0.0372314 1.29403e-07 0.999307
    outer loop
      vertex -552.812 -25 -77.9794
      vertex -614.8 -30 -75.6699
      vertex -521.822 -30 -79.134
    endloop
  endfacet
  facet normal 0.13951 -0.618586 0.773232
    outer loop
      vertex -614.8 -55.9808 -80
      vertex -576.56 -47.2965 -79.952
      vertex -614.8 -55.9208 -79.952
    endloop
  endfacet
  facet normal 0.139234 -0.617374 0.77425
    outer loop
      vertex -576.56 -47.2965 -79.952
      vertex -614.8 -55.9808 -80
      vertex -576.453 -47.3125 -79.984
    endloop
  endfacet
  facet normal -0.411344 -0.569976 0.711283
    outer loop
      vertex -801.917 -30 -79.952
      vertex -802 -30 -80
      vertex -766 -55.9208 -79.952
    endloop
  endfacet
  facet normal -0.411002 -0.5695 -0.711862
    outer loop
      vertex -748 -42.9904 -100.785
      vertex -766 -55.9808 -80
      vertex -766 -30 -100.785
    endloop
  endfacet
  facet normal -0 0.313719 0.949516
    outer loop
      vertex -765.958 55.9508 -79.952
      vertex -672.4 42.9904 -75.6699
      vertex -614.933 55.9508 -79.952
    endloop
  endfacet
  facet normal 0 0.313719 0.949516
    outer loop
      vertex -672.4 42.9904 -75.6699
      vertex -765.958 55.9508 -79.952
      vertex -748 42.9904 -75.6699
    endloop
  endfacet
  facet normal 0.139705 0.619456 0.772501
    outer loop
      vertex -576.4 47.3205 -80
      vertex -614.8 55.9808 -80
      vertex -576.453 47.3125 -79.984
    endloop
  endfacet
  facet normal 0.036734 -0.16288 0.985962
    outer loop
      vertex -614.8 -30 -75.6699
      vertex -672.4 -42.9904 -75.6699
      vertex -614.8 -55.9208 -79.952
    endloop
  endfacet
  facet normal 0.13951 -0.618592 -0.773227
    outer loop
      vertex -614.8 -55.9808 -80
      vertex -672.4 -42.9904 -100.785
      vertex -614.8 -30 -100.785
    endloop
  endfacet
  facet normal 0.13953 0.618584 0.77323
    outer loop
      vertex -614.8 55.9808 -80
      vertex -614.933 55.9508 -79.952
      vertex -614.8 55.9208 -79.952
    endloop
  endfacet
  facet normal -0.411002 0.5695 -0.711862
    outer loop
      vertex -748 42.9904 -100.785
      vertex -766 30 -100.785
      vertex -766 55.9808 -80
    endloop
  endfacet
  facet normal 0.036734 0.16288 0.985962
    outer loop
      vertex -614.8 55.9208 -79.952
      vertex -672.4 42.9904 -75.6699
      vertex -614.8 30 -75.6699
    endloop
  endfacet
  facet normal 0.139705 -0.619456 0.772501
    outer loop
      vertex -576.453 -47.3125 -79.984
      vertex -614.8 -55.9808 -80
      vertex -576.4 -47.3205 -80
    endloop
  endfacet
  facet normal 0.139234 0.617374 0.77425
    outer loop
      vertex -614.8 55.9808 -80
      vertex -576.56 47.2965 -79.952
      vertex -576.453 47.3125 -79.984
    endloop
  endfacet
  facet normal 0.13951 0.618586 0.773232
    outer loop
      vertex -576.56 47.2965 -79.952
      vertex -614.8 55.9808 -80
      vertex -614.8 55.9208 -79.952
    endloop
  endfacet
  facet normal -0.118384 0 0.992968
    outer loop
      vertex -801.917 -25 -79.952
      vertex -766 -30 -75.6699
      vertex -766 -25 -75.6699
    endloop
  endfacet
  facet normal -0.118384 0 0.992968
    outer loop
      vertex -766 -30 -75.6699
      vertex -801.917 -25 -79.952
      vertex -801.917 -30 -79.952
    endloop
  endfacet
  facet normal -0.118384 0 0.992968
    outer loop
      vertex -801.917 30 -79.952
      vertex -766 25 -75.6699
      vertex -766 30 -75.6699
    endloop
  endfacet
  facet normal -0.118384 0 0.992968
    outer loop
      vertex -766 25 -75.6699
      vertex -801.917 30 -79.952
      vertex -801.917 25 -79.952
    endloop
  endfacet
  facet normal -0.500007 0 -0.866021
    outer loop
      vertex -802 25 -80
      vertex -766 30 -100.785
      vertex -766 25 -100.785
    endloop
  endfacet
  facet normal -0.500007 0 -0.866021
    outer loop
      vertex -766 30 -100.785
      vertex -802 25 -80
      vertex -802 30 -80
    endloop
  endfacet
  facet normal -0.500007 0 -0.866021
    outer loop
      vertex -802 -30 -80
      vertex -766 -25 -100.785
      vertex -766 -30 -100.785
    endloop
  endfacet
  facet normal -0.500007 0 -0.866021
    outer loop
      vertex -766 -25 -100.785
      vertex -802 -30 -80
      vertex -802 -25 -80
    endloop
  endfacet
  facet normal 0 0 -1
    outer loop
      vertex -614.8 25 -100.785
      vertex -672.4 42.9904 -100.785
      vertex -614.8 30 -100.785
    endloop
  endfacet
  facet normal 0 0 -1
    outer loop
      vertex -766 25 -100.785
      vertex -672.4 42.9904 -100.785
      vertex -614.8 25 -100.785
    endloop
  endfacet
  facet normal -0 0 -1
    outer loop
      vertex -672.4 42.9904 -100.785
      vertex -766 25 -100.785
      vertex -748 42.9904 -100.785
    endloop
  endfacet
  facet normal 0 0 -1
    outer loop
      vertex -748 42.9904 -100.785
      vertex -766 25 -100.785
      vertex -766 30 -100.785
    endloop
  endfacet
  facet normal 0 0 -1
    outer loop
      vertex -672.4 -42.9904 -100.785
      vertex -614.8 -25 -100.785
      vertex -614.8 -30 -100.785
    endloop
  endfacet
  facet normal 0 0 -1
    outer loop
      vertex -766 -25 -100.785
      vertex -672.4 -42.9904 -100.785
      vertex -748 -42.9904 -100.785
    endloop
  endfacet
  facet normal 0 0 -1
    outer loop
      vertex -766 -25 -100.785
      vertex -748 -42.9904 -100.785
      vertex -766 -30 -100.785
    endloop
  endfacet
  facet normal 0 0 -1
    outer loop
      vertex -672.4 -42.9904 -100.785
      vertex -766 -25 -100.785
      vertex -614.8 -25 -100.785
    endloop
  endfacet
  facet normal -0 -0.848002 -0.529992
    outer loop
      vertex -672.4 -42.9904 -100.785
      vertex -766 -55.9808 -80
      vertex -748 -42.9904 -100.785
    endloop
  endfacet
  facet normal 0 -0.848002 -0.529992
    outer loop
      vertex -766 -55.9808 -80
      vertex -672.4 -42.9904 -100.785
      vertex -614.8 -55.9808 -80
    endloop
  endfacet
  facet normal 0 -0.847998 0.529999
    outer loop
      vertex -766 -55.9808 -80
      vertex -614.933 -55.9508 -79.952
      vertex -765.958 -55.9508 -79.952
    endloop
  endfacet
  facet normal 0 -0.847998 0.529999
    outer loop
      vertex -614.933 -55.9508 -79.952
      vertex -766 -55.9808 -80
      vertex -614.8 -55.9808 -80
    endloop
  endfacet
  facet normal -0.116214 0.1627 0.979808
    outer loop
      vertex -765.958 55.9508 -79.952
      vertex -766 55.9208 -79.952
      vertex -748 42.9904 -75.6699
    endloop
  endfacet
  facet normal -0.116822 -0.161874 0.979872
    outer loop
      vertex -766 -30 -75.6699
      vertex -801.917 -30 -79.952
      vertex -766 -55.9208 -79.952
    endloop
  endfacet
  facet normal 0.0367409 0.162908 0.985957
    outer loop
      vertex -576.56 47.2965 -79.952
      vertex -614.8 55.9208 -79.952
      vertex -580.302 47.2205 -79.8
    endloop
  endfacet
  facet normal 0.0367338 0.16288 0.985962
    outer loop
      vertex -614.8 30 -75.6699
      vertex -580.302 47.2205 -79.8
      vertex -614.8 55.9208 -79.952
    endloop
  endfacet
  facet normal 0.0367342 0.162882 0.985961
    outer loop
      vertex -560.222 38.6602 -79.134
      vertex -614.8 30 -75.6699
      vertex -521.822 30 -79.134
    endloop
  endfacet
  facet normal 0.0367348 0.162878 0.985962
    outer loop
      vertex -580.302 47.2205 -79.8
      vertex -614.8 30 -75.6699
      vertex -560.222 38.6602 -79.134
    endloop
  endfacet
  facet normal 0.036737 0.162868 0.985964
    outer loop
      vertex -614.933 55.9508 -79.952
      vertex -672.4 42.9904 -75.6699
      vertex -614.8 55.9208 -79.952
    endloop
  endfacet
  facet normal -0 0.847998 0.529999
    outer loop
      vertex -766 55.9808 -80
      vertex -614.933 55.9508 -79.952
      vertex -614.8 55.9808 -80
    endloop
  endfacet
  facet normal 0 0.847998 0.529999
    outer loop
      vertex -614.933 55.9508 -79.952
      vertex -766 55.9808 -80
      vertex -765.958 55.9508 -79.952
    endloop
  endfacet
  facet normal 0.139519 0.618621 -0.773203
    outer loop
      vertex -595.6 30 -97.3205
      vertex -614.8 30 -100.785
      vertex -603.684 31.8232 -97.3205
    endloop
  endfacet
  facet normal 0.139536 0.618578 -0.773234
    outer loop
      vertex -614.8 30 -100.785
      vertex -598.493 43.9987 -86.6435
      vertex -603.684 31.8232 -97.3205
    endloop
  endfacet
  facet normal 0.139509 0.618585 -0.773234
    outer loop
      vertex -598.493 43.9987 -86.6435
      vertex -614.8 55.9808 -80
      vertex -576.4 47.3205 -80
    endloop
  endfacet
  facet normal 0.139517 0.618592 -0.773226
    outer loop
      vertex -614.8 55.9808 -80
      vertex -598.493 43.9987 -86.6435
      vertex -614.8 30 -100.785
    endloop
  endfacet
  facet normal -0.411002 0.5695 -0.711862
    outer loop
      vertex -766 30 -100.785
      vertex -802 30 -80
      vertex -766 55.9808 -80
    endloop
  endfacet
  facet normal 0.036737 -0.162868 0.985964
    outer loop
      vertex -614.8 -55.9208 -79.952
      vertex -672.4 -42.9904 -75.6699
      vertex -614.933 -55.9508 -79.952
    endloop
  endfacet
  facet normal 0.13953 -0.618584 0.77323
    outer loop
      vertex -614.8 -55.9208 -79.952
      vertex -614.933 -55.9508 -79.952
      vertex -614.8 -55.9808 -80
    endloop
  endfacet
  facet normal 0 -0.313719 0.949516
    outer loop
      vertex -765.958 -55.9508 -79.952
      vertex -672.4 -42.9904 -75.6699
      vertex -748 -42.9904 -75.6699
    endloop
  endfacet
  facet normal 0 -0.313719 0.949516
    outer loop
      vertex -672.4 -42.9904 -75.6699
      vertex -765.958 -55.9508 -79.952
      vertex -614.933 -55.9508 -79.952
    endloop
  endfacet
  facet normal -0.407485 -0.570479 0.713099
    outer loop
      vertex -766 -55.9208 -79.952
      vertex -766 -55.9808 -80
      vertex -765.958 -55.9508 -79.952
    endloop
  endfacet
  facet normal 0.13951 0.618592 -0.773227
    outer loop
      vertex -614.8 30 -100.785
      vertex -672.4 42.9904 -100.785
      vertex -614.8 55.9808 -80
    endloop
  endfacet
  facet normal -0.407485 0.570479 0.713099
    outer loop
      vertex -766 55.9808 -80
      vertex -766 55.9208 -79.952
      vertex -765.958 55.9508 -79.952
    endloop
  endfacet
  facet normal -0.410998 0.569495 0.711868
    outer loop
      vertex -766 55.9808 -80
      vertex -802 30 -80
      vertex -766 55.9208 -79.952
    endloop
  endfacet
  facet normal 0 0 1
    outer loop
      vertex -672.4 42.9904 -75.6699
      vertex -614.8 25 -75.6699
      vertex -614.8 30 -75.6699
    endloop
  endfacet
  facet normal 0 0 1
    outer loop
      vertex -766 25 -75.6699
      vertex -672.4 42.9904 -75.6699
      vertex -748 42.9904 -75.6699
    endloop
  endfacet
  facet normal 0 0 1
    outer loop
      vertex -766 25 -75.6699
      vertex -748 42.9904 -75.6699
      vertex -766 30 -75.6699
    endloop
  endfacet
  facet normal 0 0 1
    outer loop
      vertex -672.4 42.9904 -75.6699
      vertex -766 25 -75.6699
      vertex -614.8 25 -75.6699
    endloop
  endfacet
  facet normal 0 0 1
    outer loop
      vertex -614.8 -25 -75.6699
      vertex -672.4 -42.9904 -75.6699
      vertex -614.8 -30 -75.6699
    endloop
  endfacet
  facet normal -0 0 1
    outer loop
      vertex -766 -25 -75.6699
      vertex -672.4 -42.9904 -75.6699
      vertex -614.8 -25 -75.6699
    endloop
  endfacet
  facet normal 0 0 1
    outer loop
      vertex -672.4 -42.9904 -75.6699
      vertex -766 -25 -75.6699
      vertex -748 -42.9904 -75.6699
    endloop
  endfacet
  facet normal 0 0 1
    outer loop
      vertex -748 -42.9904 -75.6699
      vertex -766 -25 -75.6699
      vertex -766 -30 -75.6699
    endloop
  endfacet
  facet normal -0.116823 -0.161874 0.979872
    outer loop
      vertex -766 -30 -75.6699
      vertex -766 -55.9208 -79.952
      vertex -748 -42.9904 -75.6699
    endloop
  endfacet
  facet normal -0.500625 0 0.865664
    outer loop
      vertex -802 -25 -80
      vertex -801.917 -30 -79.952
      vertex -801.917 -25 -79.952
    endloop
  endfacet
  facet normal -0.500625 0 0.865664
    outer loop
      vertex -801.917 -30 -79.952
      vertex -802 -25 -80
      vertex -802 -30 -80
    endloop
  endfacet
  facet normal -0.500625 0 0.865664
    outer loop
      vertex -802 30 -80
      vertex -801.917 25 -79.952
      vertex -801.917 30 -79.952
    endloop
  endfacet
  facet normal -0.500625 0 0.865664
    outer loop
      vertex -801.917 25 -79.952
      vertex -802 30 -80
      vertex -802 25 -80
    endloop
  endfacet
  facet normal -0.116823 0.161874 0.979872
    outer loop
      vertex -766 55.9208 -79.952
      vertex -766 30 -75.6699
      vertex -748 42.9904 -75.6699
    endloop
  endfacet
  facet normal -0.411344 0.569976 0.711283
    outer loop
      vertex -766 55.9208 -79.952
      vertex -802 30 -80
      vertex -801.917 30 -79.952
    endloop
  endfacet
  facet normal 0 -1 0
    outer loop
      vertex -669.307 25 -79.8
      vertex -614.8 25 -75.6699
      vertex -766 25 -75.6699
    endloop
  endfacet
  facet normal -0 -1 0
    outer loop
      vertex -612.818 25 -79.1656
      vertex -614.8 25 -75.6699
      vertex -669.307 25 -79.8
    endloop
  endfacet
  facet normal 0 -1 0
    outer loop
      vertex -614.8 25 -75.6699
      vertex -596.263 25 -77.9847
      vertex -596.188 25 -77.9794
    endloop
  endfacet
  facet normal 0 -1 0
    outer loop
      vertex -614.8 25 -75.6699
      vertex -610 25 -78.9646
      vertex -596.263 25 -77.9847
    endloop
  endfacet
  facet normal 0 -1 0
    outer loop
      vertex -614.8 25 -75.6699
      vertex -612.818 25 -79.1656
      vertex -610 25 -78.9646
    endloop
  endfacet
  facet normal 0 -1 0
    outer loop
      vertex -766 25 -100.785
      vertex -766 25 -75.6699
      vertex -801.917 25 -79.952
    endloop
  endfacet
  facet normal 0 -1 0
    outer loop
      vertex -766 25 -100.785
      vertex -801.917 25 -79.952
      vertex -802 25 -80
    endloop
  endfacet
  facet normal 0 -1 0
    outer loop
      vertex -766 25 -75.6699
      vertex -670 25 -80
      vertex -669.307 25 -79.8
    endloop
  endfacet
  facet normal 0 -1 0
    outer loop
      vertex -766 25 -75.6699
      vertex -766 25 -100.785
      vertex -670 25 -80
    endloop
  endfacet
  facet normal 0 -1 0
    outer loop
      vertex -614.8 25 -100.785
      vertex -670 25 -80
      vertex -766 25 -100.785
    endloop
  endfacet
  facet normal 0 -1 0
    outer loop
      vertex -670 25 -80
      vertex -614.8 25 -100.785
      vertex -610 25 -97.3205
    endloop
  endfacet
  facet normal 0 -1 -0
    outer loop
      vertex -610 25 -97.3205
      vertex -614.8 25 -100.785
      vertex -595.6 25 -97.3205
    endloop
  endfacet
  facet normal 0 -1 0
    outer loop
      vertex -614.8 25 -75.6699
      vertex -596.188 25 -77.9794
      vertex -552.812 25 -77.9794
    endloop
  endfacet
  facet normal 0 1 0
    outer loop
      vertex -595.6 -25 -97.3205
      vertex -614.8 -25 -100.785
      vertex -610 -25 -97.3205
    endloop
  endfacet
  facet normal 0 1 -0
    outer loop
      vertex -596.188 -25 -77.9794
      vertex -614.8 -25 -75.6699
      vertex -552.812 -25 -77.9794
    endloop
  endfacet
  facet normal 0 1 -0
    outer loop
      vertex -596.263 -25 -77.9847
      vertex -614.8 -25 -75.6699
      vertex -596.188 -25 -77.9794
    endloop
  endfacet
  facet normal 0 1 -0
    outer loop
      vertex -610 -25 -78.9646
      vertex -614.8 -25 -75.6699
      vertex -596.263 -25 -77.9847
    endloop
  endfacet
  facet normal 0 1 -0
    outer loop
      vertex -612.818 -25 -79.1656
      vertex -614.8 -25 -75.6699
      vertex -610 -25 -78.9646
    endloop
  endfacet
  facet normal 0 1 0
    outer loop
      vertex -614.8 -25 -75.6699
      vertex -612.818 -25 -79.1656
      vertex -669.307 -25 -79.8
    endloop
  endfacet
  facet normal 0 1 0
    outer loop
      vertex -614.8 -25 -75.6699
      vertex -669.307 -25 -79.8
      vertex -766 -25 -75.6699
    endloop
  endfacet
  facet normal 0 1 -0
    outer loop
      vertex -670 -25 -80
      vertex -766 -25 -75.6699
      vertex -669.307 -25 -79.8
    endloop
  endfacet
  facet normal 0 1 0
    outer loop
      vertex -766 -25 -100.785
      vertex -766 -25 -75.6699
      vertex -670 -25 -80
    endloop
  endfacet
  facet normal 0 1 0
    outer loop
      vertex -766 -25 -75.6699
      vertex -766 -25 -100.785
      vertex -801.917 -25 -79.952
    endloop
  endfacet
  facet normal 0 1 -0
    outer loop
      vertex -614.8 -25 -100.785
      vertex -670 -25 -80
      vertex -610 -25 -97.3205
    endloop
  endfacet
  facet normal 0 1 0
    outer loop
      vertex -670 -25 -80
      vertex -614.8 -25 -100.785
      vertex -766 -25 -100.785
    endloop
  endfacet
  facet normal 0 1 0
    outer loop
      vertex -801.917 -25 -79.952
      vertex -766 -25 -100.785
      vertex -802 -25 -80
    endloop
  endfacet
  facet normal 0 0.894426 -0.447216
    outer loop
      vertex -532 38.6602 -97.3205
      vertex -576.4 47.3205 -80
      vertex -514 47.3205 -80
    endloop
  endfacet
  facet normal 0 0.894426 -0.447216
    outer loop
      vertex -576.4 47.3205 -80
      vertex -532 38.6602 -97.3205
      vertex -580 38.6602 -97.3205
    endloop
  endfacet
  facet normal -1.331e-06 0.894426 -0.447215
    outer loop
      vertex -576.4 47.3205 -80
      vertex -580 38.6602 -97.3205
      vertex -598.493 43.9987 -86.6435
    endloop
  endfacet
  facet normal 0.322077 -0.669428 -0.669428
    outer loop
      vertex -514 -47.3205 -80
      vertex -532 -38.6602 -97.3205
      vertex -514 -30 -97.3205
    endloop
  endfacet
  facet normal 0.322078 0.669427 -0.669427
    outer loop
      vertex -478 30 -80
      vertex -514 30 -97.3205
      vertex -514 47.3205 -80
    endloop
  endfacet
  facet normal 0.0186986 -0.0388645 0.99907
    outer loop
      vertex -514 -30 -79.134
      vertex -532 -38.6602 -79.134
      vertex -514 -47.1205 -79.8
    endloop
  endfacet
  facet normal 0.322077 0.669428 -0.669428
    outer loop
      vertex -514 30 -97.3205
      vertex -532 38.6602 -97.3205
      vertex -514 47.3205 -80
    endloop
  endfacet
  facet normal -0 0 1
    outer loop
      vertex -521.822 -26.7522 -79.134
      vertex -514 -30 -79.134
      vertex -514 -26.7522 -79.134
    endloop
  endfacet
  facet normal 0 0 1
    outer loop
      vertex -521.822 -30 -79.134
      vertex -514 -30 -79.134
      vertex -521.822 -26.7522 -79.134
    endloop
  endfacet
  facet normal -0 0 1
    outer loop
      vertex -521.822 -30 -79.134
      vertex -532 -38.6602 -79.134
      vertex -514 -30 -79.134
    endloop
  endfacet
  facet normal 0 -0 1
    outer loop
      vertex -532 -38.6602 -79.134
      vertex -521.822 -30 -79.134
      vertex -560.222 -38.6602 -79.134
    endloop
  endfacet
  facet normal 0 0 1
    outer loop
      vertex -514 30 -79.134
      vertex -521.822 30 -79.134
      vertex -514 26.7522 -79.134
    endloop
  endfacet
  facet normal 0 0 1
    outer loop
      vertex -532 38.6602 -79.134
      vertex -521.822 30 -79.134
      vertex -514 30 -79.134
    endloop
  endfacet
  facet normal 0 0 1
    outer loop
      vertex -521.822 30 -79.134
      vertex -532 38.6602 -79.134
      vertex -560.222 38.6602 -79.134
    endloop
  endfacet
  facet normal 0 0 1
    outer loop
      vertex -514 26.7522 -79.134
      vertex -521.822 30 -79.134
      vertex -521.822 26.7522 -79.134
    endloop
  endfacet
  facet normal -0.27735 0 -0.960769
    outer loop
      vertex -670 -25 -80
      vertex -610 -19.3301 -97.3205
      vertex -610 -25 -97.3205
    endloop
  endfacet
  facet normal -0.27735 0 -0.960769
    outer loop
      vertex -610 -19.3301 -97.3205
      vertex -670 -25 -80
      vertex -670 -15 -80
    endloop
  endfacet
  facet normal -0.27735 -0 -0.960769
    outer loop
      vertex -670 25 -80
      vertex -610 19.3301 -97.3205
      vertex -670 15 -80
    endloop
  endfacet
  facet normal -0.27735 0 -0.960769
    outer loop
      vertex -610 19.3301 -97.3205
      vertex -670 25 -80
      vertex -610 25 -97.3205
    endloop
  endfacet
  facet normal -0.200001 -0.692821 -0.69282
    outer loop
      vertex -598.493 -43.9987 -86.6435
      vertex -603.684 -31.8232 -97.3205
      vertex -580 -38.6602 -97.3205
    endloop
  endfacet
  facet normal 0 -0.0775666 0.996987
    outer loop
      vertex -560.222 -38.6602 -79.134
      vertex -514.208 -47.2205 -79.8
      vertex -532 -38.6602 -79.134
    endloop
  endfacet
  facet normal 0 -0.0775666 0.996987
    outer loop
      vertex -514.208 -47.2205 -79.8
      vertex -560.222 -38.6602 -79.134
      vertex -580.302 -47.2205 -79.8
    endloop
  endfacet
  facet normal 0.322078 -0.669427 -0.669427
    outer loop
      vertex -478 -30 -80
      vertex -514 -47.3205 -80
      vertex -514 -30 -97.3205
    endloop
  endfacet
  facet normal 0.0187147 0 0.999825
    outer loop
      vertex -505 -26.0253 -79.3024
      vertex -478.416 -30 -79.8
      vertex -478.416 -19.8613 -79.8
    endloop
  endfacet
  facet normal 0.0186873 4.64334e-05 0.999825
    outer loop
      vertex -514 -30 -79.134
      vertex -505 -26.0253 -79.3024
      vertex -508.727 -26.8894 -79.2327
    endloop
  endfacet
  facet normal 0.0187676 -8.97337e-05 0.999824
    outer loop
      vertex -514 -30 -79.134
      vertex -508.727 -26.8894 -79.2327
      vertex -508.775 -26.9006 -79.2318
    endloop
  endfacet
  facet normal 0.0187144 -0 0.999825
    outer loop
      vertex -514 -30 -79.134
      vertex -508.775 -26.9006 -79.2318
      vertex -514 -26.7522 -79.134
    endloop
  endfacet
  facet normal 0.018713 -1.16951e-05 0.999825
    outer loop
      vertex -505 -26.0253 -79.3024
      vertex -514 -30 -79.134
      vertex -478.416 -30 -79.8
    endloop
  endfacet
  facet normal 0.0187147 0 0.999825
    outer loop
      vertex -478.416 30 -79.8
      vertex -505 26.0253 -79.3024
      vertex -478.416 19.8613 -79.8
    endloop
  endfacet
  facet normal 0.018713 1.16951e-05 0.999825
    outer loop
      vertex -514 30 -79.134
      vertex -505 26.0253 -79.3024
      vertex -478.416 30 -79.8
    endloop
  endfacet
  facet normal 0.0186873 -4.64334e-05 0.999825
    outer loop
      vertex -505 26.0253 -79.3024
      vertex -514 30 -79.134
      vertex -508.727 26.8894 -79.2327
    endloop
  endfacet
  facet normal 0.0187676 8.97337e-05 0.999824
    outer loop
      vertex -508.727 26.8894 -79.2327
      vertex -514 30 -79.134
      vertex -508.775 26.9006 -79.2318
    endloop
  endfacet
  facet normal 0.0187144 0 0.999825
    outer loop
      vertex -508.775 26.9006 -79.2318
      vertex -514 30 -79.134
      vertex -514 26.7522 -79.134
    endloop
  endfacet
  facet normal 0 0 -1
    outer loop
      vertex -610 19.3301 -97.3205
      vertex -595.6 25 -97.3205
      vertex -590 23.6603 -97.3205
    endloop
  endfacet
  facet normal -0 0 -1
    outer loop
      vertex -595.6 25 -97.3205
      vertex -610 19.3301 -97.3205
      vertex -610 25 -97.3205
    endloop
  endfacet
  facet normal 0 0 -1
    outer loop
      vertex -520 23.6603 -97.3205
      vertex -514 30 -97.3205
      vertex -514 21.9282 -97.3205
    endloop
  endfacet
  facet normal 0 0 -1
    outer loop
      vertex -520 23.6603 -97.3205
      vertex -532 38.6602 -97.3205
      vertex -514 30 -97.3205
    endloop
  endfacet
  facet normal 0 0 -1
    outer loop
      vertex -590 23.6603 -97.3205
      vertex -532 38.6602 -97.3205
      vertex -520 23.6603 -97.3205
    endloop
  endfacet
  facet normal -0 0 -1
    outer loop
      vertex -532 38.6602 -97.3205
      vertex -590 23.6603 -97.3205
      vertex -580 38.6602 -97.3205
    endloop
  endfacet
  facet normal 0 0 -1
    outer loop
      vertex -595.6 30 -97.3205
      vertex -590 23.6603 -97.3205
      vertex -595.6 25 -97.3205
    endloop
  endfacet
  facet normal 0 0 -1
    outer loop
      vertex -590 23.6603 -97.3205
      vertex -595.6 30 -97.3205
      vertex -580 38.6602 -97.3205
    endloop
  endfacet
  facet normal 0 0 -1
    outer loop
      vertex -580 38.6602 -97.3205
      vertex -595.6 30 -97.3205
      vertex -603.684 31.8232 -97.3205
    endloop
  endfacet
  facet normal 0 0 -1
    outer loop
      vertex -514 -30 -97.3205
      vertex -520 -23.6603 -97.3205
      vertex -514 -21.9282 -97.3205
    endloop
  endfacet
  facet normal 0 0 -1
    outer loop
      vertex -532 -38.6602 -97.3205
      vertex -520 -23.6603 -97.3205
      vertex -514 -30 -97.3205
    endloop
  endfacet
  facet normal 0 0 -1
    outer loop
      vertex -590 -23.6603 -97.3205
      vertex -532 -38.6602 -97.3205
      vertex -580 -38.6602 -97.3205
    endloop
  endfacet
  facet normal 0 0 -1
    outer loop
      vertex -532 -38.6602 -97.3205
      vertex -590 -23.6603 -97.3205
      vertex -520 -23.6603 -97.3205
    endloop
  endfacet
  facet normal 0 0 -1
    outer loop
      vertex -580 -38.6602 -97.3205
      vertex -595.6 -30 -97.3205
      vertex -590 -23.6603 -97.3205
    endloop
  endfacet
  facet normal 0 -0 -1
    outer loop
      vertex -595.6 -30 -97.3205
      vertex -580 -38.6602 -97.3205
      vertex -603.684 -31.8232 -97.3205
    endloop
  endfacet
  facet normal 0 0 -1
    outer loop
      vertex -595.6 -25 -97.3205
      vertex -590 -23.6603 -97.3205
      vertex -595.6 -30 -97.3205
    endloop
  endfacet
  facet normal 0 0 -1
    outer loop
      vertex -610 -19.3301 -97.3205
      vertex -595.6 -25 -97.3205
      vertex -610 -25 -97.3205
    endloop
  endfacet
  facet normal 0 0 -1
    outer loop
      vertex -595.6 -25 -97.3205
      vertex -610 -19.3301 -97.3205
      vertex -590 -23.6603 -97.3205
    endloop
  endfacet
  facet normal 0.433555 0 -0.901127
    outer loop
      vertex -478 -30 -80
      vertex -505 -21.4952 -92.9904
      vertex -478 -20.1962 -80
    endloop
  endfacet
  facet normal 0.433555 -2.64888e-06 -0.901127
    outer loop
      vertex -514 -30 -97.3205
      vertex -505 -21.4952 -92.9904
      vertex -478 -30 -80
    endloop
  endfacet
  facet normal 0.433553 0 -0.901128
    outer loop
      vertex -505 -21.4952 -92.9904
      vertex -514 -30 -97.3205
      vertex -514 -21.9282 -97.3205
    endloop
  endfacet
  facet normal 0.433555 0 -0.901127
    outer loop
      vertex -505 21.4952 -92.9904
      vertex -478 30 -80
      vertex -478 20.1962 -80
    endloop
  endfacet
  facet normal 0.433553 0 -0.901128
    outer loop
      vertex -514 30 -97.3205
      vertex -505 21.4952 -92.9904
      vertex -514 21.9282 -97.3205
    endloop
  endfacet
  facet normal 0.433555 2.64888e-06 -0.901127
    outer loop
      vertex -505 21.4952 -92.9904
      vertex -514 30 -97.3205
      vertex -478 30 -80
    endloop
  endfacet
  facet normal -0.200001 0.692821 -0.69282
    outer loop
      vertex -580 38.6602 -97.3205
      vertex -603.684 31.8232 -97.3205
      vertex -598.493 43.9987 -86.6435
    endloop
  endfacet
  facet normal 0.321865 0.669479 0.669479
    outer loop
      vertex -514 47.3205 -80
      vertex -514.208 47.2205 -79.8
      vertex -514 47.1205 -79.8
    endloop
  endfacet
  facet normal 0 0.894427 0.447214
    outer loop
      vertex -514.208 47.2205 -79.8
      vertex -576.56 47.2965 -79.952
      vertex -580.302 47.2205 -79.8
    endloop
  endfacet
  facet normal 0 0.894427 0.447214
    outer loop
      vertex -514.208 47.2205 -79.8
      vertex -576.453 47.3125 -79.984
      vertex -576.56 47.2965 -79.952
    endloop
  endfacet
  facet normal -0 0.894427 0.447214
    outer loop
      vertex -576.4 47.3205 -80
      vertex -514.208 47.2205 -79.8
      vertex -514 47.3205 -80
    endloop
  endfacet
  facet normal 0 0.894427 0.447214
    outer loop
      vertex -514.208 47.2205 -79.8
      vertex -576.4 47.3205 -80
      vertex -576.453 47.3125 -79.984
    endloop
  endfacet
  facet normal -1.331e-06 -0.894426 -0.447215
    outer loop
      vertex -580 -38.6602 -97.3205
      vertex -576.4 -47.3205 -80
      vertex -598.493 -43.9987 -86.6435
    endloop
  endfacet
  facet normal -0 -0.894426 -0.447216
    outer loop
      vertex -532 -38.6602 -97.3205
      vertex -576.4 -47.3205 -80
      vertex -580 -38.6602 -97.3205
    endloop
  endfacet
  facet normal 0 -0.894426 -0.447216
    outer loop
      vertex -576.4 -47.3205 -80
      vertex -532 -38.6602 -97.3205
      vertex -514 -47.3205 -80
    endloop
  endfacet
  facet normal 0.322078 -0.669427 0.669427
    outer loop
      vertex -514 -47.1205 -79.8
      vertex -514 -47.3205 -80
      vertex -478 -30 -80
    endloop
  endfacet
  facet normal -0.01125 0 0.999937
    outer loop
      vertex -667.636 15 -79.7812
      vertex -669.307 25 -79.8
      vertex -667.636 -15 -79.7812
    endloop
  endfacet
  facet normal -0.0112298 3.38239e-06 0.999937
    outer loop
      vertex -669.307 25 -79.8
      vertex -667.636 15 -79.7812
      vertex -612.818 25 -79.1656
    endloop
  endfacet
  facet normal -0.0112298 -3.38239e-06 0.999937
    outer loop
      vertex -667.636 -15 -79.7812
      vertex -669.307 -25 -79.8
      vertex -612.818 -25 -79.1656
    endloop
  endfacet
  facet normal -0.01125 0 0.999937
    outer loop
      vertex -669.307 -25 -79.8
      vertex -667.636 -15 -79.7812
      vertex -669.307 25 -79.8
    endloop
  endfacet
  facet normal 0.0186989 -0.0388645 0.99907
    outer loop
      vertex -514 -30 -79.134
      vertex -514 -47.1205 -79.8
      vertex -478.416 -30 -79.8
    endloop
  endfacet
  facet normal 0.321973 -0.669202 0.669703
    outer loop
      vertex -478.416 -30 -79.8
      vertex -514 -47.1205 -79.8
      vertex -478 -30 -80
    endloop
  endfacet
  facet normal 0.322078 0.669427 0.669427
    outer loop
      vertex -514 47.3205 -80
      vertex -514 47.1205 -79.8
      vertex -478 30 -80
    endloop
  endfacet
  facet normal -0.277412 0 0.960751
    outer loop
      vertex -669.307 25 -79.8
      vertex -669.769 15 -79.9334
      vertex -669.307 -25 -79.8
    endloop
  endfacet
  facet normal -0.275871 -7.70806e-05 0.961195
    outer loop
      vertex -669.307 25 -79.8
      vertex -669.792 15.015 -79.94
      vertex -669.769 15 -79.9334
    endloop
  endfacet
  facet normal -0.277284 -2.777e-06 0.960788
    outer loop
      vertex -670 25 -80
      vertex -669.792 15.015 -79.94
      vertex -669.307 25 -79.8
    endloop
  endfacet
  facet normal -0.277161 0 0.960824
    outer loop
      vertex -669.792 15.015 -79.94
      vertex -670 25 -80
      vertex -670 15 -80
    endloop
  endfacet
  facet normal -0.277412 0 0.960751
    outer loop
      vertex -669.769 -15 -79.9334
      vertex -669.307 -25 -79.8
      vertex -669.769 15 -79.9334
    endloop
  endfacet
  facet normal -0.275871 7.70806e-05 0.961195
    outer loop
      vertex -669.792 -15.015 -79.94
      vertex -669.307 -25 -79.8
      vertex -669.769 -15 -79.9334
    endloop
  endfacet
  facet normal -0.277161 0 0.960824
    outer loop
      vertex -670 -25 -80
      vertex -669.792 -15.015 -79.94
      vertex -670 -15 -80
    endloop
  endfacet
  facet normal -0.277284 2.777e-06 0.960788
    outer loop
      vertex -669.792 -15.015 -79.94
      vertex -670 -25 -80
      vertex -669.307 -25 -79.8
    endloop
  endfacet
  facet normal 0 0.0775666 0.996987
    outer loop
      vertex -514.208 47.2205 -79.8
      vertex -560.222 38.6602 -79.134
      vertex -532 38.6602 -79.134
    endloop
  endfacet
  facet normal 0 0.0775666 0.996987
    outer loop
      vertex -560.222 38.6602 -79.134
      vertex -514.208 47.2205 -79.8
      vertex -580.302 47.2205 -79.8
    endloop
  endfacet
  facet normal 0.0186986 0.0388645 0.99907
    outer loop
      vertex -514 47.1205 -79.8
      vertex -532 38.6602 -79.134
      vertex -514 30 -79.134
    endloop
  endfacet
  facet normal 0.0186918 0.0388789 0.999069
    outer loop
      vertex -514.208 47.2205 -79.8
      vertex -532 38.6602 -79.134
      vertex -514 47.1205 -79.8
    endloop
  endfacet
  facet normal 0.321865 -0.669479 0.669479
    outer loop
      vertex -514 -47.1205 -79.8
      vertex -514.208 -47.2205 -79.8
      vertex -514 -47.3205 -80
    endloop
  endfacet
  facet normal 0.0186918 -0.0388789 0.999069
    outer loop
      vertex -514 -47.1205 -79.8
      vertex -532 -38.6602 -79.134
      vertex -514.208 -47.2205 -79.8
    endloop
  endfacet
  facet normal 0.321973 0.669202 0.669703
    outer loop
      vertex -478 30 -80
      vertex -514 47.1205 -79.8
      vertex -478.416 30 -79.8
    endloop
  endfacet
  facet normal 0.0186989 0.0388645 0.99907
    outer loop
      vertex -514 47.1205 -79.8
      vertex -514 30 -79.134
      vertex -478.416 30 -79.8
    endloop
  endfacet
  facet normal 0.434195 0 0.900819
    outer loop
      vertex -478.05 -20.1986 -79.9759
      vertex -478 -30 -80
      vertex -478 -20.1962 -80
    endloop
  endfacet
  facet normal 0.431754 -1.5334e-05 0.901991
    outer loop
      vertex -478.125 -20.2022 -79.94
      vertex -478 -30 -80
      vertex -478.05 -20.1986 -79.9759
    endloop
  endfacet
  facet normal 0.433536 -0 0.901136
    outer loop
      vertex -478.416 -30 -79.8
      vertex -478.125 -20.2022 -79.94
      vertex -478.416 -19.8613 -79.8
    endloop
  endfacet
  facet normal 0.433294 8.84473e-06 0.901252
    outer loop
      vertex -478.125 -20.2022 -79.94
      vertex -478.416 -30 -79.8
      vertex -478 -30 -80
    endloop
  endfacet
  facet normal 0.434195 0 0.900819
    outer loop
      vertex -478 30 -80
      vertex -478.05 20.1986 -79.9759
      vertex -478 20.1962 -80
    endloop
  endfacet
  facet normal 0.431754 1.5334e-05 0.901991
    outer loop
      vertex -478 30 -80
      vertex -478.125 20.2022 -79.94
      vertex -478.05 20.1986 -79.9759
    endloop
  endfacet
  facet normal 0.433294 -8.84473e-06 0.901252
    outer loop
      vertex -478.416 30 -79.8
      vertex -478.125 20.2022 -79.94
      vertex -478 30 -80
    endloop
  endfacet
  facet normal 0.433536 0 0.901136
    outer loop
      vertex -478.125 20.2022 -79.94
      vertex -478.416 30 -79.8
      vertex -478.416 19.8613 -79.8
    endloop
  endfacet
  facet normal 0 -0.894427 0.447214
    outer loop
      vertex -576.56 -47.2965 -79.952
      vertex -514.208 -47.2205 -79.8
      vertex -580.302 -47.2205 -79.8
    endloop
  endfacet
  facet normal 0 -0.894427 0.447214
    outer loop
      vertex -576.453 -47.3125 -79.984
      vertex -514.208 -47.2205 -79.8
      vertex -576.56 -47.2965 -79.952
    endloop
  endfacet
  facet normal 0 -0.894427 0.447214
    outer loop
      vertex -576.4 -47.3205 -80
      vertex -514.208 -47.2205 -79.8
      vertex -576.453 -47.3125 -79.984
    endloop
  endfacet
  facet normal 0 -0.894427 0.447214
    outer loop
      vertex -514.208 -47.2205 -79.8
      vertex -576.4 -47.3205 -80
      vertex -514 -47.3205 -80
    endloop
  endfacet
  facet normal -0.0675901 0.312208 0.947606
    outer loop
      vertex -612.818 25 -79.1656
      vertex -610 15 -75.6699
      vertex -610 25 -78.9646
    endloop
  endfacet
  facet normal -0.0675948 0.312207 0.947606
    outer loop
      vertex -610 15 -75.6699
      vertex -612.818 25 -79.1656
      vertex -667.636 15 -79.7812
    endloop
  endfacet
  facet normal -0.067968 0.312653 0.947433
    outer loop
      vertex -669.792 15.015 -79.94
      vertex -669.861 15 -79.94
      vertex -669.769 15 -79.9334
    endloop
  endfacet
  facet normal 0.0899706 0.311668 0.945922
    outer loop
      vertex -478.416 19.8613 -79.8
      vertex -460.104 15 -79.94
      vertex -478.125 20.2022 -79.94
    endloop
  endfacet
  facet normal 0.0899687 0.311654 0.945927
    outer loop
      vertex -505 15 -75.6699
      vertex -478.416 19.8613 -79.8
      vertex -505 26.0253 -79.3024
    endloop
  endfacet
  facet normal 0.0899679 0.311658 0.945926
    outer loop
      vertex -478.416 19.8613 -79.8
      vertex -505 15 -75.6699
      vertex -460.104 15 -79.94
    endloop
  endfacet
  facet normal -0.190114 -0.878121 -0.439045
    outer loop
      vertex -610 -19.3301 -97.3205
      vertex -670 -15 -80
      vertex -610 -15 -105.981
    endloop
  endfacet
  facet normal 0 -0.970143 -0.242533
    outer loop
      vertex -580 -21.4952 -105.981
      vertex -520 -23.6603 -97.3205
      vertex -590 -23.6603 -97.3205
    endloop
  endfacet
  facet normal 0 -0.970143 -0.242533
    outer loop
      vertex -520 -23.6603 -97.3205
      vertex -580 -21.4952 -105.981
      vertex -527.5 -21.4952 -105.981
    endloop
  endfacet
  facet normal -0.190122 -0.878119 -0.439044
    outer loop
      vertex -610 -15 -105.981
      vertex -590 -23.6603 -97.3205
      vertex -610 -19.3301 -97.3205
    endloop
  endfacet
  facet normal -0.190118 -0.878117 -0.43905
    outer loop
      vertex -590 -23.6603 -97.3205
      vertex -610 -15 -105.981
      vertex -580 -21.4952 -105.981
    endloop
  endfacet
  facet normal 0 0 -1
    outer loop
      vertex -527.5 -21.4952 -105.981
      vertex -505 15 -105.981
      vertex -505 -15 -105.981
    endloop
  endfacet
  facet normal 0 0 -1
    outer loop
      vertex -527.5 -21.4952 -105.981
      vertex -527.5 21.4952 -105.981
      vertex -505 15 -105.981
    endloop
  endfacet
  facet normal 0 0 -1
    outer loop
      vertex -580 -21.4952 -105.981
      vertex -527.5 21.4952 -105.981
      vertex -527.5 -21.4952 -105.981
    endloop
  endfacet
  facet normal 0 0 -1
    outer loop
      vertex -580 -21.4952 -105.981
      vertex -580 21.4952 -105.981
      vertex -527.5 21.4952 -105.981
    endloop
  endfacet
  facet normal 0 0 -1
    outer loop
      vertex -610 -15 -105.981
      vertex -580 21.4952 -105.981
      vertex -580 -21.4952 -105.981
    endloop
  endfacet
  facet normal 0 0 -1
    outer loop
      vertex -580 21.4952 -105.981
      vertex -610 -15 -105.981
      vertex -610 15 -105.981
    endloop
  endfacet
  facet normal -0.0669056 -0.314858 0.946778
    outer loop
      vertex -580 -21.4952 -75.6699
      vertex -596.263 -25 -77.9847
      vertex -596.188 -25 -77.9794
    endloop
  endfacet
  facet normal 0.0899469 0.311655 0.945929
    outer loop
      vertex -508.727 26.8894 -79.2327
      vertex -505 15 -75.6699
      vertex -505 26.0253 -79.3024
    endloop
  endfacet
  facet normal 0.0899687 0.31166 0.945925
    outer loop
      vertex -505 15 -75.6699
      vertex -508.727 26.8894 -79.2327
      vertex -527.5 21.4952 -75.6699
    endloop
  endfacet
  facet normal 0 0.970143 -0.242533
    outer loop
      vertex -580 21.4952 -105.981
      vertex -520 23.6603 -97.3205
      vertex -527.5 21.4952 -105.981
    endloop
  endfacet
  facet normal 0 0.970143 -0.242533
    outer loop
      vertex -520 23.6603 -97.3205
      vertex -580 21.4952 -105.981
      vertex -590 23.6603 -97.3205
    endloop
  endfacet
  facet normal 0.500003 0 -0.866023
    outer loop
      vertex -505 -15 -105.981
      vertex -460 15 -80
      vertex -460 -15 -80
    endloop
  endfacet
  facet normal 0.500003 0 -0.866023
    outer loop
      vertex -460 15 -80
      vertex -505 -15 -105.981
      vertex -505 15 -105.981
    endloop
  endfacet
  facet normal -0.190118 0.878117 -0.43905
    outer loop
      vertex -610 15 -105.981
      vertex -590 23.6603 -97.3205
      vertex -580 21.4952 -105.981
    endloop
  endfacet
  facet normal -0.190122 0.878119 -0.439044
    outer loop
      vertex -590 23.6603 -97.3205
      vertex -610 15 -105.981
      vertex -610 19.3301 -97.3205
    endloop
  endfacet
  facet normal 0.249995 0.866029 -0.433008
    outer loop
      vertex -505 15 -105.981
      vertex -514 21.9282 -97.3205
      vertex -505 21.4952 -92.9904
    endloop
  endfacet
  facet normal 0.250002 0.86603 -0.433002
    outer loop
      vertex -527.5 21.4952 -105.981
      vertex -514 21.9282 -97.3205
      vertex -505 15 -105.981
    endloop
  endfacet
  facet normal 0.250007 0.866025 -0.43301
    outer loop
      vertex -514 21.9282 -97.3205
      vertex -527.5 21.4952 -105.981
      vertex -520 23.6603 -97.3205
    endloop
  endfacet
  facet normal -0.190599 -0.876756 0.441555
    outer loop
      vertex -669.861 -15 -79.94
      vertex -670 -15 -80
      vertex -669.792 -15.015 -79.94
    endloop
  endfacet
  facet normal 0 0 1
    outer loop
      vertex -527.5 21.4952 -75.6699
      vertex -505 -15 -75.6699
      vertex -505 15 -75.6699
    endloop
  endfacet
  facet normal 0 0 1
    outer loop
      vertex -527.5 21.4952 -75.6699
      vertex -527.5 -21.4952 -75.6699
      vertex -505 -15 -75.6699
    endloop
  endfacet
  facet normal -0 0 1
    outer loop
      vertex -580 21.4952 -75.6699
      vertex -527.5 -21.4952 -75.6699
      vertex -527.5 21.4952 -75.6699
    endloop
  endfacet
  facet normal 0 0 1
    outer loop
      vertex -580 21.4952 -75.6699
      vertex -580 -21.4952 -75.6699
      vertex -527.5 -21.4952 -75.6699
    endloop
  endfacet
  facet normal -0 0 1
    outer loop
      vertex -610 15 -75.6699
      vertex -580 -21.4952 -75.6699
      vertex -580 21.4952 -75.6699
    endloop
  endfacet
  facet normal 0 0 1
    outer loop
      vertex -580 -21.4952 -75.6699
      vertex -610 15 -75.6699
      vertex -610 -15 -75.6699
    endloop
  endfacet
  facet normal 0.249736 -0.865115 0.434981
    outer loop
      vertex -478.05 -20.1986 -79.9759
      vertex -460.104 -15 -79.94
      vertex -478.125 -20.2022 -79.94
    endloop
  endfacet
  facet normal 0.249968 -0.865902 0.433278
    outer loop
      vertex -460.104 -15 -79.94
      vertex -478.05 -20.1986 -79.9759
      vertex -460 -15 -80
    endloop
  endfacet
  facet normal -0.397363 0 -0.917662
    outer loop
      vertex -670 -15 -80
      vertex -610 15 -105.981
      vertex -610 -15 -105.981
    endloop
  endfacet
  facet normal -0.397363 0 -0.917662
    outer loop
      vertex -610 15 -105.981
      vertex -670 -15 -80
      vertex -670 15 -80
    endloop
  endfacet
  facet normal 0.250007 -0.866025 -0.43301
    outer loop
      vertex -520 -23.6603 -97.3205
      vertex -527.5 -21.4952 -105.981
      vertex -514 -21.9282 -97.3205
    endloop
  endfacet
  facet normal 0.250002 -0.86603 -0.433002
    outer loop
      vertex -505 -15 -105.981
      vertex -514 -21.9282 -97.3205
      vertex -527.5 -21.4952 -105.981
    endloop
  endfacet
  facet normal 0.249995 -0.866029 -0.433008
    outer loop
      vertex -514 -21.9282 -97.3205
      vertex -505 -15 -105.981
      vertex -505 -21.4952 -92.9904
    endloop
  endfacet
  facet normal 0.0946836 0 0.995507
    outer loop
      vertex -505 15 -75.6699
      vertex -460.104 -15 -79.94
      vertex -460.104 15 -79.94
    endloop
  endfacet
  facet normal 0.0946836 0 0.995507
    outer loop
      vertex -460.104 -15 -79.94
      vertex -505 15 -75.6699
      vertex -505 -15 -75.6699
    endloop
  endfacet
  facet normal 0.250002 0.866025 -0.433012
    outer loop
      vertex -505 15 -105.981
      vertex -478 20.1962 -80
      vertex -460 15 -80
    endloop
  endfacet
  facet normal 0.249997 0.866029 -0.433008
    outer loop
      vertex -478 20.1962 -80
      vertex -505 15 -105.981
      vertex -505 21.4952 -92.9904
    endloop
  endfacet
  facet normal 0.0902622 -0.310806 0.946178
    outer loop
      vertex -508.727 -26.8894 -79.2327
      vertex -527.5 -21.4952 -75.6699
      vertex -508.775 -26.9006 -79.2318
    endloop
  endfacet
  facet normal 0.249997 -0.866029 -0.433008
    outer loop
      vertex -505 -15 -105.981
      vertex -478 -20.1962 -80
      vertex -505 -21.4952 -92.9904
    endloop
  endfacet
  facet normal 0.250002 -0.866025 -0.433012
    outer loop
      vertex -478 -20.1962 -80
      vertex -505 -15 -105.981
      vertex -460 -15 -80
    endloop
  endfacet
  facet normal -0.0675901 -0.312208 0.947606
    outer loop
      vertex -610 -15 -75.6699
      vertex -612.818 -25 -79.1656
      vertex -610 -25 -78.9646
    endloop
  endfacet
  facet normal -0.0675948 -0.312207 0.947606
    outer loop
      vertex -612.818 -25 -79.1656
      vertex -610 -15 -75.6699
      vertex -667.636 -15 -79.7812
    endloop
  endfacet
  facet normal -0.067968 -0.312653 0.947433
    outer loop
      vertex -669.769 -15 -79.9334
      vertex -669.861 -15 -79.94
      vertex -669.792 -15.015 -79.94
    endloop
  endfacet
  facet normal -0.396309 0 0.918117
    outer loop
      vertex -670 15 -80
      vertex -669.861 -15 -79.94
      vertex -669.861 15 -79.94
    endloop
  endfacet
  facet normal -0.396309 0 0.918117
    outer loop
      vertex -669.861 -15 -79.94
      vertex -670 15 -80
      vertex -670 -15 -80
    endloop
  endfacet
  facet normal -0.190114 0.878121 -0.439045
    outer loop
      vertex -610 15 -105.981
      vertex -670 15 -80
      vertex -610 19.3301 -97.3205
    endloop
  endfacet
  facet normal 0.0899706 -0.311668 0.945922
    outer loop
      vertex -460.104 -15 -79.94
      vertex -478.416 -19.8613 -79.8
      vertex -478.125 -20.2022 -79.94
    endloop
  endfacet
  facet normal 0.0899679 -0.311658 0.945926
    outer loop
      vertex -505 -15 -75.6699
      vertex -478.416 -19.8613 -79.8
      vertex -460.104 -15 -79.94
    endloop
  endfacet
  facet normal 0.0899687 -0.311654 0.945927
    outer loop
      vertex -478.416 -19.8613 -79.8
      vertex -505 -15 -75.6699
      vertex -505 -26.0253 -79.3024
    endloop
  endfacet
  facet normal 0.0899469 -0.311655 0.945929
    outer loop
      vertex -505 -15 -75.6699
      vertex -508.727 -26.8894 -79.2327
      vertex -505 -26.0253 -79.3024
    endloop
  endfacet
  facet normal 0.0899687 -0.31166 0.945925
    outer loop
      vertex -508.727 -26.8894 -79.2327
      vertex -505 -15 -75.6699
      vertex -527.5 -21.4952 -75.6699
    endloop
  endfacet
  facet normal 0.0902622 0.310806 0.946178
    outer loop
      vertex -508.775 26.9006 -79.2318
      vertex -527.5 21.4952 -75.6699
      vertex -508.727 26.8894 -79.2327
    endloop
  endfacet
  facet normal -0.0675949 -0.312207 0.947606
    outer loop
      vertex -610 -15 -75.6699
      vertex -596.263 -25 -77.9847
      vertex -580 -21.4952 -75.6699
    endloop
  endfacet
  facet normal -0.0675955 -0.312208 0.947606
    outer loop
      vertex -596.263 -25 -77.9847
      vertex -610 -15 -75.6699
      vertex -610 -25 -78.9646
    endloop
  endfacet
  facet normal 0.250065 -0.866242 0.432542
    outer loop
      vertex -460 -15 -80
      vertex -478.05 -20.1986 -79.9759
      vertex -478 -20.1962 -80
    endloop
  endfacet
  facet normal -0.0669056 0.314858 0.946778
    outer loop
      vertex -596.188 25 -77.9794
      vertex -596.263 25 -77.9847
      vertex -580 21.4952 -75.6699
    endloop
  endfacet
  facet normal 0.499722 0 0.866186
    outer loop
      vertex -460.104 15 -79.94
      vertex -460 -15 -80
      vertex -460 15 -80
    endloop
  endfacet
  facet normal 0.499722 0 0.866186
    outer loop
      vertex -460 -15 -80
      vertex -460.104 15 -79.94
      vertex -460.104 -15 -79.94
    endloop
  endfacet
  facet normal 2.03831e-06 -0.550228 0.835015
    outer loop
      vertex -527.5 -21.4952 -75.6699
      vertex -514 -26.7522 -79.134
      vertex -508.775 -26.9006 -79.2318
    endloop
  endfacet
  facet normal 0 -0.550231 0.835012
    outer loop
      vertex -527.5 -21.4952 -75.6699
      vertex -521.822 -26.7522 -79.134
      vertex -514 -26.7522 -79.134
    endloop
  endfacet
  facet normal -3.48382e-07 -0.550232 0.835012
    outer loop
      vertex -527.5 -21.4952 -75.6699
      vertex -552.812 -25 -77.9794
      vertex -521.822 -26.7522 -79.134
    endloop
  endfacet
  facet normal 0 -0.550233 0.835011
    outer loop
      vertex -580 -21.4952 -75.6699
      vertex -552.812 -25 -77.9794
      vertex -527.5 -21.4952 -75.6699
    endloop
  endfacet
  facet normal 0 -0.550233 0.835011
    outer loop
      vertex -552.812 -25 -77.9794
      vertex -580 -21.4952 -75.6699
      vertex -596.188 -25 -77.9794
    endloop
  endfacet
  facet normal -0.0711514 0 0.997466
    outer loop
      vertex -667.636 15 -79.7812
      vertex -610 -15 -75.6699
      vertex -610 15 -75.6699
    endloop
  endfacet
  facet normal -0.0711514 0 0.997466
    outer loop
      vertex -610 -15 -75.6699
      vertex -667.636 15 -79.7812
      vertex -667.636 -15 -79.7812
    endloop
  endfacet
  facet normal -0.0715552 0 0.997437
    outer loop
      vertex -669.861 15 -79.94
      vertex -669.769 -15 -79.9334
      vertex -669.769 15 -79.9334
    endloop
  endfacet
  facet normal -0.0715552 0 0.997437
    outer loop
      vertex -669.769 -15 -79.9334
      vertex -669.861 15 -79.94
      vertex -669.861 -15 -79.94
    endloop
  endfacet
  facet normal 0.249736 0.865115 0.434981
    outer loop
      vertex -460.104 15 -79.94
      vertex -478.05 20.1986 -79.9759
      vertex -478.125 20.2022 -79.94
    endloop
  endfacet
  facet normal 0.249968 0.865902 0.433278
    outer loop
      vertex -478.05 20.1986 -79.9759
      vertex -460.104 15 -79.94
      vertex -460 15 -80
    endloop
  endfacet
  facet normal 0.250065 0.866242 0.432542
    outer loop
      vertex -478 20.1962 -80
      vertex -478.05 20.1986 -79.9759
      vertex -460 15 -80
    endloop
  endfacet
  facet normal -0.0675955 0.312208 0.947606
    outer loop
      vertex -610 15 -75.6699
      vertex -596.263 25 -77.9847
      vertex -610 25 -78.9646
    endloop
  endfacet
  facet normal -0.0675949 0.312207 0.947606
    outer loop
      vertex -596.263 25 -77.9847
      vertex -610 15 -75.6699
      vertex -580 21.4952 -75.6699
    endloop
  endfacet
  facet normal 2.03831e-06 0.550228 0.835015
    outer loop
      vertex -514 26.7522 -79.134
      vertex -527.5 21.4952 -75.6699
      vertex -508.775 26.9006 -79.2318
    endloop
  endfacet
  facet normal -0 0.550231 0.835012
    outer loop
      vertex -521.822 26.7522 -79.134
      vertex -527.5 21.4952 -75.6699
      vertex -514 26.7522 -79.134
    endloop
  endfacet
  facet normal -3.48382e-07 0.550232 0.835012
    outer loop
      vertex -552.812 25 -77.9794
      vertex -527.5 21.4952 -75.6699
      vertex -521.822 26.7522 -79.134
    endloop
  endfacet
  facet normal 0 0.550233 0.835011
    outer loop
      vertex -552.812 25 -77.9794
      vertex -580 21.4952 -75.6699
      vertex -527.5 21.4952 -75.6699
    endloop
  endfacet
  facet normal 0 0.550233 0.835011
    outer loop
      vertex -580 21.4952 -75.6699
      vertex -552.812 25 -77.9794
      vertex -596.188 25 -77.9794
    endloop
  endfacet
  facet normal -0.190599 0.876756 0.441555
    outer loop
      vertex -669.792 15.015 -79.94
      vertex -670 15 -80
      vertex -669.861 15 -79.94
    endloop
  endfacet
endsolid OpenSCAD_Model
