<?xml version="1.0" standalone="no"?>
<!DOCTYPE svg PUBLIC "-//W3C//DTD SVG 1.1//EN" "http://www.w3.org/Graphics/SVG/1.1/DTD/svg11.dtd">
<svg width="69" height="18" viewBox="-49 -8 69 18" xmlns="http://www.w3.org/2000/svg" version="1.1">
<title>OpenSCAD Model</title>
<path d="
M -48.7207,4.66165 L -46.0655,7.3169 L -44.7892,7.452 L -41.25,7.82661 L -38.3981,8.07359 L -35,8.36788
 L -32.0588,8.56599 L -28.75,8.78886 L -25.7443,8.93347 L -22.5,9.08956 L -19.4424,9.17783 L -16.25,9.26999
 L -13.1469,9.29985 L -10,9.33013 L -10,9.33013 L -7.83494,7.16506 L -7.83494,4.97368 L -9.67524,4.97368
 L -9.67524,4.67524 L -10,4.35048 L -10,4.35048 L -13.3252,4.35502 L -16.6042,4.3595 L -19.9775,4.37333
 L -23.2083,4.38657 L -26.6364,4.40998 L -29.8125,4.43167 L -33.3088,4.4651 L -36.4167,4.49482 L -40.0073,4.53896
 L -43.0208,4.57601 L -46.7605,4.6322 z
M -31.3956,-1.75757 L -30.0279,2 L -19.5,2 L -19,2.5 L -19,2.5 L -10,2.5
 L -10,3 L 10,3 L 10,2.5 L 19,2.5 L 19,2.5 L 20,1.5
 L 20,-0 L 20,-1.5 L 19,-2.5 L 19,-2.5 L 18.5185,-2.5 L 18.5185,-2.98017
 L 14.694,-4.90285 L 14.694,-4.90285 L 12.3692,-5.4641 L -11.1448,-5.4641 L -11.3875,-5.87085 L -11.3875,-5.87085
 L -12.0627,-6.41419 L -13.0429,-6.90318 L -13.0429,-6.90318 L -13.0429,-6.90318 L -14.2905,-7.31903 L -15.7574,-7.64576
 L -15.7574,-7.64576 L -17.3874,-7.87082 L -17.3874,-7.87082 L -19.1178,-7.98555 L -19.1178,-7.98555 L -20.8822,-7.98555
 L -20.8822,-7.98555 L -22.6126,-7.87082 L -22.6126,-7.87082 L -24.2426,-7.64576 L -24.2426,-7.64576 L -25.7095,-7.31903
 L -26.9571,-6.90318 L -26.9571,-6.90318 L -27.9373,-6.41419 L -28.6125,-5.87085 L -28.6125,-5.87085 L -28.8552,-5.4641
 L -30.0465,-5.4641 z
" stroke="black" fill="lightgray" stroke-width="0.5"/></svg>
