<?xml version="1.0" standalone="no"?>
<!DOCTYPE svg PUBLIC "-//W3C//DTD SVG 1.1//EN" "http://www.w3.org/Graphics/SVG/1.1/DTD/svg11.dtd">
<svg width="46" height="12" viewBox="-12 -7 46 12" xmlns="http://www.w3.org/2000/svg" version="1.1">
<title>OpenSCAD Model</title>
<path d="
M 33.2693,-4.99723 L 33.178,-5.01281 L 31.5,-5.29904 L 30.3072,-5.4712 L 28.75,-5.69597 L 27.4951,-5.84416
 L 26,-6.02072 L 24.7059,-6.13959 L 23.25,-6.27332 L 21.9275,-6.36008 L 20.5,-6.45374 L 19.1547,-6.5067
 L 17.75,-6.56199 L 16.3846,-6.57991 L 15,-6.59808 L 15,-6.59808 L 13.701,-5.29904 L 13.701,-3.98421
 L 32.2563,-3.98421 z
M 21.4398,-2.01842 L 12.2846,-2.01842 L 11.9059,-2.35698 L 11.9059,-2.35698 L 10.4356,-3.17196 L 10.4356,-3.17196
 L 8.5643,-3.86505 L 6.36385,-4.4096 L 6.36385,-4.4096 L 3.91884,-4.7847 L 3.91884,-4.7847 L 1.32323,-4.97592
 L 1.32323,-4.97592 L -1.32323,-4.97592 L -1.32323,-4.97592 L -3.91884,-4.7847 L -3.91884,-4.7847 L -6.36385,-4.4096
 L -6.36385,-4.4096 L -8.5643,-3.86505 L -10.4356,-3.17196 L -10.4356,-3.17196 L -10.6261,-3.06641 L -11.4512,0.0131559
 L -2.96844,0.0131559 L -2.96175,0.0319891 L -2.25925,0.981746 L -2.19776,0.833315 L -2.19776,0.833315 L -1.86668,0.502236
 L -1.86668,0.502236 L -1.86668,0.502236 L -1.43411,0.323057 L -0.965891,0.323057 L -0.533316,0.502236 L -0.202236,0.833315
 L -0.202236,0.833315 L -0.023057,1.26589 L -0.023057,1.26589 L -0.023057,1.73411 L -0.023057,1.73411 L -0.202236,2.16668
 L -0.202236,2.16668 L -0.533316,2.49776 L -0.549125,2.50431 L 1.07009,3.41107 L 2.64401,4 L 11,4
 L 11,4 L 11.5727,3.07055 L 12.1454,2.14111 L 15.3194,0.708064 L 19.7946,0.0291643 L 20.9233,0.0839817
 L 20.9617,0.0319891 L 20.9731,2.56847e-15 L 21.4398,-1.31388 z
" stroke="black" fill="lightgray" stroke-width="0.5"/></svg>
